<?xml version="1.0" encoding="utf-8"?>
<!-- Generator: Adobe Illustrator 20.0.0, SVG Export Plug-In . SVG Version: 6.00 Build 0)  -->
<svg version="1.1" baseProfile="basic" id="Layer_1"
	 xmlns="http://www.w3.org/2000/svg" xmlns:xlink="http://www.w3.org/1999/xlink" x="0px" y="0px" viewBox="0 0 1224 792"
	 xml:space="preserve">
<g>
	<path d="M582.5,342.2c1.8,0,3.7,0,5.5,0c0.2,0.1,0.4,0.2,0.7,0.2c10.7,1.7,18,7.5,21.9,17.6c0.8,2.2,1.1,4.6,1.7,6.9
		c0,1.6,0,3.2,0,4.8c-0.1,0.2-0.2,0.4-0.2,0.7c-1.2,10.6-8.8,19.7-19,22.6c-1.8,0.5-3.6,0.8-5.5,1.2c-1.6,0-3.2,0-4.8,0
		c-0.3-0.1-0.5-0.2-0.8-0.2c-11-1.7-18.4-7.7-22.2-18.1c-0.7-1.9-1-3.9-1.4-5.9c0-1.8,0-3.7,0-5.5c0.1-0.2,0.2-0.4,0.2-0.5
		c1.6-11.6,9.6-20.4,20.9-23.1C580.4,342.6,581.4,342.4,582.5,342.2z M584.3,391.3c11.8,0.6,22.6-8.7,23-21.3
		c0.4-11.4-8.2-22.1-20.9-22.9c-11.5-0.7-22.6,7.9-23.3,21C562.5,380.4,572,390.8,584.3,391.3z"/>
	<path d="M585.3,351.8c9.6,0,17.4,7.9,17.3,17.4c0,9.6-7.9,17.4-17.5,17.4c-9.6-0.1-17.3-7.9-17.3-17.5
		C567.9,359.5,575.7,351.8,585.3,351.8z M585.2,356.9c-6.8,0-12.3,5.5-12.3,12.4c0,6.8,5.6,12.3,12.4,12.3c6.8,0,12.3-5.6,12.3-12.4
		C597.6,362.4,592,356.9,585.2,356.9z"/>
	<path d="M591.7,378.2c-2.3-1.7-4.3-3.1-6.4-4.6c-2.1,1.5-4.1,3-6.4,4.6c0.7-2.2,1.2-4.1,2-5.9c0.5-1.2,0.3-1.9-0.8-2.6
		c-1.6-1-3.2-2.3-4.7-3.7c1.2,0,2.5,0,3.7,0c1.3,0,2.8,0.3,3.7-0.3c0.8-0.6,0.9-2.2,1.3-3.4c0.4-1.2,0.8-2.4,1.3-3.9
		c0.8,2.3,1.5,4.4,2.1,6.5c0.3,0.9,0.7,1.2,1.6,1.1c2.1-0.1,4.2,0,6.4,0.2c-1.8,1.3-3.5,2.6-5.3,3.8c-0.6,0.4-0.8,0.8-0.5,1.6
		C590.2,373.7,590.9,375.8,591.7,378.2z"/>
</g>
</svg>
