<?xml version="1.0" encoding="utf-8"?>
<!-- Generator: Adobe Illustrator 20.0.0, SVG Export Plug-In . SVG Version: 6.00 Build 0)  -->
<svg version="1.1" baseProfile="basic" id="Layer_1"
	 xmlns="http://www.w3.org/2000/svg" xmlns:xlink="http://www.w3.org/1999/xlink" x="0px" y="0px" viewBox="0 0 1224 792"
	 xml:space="preserve">
<g>
	<path d="M568.2,219.8c83.7-5.1,168.7,69.2,172.3,165.7c3.5,94.3-76,177.7-170.3,179c-91.8,1.2-172.5-77-174.8-167.5
		C392.6,296.2,480.4,213.7,568.2,219.8z M589.7,248.4c0,95,0,189.7,0,284.6c0.9,0,1.5,0.2,2.2,0.1c1.2-0.1,2.3-0.3,3.4-0.5
		c25.5-5.2,46.7-18.1,64.9-36.1c66.3-65.6,56.7-174.7-19.8-227.9C625.3,258,608.7,250.4,589.7,248.4z M536.8,249.3
		c-1.2,0.1-2,0.1-2.7,0.3c-28.1,5.7-50.7,20.7-69.4,41.7c-32,35.8-44,78.2-35.7,125.1c9.3,52.6,39.5,89.9,88.9,111.1
		c5.8,2.5,12.2,3.6,18.9,5.4C536.8,437.6,536.8,343.5,536.8,249.3z"/>
	<path d="M600.4,433.8c26.6-17.7,52.6-35.2,79.4-53.1c-0.2,2.6,0.1,4.3-0.5,5.7c-6.3,15.7-12.4,31.5-19.1,47
		c-4.2,9.5-12.5,13.5-22.6,13.4c-6.1-0.1-12.3-0.4-18.4-1.2C611.6,444.5,606,439.7,600.4,433.8z"/>
	<path d="M526.2,429.1c-2.9,2.5-4.9,5-7.6,6.6c-13.1,7.7-27.1,8.4-41.2,3.4c-2.9-1-5.9-3.4-7.6-6c-4-6.1-7.8-12.4-10.5-19.1
		c-4.5-11.2-8.2-22.8-12.2-34.2c-0.3-1-0.3-2.1-0.6-4.3C473.4,393.4,499.3,411,526.2,429.1z"/>
</g>
</svg>
