<?xml version="1.0" encoding="utf-8"?>
<!-- Generator: Adobe Illustrator 20.0.0, SVG Export Plug-In . SVG Version: 6.00 Build 0)  -->
<svg version="1.1" baseProfile="basic" id="Layer_1"
	 xmlns="http://www.w3.org/2000/svg" xmlns:xlink="http://www.w3.org/1999/xlink" x="0px" y="0px" viewBox="0 0 1224 792"
	 xml:space="preserve">
<g>
	<path d="M277.5,391.2c-0.2-129.4,106.6-238.6,241.1-236.7c128.9,1.8,233.4,107.1,234,236.4c0.7,131.8-107.1,239.9-239.7,238.8
		C382.6,628.5,276.6,521.5,277.5,391.2z M717,392.4c0.1-111.6-90.2-202.3-201.4-202.4c-112.1-0.1-202.4,89.9-202.7,202.1
		C312.7,503.2,403.5,594,514.8,594C626.3,594,716.9,503.7,717,392.4z"/>
	<path d="M514.7,574.1c-100.8-0.2-182-81.8-181.8-182.9c0.2-100.4,82-181.5,182.9-181.3c100.2,0.2,181.5,82,181.3,182.4
		C696.9,493,615.4,574.2,514.7,574.1z M387.3,309.9c19.2,12.1,38.1,24.1,57.2,35.9c2.2,1.4,5.2,2.2,7.9,2.2
		c41.6,0.1,83.3,0.2,124.9-0.1c3.2,0,6.9-1.3,9.5-3.1c13-8.9,25.8-18.2,38.7-27.4c5-3.6,9.9-7.2,14.8-10.8c-2-5.3-4.9-7.7-10.8-7.7
		c-75,0.2-149.9,0.3-224.9-0.1c-8.4,0-13.5,2.3-16.9,9.5C387.7,308.6,387.6,309,387.3,309.9z M380.5,320.5c-1.6,3.3-2.8,6.2-4.4,8.9
		c-1.8,3.1-1.2,5.6,0.5,8.7c38.1,65.8,76.1,131.7,114.1,197.6c4.6,8,9,9.9,19.1,7.4c0-20.3,0-40.7-0.1-61.2c0-1.7-0.9-3.5-1.8-5
		c-20-34.6-40.3-69-59.8-103.8c-6.4-11.5-14.2-20.6-26-26.3c-1.6-0.8-3.1-2-4.6-2.9C405.2,336.1,393,328.3,380.5,320.5z
		 M522.2,544.5c5.3-1.8,11.3,1.3,14.9-5c37-64.3,73.7-128.8,111.6-192.7c6.7-11.3,6.1-19.5-0.8-29c-0.1-0.1-0.2-0.2-0.5-0.5
		c-16.2,11.6-32.5,23.1-48.7,34.7c-1.5,1.1-2.8,2.9-3.8,4.6c-21.9,37.7-43.6,75.5-65.7,113.1c-4.8,8.3-7.7,16.5-7.3,26.3
		C522.7,511.7,522.2,527.5,522.2,544.5z M568.9,366.3c-35.3,0-69.4,0-104.3,0c17.5,30.3,34.6,59.9,52.1,90.3
		C534.3,426.1,551.4,396.6,568.9,366.3z M671.1,442.9c-16.2-4-32.2-7.9-48.2-11.7c-1-0.2-3,0.6-3.6,1.5c-6.1,10.2-12,20.6-18.1,31.1
		c11.8,12.3,23.3,24.3,34.8,36.3c0.4,0.5,1,0.7,1.5,1.1C649.4,490.9,668.6,457.8,671.1,442.9z M392.6,501.5
		c11.6-12.1,23-23.9,34.3-35.9c0.8-0.8,0.7-3.4,0-4.6c-5-9-10.3-17.8-15.3-26.9c-1.6-2.9-3.3-3.4-6.4-2.6
		c-6.2,1.8-12.6,3.1-18.9,4.6c-9.1,2.2-18.3,4.5-27.3,6.7C360.8,456.6,379.7,489.6,392.6,501.5z M481.2,230.8
		c4.8,16.6,9.3,32.4,14,48.2c0.3,1.1,2.3,2.3,3.5,2.3c10.7,0.2,21.3,0.1,32,0.2c2.5,0,3.8-0.6,4.5-3.3c1.2-5.2,3-10.2,4.5-15.3
		c3-10.5,6-21,9.1-32C526.1,226.2,504,226.3,481.2,230.8z M549.8,553.1c26.7-6.2,49.3-17.1,69.8-33.9c-10.5-11-20.7-21.7-31.3-32.8
		C575.5,508.5,563,530.1,549.8,553.1z M480.2,553.1c-13.2-22.9-25.7-44.6-38.5-66.7c-10.6,11.1-20.7,21.7-31.3,32.8
		C430.8,536,453.6,546.8,480.2,553.1z M396.5,408c-12.8-22.2-25.3-43.8-38.3-66.4c-8,26-9.8,51.1-5.6,77.2
		C367.5,415.2,381.8,411.6,396.5,408z M671.8,341.5c-13.1,22.8-25.6,44.4-38.3,66.5c14.8,3.7,29,7.1,43.8,10.8
		C681.7,392.7,679.8,367.6,671.8,341.5z M572.8,237.8c-4.2,14.7-8.4,28.9-12.6,43.4c25.7,0,50.6,0,76.4,0
		C618.5,261.4,597.6,247.3,572.8,237.8z M457.2,237.8c-24.8,9.4-45.6,23.6-63.9,43.4c25.9,0,50.9,0,76.4,0
		C465.5,266.5,461.4,252.4,457.2,237.8z"/>
	<path fill="#FFFFFF" d="M568.9,366.3c-17.5,30.3-34.6,59.9-52.2,90.3c-17.5-30.4-34.6-60.1-52.1-90.3
		C499.5,366.3,533.6,366.3,568.9,366.3z"/>
</g>
</svg>
