<?xml version="1.0" encoding="utf-8"?>
<!-- Generator: Adobe Illustrator 20.0.0, SVG Export Plug-In . SVG Version: 6.00 Build 0)  -->
<svg version="1.1" baseProfile="basic" id="Layer_1"
	 xmlns="http://www.w3.org/2000/svg" xmlns:xlink="http://www.w3.org/1999/xlink" x="0px" y="0px" viewBox="0 0 1224 792"
	 xml:space="preserve">
<g>
	<path fill="#FFFFFF" d="M564.9,346.5c0.5,0.2,0.7,0.3,0.9,0.4c0.7,0.5,1.4,0.9,2.1,1.4c4.7,3.5,8.8,7.6,12.4,12.2
		c0.6,0.7,1.1,1.6,1.6,2.4c1,1.8,0.9,3.6-0.6,5.1c-0.8,0.8-0.9,1.6-0.8,2.6c0.4,7.1,1,14.1,1.2,21.2c0.4,12.5,0.5,25.1-0.2,37.6
		c-0.6,12.7-1.9,25.4-4.4,37.9c-2.2,11.2-5.4,22.1-10.5,32.4c-0.1,0.3-0.2,0.6-0.3,0.9c0.8-0.7,1.5-1.5,2.1-2.3
		c3-4.4,5.2-9.1,7.2-14c6.4-15.6,10.2-32,12.6-48.6c1.7-11.7,2.7-23.5,3.3-35.3c0.7-14.1,0.8-28.2,0.3-42.3c0-0.4-0.1-0.9-0.2-1.4
		c-0.6,0.2-1,0.2-1.3,0.4c-1,0.5-1.8,0.3-2.7-0.4c-5.6-4.3-11.1-8.8-16.1-13.8c-0.4-0.4-0.7-0.8-1.1-1.3c0.6,0,1,0,1.3,0
		c3.6,0.4,7.3,0.8,10.9,1.2c2.3,0.3,4.2,1.3,5.8,2.9c1.6,1.5,3.3,2.9,5.1,4.3c8.8,6.9,17.4,14,25.7,21.5c3.3,3,6.7,6,10.1,8.9
		c3.2,2.7,4.6,6.1,4.3,10.4c-0.4,5.7-0.4,11.4-0.7,17.1c-0.5,9.8-1.8,19.6-3.8,29.2c-2.7,12.8-6.6,25.2-11.5,37.2
		c-0.2,0.6-0.4,1.1-0.6,1.7c0.1,0.1,0.3,0.1,0.4,0.2c0.7-1.2,1.4-2.3,2-3.6c1-2.2,1.9-4.4,3-6.6c4.3-9.2,8.3-18.5,11.5-28.1
		c6.8-20.1,10-40.8,9.8-62.1c0-0.6,0-1.1-0.1-1.7c-0.4,0.1-0.5,0.1-0.6,0.2c-2.9,2.1-5.6,1.6-8.3-0.4c-1.6-1.2-3.4-2.3-5-3.5
		c-7.4-5.1-14.6-10.5-21.4-16.4c-5.6-4.9-11.1-9.9-16.1-15.4c-1.6-1.7-3.2-2.3-5.6-2.1c-2.9,0.3-5.9,0.3-8.8,0.3
		c-2.6,0-5.1-0.6-7.6-1.5c-0.4-0.1-0.7-0.4-1.4-0.7c0.5-0.3,0.7-0.4,1-0.6c3.2-2.6,6.9-4.1,11-4.3c5.3-0.2,10.4,0.4,15.5,1.6
		c9.3,2.2,18,5.8,26.4,10.3c0.8,0.4,1.6,0.9,2.4,1.3c3.6-3.5,7.7-6.5,11-10.2c-1.5-2.6-2.2-5.4-2.6-8.3c-0.4-2.9-0.7-5.7-1.2-8.5
		c-2.3-11.9-5.8-23.4-10.2-34.6c-3.7-9.6-8.4-18.7-14.1-27.3c-0.4-0.5-0.8-1.1-1.2-1.6c12.1,25.5,18.3,52.2,17.8,80.6
		c-0.7-0.2-1.2-0.3-1.7-0.4c-5.2-1.3-10.4-2.7-15.7-4c-7-1.8-14.2-3.1-21-5.7c-0.6-0.2-1.2-0.3-1.7-0.5c-1.7-0.5-3.5-0.4-5.1,0.4
		c-1.4,0.6-2.7,1.4-4,2c-1.3,0.6-2.6,1.3-3.9,1.8c-0.9,0.3-1.8,0.6-3,0.2c1.1-2,2.1-3.8,3.1-5.6c1.6-2.7,3.8-3.7,7-3.3
		c3,0.4,6.1,0.5,9.1,0.6c2.3,0.1,4.7,0,7,0.1c3.8,0.2,7.7,0.2,10.7,2.7c1.4-1.1,2.6-2.1,3.9-3c0.6-0.5,1.3-0.9,1.9-1.4
		c1.4-1.1,2.1-2.5,1.7-4.2c-0.1-0.5-0.1-1.1-0.3-1.6c-1.1-4.4-2.2-8.7-3.4-13c-2.8-10.1-5.9-20-9.7-29.7c-2.3-6-4.8-11.9-7.3-17.8
		c-0.2-0.4-0.6-0.7-1-1.1c-0.1,0.1-0.3,0.1-0.4,0.2c0.2,0.6,0.3,1.2,0.5,1.8c1.7,5.8,3.5,11.6,5.1,17.4c3.7,13.3,6.1,26.9,6.5,40.8
		c0,1.1,0,2.2,0,3.4c-4.8,0.6-9.5,0.7-14.1,0.3c-4.7-0.4-9.4-1-14.1-1.7c-0.9-0.1-1.6,0-2.2,0.7c-0.8,1-1.7,1.9-2.6,2.8
		c-1.9,1.9-3.9,3.8-5.8,5.6c-0.3,0.3-0.7,0.4-1.2,0.7c-0.4-4-2.8-6.7-5.9-6.9c0.3,0.6,0.7,1.2,1,1.8c0.5,1,1,1.9,1.4,2.9
		c0.4,1.3,0.3,2.6-0.7,3.7c-1.6-0.2-1.3-2.3-2.3-2.6c-1.5,0.6-2.7,1.4-3.9,1.4c-1.3,0-2.5-0.8-4-1.4c-0.4,0.4-0.8,1.1-1.4,1.7
		c-0.3,0.3-0.9,0.5-1.3,0.7c-0.2-0.4-0.5-0.8-0.5-1.2c-0.2-1.9,0.2-3.6,1.3-5.1c0.4-0.6,0.8-1.2,1.2-1.9c-0.1-0.1-0.2-0.2-0.2-0.3
		c-1,0.5-2,1-2.9,1.6c-1.1,0.6-1.9,1.5-2.3,2.7c-0.3,1-0.4,2.1-0.6,3.5c-1-0.9-1.8-1.7-2.6-2.5c-2.1-2.1-4.2-4.1-6.2-6.2
		c-1.4-1.4-2.9-1.7-4.8-1.3c-6.3,1.2-12.6,1.8-19,1.6c-2.4-0.1-4.7-0.4-7.2-0.7c-0.1-0.6-0.1-1-0.1-1.5c0-5.8,0.4-11.5,1.2-17.2
		c1.5-10.5,4-20.7,6.7-30.9c0.9-3.4,2-6.8,3-10.2c0.1-0.5,0.2-0.9,0.3-1.4c0.1-0.5,0.1-0.9,0.2-1.4c-9.1,20.9-17.8,42-21.1,64.8
		c2.9,1.8,4.5,5,7.5,6.6c0.7-0.5,1.3-0.9,1.9-1.3c1.3-1,2.8-1.6,4.5-1.7c1.5-0.2,3-0.3,4.5-0.4c6.4-0.1,12.7-0.1,19.1-0.1
		c0.5,0,1.1,0.3,1.4,0.6c2.1,2,3.8,4.2,4.9,6.8c0.2,0.4,0.2,0.9,0.3,1.4c-1.7,0.1-3-0.4-4.3-1c-1.5-0.7-2.9-1.4-4.3-2.2
		c-3.1-1.8-6.3-2-9.7-0.7c-2.1,0.8-4.3,1.6-6.5,2.1c-9.9,2.5-19.8,4.9-29.7,7.3c-0.4,0.1-0.9,0.1-1.5,0.1c0-0.9,0-1.7,0-2.5
		c0.2-13.1,1.7-26.1,4.5-38.9c2.9-12.8,6.7-25.2,13-36.9c0.5-1,0.8-2.1,1.2-3.1c-0.6,0.2-0.9,0.6-1.1,0.9
		c-6.7,10.9-12.4,22.3-17,34.3c-3,8-5.8,16.1-7.3,24.6c-1,5.2-1.7,10.5-2.7,15.8c-0.4,2.2-1.1,4.3-1.7,6.4c3.9,3.1,7.1,6.9,11.3,9.6
		c2-1.2,3.8-2.4,5.7-3.4c7.2-3.9,14.9-6.2,22.8-8c5.5-1.2,11.1-2.1,16.8-1.5c3.4,0.4,6.6,1.4,9.2,3.7c0.5,0.4,0.8,0.9,1.4,1.5
		c-6.4,1.5-12.5,2-18.7,1.4c-1.5-0.1-2.5,0.1-3.6,1.2c-5,4.9-10.1,9.7-15.3,14.4c-7.5,6.8-15.7,12.8-23.8,19c-1.8,1.4-3.9,2.5-6,3.5
		c-1.6,0.8-3.5,0.9-5.2,0.2c-0.6-0.2-1.1-0.6-1.9-0.9c-0.1,0.6-0.1,1.1-0.1,1.5c-0.3,17.3,1.7,34.4,6.2,51.1
		c4.4,16.1,11,31.3,18.5,46.2c0.1,0.3,0.3,0.6,0.5,0.9c0.1-0.1,0.1-0.2,0.1-0.2c-0.2-0.7-0.5-1.5-0.8-2.2
		c-7.3-19.6-12.5-39.7-14-60.6c-0.6-8.2-0.8-16.4-0.3-24.6c0.1-0.9,0.4-1.6,1-2.2c1.9-2,3.8-4,5.8-5.9c8.6-8.5,17.8-16.2,27.2-23.9
		c3.1-2.5,6.1-5.1,9.2-7.6c2.5-2,5.4-3.4,8.6-3.8c3.6-0.5,7.3-0.8,10.9-1.2c0.1,0,0.3,0.1,0.6,0.3c-5.6,4.8-11.1,9.4-16.6,14.1
		c-1.3,1.1-2.6,1.9-4.3,0.8c-0.1,0-0.2,0-0.6,0.1c-0.1,0.4-0.3,0.9-0.3,1.4c-0.3,3.1-0.7,6.2-0.7,9.3c0.1,8.2,0.3,16.3,0.7,24.5
		c0.6,13.1,1.6,26.2,3.2,39.3c1.3,10.3,3,20.5,5.5,30.6c2.5,9.9,5.6,19.6,10.3,28.7c1.6,3.1,3.4,6.2,5.2,9.2c0.5,0.8,1,1.6,2.1,1.9
		c-1.8-3.9-3.6-7.5-5.1-11.3c-4.8-12.1-7.3-24.7-9-37.5c-1.5-11.4-2.1-22.8-2.3-34.3c-0.3-16.1,0.2-32.3,1.1-48.4
		c0.1-1.3-0.1-2.4-1.1-3.4c-1.7-1.6-1.7-1.7-0.3-3.6c3.5-5,7.7-9.5,12.3-13.6c0.9-0.8,2.1-1.5,3.1-2.1c0.5-0.3,1.2-0.5,1.9-0.7
		c0.3,1.4,0,2.6-0.5,3.7c-0.6,1.4-1.3,2.7-2.1,4c-1.2,2-1.6,4.2-1.5,6.6c0.1,1.4,0.1,2.8,0.3,4.1c1.7,10.9,4,21.7,7.5,32.2
		c1.7,5.2,3.7,10.4,6.4,15.2c0.2,0.4,0.2,1.1,1,1c0.6-3,0.6-3,1.6-3.6c0.1,0.7,0.3,1.4,0.4,2.1c0.1,0.7,0.1,1.4,0.8,1.8
		c0.2-0.1,0.3-0.1,0.4-0.2c0.3-0.6,0.6-1.2,0.9-1.8c4.6-10.7,8.3-21.7,10.8-33.1c1.3-5.9,2.4-11.7,2.8-17.8c0.1-2.4-0.2-4.5-1.7-6.4
		c-0.3-0.4-0.6-0.8-0.8-1.2C565.5,351.4,564.6,349.2,564.9,346.5z"/>
	<path d="M552.8,414.1"/>
	<path d="M551.2,413.8c-2.7-4.9-5.3-11.1-7.1-16.4c-3.5-10.5-5.7-21.3-7.5-32.2c-0.2-1.4-0.3-2.7-0.3-4.1c-0.1-2.3,0.3-4.5,1.5-6.6
		c0.8-1.3,1.4-2.6,2.1-4c0.5-1.1,0.8-2.2,0.5-3.7c-0.7,0.3-1.3,0.4-1.9,0.7c-1.1,0.6-2.2,1.3-3.1,2.1c-4.6,4.1-8.7,8.6-12.3,13.6
		c-1.3,1.9-1.4,2,0.3,3.6c1,1,1.2,2.1,1.1,3.4c-0.9,16.1-1.4,32.2-1.1,48.4c0.2,11.5,0.9,22.9,2.3,34.3c1.6,12.8,4.1,25.5,9,37.5
		c1.5,3.8,3.3,7.4,5.1,11.3c-1.1-0.2-1.7-1.1-2.1-1.9c-1.8-3.1-3.6-6.1-5.2-9.2c-4.7-9.1-7.8-18.8-10.3-28.7
		c-2.5-10.1-4.2-20.3-5.5-30.6c-1.6-13-2.7-26.1-3.2-39.3c-0.3-8.1-0.6-16.3-0.7-24.5c0-3.1,0.4-6.2,0.7-9.3c0-0.5,0.2-1,0.3-1.4
		c0.3,0,0.5-0.1,0.6-0.1c1.7,1.1,3,0.3,4.3-0.8c5.5-4.7,11-9.3,16.6-14.1c-0.4-0.2-0.5-0.3-0.6-0.3c-3.6,0.4-7.3,0.7-10.9,1.2
		c-3.2,0.4-6.1,1.8-8.6,3.8c-3.1,2.5-6.1,5-9.2,7.6c-9.3,7.6-18.6,15.4-27.2,23.9c-2,1.9-3.8,4-5.8,5.9c-0.6,0.6-0.9,1.3-1,2.2
		c-0.5,8.2-0.3,16.4,0.3,24.6c1.5,20.9,6.7,41,14,60.6c0.3,0.7,0.5,1.5,0.8,2.2c0,0,0,0.1-0.1,0.2c-0.2-0.3-0.4-0.6-0.5-0.9
		c-7.5-14.8-14.1-30.1-18.5-46.2c-4.6-16.7-6.6-33.8-6.2-51.1c0-0.5,0.1-0.9,0.1-1.5c0.7,0.4,1.3,0.7,1.9,0.9
		c1.8,0.7,3.6,0.6,5.2-0.2c2.1-1,4.2-2.1,6-3.5c8-6.2,16.2-12.2,23.8-19c5.2-4.7,10.3-9.5,15.3-14.4c1.1-1.1,2.1-1.4,3.6-1.2
		c6.2,0.6,12.3,0,18.7-1.4c-0.6-0.6-0.9-1.1-1.4-1.5c-2.6-2.3-5.8-3.3-9.2-3.7c-5.7-0.7-11.3,0.2-16.8,1.5c-7.9,1.8-15.7,4.1-22.8,8
		c-1.9,1-3.7,2.2-5.7,3.4c-4.1-2.7-7.4-6.5-11.3-9.6c0.6-2.2,1.3-4.3,1.7-6.4c1-5.2,1.8-10.5,2.7-15.8c1.5-8.5,4.3-16.6,7.3-24.6
		c4.5-12,10.3-23.4,17-34.3c0.2-0.4,0.5-0.7,1.1-0.9c-0.4,1-0.7,2.1-1.2,3.1c-6.2,11.6-10.1,24.1-13,36.9
		c-2.9,12.8-4.3,25.8-4.5,38.9c0,0.8,0,1.5,0,2.5c0.6-0.1,1,0,1.5-0.1c9.9-2.4,19.8-4.8,29.7-7.3c2.2-0.6,4.4-1.3,6.5-2.1
		c3.4-1.3,6.5-1.1,9.7,0.7c1.4,0.8,2.9,1.5,4.3,2.2c1.3,0.6,2.6,1.1,4.3,1c-0.1-0.5-0.2-1-0.3-1.4c-1.1-2.7-2.8-4.9-4.9-6.8
		c-0.3-0.3-0.9-0.6-1.4-0.6c-6.4,0-12.7,0.1-19.1,0.1c-1.5,0-3,0.2-4.5,0.4c-1.6,0.2-3.1,0.8-4.5,1.7c-0.6,0.4-1.2,0.8-1.9,1.3
		c-3-1.6-4.7-4.8-7.5-6.6c3.4-22.8,12-43.9,21.1-64.8c-0.1,0.5-0.1,0.9-0.2,1.4c-0.1,0.5-0.2,0.9-0.3,1.4c-1,3.4-2.1,6.8-3,10.2
		c-2.7,10.2-5.2,20.5-6.7,30.9c-0.8,5.7-1.2,11.5-1.2,17.2c0,0.4,0.1,0.8,0.1,1.5c2.4,0.2,4.8,0.6,7.2,0.7c6.4,0.3,12.7-0.3,19-1.6
		c2-0.4,3.5-0.1,4.8,1.3c2,2.1,4.1,4.2,6.2,6.2c0.8,0.8,1.6,1.6,2.6,2.5c0.2-1.3,0.3-2.4,0.6-3.5c0.3-1.2,1.2-2.1,2.3-2.7
		c0.9-0.6,2-1,2.9-1.6c0.1,0.1,0.2,0.2,0.2,0.3c-0.4,0.6-0.8,1.3-1.2,1.9c-1,1.6-1.5,3.3-1.3,5.1c0,0.4,0.4,0.8,0.5,1.2
		c0.5-0.2,1-0.3,1.3-0.7c0.6-0.6,1-1.3,1.4-1.7c1.5,0.5,2.7,1.4,4,1.4c1.2,0,2.4-0.8,3.9-1.4c1,0.3,0.7,2.3,2.3,2.6
		c1-1.1,1.1-2.4,0.7-3.7c-0.3-1-0.9-2-1.4-2.9c-0.3-0.6-0.6-1.1-1-1.8c3.1,0.2,5.5,3,5.9,6.9c0.5-0.3,0.9-0.4,1.2-0.7
		c2-1.8,3.9-3.7,5.8-5.6c0.9-0.9,1.8-1.8,2.6-2.8c0.6-0.7,1.3-0.9,2.2-0.7c4.7,0.6,9.4,1.3,14.1,1.7c4.7,0.4,9.3,0.2,14.1-0.3
		c0-1.2,0-2.3,0-3.4c-0.5-13.9-2.9-27.4-6.5-40.8c-1.6-5.8-3.4-11.6-5.1-17.4c-0.2-0.6-0.3-1.2-0.5-1.8c0.1-0.1,0.3-0.1,0.4-0.2
		c0.3,0.4,0.8,0.7,1,1.1c2.5,5.9,4.9,11.8,7.3,17.8c3.8,9.7,6.9,19.7,9.7,29.7c1.2,4.3,2.3,8.7,3.4,13c0.1,0.5,0.2,1.1,0.3,1.6
		c0.3,1.8-0.4,3.2-1.7,4.2c-0.6,0.5-1.3,0.9-1.9,1.4c-1.3,1-2.5,2-3.9,3c-3-2.5-6.9-2.5-10.7-2.7c-2.3-0.1-4.7,0-7-0.1
		c-3.1-0.1-6.1-0.2-9.1-0.6c-3.1-0.4-5.4,0.6-7,3.3c-1.1,1.8-2,3.6-3.1,5.6c1.2,0.4,2.1,0.1,3-0.2c1.3-0.5,2.6-1.2,3.9-1.8
		c1.3-0.7,2.7-1.4,4-2c1.6-0.8,3.4-0.8,5.1-0.4c0.6,0.2,1.2,0.3,1.7,0.5c6.8,2.6,14,3.9,21,5.7c5.2,1.3,10.4,2.7,15.7,4
		c0.5,0.1,1,0.3,1.7,0.4c0.5-28.4-5.7-55.1-17.8-80.6c0.4,0.5,0.8,1.1,1.2,1.6c5.7,8.6,10.3,17.7,14.1,27.3
		c4.4,11.2,7.9,22.8,10.2,34.6c0.5,2.8,0.8,5.7,1.2,8.5c0.4,2.9,1.1,5.7,2.6,8.3c-3.4,3.7-7.4,6.7-11,10.2c-0.8-0.5-1.6-0.9-2.4-1.3
		c-8.3-4.6-17.1-8.2-26.4-10.3c-5.1-1.2-10.3-1.8-15.5-1.6c-4.2,0.2-7.8,1.6-11,4.3c-0.2,0.2-0.5,0.3-1,0.6c0.7,0.4,1,0.6,1.4,0.7
		c2.4,0.9,5,1.4,7.6,1.5c2.9,0,5.9,0,8.8-0.3c2.3-0.3,4,0.4,5.6,2.1c5,5.5,10.5,10.6,16.1,15.4c6.8,5.9,14,11.3,21.4,16.4
		c1.7,1.2,3.4,2.3,5,3.5c2.7,2,5.4,2.5,8.3,0.4c0.1-0.1,0.2-0.1,0.6-0.2c0,0.6,0.1,1.2,0.1,1.7c0.2,21.2-3,41.9-9.8,62.1
		c-3.3,9.6-7.2,18.9-11.5,28.1c-1,2.2-1.9,4.4-3,6.6c-0.6,1.2-1.3,2.4-2,3.6c-0.1-0.1-0.3-0.1-0.4-0.2c0.2-0.6,0.4-1.1,0.6-1.7
		c5-12.1,8.9-24.5,11.5-37.2c2-9.6,3.4-19.4,3.8-29.2c0.3-5.7,0.3-11.4,0.7-17.1c0.3-4.2-1.1-7.6-4.3-10.4
		c-3.4-2.9-6.8-5.9-10.1-8.9c-8.3-7.5-16.9-14.5-25.7-21.5c-1.7-1.4-3.5-2.8-5.1-4.3c-1.7-1.6-3.5-2.6-5.8-2.9
		c-3.6-0.4-7.3-0.8-10.9-1.2c-0.3,0-0.7,0-1.3,0c0.5,0.6,0.8,1,1.1,1.3c5,5,10.5,9.5,16.1,13.8c0.9,0.7,1.7,0.8,2.7,0.4
		c0.4-0.2,0.8-0.2,1.3-0.4c0.1,0.5,0.2,1,0.2,1.4c0.5,14.1,0.4,28.2-0.3,42.3c-0.6,11.8-1.6,23.6-3.3,35.3
		c-2.4,16.7-6.2,33-12.6,48.6c-2,4.9-4.2,9.7-7.2,14c-0.6,0.8-1.2,1.6-2.1,2.3c0.1-0.3,0.1-0.7,0.3-0.9c5.1-10.3,8.3-21.2,10.5-32.4
		c2.5-12.5,3.7-25.1,4.4-37.9c0.6-12.5,0.6-25.1,0.2-37.6c-0.2-7.1-0.8-14.1-1.2-21.2c-0.1-1,0-1.8,0.8-2.6c1.5-1.5,1.6-3.3,0.6-5.1
		c-0.5-0.8-1-1.7-1.6-2.4c-3.7-4.6-7.8-8.7-12.4-12.2c-0.7-0.5-1.4-0.9-2.1-1.4c-0.2-0.1-0.4-0.2-0.9-0.4c-0.3,2.7,0.6,4.8,1.7,6.9
		c0.2,0.4,0.5,0.9,0.8,1.2c1.6,1.9,1.9,4.1,1.7,6.4c-0.4,6-1.5,11.9-2.8,17.8c-2.5,11.4-6.1,22.4-10.8,33.1
		c-0.3,0.6-0.6,1.2-0.9,1.8c0,0.1-1.7,0.4-1.8,0.5"/>
</g>
</svg>
