<?xml version="1.0" encoding="utf-8"?>
<!-- Generator: Adobe Illustrator 20.0.0, SVG Export Plug-In . SVG Version: 6.00 Build 0)  -->
<svg version="1.1" baseProfile="basic" id="Layer_1"
	 xmlns="http://www.w3.org/2000/svg" xmlns:xlink="http://www.w3.org/1999/xlink" x="0px" y="0px" viewBox="0 0 1224 792"
	 xml:space="preserve">
<g>
	<path d="M410.8,324.4c9.4-8.4,18.6-16.6,27.7-24.8c13.2-11.8,26.1-23.7,39.6-35.2c2.9-2.5,7.3-4.4,11.1-4.4
		c82.5-0.2,165-0.1,247.5,0.1c3.3,0,7.2,1.7,9.8,3.9c21,18,41.8,36.2,62.7,54.4c2.1,1.8,4.3,3.6,6.9,5.7
		c-68,76.3-136,152.6-204.3,229.2C544.6,476.9,477.8,400.8,410.8,324.4z M770.8,328c-9-8.1-17.5-15.8-26.9-24.2
		c0,11.2,0,21.2,0,31.4c-1.8,0.1-3.3,0.3-4.7,0.3c-19,0.1-38,0.1-57,0.4c-4.6,0.1-6.8-1.5-8.2-6c-4.6-14.8-13.9-26-28-32.1
		c-30.5-13.3-61.3-12.1-91.6,0.6c-5.3,2.2-9.8,7.4-13.4,12.2c-4.2,5.6-2.7,11.5,2.9,15.8c2.4,1.9,5.3,3.7,8.3,4.4
		c10.2,2.3,20.4,5.4,30.7,5.9c22.4,1.3,44.9,1.1,67.4,1.8c16.5,0.5,32.9,1.7,48.7,7c13.9,4.6,25.6,12.5,35.3,23.8
		C746.6,355.6,758.5,342,770.8,328z M514.2,394.1c5.6,6.8,10.5,13.4,16.2,19.4c1.8,1.8,5.7,2.4,8.5,2.1c4.7-0.5,9.3-2.4,14-3.2
		c22.3-3.7,42.4-0.2,58.4,17.4c1.2,1.3,3.5,2.2,5.2,2.1c16.6-1.1,33.1-2.1,49.6-4.1c5.7-0.7,11.4-3.7,16.5-6.5
		c6-3.3,5.7-8.1-0.3-11.2c-3.3-1.7-7.1-3.3-10.7-3.7c-17.4-1.6-34.8-3.1-52.2-4.1c-24.4-1.3-48.9-1.8-73.2-3.4
		C535.7,398.2,525.3,395.8,514.2,394.1z M612.2,504.8c11-12.3,21.6-24.2,32.7-36.6c-22.1,0-43.2,0-65.2,0
		C590.8,480.6,601.2,492.4,612.2,504.8z M470.1,346.7c2.4-28,19.9-44,41.7-57.1c-10.6-2.9-18.5-0.3-24.7,7.7
		c-1.9,2.5-4.6,4.3-6.9,6.5c-8.5,8-16.9,15.9-25.6,24.1C459.7,334.2,464.5,340,470.1,346.7z M686.4,289.2c4.7,3.8,8.4,6.8,12.9,10.5
		c0.4-4.1,0.7-7.2,1-10.5C695.9,289.2,691.8,289.2,686.4,289.2z"/>
	<path fill="#FFFFFF" d="M480.2,303.9c2.3-2.2,5-4,6.9-6.5c6.2-8,14.1-10.6,24.7-7.7c-21.7,13.1-39.3,29.1-41.7,57.1
		c-5.6-6.8-10.5-12.6-15.6-18.7"/>
	<path fill="#FFFFFF" d="M699.3,299.7c-4.5-3.7-8.2-6.7-12.9-10.5"/>
</g>
</svg>
