<?xml version="1.0" encoding="utf-8"?>
<!-- Generator: Adobe Illustrator 20.0.0, SVG Export Plug-In . SVG Version: 6.00 Build 0)  -->
<svg version="1.1" baseProfile="basic" id="Layer_1"
	 xmlns="http://www.w3.org/2000/svg" xmlns:xlink="http://www.w3.org/1999/xlink" x="0px" y="0px" viewBox="0 0 1224 792"
	 xml:space="preserve">
<g>
	<path d="M744.4,434.9c-17.4,5.4-33.8,1-49.8-7c-0.5,0.5-0.4,0.5-0.9,1c2,3.3,4,6.5,6.1,9.8c1,1.6,2.6,3.2,2.8,4.9
		c0.9,7.4,1.3,14.9,1.9,22.4c0.2,2.6-0.7,4.5-3.4,4.3c-3.1-0.3-6.4-0.8-9.3-1.9c-1.4-0.5-0.7-3,0.8-3.5c6.1-2.2,1.1-8.6,1-12.8
		c0-0.6-1.3-1.1-1.9-1.6c-0.5,0.7-1.4,1.4-1.5,2.1c-0.3,2.3-0.7,4.7-0.4,7c0.6,5-2.2,6.1-6.2,5.9c-2.1-0.1-2.7-0.2-5.5-0.6
		c-0.4-0.1-2-0.7-2-1.1c0-2.4,1.8-4.2,3-4.6c4.4-1.6,2.8-5,2.2-7.4c-0.3-1.3-3.1-2.3-4.9-2.9c-5.9-2-11.8-4.4-18-5.5
		c-5.2-1-10.8-1.3-16-0.3c-12.4,2.3-24.5,6.2-36.9,8.3c-11.3,1.9-22.8,2.4-34.6,3.6c-0.1,1-0.2,2.6-0.3,4.2
		c-0.6,9.3-7.2,13.5-16,10.4c-1.9-0.6-4.1-0.1-6.2-0.4c-2.3-0.4-6.9-0.7-6.9-1.7c-0.6-2.2,1.6-5.8,3.4-6.6c5.6-2.6,5.2-6.7,4-11.2
		c-0.5-1.7-1.7-3.5-3.1-4.7c-3.6-3.2-7.4-6.1-11.2-9.2c-5.3-4.3-7.6-10-7.1-16.7c0.5-8,1.1-15.9,1.6-23.9c0.3-3.8,0.2-7.3-4.7-8.4
		c-1.5-0.4-3.4-2.1-3.7-3.6c-1.4-5.3-4.9-5-8.9-4.2c-8.3,1.7-15.5-1-22.1-5.5c-3.3-2.2-3.3-5.9,0-8.2c1.8-1.2,3.6-2.6,5.7-3.4
		c6.8-2.6,12.2-6.8,17.5-11.9c3-2.9,8.3-4.6,12.7-4.9c11.4-0.7,22.3,1.2,29.8,11.4c1.2,1.6,2,3.5,2.4,5.5
		c3.2,14.7,12.1,24.4,26,29.6c13.1,4.9,26.8,6.1,40.7,7c13.4,0.8,26.9,2,40.1,4.1c5.5,0.9,10.8,4,15.7,7.1
		c14.4,9,28.1,19.3,45.4,22.1c4.1,0.7,8.3,0.4,12.4,0.6c2.2,0.1,4.4,0.3,6.5,0.5C744.3,433.9,744.3,433.7,744.4,434.9z"/>
</g>
</svg>
