<?xml version="1.0" encoding="utf-8"?>
<!-- Generator: Adobe Illustrator 20.0.0, SVG Export Plug-In . SVG Version: 6.00 Build 0)  -->
<svg version="1.1" baseProfile="basic" id="Layer_1"
	 xmlns="http://www.w3.org/2000/svg" xmlns:xlink="http://www.w3.org/1999/xlink" x="0px" y="0px" viewBox="0 0 1224 792"
	 xml:space="preserve">
<g>
	<g>
		<path d="M834.6,367.3c-4.4,6.6-10.5,7.4-18.1,5.1c3,4.4,7.8,7.6,5.6,14.4c-2.4-4.3-5.8-3.8-9.6-3.9c-3.1-0.1-6.1-2.7-8.5-3.9
			c-1,9.6-1.7,19.3-3.1,28.9c-1.8,12.3-10,21.1-18,29.9c-0.6,0.6-1.2,1.2-1.9,1.7c-7,5.3-10.1,12.2-9.9,21.1c0.2,8.5-0.6,17-1,25.5
			c-0.2,4.3,1.5,6.3,5.8,7c6.4,1,8.8,5.1,7.2,11c-0.2,0.7-0.8,1.5-1.4,2c-4,3.3-14.6,2.3-18-2c-3.1-3.9-5.9-8-8.7-12.1
			c-0.7-1-0.5-2.5-0.7-3.8c-1.5-10-2.8-20.1-4.7-30c-0.3-1.5-3.1-3.7-4.7-3.6c-16.7,0.1-32.8-2.7-48.5-8.2
			c-6.1-2.1-9.6,0.2-13.4,5.5c-5.7,7.8-12.1,15-18,22.6c-2.2,2.9-6.1,8.2-5.4,8.9c3,3.4,7.3,5.7,11.4,7.9c2.1,1.1,5.2,0.4,7.1,1.7
			c2.3,1.4,6.5,3.6,5.1,6.8c-1.3,2.3-13.7,3.2-23.9-3.2c-3.7-3.3-8.4-5.4-13-8.3c-3.1,7.1-7.1,13.2-15,14.8
			c-2.9,0.6-6.1,0.1-10.9,0.1c8-9.3,10-19,10.9-29.6c-8.1,1.5-14.9,4.2-19.2,10.9c-4.2,6.5-2.8,11.7,3.7,15.7c1.1,0.7,2.3,1.5,3,2.5
			c2.6,3.4,1.7,5.5-2.5,6c-8.8,1.2-13.7-1.8-16.6-9.9c-0.3-0.9-1.2-1.5-1.8-2.3c-0.7-2.2-0.9-3.5,0-5c2-5.8,4.1-11.5,5.9-17.4
			c1.3-4.3,3.4-7.6,7.6-9.9c17.1-9.1,22.5-25.5,25.4-42.9c1.6-9.5,6-15.7,14.6-19.8c11.8-5.7,23.8-9.4,37.1-10.4
			c15.2-1.1,30.4-3.9,45.2-7.5c11.8-2.9,22.6-8.7,28.7-20.6c1.6-3,4.1-5.8,6.8-7.9c8.2-6.5,13.9-15.1,19.4-23.7
			c2.9-4.5,6.6-6.6,11.4-8c-0.2,3.8-0.9,7.5-0.5,11.2c0.2,2.1,1.7,4.7,3.4,5.8c4.5,2.9,8.7,5.8,11.2,11c1,2.2,3.6,3.9,5.8,5.2
			c4.7,2.8,9.7,5.2,14.5,7.8C835.8,365.2,835.4,366.1,834.6,367.3z"/>
	</g>
</g>
</svg>
