<?xml version="1.0" encoding="utf-8"?>
<!-- Generator: Adobe Illustrator 20.0.0, SVG Export Plug-In . SVG Version: 6.00 Build 0)  -->
<svg version="1.1" baseProfile="basic" id="Layer_1"
	 xmlns="http://www.w3.org/2000/svg" xmlns:xlink="http://www.w3.org/1999/xlink" x="0px" y="0px" viewBox="0 0 1224 792"
	 xml:space="preserve">
<g>
	<path d="M539.7,358.3c-4.7-2.1-6.4-6.1-7.2-10.8c-0.4-2.1,0.4-2.6,1.9-2.9c3.3-0.7,6.5-1.4,9.8-2c1.3-0.2,2.4-0.7,2.9-1.9
		c2.4-5.8,7.1-7.5,12.8-6.8c6.5,0.8,13.4,2,15.8,9.1c2,6,6.1,10.7,8.1,16.5c1.1,3.1,3.7,5.3,6.8,6.9c15,7.8,31.4,8.1,47.7,8.3
		c12.2,0.1,22.6,4,31.1,13c4.7,5,6.7,11,7.3,17.5c1.1,11,6.9,19.2,14.7,26.2c1.8,1.6,3,2.5,1,4.7c-2.4,2.6-5,3.4-7,1.8
		c-0.4-0.3-0.8-0.8-1.4-1.3c-0.1,3.3-1.6,4.1-4.9,2.5c-2.4-1.2-2.7-0.5-3.1,1.7c-0.7,4.4-1.4,8.7-1.6,13.1c-0.3,5.4-4,8.4-9.3,8
		c-5.9-0.5-5.9-0.5-4.4-6.2c-2.6-0.3-5.2-0.1-7.8-0.8c-1.3-0.4-1.8-1-1.2-1.9c1-1.6,2-3.7,3.8-4.1c5.5-1.2,3.4-5.9,4.3-9
		c0.8-3-2.2-6-4-6c-3.8-0.1-5-3-7.3-4.7c-4.8-3.6-5.8-5.4-6.5-11.3c-1.7,0-0.6,2.3-1.9,2.4c-1.9,0.2-0.5,1.8-1.3,2.6
		c-2,0-1.1-2.4-2.4-3c-1.2,0.5-0.3,2-1,2.6c-1.2-0.3-0.9-1.5-1.5-2c-1.2,1.5-1,4-3.5,4.7c0-1.3,0.6-2.4-0.2-4.2
		c-2.6,4.1-9.9,0.3-10.5,7.3c-1.6,0.7-4.2-4.7-5.1,0.8c-2-1.8-3.9-2.1-5.7,0.1c-0.4,0.4-1.3,1.1-1.4,0.8c-2.1-5-2.9,1.4-4.4,0.4
		c-0.8-0.5,0.2-1.8-1-2.4c-1.5,4.1-1.2,8.4-1.1,13c-1.4-0.9-0.8-2.3-2-2.8c-0.4-0.1-0.4,0.3-0.5,0.6c-0.3,2,0.3,3.8,1.1,5.6
		c0.3,0.6,0.7,1.5,0,1.9c-0.3,0.2-1.1-0.5-2-0.9c0.5,1.9,2.2,3.2,1.4,5.3c-1.4-0.8-2.3-2.7-4.2-2.4c1.5,3-6.4,0.1-2.3,5
		c-3.2-1.9-3.7-0.1-4.3,1.9c-1.8,6.9-3.6,7.9-10.4,6.5c-2.2-0.5-2.5-1.1-1.8-4.6c-1.9-0.7-4.2,0.5-5.9-0.9c-0.9-0.7-2.9-0.2-2.6-2.3
		c0.3-1.9,1-3.7,2.9-4.1c4-0.8,5.2-3.6,5.1-7c-0.3-6,1.8-11.9-0.1-17.9c-1-0.1-1.7,1.4-2.9,0.9c0.1-0.8-0.7-1.8-1.7-3.1
		c-0.7-1-0.5-2.2-2.2-3.2c-2.1-1.3-1.4,0.8-2.5,0.9c-0.6-2.8-0.4-6.8-6.4-4.9c2.3-2.1,2.3-3.7,1.1-5c-0.7-0.8-1.4-1.1-0.5-2.1
		c0.8-0.9,0.5-1.9-0.5-1.8c-4.5,0.3-2.7-2-1.8-4.1c-1.4-0.6-5,0.6-2.2-3.1c0.9-1.1,1.1-3.5-1.8-3.9c-1-0.1-1.9-1-2.1-2.4
		c4.7-0.3,2.3-3.9,2.1-5.8c-0.3-3.4-1.2-6.7,0-10.1c0.8-2.1-1.4-3.9-1.4-5.7c0-6.8-4.4-6.3-8.9-6c-1.4,0.1-2.8,0-4.1-0.9
		C535.8,361.8,535.8,360.9,539.7,358.3z"/>
	<path fill="#E7E7E7" d="M666.5,447.3c0.4,2.9-0.5,4.5-1.1,6.3c-0.1,0.4-0.5,0.9-1,0.6c-0.5-0.2-0.6-0.7-0.4-1.2
		C664.7,451.3,665.5,449.6,666.5,447.3z"/>
</g>
</svg>
