<?xml version="1.0" encoding="utf-8"?>
<!-- Generator: Adobe Illustrator 18.1.1, SVG Export Plug-In . SVG Version: 6.00 Build 0)  -->
<svg version="1.1" baseProfile="basic" id="Layer_1"
	 xmlns="http://www.w3.org/2000/svg" xmlns:xlink="http://www.w3.org/1999/xlink" x="0px" y="0px" viewBox="0 0 612 792"
	 xml:space="preserve">
<g>
	<path fill="#FFFFFF" stroke="#000000" stroke-width="2.8346" stroke-miterlimit="10" d="M12.7,644.2c0-164.1,0-328.1,0-492.2
		c0-0.6,0.5-1.1,1.1-1.1c196.1,0,392.1,0,588.2,0c0.6,0,1.1,0.5,1.1,1.1c0,164.1,0,328.1,0,492.2c0,0.6-0.5,1.1-1.1,1.1
		c-196.1,0-392.1,0-588.2,0C13.2,645.3,12.7,644.8,12.7,644.2z M206.4,600.5c8.8,1,16.5,3.6,22.3,11.3c1.7,2.2,8,3.1,10.4,1.6
		c2.4-1.4,3.5-6.5,3.6-10.1c0.1-2.9-1.8-6.1-3.6-8.7c-10.7-15.7-11.9-33.6-13.4-51.5c-0.1-1.2,1.6-1.7,2.1-0.6
		c7.9,16.5,15.4,33.1,23,49.6c2.5,5.4,4.8,11.6,9,15.3c2.9,2.6,8.2,2.4,12.8,3.1c0.7,0.1,1.3-0.5,1.3-1.2c-0.4-3.7-0.5-7.6-1.8-11.1
		c-4.3-11.9-9.4-23.4-13.6-35.4c-0.6-1.9,1.6-5.8,3.6-7.3c9.3-6.9,13.9-16.8,12-27.2c-3.4-18.6,8.7-31.5,14-46.8
		c0.4-1.1,2-0.9,2.1,0.3c1.6,15.7,3.6,16.4,23.2,19.2c0.7,0.1,1.2,0.9,0.9,1.5c-2.1,4.8-4.6,9.3-5.7,14.2
		c-4.2,19.3-9.3,38.7-11.2,58.3c-1.3,13.4,4.8,27.7-11.9,36.2c-4.7,2.4-5.4,9.3,2.1,9.8c5.6,0.4,11.3-2.3,17-3.8
		c0.6-0.2,0.9-0.7,0.8-1.2l-0.3-1.8c-0.1-0.5-0.5-0.9-1-0.9c-2.1-0.3-4.3-0.5-6.8-0.8c-1-0.1-1.4-1.5-0.4-2
		c10.9-6.2,10.9-16.3,9.9-27c-1.9-19.5,2.2-37.9,9.5-55.7c0.5-1.1,2.2-0.8,2.1,0.5c-0.8,21.5,3.6,41.6,12.8,61.3
		c2.4,5.2-0.1,12.7-0.2,19.1c-0.1,3.7,0,7.4,0.1,11.1c0,0.8,0.8,1.3,1.5,1c3.7-1.5,7.6-2.6,10.5-5c2.6-2.2,4-5.9,5.8-9.1
		c0.3-0.5,0.2-1.1-0.3-1.4l-1.1-0.8c-0.4-0.3-1-0.3-1.4,0.1c-1.9,1.7-3.7,3.4-5,4.6c-0.7,0.6-1.7,0.2-1.8-0.7
		c-1.2-10.8-0.9-23.2-5.2-33.7c-7.9-19.2-5.4-37.4-1.6-56.9c0.2-1,1.5-1.2,2-0.4c7.2,11.5,14.5,21.5,14.9,35.9
		c0.3,12.7,4.7,26,9.9,37.9c5.5,12.7,16.4,14.3,25.7,5.8c0.9-0.8,0-2.3-1.1-1.9c-15.3,5.5-21.1,1.3-25.9-17.2
		c-2-7.7-4-15.6-4.4-23.5c-0.7-12.3-0.5-24.7,0.2-37c0.2-2.9,3.2-7.1,5.8-8c2.3-0.8,7.8,1.3,8.7,3.4c3.1,7.6,4.8,15.8,7.1,23.7
		c1.8,6.3,0.8,14.2,8.4,17.8c0.7,0.3,1.5-0.1,1.6-0.9c1.8-15.8-12-42.7-24.8-49.5c-0.7-0.4-0.8-1.4-0.1-1.9
		c10.7-7.3,9.7-8.3,2.6-21.5c-11.6-21.3-22.4-43.1-32.6-65.2c-5.1-11-4.8-22.5,4.6-31.9c0.4-0.4,1.1-0.4,1.5,0
		c8.6,7.8,17.8,7.9,27.8,2.3c15.9-8.9,28.1-19.6,22.8-40.5c-1-3.8-0.9-8-0.7-11.9c0.8-17.8-10.4-34.9-3.1-53.2
		c0.4-1.1-1.1-2.9-1.7-4.3c-1.8-4.2-4.2-8.3-5.3-12.7c-3.5-14.3-6.2-16.2-21.1-13c-4.2,0.9-8.4,2.4-12.5,3.6l1.2-1.4
		c0.5-0.5,0.3-1.3-0.2-1.7c-2.9-1.9-5.6-4.1-8.7-5.5c-27.8-12.6-72.4,7.7-78.7,37.9c-4,19.5-9.6,37.4-20.2,54.2
		c-6.6,10.4-3.9,24.1,3.7,30.6c8.3,7.1,34.3,8.8,43,4.3c0.6-0.3,1.4,0,1.5,0.7c3.1,10.9,6.4,22.5,9.5,34.1c0.5,1.8,0.3,3.9-0.1,5.8
		c-5.1,20.1-9.8,40.3-15.7,60.2c-2.3,7.7-6.5,14.8-10,22.2c-0.4,0.8-1.5,0.9-1.9,0.1l-1.1-1.8c-0.2-0.3-0.4-0.4-0.8-0.5
		c-6-0.9-15.6-3.9-16.6-2c-5,8.9,4.7,12.3,10.1,16.9c0.1,0.1,0.3,0.2,0.4,0.2c12.2,3.3,11.6,13.1,10.9,21.9
		c-0.6,8.7-2.8,17.3-14.3,21.7c-0.6,0.2-1.3-0.1-1.4-0.8c-6.1-22.9-11.9-44.7-17.6-66.4c-0.1-0.6,0.2-1.1,0.7-1.3
		c22-8.2,31.7-44.8,17.8-65.7c-0.6-0.9-2-0.5-2,0.6l0,47.8c0,0.6-0.5,1.1-1.1,1.1c-4.5-0.1-7.3-0.9-8.6,0.2c-10.6,8.4-14.9-0.5-20-7
		c-1.4-1.8-2-4.3-3.2-6.4c-4.1-7.5-5.4-7.8-9.1-3.3c-0.3,0.4-0.3,0.9,0,1.4c4.8,6.8,9.1,12.9,13.4,19.1c0.3,0.5,0.3,1.1-0.2,1.4
		l-1.1,1c-0.4,0.4-1.1,0.4-1.5,0c-5.6-5-12-9.5-16.2-15.5c-3.5-5-5.4-12.1-5.4-18.3c0.1-7.5,2.7-15,4.9-22.3c0.6-2.1,3.2-4.4,5.3-5
		c6-1.7,12.2-2.8,18.4-3.8c12.2-2,24.9-5.9,32.2,9.5c0.6,1.3,2.8,1.9,5.1,2.9c0.6,0.3,1.4-0.1,1.5-0.8c2.1-11.1-1.9-19.5-8.2-27
		c-6.8-8.1-13.4-7.4-19.2,1.4c-10.2,15.2-16.5,15.8-31.4,4.3c-3.6-2.8-10.6-4.9-14.2-3.2c-10.4,4.8-20.6,28.2-19.3,44.3
		c0.1,0.9,1.2,1.3,1.9,0.7c6.8-6.5,12.7-12,17.6-16.7c0.7-0.7,1.8-0.2,1.9,0.7c0.2,4,0.7,8.6-0.3,12.8c-1.1,4.7-3.5,11.1-7.3,12.9
		c-26.5,13-35.1,36.7-38.9,63.2c-1,7-0.4,14.3-0.2,23.2c0,1.1-1.4,1.5-2,0.7c-18.1-24.7-24.6-49.2-15.2-76.9c0.4-1.1-1.1-2-1.9-1.1
		c-2.8,3.2-4.8,6.6-6.5,10.1c-1.2,2.4-0.6,5.9-2,8c-12.7,19.4-12.5,30.8,2.1,46.7c19.4,21,34.8,44.2,43,72.1
		c4.6,15.9,28.8,25.4,44.4,18.8c0.5-0.2,0.8-0.9,0.6-1.4c-1.7-4.4-3.3-8.7-5-13.1L206.4,600.5z M217.7,282.7c-1-1-2-1.9-2.9-2.9
		c-0.3-0.3-0.8-0.4-1.2-0.2c-15.4,5.6-30.8,11.3-46.1,16.9c-1.3,0.5-2.1-1.3-0.9-2c11.6-6.5,23.3-13,34.7-19.4
		c0.7-0.4,0.8-1.3,0.2-1.8c-20.8-18.7-84.1-12.5-107.4,11.8c-0.7,0.7-0.1,2,0.9,1.9l12.3-1.1c1.3-0.1,1.7,1.7,0.5,2.1
		c-17.9,6.6-33.2,15.5-46,28.6c-0.7,0.8-0.1,2,1,1.9c12.9-2.1,25.7-4.3,40.4-6.7c1.1-0.2,1.8,1.2,0.9,2
		c-24.7,19.5-37.5,43.6-40.1,74.5c-0.1,0.7,0.6,1.3,1.3,1.2c16.2-3.3,26.4-12.2,33.4-25.4c0.5-0.9,1.7-0.8,2,0.2
		c0.9,2.8,1.9,5.7,3.3,9.9c0.3,0.9,1.6,1,2,0.2c6.8-12.3,12.4-22.6,17.8-32.4c0.5-0.9,1.8-0.7,2,0.3c1.1,4.1,2.3,8.9,3.7,14.4
		c0.2,0.8,1.3,1.1,1.9,0.5c11.4-11.6,8.1-26.1,10.4-40.9c0.2-1.2,1.9-1.3,2.2-0.1c1.4,6.1,2.4,10.9,3.5,15.6
		c0.2,0.9,1.3,1.2,1.9,0.5c6.9-7.8,12.6-14.2,18.5-20.8c0.9-1,2.5,0.2,1.8,1.3c-4,6.3-7.4,11.8-12.9,20.6c-0.5,0.8,0.2,1.8,1.1,1.7
		l8.1-1.3c1-0.2,1.7,0.6,1.5,1.4c-8.2,30.2-7.8,36.5,5.6,48.9c0.6,0.5,1.6,0.3,1.8-0.5c3-8.8,5.7-16.7,8.4-24.7
		c0.3-0.8,1.3-1,1.9-0.4l3.5,3.8c0.7,0.7,1.9,0.3,1.9-0.7c0.4-6.6,0.8-12.1,1.1-17.8c0.1-0.9,1.1-1.3,1.8-0.8c2.7,2,4.8,3.5,7.1,5.2
		c0.8,0.6,2-0.1,1.7-1.1c-1.5-7.1-3-14.2-4.4-21.2c-0.2-1,0.9-1.7,1.7-1.1c1.6,1.2,3.4,2.6,6.1,4.6c0.7,0.5,1.8,0,1.8-0.9
		c0.3-16.9-5.8-33.1,10.2-44.1C218.2,284,218.2,283.2,217.7,282.7z M332.9,181.7c0.7-0.8-0.1-2-1.1-1.8c-12.6,3.4-26.1,4.7-37.9,9.8
		c-10.1,4.4-19,11.7-29,18.5c-0.8,0.5-1.9-0.2-1.7-1.1c0.5-3.3,1.1-6.6,1.6-9.8c0.1-0.6-0.3-1.2-1-1.3c-12.2-1.2-25.6,4.1-32.2,15.5
		c-11,18.9-12.6,39.3-8.3,60.5c0.2,0.9,1.3,1.2,1.9,0.5c7.7-9,13.7-18.5,22.3-24.5c59.2-41.5,156.8-26.3,187.3,39
		c2.5,5.5,7,10,10.7,15c0.3,0.4,0.8,0.5,1.2,0.4l2.9-0.9c0.5-0.2,0.8-0.6,0.8-1.1c-0.8-9.2-0.6-18.6-2.7-27.5
		c-2-8.6-6.1-16.6-9.5-24.9c-0.5-1.2,1-2.1,1.9-1.2c4,4.5,7.9,8.9,12.1,13.6c0.6,0.7,1.8,0.3,1.9-0.6c3.1-27.3-19.6-44-60.7-47
		c-1.2-0.1-1.4-1.8-0.2-2.2l18.8-5.3c1-0.3,1.1-1.6,0.2-2.1c-31.7-14.8-61.3-18.9-92.8-1.5c-1.1,0.6-2.2-0.7-1.4-1.7
		C323.7,192.9,328.1,187.5,332.9,181.7z M376.8,418.7c-0.7,0.6-0.4,1.7,0.5,1.9c10.6,2.1,16.3,8.1,19.7,18.2
		c2,6.2,6.7,11.5,14.7,10.8c0.6,0,1-0.6,1-1.2l-0.5-6.6c-0.1-1.2,1.6-1.6,2.1-0.6c4.2,8.3,7.7,15.3,11.2,22.3
		c0.5,0.9,1.9,0.7,2.1-0.3c0.5-2.7,1-5.3,1.6-8.2c0.2-0.9,1.2-1.2,1.9-0.6c4.6,4.3,8.7,8.2,13.2,12.5c0.5,0.5,1.4,0.4,1.7-0.2
		c0.8-1.4,1.4-2.4,1.8-3.1c0.3-0.5,0.9-0.7,1.4-0.4c7.1,3.1,13.9,6.1,22.5,9.9c0.8,0.4,1.7-0.3,1.5-1.2c-3.9-21.5-16.9-31.5-32-40.2
		c-0.8-0.5-0.7-1.7,0.2-2c3.4-1.2,6.8-2.4,11.6-4.1c1-0.3,1-1.7,0-2.1L434,416c-1.3-0.5-0.7-2.4,0.7-2.1c6.3,1.6,12.5,3.1,20.6,5.2
		c1,0.2,1.7-0.8,1.2-1.6c-8.5-14.2-13.6-22.7-22-36.7c-0.6-1,0.6-2.2,1.6-1.5c12.7,9,19.3,23.6,29.5,34.9c8.2,9,13,10.7,20.7,8.7
		c0.7-0.2,1-0.9,0.7-1.6c-1.5-3.1-3.1-6.3-5.2-10.6c-0.4-0.9,0.4-1.9,1.4-1.5c11.7,4.3,21.9,8.1,34.5,12.8c0.9,0.3,1.8-0.5,1.4-1.4
		c-2.3-6.1-3.8-10.2-5.5-14.7c-0.3-0.9,0.5-1.8,1.4-1.4c14.2,5.4,27.2,9.5,42.2,2.2c0.8-0.4,0.9-1.5,0.1-1.9
		c-24.8-16.5-49.7-27.9-79.8-30.2c-1-0.1-1.4-1.3-0.6-2c9.2-7.5,16.3-13.4,23.8-19.5c0.9-0.7,0.2-2.1-0.9-1.9
		c-12.3,2.1-24.4,4.2-37.9,6.5c-1,0.2-1.7-1.1-1-1.8c2.4-2.7,4.7-5.1,7-7.7c0.6-0.7,0.2-1.8-0.7-1.9c-36.2-3.7-87.2,34.7-84.8,55.5
		c0.1,0.6,0.6,1.1,1.3,1c30.1-3.9,33.1-4.2,41.3,2c0.9,0.7,0.3,2.1-0.7,2C406.8,405.5,390.5,406.2,376.8,418.7z M448.6,601.1
		c-0.6,0.5-1.6,0.2-1.8-0.6c-2.7-11.4-4.7-18.7-5.9-26.2c-1.2-7.4-4.9-17.2-1.7-21.9c6.9-10,2.4-18.1,1-27.2
		c-1.1-7.1-1.5-14.5-0.6-21.5c1.4-10.6-3.5-18.3-14-21.6c-5.3-1.7-10-5.5-14.5-8.9c-2.6-2-4.6-5-8.7-9.9c-0.6-0.7-1.7-0.4-1.9,0.4
		c-2.6,10.1-5.9,17.6-5.2,24.7c0.6,5.4,3.9,10.5,6.9,15.6c0.6,1.1-0.7,2.2-1.6,1.4c-9-7-11.9-6-19.9,3.3c-0.3,0.4-0.4,1-0.1,1.4
		c6.2,8.4,14.2,16.3,18,25.8c4.1,10,5.4,21.8,5.1,32.7c-0.3,10-4.5,19.9-7.3,31c1.1-0.1-0.6-0.4-1.9,0.2c-2.6,1.3-5.1,2.8-7.7,4.3
		c-0.7,0.4-0.7,1.3-0.1,1.8c2.7,2.3,5.3,4.9,8.5,6.1c2.6,1,6.2-0.5,9.3-1.1c11.7-1.9,23.3-4.8,35.1-5.6
		c20.7-1.6,34.2-13.7,45.7-29.1c1-1.4,1.5-3.2,1.8-4.8c0.2-1-1-1.7-1.8-1C473.8,580,461.9,590,448.6,601.1z"/>
	<path stroke="#000000" stroke-width="2.8346" stroke-miterlimit="10" d="M222.2,598.5c0.8-0.1,1.4,0.6,1.2,1.4
		c-7.1,27.9-50.6,18.1-57-3.8c-8.1-27.9-23.6-51-43-72.1c-14.7-15.9-14.9-27.4-2.1-46.7c1.4-2.2,0.8-5.6,2-8
		c1.7-3.5,3.8-6.9,6.5-10.1c0.8-0.9,2.3-0.1,1.9,1.1c-9.4,27.8-2.9,52.3,15.2,76.9c0.6,0.9,2,0.4,2-0.7c-0.2-8.8-0.8-16.1,0.2-23.2
		c3.8-26.5,12.5-50.1,38.9-63.2c3.7-1.8,6.1-8.2,7.3-12.9c1-4.2,0.5-8.8,0.3-12.8c0-0.9-1.2-1.4-1.9-0.7
		c-4.9,4.7-10.7,10.2-17.6,16.7c-0.7,0.6-1.8,0.2-1.9-0.7c-1.3-16,8.9-39.5,19.3-44.3c3.6-1.7,10.6,0.4,14.2,3.2
		c14.9,11.5,21.2,10.9,31.4-4.3c5.8-8.8,12.4-9.5,19.2-1.4c6.3,7.5,10.3,15.9,8.2,27c-0.1,0.7-0.9,1.1-1.5,0.8
		c-2.3-1-4.5-1.6-5.1-2.9c-7.3-15.3-20-11.4-32.2-9.5c-6.2,1-12.4,2.1-18.4,3.8c-2.1,0.6-4.7,2.9-5.3,5c-2.2,7.3-4.8,14.8-4.9,22.3
		c-0.1,6.1,1.9,13.2,5.4,18.3c4.2,6,10.6,10.5,16.2,15.5c0.4,0.4,1.1,0.4,1.5,0l1.1-1c0.4-0.4,0.5-1,0.2-1.4
		c-4.3-6.1-8.7-12.3-13.4-19.1c-0.3-0.4-0.3-1,0-1.4c3.7-4.5,5-4.2,9.1,3.3c1.2,2.1,1.7,4.6,3.2,6.4c5.1,6.5,9.4,15.3,20,7
		c1.3-1,4.1-0.3,8.6-0.2c0.6,0,1.1-0.5,1.1-1.1l0-47.8c0-1.1,1.4-1.5,2-0.6c13.8,21,4.1,57.5-17.8,65.7c-0.5,0.2-0.8,0.8-0.7,1.3
		c5.8,21.7,11.5,43.5,17.6,66.4c0.2,0.6,0.8,1,1.4,0.8c11.5-4.4,13.6-13,14.3-21.7c0.7-8.8,1.3-18.6-10.9-21.9
		c-0.1,0-0.3-0.1-0.4-0.2c-5.4-4.5-15.1-8-10.1-16.9c1-1.8,10.6,1.1,16.6,2c0.3,0,0.6,0.2,0.8,0.5l1.1,1.8c0.5,0.7,1.5,0.7,1.9-0.1
		c3.6-7.3,7.8-14.5,10-22.2c5.8-19.9,10.6-40.1,15.7-60.2c0.5-1.8,0.6-4,0.1-5.8c-3.1-11.6-6.4-23.2-9.5-34.1
		c-0.2-0.7-0.9-1-1.5-0.7c-8.7,4.4-34.7,2.8-43-4.3c-7.6-6.5-10.3-20.1-3.7-30.6c10.6-16.8,16.2-34.7,20.2-54.2
		c6.3-30.2,50.9-50.5,78.7-37.9c3.1,1.4,5.9,3.6,8.7,5.5c0.6,0.4,0.7,1.2,0.2,1.7l-1.2,1.4c4.2-1.2,8.3-2.7,12.5-3.6
		c14.8-3.2,17.6-1.3,21.1,13c1.1,4.4,3.5,8.5,5.3,12.7c0.6,1.5,2.1,3.3,1.7,4.3c-7.3,18.2,3.9,35.4,3.1,53.2
		c-0.2,4-0.3,8.1,0.7,11.9c5.3,20.9-6.9,31.7-22.8,40.5c-10,5.6-19.2,5.5-27.8-2.3c-0.4-0.4-1.1-0.4-1.5,0
		c-9.3,9.4-9.6,20.9-4.6,31.9c10.1,22.1,20.9,43.9,32.6,65.2c7.1,13.1,8.1,14.1-2.6,21.5c-0.7,0.5-0.7,1.5,0.1,1.9
		c12.8,6.8,26.6,33.7,24.8,49.5c-0.1,0.8-0.9,1.2-1.6,0.9c-7.6-3.6-6.6-11.5-8.4-17.8c-2.3-8-4-16.1-7.1-23.7
		c-0.9-2.1-6.4-4.2-8.7-3.4c-2.7,0.9-5.7,5.1-5.8,8c-0.7,12.3-0.9,24.7-0.2,37c0.5,7.9,2.4,15.8,4.4,23.5
		c4.7,18.5,10.5,22.7,25.9,17.2c1.1-0.4,2,1.1,1.1,1.9c-9.3,8.5-20.2,6.9-25.7-5.8c-5.2-11.9-9.5-25.1-9.9-37.9
		c-0.4-14.4-7.6-24.4-14.9-35.9c-0.5-0.8-1.8-0.6-2,0.4c-3.8,19.4-6.3,37.7,1.6,56.9c4.3,10.5,4,22.9,5.2,33.7
		c0.1,0.9,1.2,1.3,1.8,0.7c1.3-1.2,3.1-2.8,5-4.6c0.4-0.4,1-0.4,1.4-0.1l1.1,0.8c0.4,0.3,0.6,0.9,0.3,1.4c-1.8,3.2-3.2,6.9-5.8,9.1
		c-2.9,2.4-6.8,3.5-10.5,5c-0.7,0.3-1.5-0.2-1.5-1c0-3.7-0.1-7.4-0.1-11.1c0.1-6.4,2.7-13.9,0.2-19.1c-9.2-19.6-13.6-39.8-12.8-61.3
		c0-1.2-1.7-1.6-2.1-0.5c-7.2,17.8-11.3,36.2-9.5,55.7c1,10.7,1.1,20.8-9.9,27c-0.9,0.5-0.6,1.9,0.4,2c2.5,0.3,4.7,0.6,6.8,0.8
		c0.5,0.1,0.9,0.4,1,0.9l0.3,1.8c0.1,0.6-0.3,1.1-0.8,1.2c-5.7,1.6-11.5,4.2-17,3.8c-7.5-0.5-6.8-7.4-2.1-9.8
		c16.7-8.5,10.6-22.8,11.9-36.2c1.9-19.6,7-39,11.2-58.3c1.1-4.8,3.6-9.4,5.7-14.2c0.3-0.7-0.1-1.4-0.9-1.5
		c-19.6-2.8-21.6-3.5-23.2-19.2c-0.1-1.2-1.8-1.4-2.1-0.3c-5.3,15.3-17.4,28.2-14,46.8c1.9,10.4-2.8,20.3-12,27.2
		c-2,1.5-4.3,5.5-3.6,7.3c4.1,11.9,9.3,23.5,13.6,35.4c1.2,3.4,1.3,7.3,1.8,11.1c0.1,0.7-0.5,1.3-1.3,1.2c-4.6-0.7-9.9-0.5-12.8-3.1
		c-4.2-3.7-6.5-9.9-9-15.3c-7.7-16.5-15.1-33.1-23-49.6c-0.5-1.1-2.2-0.6-2.1,0.6c1.5,17.9,2.8,35.7,13.4,51.5
		c1.7,2.6,3.6,5.8,3.6,8.7c-0.1,3.5-1.2,8.7-3.6,10.1c-2.5,1.4-8.8,0.5-10.4-1.6c-5.8-7.6-13.4-10.2-22.2-11.2
		c-0.1,0-0.3-0.1-0.4-0.1c-1.6-0.9-3.2-1.8-4.8-2.7c-0.7-0.4-0.7-1.5,0-1.9c1.5-0.9,3.1-1.8,4.6-2.7c0.4-0.2,0.6-0.7,0.5-1.1
		c-1.2-7.8,0-15.7,1.8-23.4c0.4-1.9,3.2-5,4.1-4.8c2.3,0.6,5.2,2.4,6,4.5c3.6,9.3,6.4,18.9,9.8,28.3c1.1,3,2.9,5.8,2.9,5.7
		c-4.3-22.4-11.5-47.1-13.1-72.1c-1.8-26.9-7.5-50.8-27-70c-1.9-1.9-5.3-2.1-8.4-2.8c-0.7-0.2-1.4,0.4-1.4,1.1
		c0.3,4.2,1.4,6,2.5,7.8c9.9,16,9.2,19.7-4.3,32.5c-3.7,3.5-6.4,8-9.1,12.3c-4.4,6.9-8.5,14-14.2,23.4c-0.1,0.2-0.2,0.5-0.1,0.8
		c6.6,38,15.9,61.5,27,67.5c0.6,0.3,1.3,0.1,1.6-0.5c10.4-23.9,15-48.8,11.9-74.8c-0.4-3.7-3.5-7.1-5.7-10.6
		c-0.4-0.6-1.1-0.7-1.7-0.2c-2.4,2.1-4.8,4.3-7.4,6.3c-1.2,0.9-2.5,1.6-4.7,2.8c-0.8,0.4-1.7-0.2-1.7-1c0.4-7.9,2.6-13.1,10.4-13.8
		c8.4-0.7,15.1,2.2,16.5,11.8c3.8,25.8,4.1,51.3-9.3,77.6c-0.4,0.8,0.2,1.7,1.1,1.6C206,600.4,208.6,600.1,222.2,598.5z
		 M299.5,275.5l-1.4-0.6c-0.6-0.3-1.3,0-1.5,0.7c-13.5,39.7-9.5,79.8-0.2,119.8c0.6,2.7,8.6,6.1,11.9,5.1c5.3-1.5,11.1-5.5,14-10.1
		c12.6-20.3,25.2-40.7,35.8-62.1c10.7-21.5,5.2-33.8-17-42.6c-7-2.8-11.4-12.1-21.2-8.8c-0.4,0.1-1.9-3.2-2.7-4.9
		c-0.2-0.5-0.8-0.7-1.3-0.6c-5.4,1.5-10.6,2.9-15.7,4.3C300,275.6,299.7,275.6,299.5,275.5z M316.8,421.3l1.8-0.2
		c0.6-0.1,1.1,0.3,1.2,0.9c0.9,4.6,1.9,9.2,2.8,13.8c3.4,17.2,5.8,34.6,10.5,51.4c5,18,15.8,19.6,29.6,4.7c0.4-0.4,0.4-1,0-1.5
		c-21.2-25.2-33.1-55.3-41.2-89.2c-0.2-0.7-1-1.1-1.7-0.7c-8.1,5.2-17.6,8.5-19.8,14.4c-9.7,25.9-4.5,52.5-0.9,78.8
		c0.1,0.5,0.5,1,1.1,1l23.9,0c0.7,0,1.2-0.6,1.1-1.3c-3.2-24-6.2-47.5-9.3-71C315.7,421.9,316.2,421.4,316.8,421.3z M243.5,544.1
		c0.8,0.7,2.1-0.1,1.8-1.1c-4.1-15.5-8.3-31.1-12.4-46.6c-3.9-14.9-4.1-15.6-20.1-21c-0.9-0.3-1.8,0.6-1.4,1.5
		C222.2,500.1,223.7,526.2,243.5,544.1z M244.6,553.2l-2.4,1.3c-0.5,0.3-0.7,0.9-0.5,1.5c7.9,16.2,15.8,32.5,23.7,48.7
		c0.3,0.6,1,0.8,1.6,0.5l0,0c0.5-0.3,0.7-0.9,0.5-1.4c-7.1-16.7-14.2-33.4-21.3-50C245.9,553.1,245.2,552.9,244.6,553.2z"/>
	<path stroke="#000000" stroke-width="2.8346" stroke-miterlimit="10" d="M217.6,284.4c-16,11-9.9,27.2-10.2,44.1
		c0,0.9-1.1,1.4-1.8,0.9c-2.7-2-4.6-3.4-6.1-4.6c-0.8-0.6-2,0.1-1.7,1.1c1.5,7,3,14.1,4.4,21.2c0.2,1-0.9,1.7-1.7,1.1
		c-2.3-1.7-4.4-3.2-7.1-5.2c-0.7-0.5-1.7-0.1-1.8,0.8c-0.4,5.6-0.7,11.1-1.1,17.8c-0.1,1-1.3,1.4-1.9,0.7l-3.5-3.8
		c-0.6-0.6-1.6-0.4-1.9,0.4c-2.7,7.9-5.4,15.9-8.4,24.7c-0.3,0.8-1.2,1-1.8,0.5c-13.4-12.4-13.9-18.7-5.6-48.9
		c0.2-0.8-0.5-1.5-1.2-1.4l-8.7,1.4c-0.6,0.1-1.3-0.9-0.8-1.7c5.5-8.8,9-14.3,12.9-20.6c0.7-1.2-0.9-2.3-1.8-1.3
		c-5.9,6.7-11.6,13.1-18.5,20.8c-0.6,0.7-1.7,0.4-1.9-0.5c-1-4.7-2.1-9.5-3.5-15.6c-0.3-1.2-2-1.1-2.2,0.1
		c-2.3,14.8,1,29.3-10.4,40.9c-0.6,0.6-1.7,0.3-1.9-0.5c-1.4-5.5-2.6-10.3-3.7-14.4c-0.3-1-1.6-1.1-2-0.3c-5.3,9.7-11,20-17.8,32.4
		c-0.5,0.8-1.7,0.7-2-0.2c-1.4-4.2-2.4-7.1-3.3-9.9c-0.3-0.9-1.6-1-2-0.2c-7,13.2-17.2,22.1-33.4,25.4c-0.7,0.1-1.4-0.5-1.3-1.2
		c2.6-30.9,15.4-55,40.1-74.5c0.9-0.7,0.3-2.1-0.9-2c-14.6,2.4-27.5,4.6-40.4,6.7c-1.1,0.2-1.7-1.1-1-1.9c12.8-13.2,28.1-22,46-28.6
		c1.2-0.4,0.8-2.3-0.5-2.1L95,286.9c-1,0.1-1.6-1.1-0.9-1.9c23.3-24.3,86.6-30.5,107.4-11.8c0.6,0.5,0.5,1.4-0.2,1.8
		c-11.4,6.4-23.1,12.9-34.7,19.4c-1.2,0.7-0.4,2.5,0.9,2c15.4-5.6,30.8-11.3,46.1-16.9c0.4-0.1,0.8-0.1,1.2,0.2c1,1,2,1.9,2.9,2.9
		C218.2,283.2,218.2,284,217.6,284.4z"/>
	<path stroke="#000000" stroke-width="2.8346" stroke-miterlimit="10" d="M332.9,181.7c-4.7,5.8-9.2,11.2-15,18.4
		c-0.8,0.9,0.3,2.3,1.4,1.7c31.5-17.4,61.1-13.2,92.8,1.5c0.9,0.4,0.8,1.8-0.2,2.1c-7,2-13,3.7-18.8,5.3c-1.2,0.3-1,2.1,0.2,2.2
		c41,3,63.7,19.7,60.7,47c-0.1,1-1.3,1.3-1.9,0.6c-4.2-4.7-8.2-9.2-12.1-13.6c-0.8-0.9-2.3,0-1.9,1.2c3.4,8.2,7.4,16.3,9.5,24.9
		c2.1,8.9,2,18.3,2.7,27.5c0,0.5-0.3,1-0.8,1.1l-2.9,0.9c-0.5,0.1-0.9,0-1.2-0.4c-3.7-4.9-8.1-9.5-10.7-15
		c-30.5-65.3-128.1-80.5-187.3-39c-8.5,6-14.6,15.5-22.3,24.5c-0.6,0.7-1.7,0.4-1.9-0.5c-4.4-21.2-2.7-41.6,8.3-60.5
		c6.6-11.3,20-16.7,32.2-15.5c0.6,0.1,1.1,0.7,1,1.3c-0.5,3.2-1.1,6.5-1.6,9.8c-0.2,1,0.9,1.7,1.7,1.1c9.9-6.7,18.8-14.1,29-18.5
		c11.8-5.1,25.3-6.5,37.9-9.8C332.8,179.6,333.5,180.9,332.9,181.7z"/>
	<path stroke="#000000" stroke-width="2.8346" stroke-miterlimit="10" d="M376.8,418.7c13.6-12.5,30-13.3,47.4-12
		c1.1,0.1,1.6-1.3,0.7-2c-8.1-6.2-11.2-5.9-41.3-2c-0.6,0.1-1.2-0.4-1.3-1c-2.4-20.8,48.6-59.2,84.8-55.5c0.9,0.1,1.3,1.2,0.7,1.9
		c-2.3,2.6-4.6,5-7,7.7c-0.7,0.8,0,2,1,1.8c13.5-2.3,25.6-4.4,37.9-6.5c1.1-0.2,1.8,1.2,0.9,1.9c-7.4,6.1-14.6,11.9-23.8,19.5
		c-0.8,0.6-0.4,1.9,0.6,2c30.1,2.3,55,13.8,79.8,30.2c0.7,0.5,0.6,1.6-0.1,1.9c-15.1,7.3-28.1,3.2-42.2-2.2
		c-0.9-0.3-1.8,0.5-1.4,1.4c1.7,4.6,3.2,8.6,5.5,14.7c0.3,0.9-0.5,1.8-1.4,1.4c-12.7-4.7-22.8-8.5-34.5-12.8
		c-0.9-0.3-1.8,0.6-1.4,1.5c2.1,4.3,3.7,7.5,5.2,10.6c0.3,0.6,0,1.4-0.7,1.6c-7.7,2-12.5,0.3-20.7-8.7
		c-10.3-11.2-16.8-25.9-29.5-34.9c-1-0.7-2.2,0.5-1.6,1.5c8.4,14,13.5,22.5,22,36.7c0.5,0.8-0.3,1.9-1.2,1.6
		c-8.1-2-14.3-3.6-20.6-5.2c-1.3-0.3-2,1.6-0.7,2.1c5.6,2.2,11.1,4.3,19.1,7.5c1,0.4,0.9,1.7,0,2.1c-4.8,1.7-8.2,2.9-11.6,4.1
		c-0.9,0.3-1,1.5-0.2,2c15.2,8.7,28.1,18.7,32,40.2c0.2,0.9-0.7,1.6-1.5,1.2c-8.6-3.7-15.4-6.7-22.5-9.9c-0.5-0.2-1.1,0-1.4,0.4
		c-0.4,0.7-1,1.7-1.8,3.1c-0.4,0.6-1.2,0.7-1.7,0.2c-4.5-4.2-8.6-8.2-13.2-12.5c-0.6-0.6-1.7-0.3-1.9,0.6c-0.6,2.9-1.1,5.5-1.6,8.2
		c-0.2,1-1.6,1.2-2.1,0.3c-3.5-7.1-7-14-11.2-22.3c-0.5-1.1-2.2-0.6-2.1,0.6l0.5,6.6c0,0.6-0.4,1.1-1,1.2c-8,0.7-12.6-4.6-14.7-10.8
		c-3.3-10.1-9.1-16.1-19.7-18.2C376.5,420.5,376.2,419.3,376.8,418.7z"/>
	<path stroke="#000000" stroke-width="2.8346" stroke-miterlimit="10" d="M448.6,601.1c13.2-11.1,25.2-21.1,36.6-30.7
		c0.8-0.7,2,0,1.8,1c-0.3,1.5-0.8,3.4-1.8,4.8c-11.5,15.4-25,27.5-45.7,29.1c-11.8,0.9-23.4,3.7-35.1,5.6c-3.1,0.5-6.7,2-9.3,1.1
		c-3.1-1.2-5.8-3.8-8.5-6.1c-0.6-0.5-0.5-1.4,0.1-1.8c2.5-1.5,5-3.1,7.7-4.3c1.3-0.6,3.1-0.3,1.9-0.2c2.8-11.1,7-21,7.3-31
		c0.4-10.9-1-22.7-5.1-32.7c-3.9-9.5-11.8-17.4-18-25.8c-0.3-0.4-0.3-1,0.1-1.4c8-9.4,10.9-10.3,19.9-3.3c1,0.8,2.3-0.4,1.6-1.4
		c-3.1-5.1-6.4-10.2-6.9-15.6c-0.8-7,2.6-14.5,5.2-24.7c0.2-0.9,1.4-1.1,1.9-0.4c4.1,4.9,6,7.9,8.7,9.9c4.5,3.5,9.2,7.2,14.5,8.9
		c10.5,3.4,15.5,11.1,14,21.6c-0.9,7-0.5,14.4,0.6,21.5c1.4,9.2,5.9,17.3-1,27.2c-3.2,4.7,0.4,14.5,1.7,21.9
		c1.3,7.4,3.3,14.8,5.9,26.2C447,601.3,448,601.7,448.6,601.1z M441.2,596.5c-5.7-22.6-11.5-45.2-17.2-67.8
		c-0.3-1.1-1.8-1.1-2.1-0.1c-4.4,14.1-12.2,27.2-5.9,42.5c0.9,2.2-2.3,7.2-4.8,9.4c-5.3,4.6-9.9,8.3-3.1,15.3c1.2,1.3,0.9,4.1,1.1,7
		c0,0.7,0.7,1.2,1.3,1c9.4-1.9,18.5-3.7,29.8-6C440.9,597.7,441.3,597.1,441.2,596.5z M425.1,505.6c4.5,23.3,8.1,41.4,12.2,62.7
		c0.2,1.2,2,1.2,2.2,0c2.7-15.7-3.1-30.4-4.7-45.6c-0.7-6.7,0.4-13.6-1-20.1c-1.2-5.5-3.5-12.2-7.7-15.3c-6.7-5-15.1-7.9-23.1-11.6
		c-0.6-0.3-1.4,0.1-1.6,0.8c-1.7,8.3,4,14.2,11.6,20c0.8,0.6,0.5,1.8-0.5,2c-2.1,0.4-4,0.8-6.7,1.3c-0.9,0.2-1.2,1.2-0.6,1.9
		c4.4,4.5,8.1,8.3,12.5,12.8c0.6,0.6,1.5,0.4,1.8-0.4c1.3-3.3,2.2-5.6,3.3-8.5C423.4,504.4,424.9,504.5,425.1,505.6z M411.5,547.7
		c2.2-7.9,4.5-16.5,7.1-26.2c0.2-0.7-0.3-1.4-1-1.4c-8.4-0.4-15.5-0.7-22.3-1c-0.9,0-1.4,0.9-1,1.6c4.4,7.8,9.5,17.1,15.2,27.2
		C409.9,548.8,411.2,548.6,411.5,547.7z"/>
	<path fill="#FFFFFF" stroke="#000000" stroke-width="2.8346" stroke-miterlimit="10" d="M300.2,275.5c5.1-1.4,10.3-2.8,15.7-4.3
		c0.5-0.1,1.1,0.1,1.3,0.6c0.8,1.7,2.3,5,2.7,4.9c9.7-3.3,14.2,6,21.2,8.8c22.1,8.8,27.6,21.1,17,42.6
		c-10.6,21.4-23.2,41.8-35.8,62.1c-2.9,4.6-8.7,8.6-14,10.1c-3.4,1-11.3-2.5-11.9-5.1c-9.3-40-13.3-80.1,0.2-119.8
		c0.2-0.6,0.9-0.9,1.5-0.7l1.4,0.6C299.7,275.6,300,275.6,300.2,275.5z M305,347.7c-0.7,0.3-1.4,0.7-2.1,1c-0.8,0.4-0.8,1.4-0.2,1.9
		c6.7,4.7-2.6,19.2,10.7,18.3c5.9-0.4,11.3-6.6,17-10.6c0.5-0.4,0.6-1.1,0.2-1.6l-0.1-0.2c-0.4-0.4-1-0.5-1.4-0.2
		c-5.3,3.3-10.7,6.6-16.4,10.1c-0.6,0.4-1.5,0.1-1.7-0.7c-1.8-7-3.2-12.2-4.5-17.3C306.3,347.8,305.6,347.4,305,347.7z M305.6,316.9
		c-0.6-0.4-0.7-1.2-0.2-1.7c4-4,7.4-7.4,10.8-10.7c-7.8,2.6-12.5,9.1-11.7,22.4c0,0.7,0.7,1.2,1.4,1c2.6-0.7,5.2-1.5,8.8-2.6
		c0.9-0.3,1.1-1.5,0.3-2C312.5,321.5,310.4,320,305.6,316.9z"/>
	<path fill="#FFFFFF" stroke="#000000" stroke-width="2.8346" stroke-miterlimit="10" d="M206.5,600.3c-3.5,0.4-6.9,0.8-12.3,1.4
		c-0.9,0.1-1.5-0.8-1.1-1.6c13.5-26.4,13.1-51.8,9.3-77.6c-1.4-9.5-8.1-12.5-16.5-11.8c-7.9,0.7-10,5.9-10.4,13.8
		c0,0.9,0.9,1.4,1.7,1c2.2-1.2,3.5-1.9,4.7-2.8c2.5-2,4.9-4.2,7.4-6.3c0.5-0.4,1.3-0.3,1.7,0.2c2.2,3.5,5.3,6.9,5.7,10.6
		c3,26-1.5,50.9-11.9,74.8c-0.3,0.6-1,0.8-1.6,0.5c-11.1-6-20.4-29.5-27-67.5c0-0.3,0-0.5,0.1-0.8c5.7-9.4,9.7-16.5,14.2-23.4
		c2.7-4.3,5.5-8.9,9.1-12.3c13.5-12.8,14.2-16.5,4.3-32.5c-1.1-1.8-2.2-3.6-2.5-7.8c-0.1-0.7,0.6-1.3,1.4-1.1c3,0.7,6.5,1,8.4,2.8
		c19.5,19.2,25.3,43.1,27,70c1.6,25.1,8.8,49.7,13.1,72.1c0,0.1-1.8-2.7-2.9-5.7c-3.4-9.4-6.2-19-9.8-28.3c-0.8-2.1-3.7-3.9-6-4.5
		c-1-0.2-3.7,2.9-4.1,4.8c-1.7,7.8-2.9,15.6-1.8,23.4c0.1,0.4-0.1,0.9-0.5,1.1c-1.5,0.9-3.1,1.8-4.6,2.7c-0.7,0.4-0.7,1.5,0,1.9
		c1.7,1,3.3,1.9,5,2.8C206.4,600.5,206.5,600.3,206.5,600.3z"/>
	<path fill="#FFFFFF" stroke="#000000" stroke-width="2.8346" stroke-miterlimit="10" d="M315.8,422.5c3.1,23.5,6.2,46.9,9.3,71
		c0.1,0.7-0.4,1.3-1.1,1.3h-23.9c-0.6,0-1-0.4-1.1-1c-3.7-26.2-8.8-52.8,0.9-78.8c2.2-6,11.7-9.2,19.8-14.4c0.6-0.4,1.5-0.1,1.7,0.7
		c8.2,33.9,20,64,41.2,89.2c0.4,0.4,0.3,1.1,0,1.5c-13.8,14.8-24.5,13.3-29.6-4.7c-4.7-16.8-7.1-34.2-10.5-51.4
		c-0.9-4.6-1.8-9.2-2.8-13.8c-0.1-0.6-0.6-0.9-1.2-0.9l-1.8,0.2C316.2,421.4,315.7,421.9,315.8,422.5z"/>
	<path fill="#FFFFFF" stroke="#000000" stroke-width="2.8346" stroke-miterlimit="10" d="M243.5,544.1c-19.8-17.9-21.3-44-32-67.2
		c-0.4-0.9,0.5-1.8,1.4-1.5c16,5.4,16.2,6.1,20.1,21c4.1,15.6,8.2,31.1,12.4,46.6C245.6,544,244.3,544.8,243.5,544.1z"/>
	<path fill="#FFFFFF" stroke="#000000" stroke-width="2.8346" stroke-miterlimit="10" d="M246.2,553.7c7.1,16.7,14.2,33.4,21.3,50
		c0.2,0.5,0,1.1-0.5,1.4l0,0c-0.6,0.3-1.3,0.1-1.6-0.5c-7.9-16.2-15.8-32.5-23.7-48.7c-0.3-0.5-0.1-1.2,0.5-1.5
		c0.8-0.4,1.6-0.9,2.4-1.3C245.2,552.9,245.9,553.1,246.2,553.7z"/>
	<path fill="#FFFFFF" stroke="#000000" stroke-width="2.8346" stroke-miterlimit="10" d="M440.3,597.8c-11.3,2.3-20.4,4.1-29.8,6
		c-0.7,0.1-1.3-0.3-1.3-1c-0.2-2.9,0.2-5.7-1.1-7c-6.8-7-2.2-10.7,3.1-15.3c2.6-2.2,5.7-7.2,4.8-9.4c-6.3-15.2,1.5-28.4,5.9-42.5
		c0.3-1.1,1.9-1,2.1,0.1c5.7,22.6,11.4,45.1,17.2,67.8C441.3,597.1,440.9,597.7,440.3,597.8z"/>
	<path fill="#FFFFFF" stroke="#000000" stroke-width="2.8346" stroke-miterlimit="10" d="M423,505.4c-1.1,2.8-2,5.2-3.3,8.5
		c-0.3,0.8-1.3,1-1.8,0.4c-4.4-4.5-8.1-8.3-12.5-12.8c-0.6-0.6-0.3-1.7,0.6-1.9c2.7-0.5,4.6-0.9,6.7-1.3c0.9-0.2,1.2-1.4,0.5-2
		c-7.6-5.8-13.3-11.6-11.6-20c0.1-0.7,0.9-1.1,1.6-0.8c8,3.7,16.4,6.6,23.1,11.6c4.1,3.1,6.5,9.8,7.7,15.3c1.4,6.5,0.2,13.4,1,20.1
		c1.6,15.2,7.4,29.9,4.7,45.6c-0.2,1.2-1.9,1.2-2.2,0c-4.2-21.3-7.7-39.4-12.2-62.7C424.9,504.5,423.4,504.4,423,505.4z"/>
	<path fill="#FFFFFF" stroke="#000000" stroke-width="2.8346" stroke-miterlimit="10" d="M409.4,547.9
		c-5.7-10.2-10.8-19.4-15.2-27.2c-0.4-0.8,0.2-1.7,1-1.6c6.8,0.3,14,0.6,22.3,1c0.7,0,1.2,0.7,1,1.4c-2.7,9.8-5,18.3-7.1,26.2
		C411.2,548.6,409.9,548.8,409.4,547.9z"/>
	<path stroke="#000000" stroke-width="2.8346" stroke-miterlimit="10" d="M306.5,348.5c1.3,5.1,2.7,10.3,4.5,17.3
		c0.2,0.7,1,1.1,1.7,0.7c5.7-3.5,11.1-6.8,16.4-10.1c0.5-0.3,1.1-0.2,1.4,0.2l0.1,0.2c0.4,0.5,0.3,1.2-0.2,1.6
		c-5.6,4-11.1,10.2-17,10.6c-13.3,0.9-4.1-13.6-10.7-18.3c-0.7-0.5-0.6-1.5,0.2-1.9l2.1-1C305.6,347.4,306.3,347.8,306.5,348.5z"/>
	<path stroke="#000000" stroke-width="2.8346" stroke-miterlimit="10" d="M305.6,316.9c4.8,3.2,6.9,4.6,9.5,6.3
		c0.8,0.5,0.6,1.7-0.3,2c-3.6,1-6.2,1.8-8.8,2.6c-0.7,0.2-1.4-0.3-1.4-1c-0.8-13.3,3.9-19.8,11.7-22.4c-3.4,3.4-6.7,6.7-10.8,10.7
		C304.9,315.6,305,316.5,305.6,316.9z"/>
	<path stroke="#000000" stroke-width="2.8346" stroke-miterlimit="10" d="M329.7,323c4.8,3.2,6.9,4.6,9.5,6.3c0.8,0.5,0.6,1.7-0.3,2
		c-3.6,1-6.2,1.8-8.8,2.6c-0.7,0.2-1.4-0.3-1.4-1c-0.8-13.3,3.9-19.8,11.7-22.4c-3.4,3.4-6.7,6.7-10.8,10.7
		C329.1,321.8,329.2,322.6,329.7,323z"/>
</g>
</svg>
