<?xml version="1.0" encoding="utf-8"?>
<!-- Generator: Adobe Illustrator 18.1.1, SVG Export Plug-In . SVG Version: 6.00 Build 0)  -->
<svg version="1.1" xmlns="http://www.w3.org/2000/svg" xmlns:xlink="http://www.w3.org/1999/xlink" x="0px" y="0px"
	 viewBox="0 0 864 864" enable-background="new 0 0 864 864" xml:space="preserve">
<g id="Cut_Holes">
	<circle fill="#FFFFFF" stroke="#FF0000" stroke-width="2.834646e-02" stroke-miterlimit="10" cx="432" cy="414" r="1.8"/>
	<circle fill="#FFFFFF" stroke="#FF0000" stroke-width="2.834646e-02" stroke-miterlimit="10" cx="432" cy="396" r="1.8"/>
	<circle fill="#FFFFFF" stroke="#FF0000" stroke-width="2.834646e-02" stroke-miterlimit="10" cx="432" cy="378" r="1.8"/>
	<circle fill="#FFFFFF" stroke="#FF0000" stroke-width="2.834646e-02" stroke-miterlimit="10" cx="432" cy="360" r="1.8"/>
	<circle fill="#FFFFFF" stroke="#FF0000" stroke-width="2.834646e-02" stroke-miterlimit="10" cx="432" cy="342" r="1.8"/>
	<circle fill="#FFFFFF" stroke="#FF0000" stroke-width="2.834646e-02" stroke-miterlimit="10" cx="432" cy="306" r="1.8"/>
	<circle fill="#FFFFFF" stroke="#FF0000" stroke-width="2.834646e-02" stroke-miterlimit="10" cx="432" cy="324" r="1.8"/>
	<circle fill="#FFFFFF" stroke="#FF0000" stroke-width="2.834646e-02" stroke-miterlimit="10" cx="432" cy="288" r="1.8"/>
	<circle fill="#FFFFFF" stroke="#FF0000" stroke-width="2.834646e-02" stroke-miterlimit="10" cx="432" cy="576" r="1.8"/>
	<circle fill="#FFFFFF" stroke="#FF0000" stroke-width="2.834646e-02" stroke-miterlimit="10" cx="432" cy="558" r="1.8"/>
	<circle fill="#FFFFFF" stroke="#FF0000" stroke-width="2.834646e-02" stroke-miterlimit="10" cx="432" cy="540" r="1.8"/>
	<circle fill="#FFFFFF" stroke="#FF0000" stroke-width="2.834646e-02" stroke-miterlimit="10" cx="432" cy="522" r="1.8"/>
	<circle fill="#FFFFFF" stroke="#FF0000" stroke-width="2.834646e-02" stroke-miterlimit="10" cx="432" cy="504" r="1.8"/>
	<circle fill="#FFFFFF" stroke="#FF0000" stroke-width="2.834646e-02" stroke-miterlimit="10" cx="432" cy="468" r="1.8"/>
	<circle fill="#FFFFFF" stroke="#FF0000" stroke-width="2.834646e-02" stroke-miterlimit="10" cx="432" cy="486" r="1.8"/>
	<circle fill="#FFFFFF" stroke="#FF0000" stroke-width="2.834646e-02" stroke-miterlimit="10" cx="432" cy="450" r="1.8"/>
	<circle fill="#FFFFFF" stroke="#FF0000" stroke-width="2.834646e-02" stroke-miterlimit="10" cx="414" cy="432" r="1.8"/>
	<circle fill="#FFFFFF" stroke="#FF0000" stroke-width="2.834646e-02" stroke-miterlimit="10" cx="396" cy="432" r="1.8"/>
	<circle fill="#FFFFFF" stroke="#FF0000" stroke-width="2.834646e-02" stroke-miterlimit="10" cx="378" cy="432" r="1.8"/>
	<circle fill="#FFFFFF" stroke="#FF0000" stroke-width="2.834646e-02" stroke-miterlimit="10" cx="360" cy="432" r="1.8"/>
	<circle fill="#FFFFFF" stroke="#FF0000" stroke-width="2.834646e-02" stroke-miterlimit="10" cx="342" cy="432" r="1.8"/>
	<circle fill="#FFFFFF" stroke="#FF0000" stroke-width="2.834646e-02" stroke-miterlimit="10" cx="306" cy="432" r="1.8"/>
	<circle fill="#FFFFFF" stroke="#FF0000" stroke-width="2.834646e-02" stroke-miterlimit="10" cx="324" cy="432" r="1.8"/>
	<circle fill="#FFFFFF" stroke="#FF0000" stroke-width="2.834646e-02" stroke-miterlimit="10" cx="288" cy="432" r="1.8"/>
	<circle fill="#FFFFFF" stroke="#FF0000" stroke-width="2.834646e-02" stroke-miterlimit="10" cx="576" cy="432" r="1.8"/>
	<circle fill="#FFFFFF" stroke="#FF0000" stroke-width="2.834646e-02" stroke-miterlimit="10" cx="558" cy="432" r="1.8"/>
	<circle fill="#FFFFFF" stroke="#FF0000" stroke-width="2.834646e-02" stroke-miterlimit="10" cx="540" cy="432" r="1.8"/>
	<circle fill="#FFFFFF" stroke="#FF0000" stroke-width="2.834646e-02" stroke-miterlimit="10" cx="522" cy="432" r="1.8"/>
	<circle fill="#FFFFFF" stroke="#FF0000" stroke-width="2.834646e-02" stroke-miterlimit="10" cx="504" cy="432" r="1.8"/>
	<circle fill="#FFFFFF" stroke="#FF0000" stroke-width="2.834646e-02" stroke-miterlimit="10" cx="468" cy="432" r="1.8"/>
	<circle fill="#FFFFFF" stroke="#FF0000" stroke-width="2.834646e-02" stroke-miterlimit="10" cx="486" cy="432" r="1.8"/>
	<circle fill="#FFFFFF" stroke="#FF0000" stroke-width="2.834646e-02" stroke-miterlimit="10" cx="450" cy="432" r="1.8"/>
	<circle fill="#FFFFFF" stroke="#FF0000" stroke-width="2.834646e-02" stroke-miterlimit="10" cx="423" cy="423" r="1.8"/>
	<circle fill="#FFFFFF" stroke="#FF0000" stroke-width="2.834646e-02" stroke-miterlimit="10" cx="414" cy="414" r="1.8"/>
	<circle fill="#FFFFFF" stroke="#FF0000" stroke-width="2.834646e-02" stroke-miterlimit="10" cx="405" cy="405" r="1.8"/>
	<circle fill="#FFFFFF" stroke="#FF0000" stroke-width="2.834646e-02" stroke-miterlimit="10" cx="396" cy="396" r="1.8"/>
	<circle fill="#FFFFFF" stroke="#FF0000" stroke-width="2.834646e-02" stroke-miterlimit="10" cx="387" cy="387" r="1.8"/>
	<circle fill="#FFFFFF" stroke="#FF0000" stroke-width="2.834646e-02" stroke-miterlimit="10" cx="378" cy="378" r="1.8"/>
	<circle fill="#FFFFFF" stroke="#FF0000" stroke-width="2.834646e-02" stroke-miterlimit="10" cx="369" cy="369" r="1.8"/>
	<circle fill="#FFFFFF" stroke="#FF0000" stroke-width="2.834646e-02" stroke-miterlimit="10" cx="360" cy="360" r="1.8"/>
	<circle fill="#FFFFFF" stroke="#FF0000" stroke-width="2.834646e-02" stroke-miterlimit="10" cx="504" cy="504" r="1.8"/>
	<circle fill="#FFFFFF" stroke="#FF0000" stroke-width="2.834646e-02" stroke-miterlimit="10" cx="495" cy="495" r="1.8"/>
	<circle fill="#FFFFFF" stroke="#FF0000" stroke-width="2.834646e-02" stroke-miterlimit="10" cx="486" cy="486" r="1.8"/>
	<circle fill="#FFFFFF" stroke="#FF0000" stroke-width="2.834646e-02" stroke-miterlimit="10" cx="477" cy="477" r="1.8"/>
	<circle fill="#FFFFFF" stroke="#FF0000" stroke-width="2.834646e-02" stroke-miterlimit="10" cx="468" cy="468" r="1.8"/>
	<circle fill="#FFFFFF" stroke="#FF0000" stroke-width="2.834646e-02" stroke-miterlimit="10" cx="459" cy="459" r="1.8"/>
	<circle fill="#FFFFFF" stroke="#FF0000" stroke-width="2.834646e-02" stroke-miterlimit="10" cx="450" cy="450" r="1.8"/>
	<circle fill="#FFFFFF" stroke="#FF0000" stroke-width="2.834646e-02" stroke-miterlimit="10" cx="441" cy="441" r="1.8"/>
	<circle fill="#FFFFFF" stroke="#FF0000" stroke-width="2.834646e-02" stroke-miterlimit="10" cx="441" cy="423" r="1.8"/>
	<circle fill="#FFFFFF" stroke="#FF0000" stroke-width="2.834646e-02" stroke-miterlimit="10" cx="450" cy="414" r="1.8"/>
	<circle fill="#FFFFFF" stroke="#FF0000" stroke-width="2.834646e-02" stroke-miterlimit="10" cx="459" cy="405" r="1.8"/>
	<circle fill="#FFFFFF" stroke="#FF0000" stroke-width="2.834646e-02" stroke-miterlimit="10" cx="468" cy="396" r="1.8"/>
	<circle fill="#FFFFFF" stroke="#FF0000" stroke-width="2.834646e-02" stroke-miterlimit="10" cx="477" cy="387" r="1.8"/>
	<circle fill="#FFFFFF" stroke="#FF0000" stroke-width="2.834646e-02" stroke-miterlimit="10" cx="486" cy="378" r="1.8"/>
	<circle fill="#FFFFFF" stroke="#FF0000" stroke-width="2.834646e-02" stroke-miterlimit="10" cx="495" cy="369" r="1.8"/>
	<circle fill="#FFFFFF" stroke="#FF0000" stroke-width="2.834646e-02" stroke-miterlimit="10" cx="504" cy="360" r="1.8"/>
	<circle fill="#FFFFFF" stroke="#FF0000" stroke-width="2.834646e-02" stroke-miterlimit="10" cx="423" cy="441" r="1.8"/>
	<circle fill="#FFFFFF" stroke="#FF0000" stroke-width="2.834646e-02" stroke-miterlimit="10" cx="414" cy="450" r="1.8"/>
	<circle fill="#FFFFFF" stroke="#FF0000" stroke-width="2.834646e-02" stroke-miterlimit="10" cx="405" cy="459" r="1.8"/>
	<circle fill="#FFFFFF" stroke="#FF0000" stroke-width="2.834646e-02" stroke-miterlimit="10" cx="396" cy="468" r="1.8"/>
	<circle fill="#FFFFFF" stroke="#FF0000" stroke-width="2.834646e-02" stroke-miterlimit="10" cx="387" cy="477" r="1.8"/>
	<circle fill="#FFFFFF" stroke="#FF0000" stroke-width="2.834646e-02" stroke-miterlimit="10" cx="378" cy="486" r="1.8"/>
	<circle fill="#FFFFFF" stroke="#FF0000" stroke-width="2.834646e-02" stroke-miterlimit="10" cx="369" cy="495" r="1.8"/>
	<circle fill="#FFFFFF" stroke="#FF0000" stroke-width="2.834646e-02" stroke-miterlimit="10" cx="360" cy="504" r="1.8"/>
	<circle fill="#FFFFFF" stroke="#FF0000" stroke-width="2.834646e-02" stroke-miterlimit="10" cx="432" cy="432" r="3.6"/>
	<circle fill="none" stroke="#FF0000" stroke-width="2.834646e-02" stroke-miterlimit="10" cx="432" cy="432" r="360"/>
	<circle fill="#FFFFFF" stroke="#FF0000" stroke-width="2.834646e-02" stroke-miterlimit="10" cx="432" cy="144" r="1.8"/>
	<circle fill="#FFFFFF" stroke="#FF0000" stroke-width="2.834646e-02" stroke-miterlimit="10" cx="401.9" cy="145.6" r="1.8"/>
	<circle fill="#FFFFFF" stroke="#FF0000" stroke-width="2.834646e-02" stroke-miterlimit="10" cx="372.1" cy="150.3" r="1.8"/>
	<circle fill="#FFFFFF" stroke="#FF0000" stroke-width="2.834646e-02" stroke-miterlimit="10" cx="343" cy="158.1" r="1.8"/>
	<circle fill="#FFFFFF" stroke="#FF0000" stroke-width="2.834646e-02" stroke-miterlimit="10" cx="314.9" cy="168.9" r="1.8"/>
	<circle fill="#FFFFFF" stroke="#FF0000" stroke-width="2.834646e-02" stroke-miterlimit="10" cx="288" cy="182.6" r="1.8"/>
	<circle fill="#FFFFFF" stroke="#FF0000" stroke-width="2.834646e-02" stroke-miterlimit="10" cx="262.7" cy="199" r="1.8"/>
	<circle fill="#FFFFFF" stroke="#FF0000" stroke-width="2.834646e-02" stroke-miterlimit="10" cx="239.3" cy="218" r="1.8"/>
	<circle fill="#FFFFFF" stroke="#FF0000" stroke-width="2.834646e-02" stroke-miterlimit="10" cx="218" cy="239.3" r="1.8"/>
	<circle fill="#FFFFFF" stroke="#FF0000" stroke-width="2.834646e-02" stroke-miterlimit="10" cx="199" cy="262.7" r="1.8"/>
	<circle fill="#FFFFFF" stroke="#FF0000" stroke-width="2.834646e-02" stroke-miterlimit="10" cx="182.6" cy="288" r="1.8"/>
	<circle fill="#FFFFFF" stroke="#FF0000" stroke-width="2.834646e-02" stroke-miterlimit="10" cx="168.9" cy="314.9" r="1.8"/>
	<circle fill="#FFFFFF" stroke="#FF0000" stroke-width="2.834646e-02" stroke-miterlimit="10" cx="158.1" cy="343" r="1.8"/>
	<circle fill="#FFFFFF" stroke="#FF0000" stroke-width="2.834646e-02" stroke-miterlimit="10" cx="150.3" cy="372.1" r="1.8"/>
	<circle fill="#FFFFFF" stroke="#FF0000" stroke-width="2.834646e-02" stroke-miterlimit="10" cx="145.6" cy="401.9" r="1.8"/>
	<circle fill="#FFFFFF" stroke="#FF0000" stroke-width="2.834646e-02" stroke-miterlimit="10" cx="144" cy="432" r="1.8"/>
	<circle fill="#FFFFFF" stroke="#FF0000" stroke-width="2.834646e-02" stroke-miterlimit="10" cx="145.6" cy="462.1" r="1.8"/>
	<circle fill="#FFFFFF" stroke="#FF0000" stroke-width="2.834646e-02" stroke-miterlimit="10" cx="150.3" cy="491.9" r="1.8"/>
	<circle fill="#FFFFFF" stroke="#FF0000" stroke-width="2.834646e-02" stroke-miterlimit="10" cx="158.1" cy="521" r="1.8"/>
	<circle fill="#FFFFFF" stroke="#FF0000" stroke-width="2.834646e-02" stroke-miterlimit="10" cx="168.9" cy="549.1" r="1.8"/>
	<circle fill="#FFFFFF" stroke="#FF0000" stroke-width="2.834646e-02" stroke-miterlimit="10" cx="182.6" cy="576" r="1.8"/>
	<circle fill="#FFFFFF" stroke="#FF0000" stroke-width="2.834646e-02" stroke-miterlimit="10" cx="199" cy="601.3" r="1.8"/>
	<circle fill="#FFFFFF" stroke="#FF0000" stroke-width="2.834646e-02" stroke-miterlimit="10" cx="218" cy="624.7" r="1.8"/>
	<circle fill="#FFFFFF" stroke="#FF0000" stroke-width="2.834646e-02" stroke-miterlimit="10" cx="239.3" cy="646" r="1.8"/>
	<circle fill="#FFFFFF" stroke="#FF0000" stroke-width="2.834646e-02" stroke-miterlimit="10" cx="262.7" cy="665" r="1.8"/>
	<circle fill="#FFFFFF" stroke="#FF0000" stroke-width="2.834646e-02" stroke-miterlimit="10" cx="288" cy="681.4" r="1.8"/>
	<circle fill="#FFFFFF" stroke="#FF0000" stroke-width="2.834646e-02" stroke-miterlimit="10" cx="314.9" cy="695.1" r="1.8"/>
	<circle fill="#FFFFFF" stroke="#FF0000" stroke-width="2.834646e-02" stroke-miterlimit="10" cx="343" cy="705.9" r="1.8"/>
	<circle fill="#FFFFFF" stroke="#FF0000" stroke-width="2.834646e-02" stroke-miterlimit="10" cx="372.1" cy="713.7" r="1.8"/>
	<circle fill="#FFFFFF" stroke="#FF0000" stroke-width="2.834646e-02" stroke-miterlimit="10" cx="401.9" cy="718.4" r="1.8"/>
	<circle fill="#FFFFFF" stroke="#FF0000" stroke-width="2.834646e-02" stroke-miterlimit="10" cx="432" cy="720" r="1.8"/>
	<circle fill="#FFFFFF" stroke="#FF0000" stroke-width="2.834646e-02" stroke-miterlimit="10" cx="462.1" cy="718.4" r="1.8"/>
	<circle fill="#FFFFFF" stroke="#FF0000" stroke-width="2.834646e-02" stroke-miterlimit="10" cx="491.9" cy="713.7" r="1.8"/>
	<circle fill="#FFFFFF" stroke="#FF0000" stroke-width="2.834646e-02" stroke-miterlimit="10" cx="521" cy="705.9" r="1.8"/>
	<circle fill="#FFFFFF" stroke="#FF0000" stroke-width="2.834646e-02" stroke-miterlimit="10" cx="549.1" cy="695.1" r="1.8"/>
	<circle fill="#FFFFFF" stroke="#FF0000" stroke-width="2.834646e-02" stroke-miterlimit="10" cx="576" cy="681.4" r="1.8"/>
	<circle fill="#FFFFFF" stroke="#FF0000" stroke-width="2.834646e-02" stroke-miterlimit="10" cx="601.3" cy="665" r="1.8"/>
	<circle fill="#FFFFFF" stroke="#FF0000" stroke-width="2.834646e-02" stroke-miterlimit="10" cx="624.7" cy="646" r="1.8"/>
	<circle fill="#FFFFFF" stroke="#FF0000" stroke-width="2.834646e-02" stroke-miterlimit="10" cx="646" cy="624.7" r="1.8"/>
	<circle fill="#FFFFFF" stroke="#FF0000" stroke-width="2.834646e-02" stroke-miterlimit="10" cx="665" cy="601.3" r="1.8"/>
	<circle fill="#FFFFFF" stroke="#FF0000" stroke-width="2.834646e-02" stroke-miterlimit="10" cx="681.4" cy="576" r="1.8"/>
	<circle fill="#FFFFFF" stroke="#FF0000" stroke-width="2.834646e-02" stroke-miterlimit="10" cx="695.1" cy="549.1" r="1.8"/>
	<circle fill="#FFFFFF" stroke="#FF0000" stroke-width="2.834646e-02" stroke-miterlimit="10" cx="705.9" cy="521" r="1.8"/>
	<circle fill="#FFFFFF" stroke="#FF0000" stroke-width="2.834646e-02" stroke-miterlimit="10" cx="713.7" cy="491.9" r="1.8"/>
	<circle fill="#FFFFFF" stroke="#FF0000" stroke-width="2.834646e-02" stroke-miterlimit="10" cx="718.4" cy="462.1" r="1.8"/>
	<circle fill="#FFFFFF" stroke="#FF0000" stroke-width="2.834646e-02" stroke-miterlimit="10" cx="720" cy="432" r="1.8"/>
	<circle fill="#FFFFFF" stroke="#FF0000" stroke-width="2.834646e-02" stroke-miterlimit="10" cx="718.4" cy="401.9" r="1.8"/>
	<circle fill="#FFFFFF" stroke="#FF0000" stroke-width="2.834646e-02" stroke-miterlimit="10" cx="713.7" cy="372.1" r="1.8"/>
	<circle fill="#FFFFFF" stroke="#FF0000" stroke-width="2.834646e-02" stroke-miterlimit="10" cx="705.9" cy="343" r="1.8"/>
	<circle fill="#FFFFFF" stroke="#FF0000" stroke-width="2.834646e-02" stroke-miterlimit="10" cx="695.1" cy="314.9" r="1.8"/>
	<circle fill="#FFFFFF" stroke="#FF0000" stroke-width="2.834646e-02" stroke-miterlimit="10" cx="681.4" cy="288" r="1.8"/>
	<circle fill="#FFFFFF" stroke="#FF0000" stroke-width="2.834646e-02" stroke-miterlimit="10" cx="665" cy="262.7" r="1.8"/>
	<circle fill="#FFFFFF" stroke="#FF0000" stroke-width="2.834646e-02" stroke-miterlimit="10" cx="646" cy="239.3" r="1.8"/>
	<circle fill="#FFFFFF" stroke="#FF0000" stroke-width="2.834646e-02" stroke-miterlimit="10" cx="624.7" cy="218" r="1.8"/>
	<circle fill="#FFFFFF" stroke="#FF0000" stroke-width="2.834646e-02" stroke-miterlimit="10" cx="601.3" cy="199" r="1.8"/>
	<circle fill="#FFFFFF" stroke="#FF0000" stroke-width="2.834646e-02" stroke-miterlimit="10" cx="576" cy="182.6" r="1.8"/>
	<circle fill="#FFFFFF" stroke="#FF0000" stroke-width="2.834646e-02" stroke-miterlimit="10" cx="549.1" cy="168.9" r="1.8"/>
	<circle fill="#FFFFFF" stroke="#FF0000" stroke-width="2.834646e-02" stroke-miterlimit="10" cx="521" cy="158.1" r="1.8"/>
	<circle fill="#FFFFFF" stroke="#FF0000" stroke-width="2.834646e-02" stroke-miterlimit="10" cx="491.9" cy="150.3" r="1.8"/>
	<circle fill="#FFFFFF" stroke="#FF0000" stroke-width="2.834646e-02" stroke-miterlimit="10" cx="462.1" cy="145.6" r="1.8"/>
</g>
<g id="Cut_Tools">
	<g>
		<path fill="none" stroke="#FF0000" stroke-width="2.834646e-02" stroke-miterlimit="10" d="M188,43.4c0,2-1.6,3.6-3.6,3.6H29.6
			c-2,0-3.6-0.1-3.6-0.2s-0.1-0.3-0.2-0.4s1-1.3,2.5-2.6l3.6-3.2c1.5-1.3,2.8-2.3,2.9-2.2s0.2,0.1,0.2-0.1s1.6-0.2,3.6-0.2h135.8
			c2,0,3.6-0.5,3.6-1s-1.6-1-3.6-1H38.6c-2,0-3.6-0.1-3.6-0.2s-0.1-0.2-0.2-0.1s-1.4-0.9-2.9-2.2l-3.5-3.1c-1.5-1.3-2.7-2.4-2.6-2.5
			s0.2-0.3,0.2-0.4s1.6-0.3,3.6-0.2l154.8,0.3c2,0,3.6,1.6,3.6,3.6V43.4z M30,43.6c-1.5,1.3-1.1,2.4,0.9,2.4h152.5
			c2,0,3.6-1.6,3.6-3.6V32.1c0-2-1.6-3.6-3.6-3.6L30.9,28.3c-2,0-2.4,1.1-0.9,2.3l2.4,2.1c1.5,1.3,4.3,2.3,6.3,2.3h136.6
			c2,0,3.6,0.9,3.6,2s-1.6,2-3.6,2H38.8c-2,0-4.8,1.1-6.3,2.4L30,43.6z"/>
	</g>
	<g>
		<path fill="none" stroke="#FF0000" stroke-width="2.834646e-02" stroke-miterlimit="10" d="M188,76.7c0,2-1.6,3.6-3.6,3.6H29.6
			c-2,0-3.6-0.1-3.6-0.3c0-0.2-0.1-0.4-0.2-0.6c-0.1-0.1,0.9-1.4,2.2-2.9l4.2-4.7c1.3-1.5,2.5-2.6,2.6-2.5c0.1,0.1,0.2,0.1,0.2-0.1
			c0-0.2,1.6-0.3,3.6-0.3h135.8c2,0,3.6-0.6,3.6-1.3c0-0.7-1.6-1.3-3.6-1.3H38.6c-2,0-3.6-0.1-3.6-0.3c0-0.2-0.1-0.2-0.2-0.1
			s-1.3-1-2.6-2.4L28.1,59c-1.3-1.5-2.4-2.8-2.3-2.9c0.1-0.1,0.2-0.4,0.2-0.6s1.6-0.3,3.6-0.3l154.8,0.3c2,0,3.6,1.6,3.6,3.6V76.7z
			 M29.7,76.3c-1.3,1.5-0.8,2.7,1.2,2.7h152.5c2,0,3.6-1.6,3.6-3.6V60.4c0-2-1.6-3.6-3.6-3.6L30.9,56.5c-2,0-2.5,1.2-1.2,2.6l3,3.2
			c1.3,1.5,4.1,2.7,6,2.7h136.6c2,0,3.6,1.1,3.6,2.5s-1.6,2.5-3.6,2.5H38.8c-2,0-4.7,1.2-6,2.7L29.7,76.3z"/>
	</g>
	<g>
		<path fill="none" stroke="#FF0000" stroke-width="2.834646e-02" stroke-miterlimit="10" d="M188,118.4c0,2-1.6,3.6-3.6,3.6H29.6
			c-2,0-3.6-0.2-3.6-0.4s-0.1-0.6-0.2-0.7c-0.1-0.2,0.7-1.7,1.8-3.3l5-7.7c1.1-1.7,2.1-2.9,2.1-2.7s0.2,0.1,0.2-0.1s1.6-0.4,3.6-0.4
			h135.8c2,0,3.6-0.8,3.6-1.7c0-0.9-1.6-1.7-3.6-1.7H38.6c-2,0-3.6-0.2-3.6-0.4s-0.1-0.3-0.2-0.1c-0.1,0.2-1.1-1-2.2-2.7l-5-7.3
			c-1.1-1.6-2-3.1-1.9-3.3c0.1-0.2,0.2-0.5,0.2-0.8c0-0.2,1.6-0.4,3.6-0.4l154.8,0.4c2,0,3.6,1.6,3.6,3.6V118.4z M29.3,117.3
			c-1.1,1.7-0.4,3,1.6,3h152.5c2,0,3.6-1.6,3.6-3.6V94c0-2-1.6-3.6-3.6-3.6L30.9,90c-2,0-2.7,1.3-1.6,3l3.8,5.6c1.1,1.6,3.6,3,5.6,3
			h136.6c2,0,3.6,1.5,3.6,3.4c0,1.9-1.6,3.4-3.6,3.4H38.8c-2,0-4.5,1.4-5.6,3L29.3,117.3z"/>
	</g>
</g>
<g id="Etch_Text">
	<g>
		<g>
			<path fill="#231F20" d="M164.2,630.6c-1.2-1.5-1.7-2.3-2.9-3.9c0.9-0.6,1.3-0.9,2.2-1.6c3.2,4.4,4.9,6.6,8.2,10.9
				c-0.8,0.7-1.3,1-2.1,1.7c-1.2-1.5-1.8-2.3-3-3.8c-3.6,2.8-5.5,4.2-9.1,7c-1-1.3-1.5-2-2.5-3.4
				C158.7,634.8,160.5,633.4,164.2,630.6z"/>
			<path fill="#231F20" d="M173.5,651.1c-1.7-2-2.6-3-4.2-5.1c-1,0.9-1.6,1.3-2.6,2.1c1.9,2.3,2.8,3.5,4.8,5.7c-0.8,0.7-1.2,1-2,1.7
				c-3-3.5-4.5-5.3-7.4-9c4.4-3.5,6.6-5.3,11-8.9c2.7,3.4,4.1,5.1,6.9,8.4c-0.8,0.7-1.2,1-2,1.7c-1.8-2.1-2.7-3.2-4.4-5.3
				c-0.9,0.7-1.4,1.1-2.3,1.9c1.7,2,2.5,3,4.2,5C174.7,650.1,174.3,650.4,173.5,651.1z"/>
			<path fill="#231F20" d="M185.5,665.3c1.2-1.2,2.6-2.7,4.1-4.1c0,0,0,0-0.1-0.1c-1.7,0.9-3.6,1.7-5.3,2.3
				c-2.2,0.9-3.3,1.3-5.5,2.2c-0.9-0.9-1.3-1.4-2.2-2.4c1.1-2,1.7-3.1,2.8-5.1c0.8-1.5,1.9-3.3,3-4.9c0,0,0,0,0,0
				c-1.5,1.2-3.2,2.6-4.6,3.7c-1.7,1.3-2.5,2-4.2,3.3c-1-1.1-1.5-1.7-2.5-2.9c4.6-3.4,6.9-5.1,11.4-8.5c1.4,1.6,2.1,2.4,3.5,3.9
				c-0.9,1.8-1.4,2.7-2.3,4.4c-0.8,1.5-1.8,3.1-2.7,4.5c0,0,0,0,0.1,0.1c1.5-0.7,3.3-1.6,4.9-2.2c1.9-0.7,2.8-1.1,4.7-1.9
				c1.4,1.5,2.1,2.2,3.5,3.7c-3.8,4.2-5.7,6.3-9.5,10.6c-1.1-1.1-1.7-1.7-2.8-2.9C183.2,667.7,184,666.9,185.5,665.3z"/>
			<path fill="#231F20" d="M196.6,664.5c1,0.7,2.2,1.8,3.9,3.5c1.7,1.7,2.7,3.1,3,4.4c0.3,1.3,0,2.6-0.9,3.7c-0.9,1-2.2,1.5-3.5,1.4
				c-1.7-0.2-3.5-1.2-5.1-2.9c-0.4-0.4-0.7-0.7-0.9-1c-1.4,1.4-2.1,2.2-3.5,3.6c-1.1-1.1-1.7-1.7-2.8-2.8
				C190.6,670.4,192.6,668.4,196.6,664.5z M194.8,671.8c0.2,0.3,0.5,0.6,0.9,1c1.5,1.5,3,1.7,4,0.7c0.9-0.9,0.6-2.3-0.7-3.6
				c-0.6-0.6-1-0.9-1.2-1C196.5,670,195.9,670.6,194.8,671.8z"/>
			<path fill="#231F20" d="M207.3,674.6c1.1,1,1.7,1.6,2.8,2.6c-3.1,3.4-4.6,5.1-7.7,8.5c2.1,1.9,3.1,2.8,5.2,4.6
				c-0.7,0.8-1.1,1.2-1.8,2c-3.3-2.9-5-4.4-8.2-7.4C201.5,680.8,203.5,678.8,207.3,674.6z"/>
			<path fill="#231F20" d="M213.3,693.9c-1.3,0.8-2,1.2-3.3,2c-1.3-1.1-1.9-1.6-3.1-2.7c5.3-2.9,7.9-4.4,13.1-7.4
				c1.5,1.3,2.3,1.9,3.9,3.2c-1.9,5.7-2.9,8.6-4.6,14.4c-1.3-1-2-1.6-3.3-2.6c0.5-1.5,0.7-2.2,1.2-3.7
				C215.6,695.8,214.8,695.1,213.3,693.9z M218.2,694.8c0.4-1.2,0.6-1.8,1.1-3c0.3-0.8,0.7-1.9,1.1-2.7c0,0,0,0,0,0
				c-0.7,0.5-1.6,1.2-2.3,1.6c-1.1,0.7-1.6,1-2.7,1.7C216.4,693.4,217,693.9,218.2,694.8z"/>
			<path fill="#231F20" d="M229,696.4c-1.4-1.1-2.2-1.7-3.6-2.8c0.7-0.8,1-1.3,1.7-2.1c4,3.2,6.1,4.7,10.2,7.8
				c-0.6,0.9-0.9,1.3-1.6,2.2c-1.5-1.1-2.2-1.6-3.7-2.7c-2.7,3.7-4.1,5.5-6.9,9.2c-1.3-0.9-1.9-1.4-3.2-2.4
				C224.8,701.9,226.2,700.1,229,696.4z"/>
			<path fill="#231F20" d="M242.5,712.9c-2.1-1.4-3.1-2.1-5.2-3.5c-0.8,1.1-1.2,1.7-1.9,2.8c2.3,1.6,3.5,2.4,5.8,4
				c-0.6,0.9-0.9,1.3-1.5,2.2c-3.7-2.5-5.5-3.7-9.1-6.3c3.3-4.6,4.9-6.9,8.2-11.5c3.3,2.4,5,3.6,8.4,5.8c-0.6,0.9-0.9,1.3-1.5,2.2
				c-2.2-1.5-3.2-2.2-5.4-3.7c-0.7,1-1,1.4-1.7,2.4c2,1.4,3.1,2.1,5.1,3.5C243.4,711.6,243.1,712,242.5,712.9z"/>
			<path fill="#231F20" d="M254,710.6c1.3,0.8,1.9,1.2,3.2,2c-2.4,3.9-3.6,5.9-6,9.8c2.3,1.4,3.5,2.1,5.8,3.5
				c-0.5,0.9-0.8,1.4-1.4,2.3c-3.7-2.2-5.5-3.3-9.2-5.6C249.4,717.8,250.9,715.4,254,710.6z"/>
			<path fill="#231F20" d="M267.9,719c-2.8,4.9-4.2,7.4-7,12.3c-1.4-0.8-2-1.2-3.4-1.9c2.9-4.9,4.3-7.3,7.1-12.2
				C265.9,717.8,266.6,718.2,267.9,719z"/>
			<path fill="#231F20" d="M263.8,732.9c2.8-5,4.1-7.4,6.9-12.4c1.5,0.8,2.3,1.3,3.8,2.1c0.2,2.5,0.3,3.7,0.6,6.2
				c0.2,1.8,0.2,3.8,0.2,5.6c0,0,0,0,0.1,0c0.6-1.8,1.4-3.5,2.4-5.4c0.8-1.5,1.1-2.2,1.9-3.7c1.2,0.6,1.8,0.9,3,1.5
				c-2.6,5.1-3.8,7.6-6.4,12.6c-1.4-0.7-2.2-1.1-3.6-1.8c-0.3-2.6-0.4-3.9-0.7-6.5c-0.2-1.8-0.3-3.9-0.2-5.8c0,0,0,0-0.1,0
				c-0.8,1.7-1.7,3.5-2.8,5.5c-0.8,1.5-1.2,2.2-2,3.7C265.6,733.9,265,733.6,263.8,732.9z"/>
			<path fill="#231F20" d="M290.9,739.9c-2.2-1-3.3-1.5-5.6-2.6c-0.6,1.2-0.9,1.8-1.5,3c2.5,1.2,3.8,1.8,6.3,2.9
				c-0.4,1-0.7,1.4-1.1,2.4c-3.9-1.8-5.9-2.7-9.8-4.6c2.5-5.1,3.8-7.6,6.3-12.7c3.6,1.8,5.4,2.6,9.1,4.3c-0.4,1-0.7,1.4-1.1,2.4
				c-2.3-1.1-3.5-1.6-5.8-2.7c-0.5,1.1-0.8,1.6-1.3,2.7c2.2,1.1,3.3,1.6,5.5,2.6C291.5,738.5,291.3,738.9,290.9,739.9z"/>
			<path fill="#231F20" d="M296.5,744.9c-1,1.1-1.5,1.7-2.5,2.9c-1.5-0.6-2.2-1-3.6-1.6c4.2-4.3,6.3-6.5,10.4-10.9
				c1.8,0.8,2.7,1.1,4.4,1.9c-0.3,6-0.4,9-0.6,15c-1.5-0.6-2.3-0.9-3.8-1.5c0.1-1.5,0.1-2.3,0.2-3.9
				C299.2,746.1,298.3,745.7,296.5,744.9z M301.4,744.4c0.1-1.3,0.1-1.9,0.2-3.2c0.1-0.9,0.2-2,0.3-2.8c0,0,0,0,0,0
				c-0.6,0.7-1.2,1.6-1.8,2.2c-0.8,1-1.2,1.4-2.1,2.4C299.3,743.5,300,743.8,301.4,744.4z"/>
			<path fill="#231F20" d="M311.8,740c1.2,0.3,2.8,0.8,4.7,1.5c2.3,0.8,3.7,1.7,4.6,2.8c0.7,1,0.9,2.1,0.4,3.3
				c-0.6,1.7-2.4,2.4-3.9,2.3c0,0,0,0,0,0.1c1,0.8,1.2,1.9,1.2,3.2c0,1.7-0.2,3.6,0,4.2c-1.5-0.5-2.2-0.8-3.7-1.3
				c-0.1-0.5-0.1-1.7,0-3.5c0.2-1.8-0.3-2.5-1.7-3.1c-0.4-0.2-0.6-0.2-1.1-0.4c-0.8,2.1-1.2,3.1-2,5.2c-1.4-0.5-2.1-0.8-3.5-1.3
				C308.7,747.8,309.7,745.2,311.8,740z M313,747c0.6,0.2,0.8,0.3,1.4,0.5c1.7,0.6,3.1,0.3,3.5-0.9c0.4-1.2-0.3-2.2-1.9-2.8
				c-0.8-0.3-1.3-0.4-1.6-0.5C313.8,744.8,313.6,745.5,313,747z"/>
			<path fill="#231F20" d="M327.3,748.2c-1.7-0.5-2.5-0.8-4.2-1.4c0.4-1,0.5-1.5,0.9-2.5c4.7,1.6,7.1,2.4,11.8,3.8
				c-0.3,1-0.5,1.5-0.8,2.6c-1.7-0.5-2.6-0.8-4.2-1.3c-1.4,4.4-2.1,6.6-3.5,10.9c-1.5-0.5-2.2-0.7-3.6-1.2
				C325.2,754.7,325.9,752.6,327.3,748.2z"/>
			<path fill="#231F20" d="M351.2,759.8c-1,4.1-3.7,6.5-7.7,5.4c-4.1-1.1-5-4.7-3.9-8.4c1.1-3.8,3.8-6.3,7.7-5.3
				C351.3,752.6,352.1,756.1,351.2,759.8z M343.2,757.8c-0.8,3-0.4,4.7,1,5.1c1.4,0.4,2.6-0.9,3.3-4c0.8-2.9,0.4-4.7-1-5
				C345.3,753.5,344,754.8,343.2,757.8z"/>
			<path fill="#231F20" d="M364.4,762.7c-0.8,4.1-3.4,6.6-7.4,5.7c-4.1-0.9-5.1-4.4-4.2-8.2c0.9-3.8,3.5-6.4,7.4-5.6
				C364.2,755.6,365.2,759.1,364.4,762.7z M356.4,761.1c-0.7,3-0.2,4.7,1.2,5c1.4,0.3,2.5-1,3.2-4.1c0.6-3,0.2-4.7-1.2-5
				C358.3,756.7,357.1,758,356.4,761.1z"/>
			<path fill="#231F20" d="M377.7,765.1c-0.7,4.2-3.1,6.7-7.2,6c-4.1-0.7-5.3-4.2-4.6-8c0.8-3.9,3.3-6.6,7.2-5.8
				C377.2,758,378.3,761.4,377.7,765.1z M369.6,763.8c-0.6,3.1,0,4.7,1.4,5c1.4,0.3,2.5-1.1,3-4.2c0.5-3,0.1-4.7-1.4-4.9
				C371.3,759.4,370.2,760.7,369.6,763.8z"/>
			<path fill="#231F20" d="M384.7,762.2C384.7,762.2,384.7,762.2,384.7,762.2c-1.3,0.3-1.9,0.5-3.2,0.8c-0.1-1-0.1-1.5-0.2-2.5
				c1.7-0.4,2.6-0.6,4.3-1.1c1.2,0.2,1.8,0.2,3,0.4c-0.7,5.4-1.1,8.1-1.8,13.5c-1.4-0.2-2.2-0.3-3.6-0.5
				C383.8,768.7,384.1,766.5,384.7,762.2z"/>
			<path fill="#231F20" d="M408.7,769c-0.1,0.8-0.1,1.3-0.1,2.1c-2.6-0.2-3.8-0.3-6.4-0.5c0.1-0.8,0.1-1.3,0.2-2.1
				C404.9,768.7,406.2,768.8,408.7,769z"/>
			<path fill="#231F20" d="M420.2,765.4C420.2,765.4,420.2,765.4,420.2,765.4c-1.3,0.5-1.9,0.7-3.1,1.1c-0.2-1-0.3-1.5-0.5-2.4
				c1.7-0.6,2.5-0.9,4.2-1.5c1.2,0,1.8,0.1,3,0.1c-0.1,5.5-0.2,8.2-0.4,13.6c-1.5,0-2.2-0.1-3.6-0.1
				C420,771.9,420.1,769.7,420.2,765.4z"/>
			<path fill="#231F20" d="M440.5,769.4c0.1,4.2-1.8,7.2-6,7.2c-4.2,0-6-3.2-5.9-7c0-3.9,2-7,6-7.1
				C438.7,762.5,440.4,765.7,440.5,769.4z M432.3,769.6c0,3.1,0.9,4.6,2.3,4.6c1.5,0,2.2-1.6,2.2-4.7c0-3-0.8-4.6-2.3-4.6
				C433.2,765,432.3,766.5,432.3,769.6z"/>
			<path fill="#231F20" d="M446.8,761.7c-0.6,2.1-1.6,4.2-2.7,5.8c-0.9,0.1-1.3,0.1-2.2,0.2c0.7-1.8,1.2-3.9,1.5-5.7
				C444.7,761.9,445.4,761.9,446.8,761.7z M451.4,761.5c-0.6,2.1-1.5,4.2-2.6,5.8c-0.9,0.1-1.3,0.2-2.2,0.3c0.7-1.8,1.2-3.9,1.4-5.7
				C449.4,761.7,450,761.7,451.4,761.5z"/>
			<path fill="#231F20" d="M467.7,759.7c0.5,4.7,0.8,7.1,1.3,11.8c0.1,1.1,0.3,2.4,0.4,3c-1.3,0.1-2,0.2-3.3,0.3
				c-0.1-0.6-0.2-0.9-0.3-1.5c0,0,0,0,0,0c-0.7,1.2-2.1,1.9-3.6,2.1c-2.9,0.2-5.3-1.7-5.5-4.9c-0.3-3.4,2.1-5.6,4.9-5.9
				c1.4-0.1,2.6,0.2,3.2,0.9c0,0,0,0,0,0c-0.2-2.2-0.3-3.3-0.5-5.5C465.5,759.9,466.3,759.8,467.7,759.7z M465,769
				c0-0.2-0.1-0.4-0.1-0.6c-0.3-0.8-1.2-1.5-2.3-1.4c-1.7,0.1-2.4,1.5-2.3,3.1c0.1,1.7,1.2,2.7,2.8,2.6c1.1-0.1,1.9-0.8,2-1.7
				c0.1-0.2,0.1-0.5,0-0.7C465,769.8,465,769.5,465,769z"/>
			<path fill="#231F20" d="M474.5,760.7c0.1,0.9-0.6,1.7-1.8,1.8c-1.1,0.1-2-0.5-2.1-1.4c-0.1-0.9,0.5-1.7,1.7-1.8
				C473.6,759.2,474.4,759.8,474.5,760.7z M472.3,774.2c-0.5-4.1-0.7-6.1-1.2-10.2c1.5-0.2,2.2-0.3,3.6-0.4
				c0.5,4.1,0.8,6.1,1.3,10.2C474.5,773.9,473.8,774,472.3,774.2z"/>
			<path fill="#231F20" d="M485.9,772.3c-0.2-0.4-0.2-0.6-0.4-1c0,0,0,0-0.1,0c-0.7,0.9-1.8,1.6-3.2,1.8c-2.4,0.3-4.1-1-4.3-2.6
				c-0.4-2.6,2.2-4.3,6.4-4.9c0-0.1,0-0.1,0-0.1c-0.1-0.5-0.5-1.3-2.3-1c-1.2,0.2-2.4,0.7-3.1,1.2c-0.4-0.8-0.6-1.2-1-1.9
				c0.8-0.5,2.3-1.2,4.4-1.5c3.9-0.6,5.4,1.2,5.8,3.6c0.2,1.4,0.3,2.1,0.6,3.5c0.2,1,0.4,1.9,0.6,2.4
				C487.9,772,487.2,772.1,485.9,772.3z M484.7,767.6c-1.9,0.3-3.4,0.9-3.2,2.1c0.1,0.8,0.8,1.1,1.6,1c0.9-0.1,1.6-0.8,1.7-1.5
				c0-0.2,0-0.4,0-0.6C484.8,768.3,484.8,768,484.7,767.6z"/>
			<path fill="#231F20" d="M490.8,764.4c-0.2-1.3-0.5-2.3-0.7-3.2c1.2-0.2,1.8-0.3,3-0.5c0.2,0.5,0.3,0.8,0.4,1.3c0,0,0,0,0.1,0
				c0.4-0.7,1.2-1.9,3.2-2.2c1.5-0.3,2.8,0.1,3.5,1.1c0,0,0,0,0,0c0.3-0.6,0.8-1.1,1.2-1.5c0.6-0.5,1.2-0.8,2.1-1
				c2.2-0.5,4.2,0.5,4.9,3.5c0.5,2.4,0.8,3.5,1.4,5.9c-1.4,0.3-2.2,0.5-3.6,0.8c-0.5-2.2-0.7-3.3-1.2-5.5c-0.3-1.5-1-2.2-2.2-1.9
				c-0.8,0.2-1.3,0.8-1.4,1.4c0,0.2,0,0.6,0,0.8c0.5,2.4,0.7,3.5,1.2,5.9c-1.4,0.3-2.2,0.4-3.6,0.7c-0.4-2.3-0.7-3.4-1.1-5.6
				c-0.3-1.3-0.9-2-2.1-1.8c-0.9,0.2-1.4,0.9-1.5,1.5c-0.1,0.3,0,0.6,0,0.8c0.4,2.4,0.7,3.5,1.1,5.9c-1.4,0.3-2.2,0.4-3.6,0.6
				C491.5,768.6,491.3,767.2,490.8,764.4z"/>
			<path fill="#231F20" d="M514.8,762.4c0.4,1.3,2.1,1.5,3.8,1.1c1.2-0.3,2.2-0.7,3.1-1.2c0.4,0.8,0.6,1.2,1,2
				c-1.1,0.7-2.5,1.3-4.1,1.7c-4,1-6.8-0.4-7.5-3.5c-0.6-2.5,0.6-5.7,4.5-6.7c3.7-0.9,5.8,1.2,6.4,3.6c0.1,0.5,0.2,1,0.2,1.2
				C519.3,761.3,517.8,761.6,514.8,762.4z M518.5,759.2c-0.2-0.8-0.9-1.9-2.6-1.5c-1.5,0.4-1.8,1.7-1.7,2.6
				C516,759.8,516.8,759.6,518.5,759.2z"/>
			<path fill="#231F20" d="M526.1,750c0.3,1.1,0.5,1.7,0.8,2.8c1-0.3,1.5-0.4,2.5-0.7c0.3,0.9,0.4,1.4,0.7,2.3
				c-1,0.3-1.5,0.5-2.6,0.7c0.4,1.4,0.6,2.1,1,3.6c0.3,1.2,0.8,1.6,1.9,1.3c0.5-0.1,0.8-0.3,1-0.4c0.3,0.9,0.4,1.4,0.7,2.3
				c-0.4,0.3-1.3,0.7-2.3,1c-1.2,0.3-2.3,0.3-3-0.1c-0.8-0.4-1.4-1.3-1.8-2.7c-0.5-1.6-0.7-2.4-1.1-4c-0.6,0.2-0.9,0.3-1.5,0.4
				c-0.2-0.9-0.4-1.4-0.6-2.3c0.6-0.2,0.9-0.2,1.5-0.4c-0.2-0.9-0.4-1.3-0.6-2.1C524.1,751,524.8,750.6,526.1,750z"/>
			<path fill="#231F20" d="M535.9,756.5c0.5,1.2,2.2,1.4,3.9,0.8c1.2-0.4,2.2-0.9,3.1-1.5c0.5,0.8,0.7,1.1,1.2,1.9
				c-1,0.8-2.4,1.5-4,2c-3.9,1.3-6.8,0-7.8-3.1c-0.8-2.5,0.2-5.8,4.1-7c3.6-1.2,5.9,0.8,6.7,3.2c0.2,0.5,0.3,1,0.3,1.2
				C540.4,755.1,538.9,755.6,535.9,756.5z M539.5,753.1c-0.2-0.7-1-1.8-2.6-1.3c-1.5,0.5-1.7,1.8-1.6,2.7
				C536.9,753.9,537.8,753.6,539.5,753.1z"/>
			<path fill="#231F20" d="M544.7,750.7c-0.5-1.4-0.9-2.3-1.2-3.2c1.2-0.4,1.8-0.6,3-1.1c0.3,0.7,0.5,1,0.8,1.7c0,0,0.1,0,0.1,0
				c0.1-1.6,1.2-2.7,2.3-3.1c0.3-0.1,0.5-0.2,0.7-0.2c0.4,1.1,0.6,1.7,1.1,2.8c-0.3,0.1-0.6,0.1-1,0.3c-1.3,0.5-1.9,1.4-1.8,2.4
				c0,0.2,0.1,0.5,0.2,0.7c0.7,2,1.1,2.9,1.8,4.9c-1.4,0.5-2.2,0.8-3.6,1.3C546,754.6,545.6,753.3,544.7,750.7z"/>
			<path fill="#231F20" d="M569,748.4c-0.5,0.5-1.6,1.2-3,1.8c-3.7,1.5-6.8,0.6-8-2.5c-1.1-2.8,0.2-5.9,4.3-7.6
				c0.9-0.4,1.9-0.7,2.8-0.7c0.2,1,0.2,1.4,0.4,2.4c-0.5,0-1.1,0.1-2,0.5c-1.8,0.8-2.5,2.3-1.9,3.9c0.7,1.7,2.5,2.1,4.2,1.4
				c0.8-0.3,1.4-0.7,1.9-1.1C568.2,747.2,568.5,747.6,569,748.4z"/>
			<path fill="#231F20" d="M569.3,734.2c0.4,0.8-0.1,1.8-1.2,2.3c-1.1,0.5-2.1,0.1-2.4-0.7c-0.4-0.8,0-1.8,1.1-2.3
				C567.9,733.1,568.9,733.4,569.3,734.2z M571.1,747.8c-1.6-3.8-2.5-5.7-4.1-9.4c1.4-0.6,2-0.9,3.4-1.5c1.7,3.7,2.5,5.6,4.2,9.4
				C573.2,746.9,572.5,747.2,571.1,747.8z"/>
			<path fill="#231F20" d="M574.5,738.7c-0.6-1.4-1.1-2.3-1.5-3c1.2-0.5,1.7-0.8,2.9-1.3c0.4,0.7,0.6,1,0.9,1.7c0,0,0.1,0,0.1,0
				c-0.1-1.6,1-2.8,2-3.3c0.3-0.1,0.5-0.2,0.7-0.3c0.5,1.1,0.8,1.6,1.3,2.7c-0.3,0.1-0.6,0.2-0.9,0.4c-1.2,0.6-1.8,1.6-1.6,2.6
				c0,0.2,0.1,0.4,0.2,0.7c0.9,1.9,1.3,2.8,2.2,4.7c-1.4,0.7-2.1,1-3.5,1.6C576.2,742.5,575.6,741.2,574.5,738.7z"/>
			<path fill="#231F20" d="M594,736.5c-0.5,0.5-1.5,1.3-2.8,2c-3.6,1.8-6.7,1.1-8.2-1.8c-1.3-2.7-0.2-5.9,3.7-8
				c0.9-0.4,1.9-0.8,2.7-1c0.2,1,0.3,1.4,0.6,2.4c-0.5,0.1-1.1,0.2-2,0.7c-1.8,0.9-2.4,2.6-1.6,4c0.9,1.7,2.6,1.9,4.3,1
				c0.8-0.4,1.4-0.9,1.8-1.3C593.1,735.4,593.4,735.8,594,736.5z"/>
			<path fill="#231F20" d="M589,722.6c1.3-0.7,1.9-1,3.2-1.8c2.9,5.2,4.3,7.8,7.2,13.1c-1.4,0.7-2,1.1-3.4,1.8
				C593.2,730.5,591.8,727.9,589,722.6z"/>
			<path fill="#231F20" d="M602.7,727.4c0.8,1.1,2.4,0.9,4,0c1.1-0.7,2-1.3,2.7-2.1c0.6,0.6,0.9,1,1.5,1.6c-0.9,1-2.1,2-3.6,2.8
				c-3.7,2.1-6.7,1.5-8.3-1.3c-1.3-2.3-1-5.7,2.6-7.8c3.4-2,6-0.5,7.3,1.6c0.3,0.5,0.5,0.9,0.5,1.1
				C606.8,725,605.4,725.8,602.7,727.4z M605.5,723.2c-0.4-0.7-1.4-1.6-2.9-0.7c-1.4,0.8-1.3,2.2-1,3
				C603.1,724.6,603.9,724.1,605.5,723.2z"/>
			<path fill="#231F20" d="M619.5,714.2c0.5,0.7,0.7,1.1,1.2,1.8c-2.2,1.5-3.3,2.2-5.6,3.6c-0.5-0.7-0.7-1.1-1.1-1.8
				C616.1,716.3,617.3,715.6,619.5,714.2z"/>
			<path fill="#231F20" d="M634.8,703c2.5,3.4,2.6,7-0.9,9.5c-3.5,2.5-6.9,1-9.1-2.2c-2.2-3.2-2.4-6.9,1-9.4
				C629.3,698.4,632.6,700,634.8,703z M628,708.1c1.8,2.5,3.4,3.3,4.6,2.4c1.2-0.9,1-2.6-0.8-5.1c-1.8-2.5-3.3-3.3-4.6-2.4
				C626.1,703.7,626.2,705.5,628,708.1z"/>
			<path fill="#231F20" d="M639.6,705.9c-0.7-0.9-0.4-2.1,0.7-3c1.1-0.8,2.3-0.8,3,0.2c0.7,0.9,0.4,2.1-0.7,3
				C641.6,706.9,640.3,706.8,639.6,705.9z"/>
			<path fill="#231F20" d="M651.1,690.1c2.7,3.2,3,6.8-0.4,9.6c-3.4,2.8-6.9,1.4-9.3-1.6c-2.4-3.1-2.8-6.8,0.5-9.4
				C645.3,685.9,648.7,687.3,651.1,690.1z M644.5,695.7c1.9,2.4,3.6,3.1,4.8,2.1c1.2-1,0.8-2.7-1.1-5.1c-1.9-2.3-3.5-3.1-4.7-2.1
				C642.3,691.4,642.6,693.2,644.5,695.7z"/>
			<path fill="#231F20" d="M658.1,678.4c-1.9,1.7-2.8,2.6-4.8,4.3c0.4,0.7,0.7,1.1,1.1,1.8c0.2-0.3,0.5-0.5,0.8-0.7
				c1.2-1,2.6-1.9,3.9-2.2c1.4-0.3,2.7,0,3.8,1.2c1.7,1.9,1.2,5.4-2.2,8.4c-1.6,1.4-3.1,2.2-4.1,2.5c-0.4-0.9-0.6-1.4-1-2.3
				c0.8-0.3,2.2-1,3.3-2c1.2-1.1,2.1-2.7,1.2-3.8c-0.9-1.1-2.5-0.8-5,1.4c-0.7,0.6-1.2,1.1-1.6,1.6c-1.5-2.5-2.3-3.7-3.8-6.2
				c2.7-2.4,4.1-3.5,6.7-6C657.1,677.3,657.4,677.7,658.1,678.4z"/>
			<path fill="#231F20" d="M661.8,669.7c1.1-1.1,1.7-1.6,2.8-2.7c1.6,1.7,2.5,2.5,4.1,4.2c0,0,0,0,0,0c0-0.6,0.1-1.2,0.4-1.8
				c0.2-0.6,0.6-1.2,1.2-1.7c1.8-1.8,4.1-2.2,6.3,0c1.7,1.7,2.6,2.5,4.3,4.2c-1.1,1.2-1.7,1.7-2.8,2.9c-1.6-1.6-2.4-2.4-4-4
				c-1-0.9-2-1.2-3.1-0.2c-0.7,0.7-0.8,1.6-0.6,2.2c0.1,0.2,0.2,0.4,0.4,0.6c1.7,1.7,2.6,2.6,4.3,4.4c-1.1,1.1-1.7,1.7-2.9,2.8
				C668,676.1,666,674,661.8,669.7z"/>
			<path fill="#231F20" d="M687.9,656.4c2.8,2.5,1.8,6.2-0.5,8.8c-2.6,2.8-6.1,3.6-8.4,1.3c-2.4-2.3-2.1-5.7,0.7-8.7
				C682.3,654.9,685.6,654.3,687.9,656.4z M681.7,663.4c1.3,1.2,2.9,1.4,4.1,0.2c1.1-1.2,0.8-2.7-0.5-4c-1.1-1-2.8-1.5-4-0.2
				C680,660.8,680.6,662.3,681.7,663.4z"/>
			<path fill="#231F20" d="M682.3,648.1c1-1.2,1.5-1.8,2.6-3c4.5,3.9,6.8,5.8,11.3,9.7c-1.1,1.3-1.6,1.9-2.7,3.1
				C689,654,686.8,652.1,682.3,648.1z"/>
			<path fill="#231F20" d="M697.2,647.2c1.1,0.7,2.7-0.2,3.9-1.7c0.9-1.1,1.5-2.1,1.9-3.1c0.8,0.4,1.2,0.5,2,0.9
				c-0.5,1.3-1.4,2.8-2.5,4.2c-2.8,3.5-6,4.2-8.5,2.1c-2-1.7-2.9-5.1-0.1-8.6c2.6-3.3,5.6-2.9,7.6-1.4c0.4,0.3,0.8,0.7,0.9,0.9
				C700.4,643.3,699.3,644.6,697.2,647.2z M698.5,642.1c-0.6-0.5-1.9-1-3.1,0.5c-1.1,1.3-0.6,2.6,0,3.3
				C696.7,644.4,697.3,643.6,698.5,642.1z"/>
			<path fill="#231F20" d="M705.1,639.4c0.7-0.4,2-1.4,2.8-2.4c0.8-1,0.8-1.6,0.4-1.9c-0.4-0.3-0.9-0.1-2.1,0.9
				c-2.2,1.8-3.8,1.9-4.7,1.1c-1.5-1.2-1.4-3.7,0.5-6.3c0.9-1.2,1.9-2.2,2.7-2.6c0.5,0.8,0.8,1.1,1.4,1.9c-0.6,0.3-1.5,1-2.2,1.9
				c-0.6,0.8-0.7,1.4-0.3,1.8c0.4,0.3,0.9,0,2.2-1c2-1.6,3.5-1.9,4.7-1c1.5,1.1,1.5,3.6-0.8,6.7c-1.1,1.4-2.2,2.5-3.2,3
				C705.9,640.6,705.7,640.2,705.1,639.4z"/>
		</g>
	</g>
</g>
<g id="Etch_Lines">
	<line fill="#0000FF" x1="145.6" y1="401.9" x2="462.1" y2="145.6"/>
	<line fill="#0000FF" x1="150.3" y1="372.1" x2="491.9" y2="150.3"/>
	<line fill="#0000FF" x1="158.1" y1="343" x2="521" y2="158.1"/>
	<line fill="#0000FF" x1="168.9" y1="314.9" x2="549.1" y2="168.9"/>
	<line fill="#0000FF" x1="144" y1="432" x2="432" y2="144"/>
	<line fill="#0000FF" x1="182.6" y1="288" x2="576" y2="182.6"/>
	<line fill="#0000FF" x1="199" y1="262.7" x2="601.3" y2="199"/>
	<line fill="#0000FF" x1="218" y1="239.3" x2="624.7" y2="218"/>
	<line fill="#0000FF" x1="239.3" y1="218" x2="646" y2="239.3"/>
	<line fill="#0000FF" x1="262.7" y1="199" x2="665" y2="262.7"/>
	<line fill="#0000FF" x1="288" y1="182.6" x2="681.4" y2="288"/>
	<line fill="#0000FF" x1="314.9" y1="168.9" x2="695.1" y2="314.9"/>
	<line fill="#0000FF" x1="343" y1="158.1" x2="705.9" y2="343"/>
	<line fill="#0000FF" x1="372.1" y1="150.3" x2="713.7" y2="372.1"/>
	<line fill="#0000FF" x1="401.9" y1="145.6" x2="718.4" y2="401.9"/>
	<line fill="#0000FF" x1="432" y1="144" x2="720" y2="432"/>
	<line fill="#0000FF" x1="462.1" y1="145.6" x2="718.4" y2="462.1"/>
	<line fill="#0000FF" x1="491.9" y1="150.3" x2="713.7" y2="491.9"/>
	<line fill="#0000FF" x1="521" y1="158.1" x2="705.9" y2="521"/>
	<line fill="#0000FF" x1="549.1" y1="168.9" x2="695.1" y2="549.1"/>
	<line fill="#0000FF" x1="576" y1="182.6" x2="681.4" y2="576"/>
	<line fill="#0000FF" x1="601.3" y1="199" x2="665" y2="601.3"/>
	<line fill="#0000FF" x1="624.7" y1="218" x2="646" y2="624.7"/>
	<line fill="#0000FF" x1="646" y1="239.3" x2="624.7" y2="646"/>
	<line fill="#0000FF" x1="665" y1="262.7" x2="601.3" y2="665"/>
	<line fill="#0000FF" x1="681.4" y1="288" x2="576" y2="681.4"/>
	<line fill="#0000FF" x1="695.1" y1="314.9" x2="549.1" y2="695.1"/>
	<line fill="#0000FF" x1="705.9" y1="343" x2="521" y2="705.9"/>
	<line fill="#0000FF" x1="713.7" y1="372.1" x2="491.9" y2="713.7"/>
	<line fill="#0000FF" x1="718.4" y1="401.9" x2="462.1" y2="718.4"/>
	<line fill="#0000FF" x1="720" y1="432" x2="432" y2="720"/>
	<line fill="#0000FF" x1="718.4" y1="462.1" x2="401.9" y2="718.4"/>
	<line fill="#0000FF" x1="713.7" y1="491" x2="372.1" y2="713.7"/>
	<line fill="#0000FF" x1="705.9" y1="521" x2="343" y2="705.9"/>
	<line fill="#0000FF" x1="695.1" y1="549.1" x2="314.9" y2="695.1"/>
	<line fill="#0000FF" x1="681.4" y1="576" x2="288" y2="681.4"/>
	<line fill="#0000FF" x1="665" y1="601.3" x2="262.7" y2="665"/>
	<line fill="#0000FF" x1="646" y1="624.7" x2="239.3" y2="646"/>
	<line fill="#0000FF" x1="624.7" y1="646" x2="218" y2="624.7"/>
	<line fill="#0000FF" x1="601.3" y1="665" x2="199" y2="601.3"/>
	<line fill="#0000FF" x1="576" y1="681.4" x2="182.6" y2="576"/>
	<line fill="#0000FF" x1="549.1" y1="695.1" x2="168.9" y2="549.1"/>
	<line fill="#0000FF" x1="521" y1="705.9" x2="158.1" y2="521"/>
	<line fill="#0000FF" x1="491.9" y1="713.7" x2="150.3" y2="491.9"/>
	<line fill="#0000FF" x1="462.1" y1="718.4" x2="145.6" y2="462.1"/>
	<line fill="#0000FF" x1="432" y1="720" x2="145.8" y2="432"/>
	<line fill="#0000FF" x1="401.9" y1="718.4" x2="145.6" y2="401.9"/>
	<line fill="#0000FF" x1="372.1" y1="713.7" x2="150.3" y2="372.1"/>
	<line fill="#0000FF" x1="343" y1="705.9" x2="158.1" y2="343"/>
	<line fill="#0000FF" x1="314.9" y1="695.1" x2="168.9" y2="314.9"/>
	<line fill="#0000FF" x1="288" y1="681.4" x2="182.6" y2="288"/>
	<line fill="#0000FF" x1="262.7" y1="665" x2="199" y2="262.7"/>
	<line fill="#0000FF" x1="239.3" y1="646" x2="218" y2="239.3"/>
	<line fill="#0000FF" x1="218" y1="624.7" x2="239.3" y2="218"/>
	<line fill="#0000FF" x1="199" y1="601.3" x2="262.7" y2="199"/>
	<line fill="#0000FF" x1="183.3" y1="576.2" x2="288" y2="182.6"/>
	<line fill="#0000FF" x1="168.9" y1="549.1" x2="314.9" y2="168.9"/>
	<line fill="#0000FF" x1="158.1" y1="521" x2="343" y2="158.1"/>
	<line fill="#0000FF" x1="150.3" y1="491.9" x2="372.1" y2="150.3"/>
	<line fill="#0000FF" x1="145.6" y1="462.1" x2="401.9" y2="145.6"/>
	<line fill="#0000FF" x1="423" y1="423" x2="432" y2="288"/>
	<line fill="#0000FF" x1="414" y1="414" x2="432" y2="306"/>
	<line fill="#0000FF" x1="405" y1="405" x2="432" y2="324"/>
	<line fill="#0000FF" x1="396" y1="396" x2="432" y2="342"/>
	<line fill="#0000FF" x1="387" y1="387" x2="432" y2="360"/>
	<line fill="#0000FF" x1="369" y1="369" x2="432" y2="396"/>
	<line fill="#0000FF" x1="360" y1="360" x2="432" y2="414"/>
	<line fill="#0000FF" x1="441" y1="423" x2="432" y2="288"/>
	<line fill="#0000FF" x1="450" y1="414" x2="432" y2="306"/>
	<line fill="#0000FF" x1="459" y1="405" x2="432" y2="324"/>
	<line fill="#0000FF" x1="468" y1="396" x2="432" y2="342"/>
	<line fill="#0000FF" x1="477" y1="387" x2="432" y2="360"/>
	<line fill="#0000FF" x1="495" y1="369" x2="432" y2="396"/>
	<line fill="#0000FF" x1="504" y1="360" x2="432" y2="414"/>
	<line fill="#0000FF" x1="414" y1="432" x2="360" y2="360"/>
	<line fill="#0000FF" x1="396" y1="432" x2="369" y2="369"/>
	<line fill="#0000FF" x1="360" y1="432" x2="387" y2="387"/>
	<line fill="#0000FF" x1="342" y1="432" x2="396" y2="396"/>
	<line fill="#0000FF" x1="324" y1="432" x2="405" y2="405"/>
	<line fill="#0000FF" x1="306" y1="432" x2="414" y2="414"/>
	<line fill="#0000FF" x1="288" y1="432" x2="423" y2="423"/>
	<line fill="#0000FF" x1="423" y1="441" x2="288" y2="432"/>
	<line fill="#0000FF" x1="414" y1="450" x2="306" y2="432"/>
	<line fill="#0000FF" x1="405" y1="459" x2="324" y2="432"/>
	<line fill="#0000FF" x1="396" y1="468" x2="340.2" y2="432"/>
	<line fill="#0000FF" x1="387" y1="477" x2="360" y2="432"/>
	<line fill="#0000FF" x1="369" y1="495" x2="396" y2="432"/>
	<line fill="#0000FF" x1="360" y1="504" x2="414" y2="432"/>
	<line fill="#0000FF" x1="432" y1="450" x2="360" y2="504"/>
	<line fill="#0000FF" x1="432" y1="468" x2="369" y2="495"/>
	<line fill="#0000FF" x1="432" y1="504" x2="387" y2="477"/>
	<line fill="#0000FF" x1="432" y1="522" x2="396" y2="468"/>
	<line fill="#0000FF" x1="432" y1="540" x2="405" y2="459"/>
	<line fill="#0000FF" x1="432" y1="558" x2="414" y2="450"/>
	<line fill="#0000FF" x1="432" y1="576" x2="423" y2="441"/>
	<line fill="#0000FF" x1="432" y1="576" x2="441" y2="441"/>
	<line fill="#0000FF" x1="432" y1="558" x2="450" y2="450"/>
	<line fill="#0000FF" x1="432" y1="540" x2="459" y2="459"/>
	<line fill="#0000FF" x1="432" y1="522" x2="468" y2="468"/>
	<line fill="#0000FF" x1="432" y1="504" x2="477" y2="477"/>
	<line fill="#0000FF" x1="495" y1="495" x2="432" y2="468"/>
	<line fill="#0000FF" x1="432" y1="450" x2="504" y2="504"/>
	<line fill="#0000FF" x1="441" y1="441" x2="576" y2="432"/>
	<line fill="#0000FF" x1="450" y1="450" x2="558" y2="432"/>
	<line fill="#0000FF" x1="540" y1="432" x2="459" y2="459"/>
	<line fill="#0000FF" x1="468" y1="468" x2="522" y2="432"/>
	<line fill="#0000FF" x1="477" y1="477" x2="504" y2="432"/>
	<line fill="#0000FF" x1="495" y1="495" x2="468" y2="432"/>
	<line fill="#0000FF" x1="450" y1="432" x2="504" y2="504"/>
	<line fill="#0000FF" x1="450" y1="432" x2="504" y2="360"/>
	<line fill="#0000FF" x1="495" y1="369" x2="468" y2="432"/>
	<line fill="#0000FF" x1="504" y1="432" x2="477" y2="387"/>
	<line fill="#0000FF" x1="522" y1="432" x2="468" y2="396"/>
	<line fill="#0000FF" x1="540" y1="432" x2="459" y2="405"/>
	<line fill="#0000FF" x1="558" y1="432" x2="450" y2="414"/>
	<line fill="#0000FF" x1="576" y1="432" x2="441" y2="423"/>
	<line fill="#0000FF" x1="378" y1="378.5" x2="486" y2="378.5"/>
	<line fill="#0000FF" x1="485.5" y1="379" x2="485.5" y2="486"/>
	<line fill="#0000FF" x1="378" y1="486.5" x2="485" y2="486.5"/>
	<line fill="#0000FF" x1="377.5" y1="379" x2="377.5" y2="487"/>
</g>
<g id="Etch_Harry_Potter">
	<polygon fill="none" stroke="#231F20" stroke-width="10" stroke-miterlimit="10" points="131.1,803.8 34.6,835.5 55.9,737.6 
		77.3,639.6 152.5,705.9 227.7,772.2 	"/>
	<line fill="none" stroke="#231F20" stroke-width="10" stroke-miterlimit="10" x1="77.3" y1="639.6" x2="131.1" y2="803.8"/>
	
		<ellipse transform="matrix(-0.9509 0.3096 -0.3096 -0.9509 452.7357 1425.8574)" fill="none" stroke="#231F20" stroke-width="10" stroke-miterlimit="10" cx="113.2" cy="748.9" rx="58.7" ry="57.7"/>
</g>
<g id="Cut_Harry_Potter">
	<polygon fill="none" stroke="#FF0000" stroke-width="2.834646e-02" stroke-miterlimit="10" points="133.1,810.4 25.3,845.7 
		48.9,735.5 72.4,625.1 156.7,700.1 241,775 	"/>
</g>
</svg>
