<?xml version="1.0" encoding="utf-8"?>
<!-- Generator: Adobe Illustrator 20.0.0, SVG Export Plug-In . SVG Version: 6.00 Build 0)  -->
<svg version="1.1" baseProfile="basic" id="Layer_1"
	 xmlns="http://www.w3.org/2000/svg" xmlns:xlink="http://www.w3.org/1999/xlink" x="0px" y="0px" viewBox="0 0 434.8 272.8"
	 xml:space="preserve">
<g>
	<g>
		<path d="M72,75.3H81c1.6,0,3.3,0.2,5,0.6c1.7,0.4,3.2,1.1,4.5,2.1c1.3,1,2.4,2.3,3.2,3.9c0.8,1.6,1.2,3.6,1.2,6
			c0,2.2-0.4,4.1-1.2,5.7c-0.8,1.6-1.9,2.9-3.2,3.9c-1.3,1-2.8,1.8-4.5,2.3c-1.7,0.5-3.3,0.7-5,0.7H72V75.3z M80.3,96.6
			c1.2,0,2.3-0.1,3.5-0.4c1.2-0.3,2.2-0.7,3.2-1.4c0.9-0.7,1.7-1.5,2.3-2.7c0.6-1.1,0.9-2.5,0.9-4.2c0-1.8-0.3-3.3-0.9-4.4
			c-0.6-1.1-1.4-2-2.3-2.7c-0.9-0.6-2-1.1-3.2-1.3c-1.2-0.2-2.3-0.4-3.5-0.4h-3.7v17.5H80.3z"/>
		<path d="M99,83.5h4.1v2.9h0.1c0.5-1,1.1-1.8,2-2.4c0.9-0.6,1.9-0.9,3-0.9c0.2,0,0.3,0,0.5,0c0.2,0,0.4,0,0.5,0.1V87
			c-0.3-0.1-0.5-0.1-0.7-0.1c-0.2,0-0.4,0-0.6,0c-1,0-1.8,0.2-2.4,0.5c-0.6,0.4-1.1,0.8-1.4,1.3c-0.3,0.5-0.6,1-0.7,1.5
			c-0.1,0.5-0.2,0.9-0.2,1.2v9.2H99V83.5z"/>
		<path d="M109.5,98.1c0-0.8,0.3-1.4,0.8-2c0.6-0.5,1.2-0.8,2-0.8c0.8,0,1.4,0.3,2,0.8c0.6,0.5,0.9,1.2,0.9,1.9c0,0.8-0.3,1.4-0.8,2
			c-0.6,0.5-1.2,0.8-2,0.8c-0.4,0-0.7-0.1-1.1-0.2c-0.3-0.1-0.6-0.3-0.9-0.6c-0.3-0.2-0.5-0.5-0.6-0.9
			C109.6,98.8,109.5,98.5,109.5,98.1z"/>
		<path d="M134.9,75.3h3.9l10.9,25.2h-5.1l-2.4-5.8h-10.9l-2.3,5.8h-5L134.9,75.3z M140.6,90.9l-3.9-10.3l-4,10.3H140.6z"/>
		<path d="M152,73.6h4.3v26.9H152V73.6z"/>
		<path d="M165.8,73.6v12h0.1c0.2-0.3,0.5-0.6,0.8-0.9c0.3-0.3,0.7-0.6,1.2-0.9c0.5-0.3,1-0.5,1.6-0.7c0.6-0.2,1.3-0.3,2.1-0.3
			c1.2,0,2.3,0.2,3.4,0.7c1,0.5,1.9,1.1,2.6,1.9c0.7,0.8,1.3,1.8,1.7,2.9c0.4,1.1,0.6,2.3,0.6,3.5c0,1.3-0.2,2.4-0.6,3.5
			s-1,2.1-1.7,2.9c-0.7,0.8-1.6,1.5-2.6,2c-1,0.5-2.2,0.7-3.5,0.7c-1.2,0-2.3-0.3-3.4-0.8c-1.1-0.5-1.9-1.3-2.5-2.3h-0.1v2.6h-4.1
			V73.6H165.8z M175.6,91.9c0-0.7-0.1-1.3-0.3-2c-0.2-0.7-0.5-1.2-0.9-1.8c-0.4-0.5-0.9-0.9-1.5-1.3c-0.6-0.3-1.3-0.5-2.2-0.5
			c-0.8,0-1.5,0.2-2.1,0.5c-0.6,0.3-1.1,0.8-1.6,1.3c-0.4,0.5-0.8,1.1-1,1.8c-0.2,0.7-0.3,1.3-0.3,2c0,0.7,0.1,1.3,0.3,2
			c0.2,0.7,0.6,1.2,1,1.8c0.4,0.5,1,0.9,1.6,1.3c0.6,0.3,1.3,0.5,2.1,0.5c0.8,0,1.6-0.2,2.2-0.5c0.6-0.3,1.1-0.8,1.5-1.3
			c0.4-0.5,0.7-1.1,0.9-1.8C175.5,93.3,175.6,92.6,175.6,91.9z"/>
		<path d="M199.7,100.6h-4.1v-2.7h-0.1c-0.4,0.9-1,1.6-2,2.3c-0.9,0.7-2,1-3.3,1c-1.1,0-2.1-0.2-2.9-0.6c-0.8-0.4-1.4-0.9-2-1.6
			c-0.5-0.6-0.9-1.4-1.1-2.2c-0.2-0.8-0.4-1.7-0.4-2.6V83.5h4.3v9.5c0,0.5,0,1,0.1,1.6c0.1,0.5,0.2,1,0.5,1.5c0.2,0.4,0.6,0.8,1,1.1
			c0.4,0.3,1,0.4,1.7,0.4c0.7,0,1.3-0.1,1.8-0.4c0.5-0.3,0.9-0.6,1.2-1.1s0.6-0.9,0.7-1.5c0.2-0.6,0.2-1.1,0.2-1.7v-9.4h4.3V100.6z"
			/>
		<path d="M214.2,88c-0.4-0.5-0.9-0.9-1.6-1.3c-0.7-0.4-1.4-0.6-2.2-0.6c-0.7,0-1.3,0.1-1.9,0.4s-0.9,0.8-0.9,1.4
			c0,0.7,0.3,1.1,0.9,1.4c0.6,0.3,1.6,0.6,2.8,0.8c0.6,0.1,1.3,0.3,1.9,0.6c0.7,0.2,1.2,0.6,1.8,0.9s1,0.9,1.3,1.5
			c0.3,0.6,0.5,1.3,0.5,2.1c0,1-0.2,1.9-0.6,2.7c-0.4,0.7-0.9,1.3-1.6,1.8c-0.7,0.5-1.4,0.8-2.3,1c-0.9,0.2-1.8,0.3-2.7,0.3
			c-1.3,0-2.6-0.2-3.9-0.7c-1.3-0.5-2.3-1.2-3.1-2.1l2.8-2.6c0.5,0.6,1.1,1.1,1.9,1.5c0.8,0.4,1.6,0.6,2.5,0.6c0.3,0,0.6,0,0.9-0.1
			s0.6-0.2,0.9-0.3c0.3-0.2,0.5-0.4,0.7-0.6c0.2-0.3,0.2-0.6,0.2-1c0-0.7-0.3-1.2-1-1.5c-0.7-0.3-1.6-0.6-2.9-0.9
			c-0.6-0.1-1.3-0.3-1.9-0.6c-0.6-0.2-1.1-0.5-1.6-0.9c-0.5-0.4-0.9-0.8-1.1-1.4c-0.3-0.5-0.4-1.2-0.4-2c0-1,0.2-1.8,0.6-2.5
			c0.4-0.7,0.9-1.3,1.6-1.7c0.6-0.4,1.4-0.8,2.2-1c0.8-0.2,1.6-0.3,2.5-0.3c1.2,0,2.4,0.2,3.6,0.6s2.1,1.1,2.8,2L214.2,88z"/>
		<path d="M226.8,75.3h4.9l4.9,18.5h0.1l5.6-18.5h4.6l5.5,18.5h0.1l5-18.5h4.8l-7.4,25.2h-4.3l-5.9-18.9h-0.1l-5.9,18.9h-4.3
			L226.8,75.3z"/>
		<path d="M280,92.2c0,0.2,0,0.4,0,0.6c0,0.2,0,0.4,0,0.6h-13c0,0.6,0.2,1.2,0.5,1.7c0.3,0.5,0.6,1,1.1,1.3c0.5,0.4,1,0.7,1.5,0.9
			s1.2,0.3,1.8,0.3c1.1,0,2-0.2,2.7-0.6c0.7-0.4,1.3-0.9,1.8-1.6l2.9,2.3c-1.7,2.3-4.1,3.4-7.3,3.4c-1.3,0-2.6-0.2-3.7-0.6
			c-1.1-0.4-2.1-1-2.9-1.8c-0.8-0.8-1.5-1.7-1.9-2.8s-0.7-2.4-0.7-3.8c0-1.4,0.2-2.6,0.7-3.8c0.5-1.1,1.1-2.1,1.9-2.9
			c0.8-0.8,1.8-1.4,2.9-1.9c1.1-0.4,2.3-0.7,3.6-0.7c1.2,0,2.3,0.2,3.3,0.6c1,0.4,1.9,1,2.6,1.7c0.7,0.8,1.3,1.7,1.7,2.9
			C279.8,89.3,280,90.7,280,92.2z M275.7,90.3c0-0.5-0.1-1.1-0.2-1.6c-0.2-0.5-0.4-0.9-0.7-1.3c-0.3-0.4-0.8-0.7-1.3-0.9
			c-0.5-0.2-1.1-0.3-1.8-0.3c-1.3,0-2.4,0.4-3.3,1.2c-0.9,0.8-1.4,1.8-1.5,3H275.7z"/>
		<path d="M288.5,73.6v12h0.1c0.2-0.3,0.5-0.6,0.8-0.9c0.3-0.3,0.7-0.6,1.2-0.9c0.5-0.3,1-0.5,1.6-0.7c0.6-0.2,1.3-0.3,2.1-0.3
			c1.2,0,2.3,0.2,3.4,0.7c1,0.5,1.9,1.1,2.6,1.9c0.7,0.8,1.3,1.8,1.7,2.9c0.4,1.1,0.6,2.3,0.6,3.5c0,1.3-0.2,2.4-0.6,3.5
			s-1,2.1-1.7,2.9c-0.7,0.8-1.6,1.5-2.6,2c-1,0.5-2.2,0.7-3.5,0.7c-1.2,0-2.3-0.3-3.4-0.8c-1.1-0.5-1.9-1.3-2.5-2.3h-0.1v2.6h-4.1
			V73.6H288.5z M298.3,91.9c0-0.7-0.1-1.3-0.3-2c-0.2-0.7-0.5-1.2-0.9-1.8c-0.4-0.5-0.9-0.9-1.5-1.3c-0.6-0.3-1.3-0.5-2.2-0.5
			c-0.8,0-1.5,0.2-2.1,0.5c-0.6,0.3-1.1,0.8-1.6,1.3c-0.4,0.5-0.8,1.1-1,1.8c-0.2,0.7-0.3,1.3-0.3,2c0,0.7,0.1,1.3,0.3,2
			c0.2,0.7,0.6,1.2,1,1.8c0.4,0.5,1,0.9,1.6,1.3c0.6,0.3,1.3,0.5,2.1,0.5c0.8,0,1.6-0.2,2.2-0.5c0.6-0.3,1.1-0.8,1.5-1.3
			c0.4-0.5,0.7-1.1,0.9-1.8C298.2,93.3,298.3,92.6,298.3,91.9z"/>
		<path d="M316.1,88c-0.4-0.5-0.9-0.9-1.6-1.3c-0.7-0.4-1.4-0.6-2.2-0.6c-0.7,0-1.3,0.1-1.9,0.4s-0.9,0.8-0.9,1.4
			c0,0.7,0.3,1.1,0.9,1.4c0.6,0.3,1.6,0.6,2.8,0.8c0.6,0.1,1.3,0.3,1.9,0.6c0.7,0.2,1.2,0.6,1.8,0.9s1,0.9,1.3,1.5
			c0.3,0.6,0.5,1.3,0.5,2.1c0,1-0.2,1.9-0.6,2.7c-0.4,0.7-0.9,1.3-1.6,1.8c-0.7,0.5-1.4,0.8-2.3,1c-0.9,0.2-1.8,0.3-2.7,0.3
			c-1.3,0-2.6-0.2-3.9-0.7c-1.3-0.5-2.3-1.2-3.1-2.1l2.8-2.6c0.5,0.6,1.1,1.1,1.9,1.5c0.8,0.4,1.6,0.6,2.5,0.6c0.3,0,0.6,0,0.9-0.1
			s0.6-0.2,0.9-0.3c0.3-0.2,0.5-0.4,0.7-0.6c0.2-0.3,0.2-0.6,0.2-1c0-0.7-0.3-1.2-1-1.5c-0.7-0.3-1.6-0.6-2.9-0.9
			c-0.6-0.1-1.3-0.3-1.9-0.6c-0.6-0.2-1.1-0.5-1.6-0.9c-0.5-0.4-0.9-0.8-1.1-1.4c-0.3-0.5-0.4-1.2-0.4-2c0-1,0.2-1.8,0.6-2.5
			c0.4-0.7,0.9-1.3,1.6-1.7c0.6-0.4,1.4-0.8,2.2-1c0.8-0.2,1.6-0.3,2.5-0.3c1.2,0,2.4,0.2,3.6,0.6s2.1,1.1,2.8,2L316.1,88z"/>
		<path d="M320.1,86.9v-3.4h3v-5h4.2v5h4.3v3.4h-4.3v7.9c0,0.8,0.1,1.4,0.4,1.9c0.3,0.5,0.9,0.7,1.8,0.7c0.3,0,0.6,0,0.9-0.1
			c0.3-0.1,0.6-0.1,0.9-0.3l0.1,3.4c-0.4,0.1-0.8,0.3-1.4,0.3c-0.5,0.1-1,0.1-1.5,0.1c-1.1,0-2.1-0.2-2.8-0.5
			c-0.7-0.3-1.3-0.8-1.7-1.3c-0.4-0.6-0.7-1.2-0.9-1.9c-0.2-0.7-0.2-1.5-0.2-2.3v-8H320.1z"/>
		<path d="M351,92.2c0,0.2,0,0.4,0,0.6c0,0.2,0,0.4,0,0.6h-13c0,0.6,0.2,1.2,0.5,1.7c0.3,0.5,0.6,1,1.1,1.3c0.5,0.4,1,0.7,1.5,0.9
			s1.2,0.3,1.8,0.3c1.1,0,2-0.2,2.7-0.6c0.7-0.4,1.3-0.9,1.8-1.6l2.9,2.3c-1.7,2.3-4.1,3.4-7.3,3.4c-1.3,0-2.6-0.2-3.7-0.6
			c-1.1-0.4-2.1-1-2.9-1.8c-0.8-0.8-1.5-1.7-1.9-2.8s-0.7-2.4-0.7-3.8c0-1.4,0.2-2.6,0.7-3.8c0.5-1.1,1.1-2.1,1.9-2.9
			c0.8-0.8,1.8-1.4,2.9-1.9c1.1-0.4,2.3-0.7,3.6-0.7c1.2,0,2.3,0.2,3.3,0.6c1,0.4,1.9,1,2.6,1.7c0.7,0.8,1.3,1.7,1.7,2.9
			C350.8,89.3,351,90.7,351,92.2z M346.8,90.3c0-0.5-0.1-1.1-0.2-1.6c-0.2-0.5-0.4-0.9-0.7-1.3c-0.3-0.4-0.8-0.7-1.3-0.9
			c-0.5-0.2-1.1-0.3-1.8-0.3c-1.3,0-2.4,0.4-3.3,1.2c-0.9,0.8-1.4,1.8-1.5,3H346.8z"/>
		<path d="M355.2,83.5h4.1v2.9h0.1c0.5-1,1.1-1.8,2-2.4c0.9-0.6,1.9-0.9,3-0.9c0.2,0,0.3,0,0.5,0c0.2,0,0.4,0,0.5,0.1V87
			c-0.3-0.1-0.5-0.1-0.7-0.1c-0.2,0-0.4,0-0.6,0c-1,0-1.8,0.2-2.4,0.5c-0.6,0.4-1.1,0.8-1.4,1.3c-0.3,0.5-0.6,1-0.7,1.5
			c-0.1,0.5-0.2,0.9-0.2,1.2v9.2h-4.3V83.5z"/>
	</g>
	<g>
		<path d="M144.1,136.8h5.4c1,0,2,0.1,3,0.4c1,0.3,1.9,0.8,2.7,1.4c0.8,0.6,1.5,1.5,2,2.5c0.5,1,0.8,2.2,0.8,3.6
			c0,1.4-0.3,2.5-0.8,3.5c-0.5,1-1.2,1.8-2,2.5c-0.8,0.6-1.7,1.1-2.7,1.4c-1,0.3-2,0.5-3,0.5h-5.4V136.8z M146.3,150.7h2.8
			c1,0,1.8-0.1,2.6-0.4c0.8-0.3,1.5-0.7,2.1-1.2c0.6-0.5,1-1.1,1.4-1.9s0.5-1.6,0.5-2.5c0-1-0.2-1.8-0.5-2.6s-0.8-1.4-1.4-1.9
			c-0.6-0.5-1.3-0.9-2.1-1.1c-0.8-0.3-1.7-0.4-2.6-0.4h-2.8V150.7z"/>
		<path d="M170.8,147.3c0,0.1,0,0.2,0,0.4c0,0.1,0,0.2,0,0.4h-8.4c0,0.4,0.1,0.9,0.3,1.2c0.2,0.4,0.4,0.7,0.7,1
			c0.3,0.3,0.7,0.5,1.1,0.7c0.4,0.2,0.8,0.2,1.3,0.2c0.7,0,1.3-0.2,1.8-0.5c0.5-0.3,0.9-0.7,1.2-1.1l1.5,1.2c-0.6,0.7-1.2,1.3-2,1.7
			c-0.8,0.4-1.6,0.5-2.6,0.5c-0.8,0-1.5-0.1-2.2-0.4c-0.7-0.3-1.3-0.6-1.8-1.1c-0.5-0.5-0.9-1.1-1.2-1.7c-0.3-0.7-0.4-1.4-0.4-2.3
			c0-0.8,0.1-1.6,0.4-2.3s0.7-1.3,1.1-1.8s1.1-0.9,1.7-1.1c0.7-0.3,1.4-0.4,2.2-0.4s1.5,0.1,2.1,0.4c0.6,0.3,1.2,0.6,1.6,1.1
			c0.4,0.5,0.8,1.1,1,1.7C170.7,145.6,170.8,146.4,170.8,147.3z M168.7,146.4c0-0.4-0.1-0.8-0.2-1.2s-0.3-0.7-0.6-0.9
			c-0.2-0.3-0.5-0.5-0.9-0.6c-0.4-0.2-0.8-0.2-1.3-0.2c-0.4,0-0.9,0.1-1.3,0.2c-0.4,0.2-0.7,0.4-1,0.6c-0.3,0.3-0.5,0.6-0.7,0.9
			c-0.2,0.4-0.3,0.8-0.3,1.2H168.7z"/>
		<path d="M175.8,158h-2.1v-15.9h2v1.6h0.1c0.3-0.6,0.8-1,1.5-1.4c0.7-0.4,1.4-0.5,2.3-0.5c0.8,0,1.5,0.1,2.1,0.4
			c0.6,0.3,1.2,0.7,1.7,1.2c0.5,0.5,0.8,1.1,1.1,1.8c0.3,0.7,0.4,1.4,0.4,2.2c0,0.8-0.1,1.5-0.4,2.2s-0.6,1.3-1.1,1.8
			c-0.5,0.5-1,0.9-1.7,1.2c-0.7,0.3-1.4,0.4-2.2,0.4c-0.8,0-1.5-0.2-2.1-0.5c-0.7-0.3-1.2-0.8-1.6-1.4h-0.1V158z M182.8,147.3
			c0-0.5-0.1-1-0.2-1.4s-0.4-0.9-0.7-1.2c-0.3-0.4-0.7-0.6-1.1-0.8s-0.9-0.3-1.5-0.3c-0.5,0-1,0.1-1.5,0.3c-0.4,0.2-0.8,0.5-1.1,0.8
			s-0.6,0.8-0.7,1.2c-0.2,0.5-0.3,0.9-0.3,1.4c0,0.5,0.1,1,0.3,1.4c0.2,0.5,0.4,0.9,0.7,1.2c0.3,0.3,0.7,0.6,1.1,0.8
			c0.4,0.2,0.9,0.3,1.5,0.3c0.6,0,1.1-0.1,1.5-0.3c0.4-0.2,0.8-0.5,1.1-0.9c0.3-0.4,0.5-0.8,0.7-1.2S182.8,147.8,182.8,147.3z"/>
		<path d="M194.4,145.8c0-0.8-0.2-1.4-0.7-1.7c-0.5-0.4-1.1-0.6-1.9-0.6c-0.6,0-1.2,0.1-1.7,0.3c-0.5,0.2-1,0.5-1.3,0.9l-1.1-1.3
			c0.5-0.5,1.2-0.9,1.9-1.2c0.7-0.3,1.6-0.4,2.4-0.4c0.8,0,1.4,0.1,2,0.3c0.6,0.2,1,0.5,1.4,0.9c0.4,0.4,0.6,0.8,0.8,1.3
			s0.3,1,0.3,1.6v4.6c0,0.4,0,0.7,0,1.1c0,0.4,0.1,0.7,0.1,1h-1.9c-0.1-0.5-0.2-1-0.2-1.5h-0.1c-0.4,0.6-0.9,1-1.5,1.3
			c-0.6,0.3-1.3,0.5-2.1,0.5c-0.4,0-0.9-0.1-1.3-0.2c-0.5-0.1-0.9-0.3-1.2-0.5c-0.4-0.3-0.7-0.6-0.9-1c-0.2-0.4-0.4-0.9-0.4-1.5
			c0-0.8,0.2-1.4,0.6-1.9c0.4-0.5,1-0.8,1.7-1.1c0.7-0.2,1.5-0.4,2.4-0.5s1.8-0.1,2.7-0.1V145.8z M193.9,147.6c-0.5,0-1.1,0-1.6,0.1
			c-0.6,0-1.1,0.1-1.5,0.3c-0.5,0.1-0.8,0.3-1.1,0.6c-0.3,0.3-0.4,0.6-0.4,1.1c0,0.3,0.1,0.6,0.2,0.8s0.3,0.4,0.5,0.5
			c0.2,0.1,0.4,0.2,0.7,0.3s0.5,0.1,0.8,0.1c1,0,1.7-0.3,2.3-0.9c0.5-0.6,0.8-1.3,0.8-2.2v-0.6H193.9z"/>
		<path d="M199.9,143.2c0-0.4,0-0.8-0.1-1.2h2c0,0.3,0.1,0.6,0.1,0.9c0,0.3,0,0.6,0,0.9h0.1c0.3-0.6,0.7-1.1,1.3-1.5
			c0.6-0.4,1.2-0.6,1.9-0.6c0.3,0,0.6,0,0.8,0.1l-0.1,1.9c-0.3-0.1-0.6-0.1-1-0.1c-0.5,0-0.9,0.1-1.3,0.3c-0.4,0.2-0.7,0.4-0.9,0.7
			c-0.2,0.3-0.4,0.7-0.5,1.1c-0.1,0.4-0.2,0.8-0.2,1.3v5.5h-2.1v-8.3C199.9,144.1,199.9,143.7,199.9,143.2z"/>
		<path d="M212.9,143.8h-2.8v5.5c0,0.6,0.1,1.1,0.4,1.4c0.2,0.3,0.6,0.4,1.1,0.4c0.2,0,0.4,0,0.6-0.1c0.2,0,0.4-0.1,0.6-0.2l0.1,1.7
			c-0.3,0.1-0.5,0.2-0.8,0.2c-0.3,0.1-0.6,0.1-0.9,0.1c-1,0-1.8-0.3-2.3-0.8c-0.5-0.5-0.8-1.4-0.8-2.5v-5.7h-2v-1.7h2v-3h2.1v3h2.8
			V143.8z"/>
		<path d="M218.4,142.4c0.6-0.4,1.3-0.6,2.1-0.6c0.7,0,1.4,0.2,1.9,0.5s1,0.9,1.3,1.6c0.4-0.7,0.9-1.2,1.5-1.6
			c0.6-0.4,1.3-0.5,2.1-0.5c0.7,0,1.3,0.1,1.8,0.3c0.5,0.2,0.9,0.5,1.2,0.9c0.3,0.4,0.6,0.8,0.7,1.4c0.2,0.5,0.2,1.1,0.2,1.7v6.5
			h-2.1v-5.9c0-0.4,0-0.8-0.1-1.2c-0.1-0.4-0.2-0.7-0.4-1c-0.2-0.3-0.4-0.5-0.7-0.7c-0.3-0.2-0.7-0.3-1.1-0.3
			c-0.5,0-0.9,0.1-1.2,0.3c-0.3,0.2-0.6,0.5-0.8,0.8c-0.2,0.3-0.4,0.7-0.5,1.1s-0.1,0.8-0.1,1.2v5.7h-2.1v-6.3c0-0.4,0-0.8-0.1-1.1
			c-0.1-0.3-0.2-0.6-0.4-0.9s-0.4-0.4-0.7-0.6c-0.3-0.1-0.6-0.2-1-0.2c-0.8,0-1.4,0.3-1.9,0.9s-0.8,1.5-0.8,2.5v5.6H215v-8.3
			c0-0.3,0-0.6,0-1.1c0-0.4,0-0.8-0.1-1.2h2c0,0.3,0.1,0.6,0.1,0.9c0,0.3,0,0.6,0,0.8h0.1C217.4,143.2,217.8,142.8,218.4,142.4z"/>
		<path d="M244.7,147.3c0,0.1,0,0.2,0,0.4c0,0.1,0,0.2,0,0.4h-8.4c0,0.4,0.1,0.9,0.3,1.2c0.2,0.4,0.4,0.7,0.7,1
			c0.3,0.3,0.7,0.5,1.1,0.7c0.4,0.2,0.8,0.2,1.3,0.2c0.7,0,1.3-0.2,1.8-0.5c0.5-0.3,0.9-0.7,1.2-1.1l1.5,1.2c-0.6,0.7-1.2,1.3-2,1.7
			c-0.8,0.4-1.6,0.5-2.6,0.5c-0.8,0-1.5-0.1-2.2-0.4c-0.7-0.3-1.3-0.6-1.8-1.1c-0.5-0.5-0.9-1.1-1.2-1.7c-0.3-0.7-0.4-1.4-0.4-2.3
			c0-0.8,0.1-1.6,0.4-2.3s0.7-1.3,1.1-1.8s1.1-0.9,1.7-1.1c0.7-0.3,1.4-0.4,2.2-0.4s1.5,0.1,2.1,0.4c0.6,0.3,1.2,0.6,1.6,1.1
			c0.4,0.5,0.8,1.1,1,1.7C244.5,145.6,244.7,146.4,244.7,147.3z M242.5,146.4c0-0.4-0.1-0.8-0.2-1.2s-0.3-0.7-0.6-0.9
			c-0.2-0.3-0.5-0.5-0.9-0.6c-0.4-0.2-0.8-0.2-1.3-0.2c-0.4,0-0.9,0.1-1.3,0.2c-0.4,0.2-0.7,0.4-1,0.6c-0.3,0.3-0.5,0.6-0.7,0.9
			c-0.2,0.4-0.3,0.8-0.3,1.2H242.5z"/>
		<path d="M249.5,142.1c0,0.3,0.1,0.6,0.1,0.9c0,0.3,0,0.6,0,0.8h0.1c0.1-0.3,0.3-0.5,0.5-0.8c0.2-0.2,0.5-0.5,0.8-0.6
			c0.3-0.2,0.6-0.3,1-0.4s0.7-0.2,1.1-0.2c0.7,0,1.3,0.1,1.8,0.3c0.5,0.2,0.9,0.5,1.2,0.9s0.6,0.8,0.7,1.4c0.2,0.5,0.2,1.1,0.2,1.7
			v6.5h-2.1v-5.9c0-0.4,0-0.8-0.1-1.2s-0.2-0.7-0.4-1c-0.2-0.3-0.4-0.5-0.7-0.7s-0.7-0.3-1.2-0.3c-0.8,0-1.5,0.3-2,0.9
			c-0.5,0.6-0.8,1.5-0.8,2.5v5.6h-2.1v-8.3c0-0.3,0-0.6,0-1.1c0-0.4,0-0.8-0.1-1.2H249.5z"/>
		<path d="M265.7,143.8h-2.8v5.5c0,0.6,0.1,1.1,0.4,1.4c0.2,0.3,0.6,0.4,1.1,0.4c0.2,0,0.4,0,0.6-0.1c0.2,0,0.4-0.1,0.6-0.2l0.1,1.7
			c-0.3,0.1-0.5,0.2-0.8,0.2c-0.3,0.1-0.6,0.1-0.9,0.1c-1,0-1.8-0.3-2.3-0.8c-0.5-0.5-0.8-1.4-0.8-2.5v-5.7h-2v-1.7h2v-3h2.1v3h2.8
			V143.8z"/>
		<path d="M284.1,147.3c0,0.8-0.1,1.6-0.4,2.2s-0.7,1.3-1.2,1.8c-0.5,0.5-1.1,0.9-1.8,1.2c-0.7,0.3-1.4,0.4-2.2,0.4
			c-0.8,0-1.6-0.1-2.2-0.4c-0.7-0.3-1.3-0.7-1.8-1.2c-0.5-0.5-0.9-1.1-1.2-1.8s-0.4-1.4-0.4-2.2s0.1-1.6,0.4-2.2
			c0.3-0.7,0.7-1.3,1.2-1.7c0.5-0.5,1.1-0.9,1.8-1.1c0.7-0.3,1.4-0.4,2.2-0.4c0.8,0,1.6,0.1,2.2,0.4c0.7,0.3,1.3,0.7,1.8,1.1
			c0.5,0.5,0.9,1.1,1.2,1.7C284,145.8,284.1,146.5,284.1,147.3z M281.9,147.3c0-0.5-0.1-1-0.2-1.4c-0.2-0.5-0.4-0.9-0.7-1.2
			c-0.3-0.3-0.7-0.6-1.1-0.8s-0.9-0.3-1.5-0.3s-1.1,0.1-1.5,0.3c-0.4,0.2-0.8,0.5-1.1,0.8c-0.3,0.3-0.5,0.8-0.7,1.2
			c-0.2,0.5-0.2,0.9-0.2,1.4c0,0.5,0.1,1,0.2,1.4c0.2,0.5,0.4,0.9,0.7,1.2c0.3,0.4,0.7,0.6,1.1,0.8c0.4,0.2,0.9,0.3,1.5,0.3
			s1.1-0.1,1.5-0.3s0.8-0.5,1.1-0.8c0.3-0.4,0.5-0.8,0.7-1.2C281.9,148.3,281.9,147.8,281.9,147.3z"/>
		<path d="M292,143.8h-2.5v8.8h-2.1v-8.8h-2.1v-1.7h2.1v-2.2c0-0.6,0.1-1.2,0.2-1.7c0.1-0.5,0.4-1,0.7-1.4c0.3-0.4,0.7-0.7,1.2-0.9
			c0.5-0.2,1.1-0.3,1.8-0.3c0.5,0,0.9,0.1,1.3,0.2l-0.2,1.8c-0.2,0-0.3-0.1-0.5-0.1c-0.2,0-0.3,0-0.6,0c-0.4,0-0.7,0.1-1,0.2
			c-0.2,0.1-0.4,0.3-0.6,0.6c-0.1,0.2-0.2,0.5-0.3,0.8c0,0.3-0.1,0.6-0.1,0.9v2.2h2.5V143.8z"/>
		<path d="M136.9,175.7L136.9,175.7l4.7-12.1h3.4v15.8h-2.2v-13.2h0l-5.2,13.2h-1.4l-5.2-13.2h0v13.2h-2.1v-15.8h3.4L136.9,175.7z"
			/>
		<path d="M155.3,172.5c0-0.8-0.2-1.4-0.7-1.7c-0.5-0.4-1.1-0.6-1.9-0.6c-0.6,0-1.2,0.1-1.7,0.3c-0.5,0.2-1,0.5-1.3,0.9l-1.1-1.3
			c0.5-0.5,1.2-0.9,1.9-1.2c0.7-0.3,1.6-0.4,2.4-0.4c0.8,0,1.4,0.1,2,0.3c0.6,0.2,1,0.5,1.4,0.9c0.4,0.4,0.6,0.8,0.8,1.3
			s0.3,1,0.3,1.6v4.6c0,0.4,0,0.7,0,1.1c0,0.4,0.1,0.7,0.1,1h-1.9c-0.1-0.5-0.2-1-0.2-1.5h-0.1c-0.4,0.6-0.9,1-1.5,1.3
			c-0.6,0.3-1.3,0.5-2.1,0.5c-0.4,0-0.9-0.1-1.3-0.2c-0.5-0.1-0.9-0.3-1.2-0.5c-0.4-0.3-0.7-0.6-0.9-1c-0.2-0.4-0.4-0.9-0.4-1.5
			c0-0.8,0.2-1.4,0.6-1.9c0.4-0.5,1-0.8,1.7-1.1c0.7-0.2,1.5-0.4,2.4-0.5s1.8-0.1,2.7-0.1V172.5z M154.8,174.3c-0.5,0-1.1,0-1.6,0.1
			c-0.6,0-1.1,0.1-1.5,0.3c-0.5,0.1-0.8,0.3-1.1,0.6c-0.3,0.3-0.4,0.6-0.4,1.1c0,0.3,0.1,0.6,0.2,0.8s0.3,0.4,0.5,0.5
			c0.2,0.1,0.4,0.2,0.7,0.3s0.5,0.1,0.8,0.1c1,0,1.7-0.3,2.3-0.9c0.5-0.6,0.8-1.3,0.8-2.2v-0.6H154.8z"/>
		<path d="M161.6,181.2c0.5,0.5,1,0.9,1.7,1.2c0.7,0.3,1.4,0.5,2.1,0.5c0.7,0,1.3-0.1,1.8-0.3c0.5-0.2,0.9-0.5,1.1-0.8
			c0.3-0.3,0.5-0.8,0.6-1.2c0.1-0.5,0.2-1,0.2-1.5v-1.4h0c-0.4,0.6-0.9,1-1.6,1.4c-0.7,0.3-1.4,0.5-2.1,0.5c-0.8,0-1.5-0.1-2.2-0.4
			s-1.2-0.7-1.7-1.2c-0.5-0.5-0.8-1.1-1.1-1.7c-0.3-0.7-0.4-1.4-0.4-2.1c0-0.8,0.1-1.5,0.4-2.1c0.3-0.7,0.6-1.3,1.1-1.7
			c0.5-0.5,1-0.9,1.7-1.2c0.7-0.3,1.4-0.4,2.2-0.4c0.8,0,1.5,0.2,2.2,0.5s1.2,0.8,1.6,1.5h0v-1.7h2v10c0,0.8-0.1,1.5-0.3,2.2
			c-0.2,0.7-0.5,1.3-1,1.9c-0.5,0.5-1.1,1-1.8,1.3s-1.7,0.5-2.8,0.5c-0.9,0-1.8-0.2-2.8-0.5c-0.9-0.3-1.7-0.8-2.4-1.4L161.6,181.2z
			 M162.2,174c0,0.5,0.1,1,0.2,1.4c0.2,0.4,0.4,0.8,0.7,1.2c0.3,0.3,0.7,0.6,1.1,0.8c0.4,0.2,0.9,0.3,1.5,0.3c0.5,0,1-0.1,1.5-0.3
			c0.4-0.2,0.8-0.5,1.1-0.8c0.3-0.3,0.6-0.7,0.7-1.2c0.2-0.5,0.3-0.9,0.3-1.5c0-0.5-0.1-1-0.3-1.4c-0.2-0.4-0.4-0.8-0.7-1.2
			c-0.3-0.3-0.7-0.6-1.1-0.8s-0.9-0.3-1.5-0.3c-0.6,0-1,0.1-1.5,0.3c-0.4,0.2-0.8,0.5-1.1,0.8c-0.3,0.3-0.5,0.7-0.7,1.2
			C162.3,173,162.2,173.5,162.2,174z"/>
		<path d="M177.3,165c0,0.4-0.1,0.7-0.4,1c-0.3,0.3-0.6,0.4-1,0.4c-0.4,0-0.7-0.1-1-0.4c-0.3-0.3-0.4-0.6-0.4-0.9
			c0-0.4,0.1-0.7,0.4-1c0.3-0.3,0.6-0.4,1-0.4c0.4,0,0.7,0.1,1,0.4C177.2,164.3,177.3,164.6,177.3,165z M177,179.4h-2.1v-10.6h2.1
			V179.4z"/>
		<path d="M188,171.5c-0.2-0.3-0.6-0.6-1-0.9c-0.4-0.2-0.9-0.3-1.4-0.3c-0.5,0-1,0.1-1.5,0.3c-0.4,0.2-0.8,0.5-1.1,0.8
			c-0.3,0.3-0.5,0.8-0.7,1.2s-0.2,0.9-0.2,1.4c0,0.5,0.1,1,0.2,1.4s0.4,0.9,0.7,1.2c0.3,0.3,0.7,0.6,1.1,0.8
			c0.4,0.2,0.9,0.3,1.5,0.3c0.5,0,1-0.1,1.5-0.3c0.4-0.2,0.8-0.5,1.1-0.8l1.4,1.3c-0.4,0.5-1,0.9-1.7,1.2c-0.7,0.3-1.4,0.4-2.3,0.4
			c-0.8,0-1.6-0.1-2.3-0.4c-0.7-0.3-1.3-0.6-1.8-1.1c-0.5-0.5-0.9-1.1-1.2-1.7c-0.3-0.7-0.4-1.4-0.4-2.3c0-0.8,0.1-1.6,0.4-2.3
			c0.3-0.7,0.7-1.3,1.2-1.8c0.5-0.5,1.1-0.9,1.8-1.1c0.7-0.3,1.4-0.4,2.2-0.4c0.7,0,1.5,0.1,2.2,0.4c0.7,0.3,1.3,0.7,1.7,1.3
			L188,171.5z"/>
		<path d="M198.2,172.5c0-0.8-0.2-1.4-0.7-1.7c-0.5-0.4-1.1-0.6-1.9-0.6c-0.6,0-1.2,0.1-1.7,0.3c-0.5,0.2-1,0.5-1.3,0.9l-1.1-1.3
			c0.5-0.5,1.2-0.9,1.9-1.2c0.7-0.3,1.6-0.4,2.4-0.4c0.8,0,1.4,0.1,2,0.3c0.6,0.2,1,0.5,1.4,0.9c0.4,0.4,0.6,0.8,0.8,1.3
			s0.3,1,0.3,1.6v4.6c0,0.4,0,0.7,0,1.1c0,0.4,0.1,0.7,0.1,1h-1.9c-0.1-0.5-0.2-1-0.2-1.5h-0.1c-0.4,0.6-0.9,1-1.5,1.3
			c-0.6,0.3-1.3,0.5-2.1,0.5c-0.4,0-0.9-0.1-1.3-0.2c-0.5-0.1-0.9-0.3-1.2-0.5c-0.4-0.3-0.7-0.6-0.9-1c-0.2-0.4-0.4-0.9-0.4-1.5
			c0-0.8,0.2-1.4,0.6-1.9c0.4-0.5,1-0.8,1.7-1.1c0.7-0.2,1.5-0.4,2.4-0.5s1.8-0.1,2.7-0.1V172.5z M197.7,174.3c-0.5,0-1.1,0-1.6,0.1
			c-0.6,0-1.1,0.1-1.5,0.3c-0.5,0.1-0.8,0.3-1.1,0.6c-0.3,0.3-0.4,0.6-0.4,1.1c0,0.3,0.1,0.6,0.2,0.8s0.3,0.4,0.5,0.5
			c0.2,0.1,0.4,0.2,0.7,0.3s0.5,0.1,0.8,0.1c1,0,1.7-0.3,2.3-0.9c0.5-0.6,0.8-1.3,0.8-2.2v-0.6H197.7z"/>
		<path d="M205.9,179.4h-2.1v-16.8h2.1V179.4z"/>
		<path d="M219.1,176.1L219.1,176.1l3.7-12.6h2.4l3.7,12.6h0l3.5-12.6h2.3l-4.6,15.8h-2.3l-3.8-12.7h0l-3.8,12.7h-2.3l-4.6-15.8h2.4
			L219.1,176.1z"/>
		<path d="M239.3,165c0,0.4-0.1,0.7-0.4,1c-0.3,0.3-0.6,0.4-1,0.4c-0.4,0-0.7-0.1-1-0.4c-0.3-0.3-0.4-0.6-0.4-0.9
			c0-0.4,0.1-0.7,0.4-1c0.3-0.3,0.6-0.4,1-0.4c0.4,0,0.7,0.1,1,0.4C239.1,164.3,239.3,164.6,239.3,165z M238.9,179.4h-2.1v-10.6h2.1
			V179.4z"/>
		<path d="M248.3,171.5c-0.2-0.4-0.6-0.7-1-0.9s-0.9-0.4-1.4-0.4c-0.2,0-0.5,0-0.7,0.1c-0.2,0.1-0.4,0.1-0.6,0.2s-0.3,0.3-0.4,0.4
			c-0.1,0.2-0.2,0.4-0.2,0.6c0,0.4,0.2,0.8,0.6,1c0.4,0.2,1,0.4,1.8,0.6c0.5,0.1,1,0.3,1.4,0.4c0.4,0.2,0.8,0.4,1.1,0.6
			s0.6,0.5,0.7,0.9c0.2,0.3,0.3,0.7,0.3,1.2c0,0.6-0.1,1.2-0.4,1.6c-0.2,0.4-0.6,0.8-0.9,1.1c-0.4,0.3-0.8,0.5-1.3,0.6
			s-1,0.2-1.6,0.2c-0.8,0-1.6-0.2-2.4-0.5c-0.8-0.3-1.4-0.8-1.9-1.4l1.5-1.3c0.3,0.4,0.7,0.8,1.2,1s1,0.4,1.6,0.4
			c0.3,0,0.5,0,0.8-0.1c0.2-0.1,0.5-0.1,0.7-0.3c0.2-0.1,0.4-0.3,0.5-0.5c0.1-0.2,0.2-0.4,0.2-0.7c0-0.5-0.2-0.9-0.7-1.1
			c-0.5-0.2-1.2-0.5-2.1-0.7c-0.4-0.1-0.7-0.2-1.1-0.3c-0.4-0.1-0.7-0.3-1-0.5c-0.3-0.2-0.5-0.5-0.7-0.8c-0.2-0.3-0.3-0.7-0.3-1.2
			c0-0.6,0.1-1.1,0.3-1.5c0.2-0.4,0.5-0.7,0.9-1c0.4-0.3,0.8-0.5,1.3-0.6c0.5-0.1,1-0.2,1.5-0.2c0.8,0,1.5,0.1,2.2,0.4
			c0.7,0.3,1.3,0.7,1.6,1.3L248.3,171.5z"/>
		<path d="M254.7,170.4c0.3-0.5,0.7-1,1.3-1.3c0.6-0.4,1.3-0.6,2-0.6c0.7,0,1.3,0.1,1.8,0.3c0.5,0.2,0.9,0.5,1.2,0.9
			c0.3,0.4,0.6,0.8,0.7,1.4c0.2,0.5,0.2,1.1,0.2,1.7v6.5h-2.1v-5.9c0-0.4,0-0.8-0.1-1.2c-0.1-0.4-0.2-0.7-0.4-1
			c-0.2-0.3-0.4-0.5-0.7-0.7c-0.3-0.2-0.7-0.3-1.2-0.3c-0.8,0-1.5,0.3-2,0.9s-0.8,1.5-0.8,2.5v5.6h-2.1v-16.8h2.1L254.7,170.4
			L254.7,170.4z"/>
		<path d="M275.4,174c0,0.1,0,0.2,0,0.4c0,0.1,0,0.2,0,0.4H267c0,0.4,0.1,0.9,0.3,1.2c0.2,0.4,0.4,0.7,0.7,1
			c0.3,0.3,0.7,0.5,1.1,0.7c0.4,0.2,0.8,0.2,1.3,0.2c0.7,0,1.3-0.2,1.8-0.5c0.5-0.3,0.9-0.7,1.2-1.1l1.5,1.2c-0.6,0.7-1.2,1.3-2,1.7
			c-0.8,0.4-1.6,0.5-2.6,0.5c-0.8,0-1.5-0.1-2.2-0.4c-0.7-0.3-1.3-0.6-1.8-1.1c-0.5-0.5-0.9-1.1-1.2-1.7c-0.3-0.7-0.4-1.4-0.4-2.3
			c0-0.8,0.1-1.6,0.4-2.3s0.7-1.3,1.1-1.8s1.1-0.9,1.7-1.1c0.7-0.3,1.4-0.4,2.2-0.4s1.5,0.1,2.1,0.4c0.6,0.3,1.2,0.6,1.6,1.1
			c0.4,0.5,0.8,1.1,1,1.7C275.3,172.4,275.4,173.1,275.4,174z M273.2,173.1c0-0.4-0.1-0.8-0.2-1.2s-0.3-0.7-0.6-0.9
			c-0.2-0.3-0.5-0.5-0.9-0.6c-0.4-0.2-0.8-0.2-1.3-0.2c-0.4,0-0.9,0.1-1.3,0.2c-0.4,0.2-0.7,0.4-1,0.6c-0.3,0.3-0.5,0.6-0.7,0.9
			c-0.2,0.4-0.3,0.8-0.3,1.2H273.2z"/>
		<path d="M284,171.5c-0.2-0.4-0.6-0.7-1-0.9s-0.9-0.4-1.4-0.4c-0.2,0-0.5,0-0.7,0.1c-0.2,0.1-0.4,0.1-0.6,0.2s-0.3,0.3-0.4,0.4
			c-0.1,0.2-0.2,0.4-0.2,0.6c0,0.4,0.2,0.8,0.6,1c0.4,0.2,1,0.4,1.8,0.6c0.5,0.1,1,0.3,1.4,0.4c0.4,0.2,0.8,0.4,1.1,0.6
			s0.6,0.5,0.7,0.9c0.2,0.3,0.3,0.7,0.3,1.2c0,0.6-0.1,1.2-0.4,1.6c-0.2,0.4-0.6,0.8-0.9,1.1c-0.4,0.3-0.8,0.5-1.3,0.6
			s-1,0.2-1.6,0.2c-0.8,0-1.6-0.2-2.4-0.5c-0.8-0.3-1.4-0.8-1.9-1.4l1.5-1.3c0.3,0.4,0.7,0.8,1.2,1s1,0.4,1.6,0.4
			c0.3,0,0.5,0,0.8-0.1c0.2-0.1,0.5-0.1,0.7-0.3c0.2-0.1,0.4-0.3,0.5-0.5c0.1-0.2,0.2-0.4,0.2-0.7c0-0.5-0.2-0.9-0.7-1.1
			c-0.5-0.2-1.2-0.5-2.1-0.7c-0.4-0.1-0.7-0.2-1.1-0.3c-0.4-0.1-0.7-0.3-1-0.5c-0.3-0.2-0.5-0.5-0.7-0.8c-0.2-0.3-0.3-0.7-0.3-1.2
			c0-0.6,0.1-1.1,0.3-1.5c0.2-0.4,0.5-0.7,0.9-1c0.4-0.3,0.8-0.5,1.3-0.6c0.5-0.1,1-0.2,1.5-0.2c0.8,0,1.5,0.1,2.2,0.4
			c0.7,0.3,1.3,0.7,1.6,1.3L284,171.5z"/>
		<path d="M304.2,175.6l3.6,3.7h-2.9l-2-2.1c-0.6,0.7-1.3,1.3-2,1.7c-0.8,0.4-1.7,0.6-2.8,0.6c-0.7,0-1.3-0.1-2-0.3
			c-0.6-0.2-1.2-0.5-1.6-0.9c-0.5-0.4-0.8-0.8-1.1-1.4c-0.3-0.6-0.4-1.2-0.4-1.9c0-0.6,0.1-1.1,0.3-1.6c0.2-0.5,0.5-0.9,0.8-1.3
			c0.3-0.4,0.7-0.7,1.1-1s0.9-0.5,1.3-0.7c-0.5-0.5-0.9-1.1-1.3-1.7c-0.4-0.6-0.5-1.2-0.5-1.9c0-0.6,0.1-1.2,0.3-1.7
			c0.2-0.5,0.5-0.9,0.9-1.2c0.4-0.3,0.8-0.6,1.3-0.7c0.5-0.2,1-0.2,1.6-0.2s1.1,0.1,1.6,0.2c0.5,0.2,0.9,0.4,1.3,0.7
			c0.4,0.3,0.7,0.7,0.9,1.2c0.2,0.5,0.3,1,0.3,1.6c0,0.5-0.1,1-0.3,1.4c-0.2,0.4-0.4,0.8-0.7,1.1c-0.3,0.3-0.7,0.6-1.1,0.9
			c-0.4,0.3-0.8,0.5-1.3,0.7l3.1,3.2l2-3.3h2.5L304.2,175.6z M297.8,172c-0.8,0.3-1.4,0.7-1.8,1.2c-0.5,0.5-0.7,1.1-0.7,1.9
			c0,0.4,0.1,0.8,0.2,1.1c0.2,0.3,0.4,0.6,0.7,0.9c0.3,0.2,0.6,0.4,0.9,0.5c0.4,0.1,0.7,0.2,1.1,0.2c0.8,0,1.4-0.2,1.9-0.5
			c0.5-0.3,1-0.8,1.4-1.5L297.8,172z M301,166.9c0-0.6-0.2-1-0.6-1.4c-0.4-0.4-0.9-0.6-1.5-0.6c-0.6,0-1.1,0.2-1.5,0.6
			s-0.6,0.9-0.6,1.5c0,0.3,0,0.5,0.1,0.8c0.1,0.3,0.2,0.5,0.4,0.7s0.3,0.5,0.5,0.7c0.2,0.2,0.4,0.4,0.5,0.6c0.3-0.1,0.6-0.3,1-0.5
			c0.3-0.2,0.6-0.4,0.8-0.6c0.2-0.2,0.4-0.5,0.6-0.8C300.9,167.6,301,167.3,301,166.9z"/>
		<path d="M116.3,206.1h-2.2v-15.8h2.2V206.1z"/>
		<path d="M123.4,195.8c0.6-0.4,1.3-0.6,2.1-0.6c0.7,0,1.4,0.2,1.9,0.5s1,0.9,1.3,1.6c0.4-0.7,0.9-1.2,1.5-1.6
			c0.6-0.4,1.3-0.5,2.1-0.5c0.7,0,1.3,0.1,1.8,0.3c0.5,0.2,0.9,0.5,1.2,0.9c0.3,0.4,0.6,0.8,0.7,1.4c0.2,0.5,0.2,1.1,0.2,1.7v6.5
			h-2.1v-5.9c0-0.4,0-0.8-0.1-1.2c-0.1-0.4-0.2-0.7-0.4-1c-0.2-0.3-0.4-0.5-0.7-0.7c-0.3-0.2-0.7-0.3-1.1-0.3
			c-0.5,0-0.9,0.1-1.2,0.3c-0.3,0.2-0.6,0.5-0.8,0.8c-0.2,0.3-0.4,0.7-0.5,1.1s-0.1,0.8-0.1,1.2v5.7H127v-6.3c0-0.4,0-0.8-0.1-1.1
			c-0.1-0.3-0.2-0.6-0.4-0.9s-0.4-0.4-0.7-0.6c-0.3-0.1-0.6-0.2-1-0.2c-0.8,0-1.4,0.3-1.9,0.9s-0.8,1.5-0.8,2.5v5.6H120v-8.3
			c0-0.3,0-0.6,0-1.1c0-0.4,0-0.8-0.1-1.2h2c0,0.3,0.1,0.6,0.1,0.9c0,0.3,0,0.6,0,0.8h0.1C122.3,196.7,122.8,196.2,123.4,195.8z"/>
		<path d="M141.9,211.4h-2.1v-15.9h2v1.6h0.1c0.3-0.6,0.8-1,1.5-1.4c0.7-0.4,1.4-0.5,2.3-0.5c0.8,0,1.5,0.1,2.1,0.4
			c0.6,0.3,1.2,0.7,1.7,1.2c0.5,0.5,0.8,1.1,1.1,1.8c0.3,0.7,0.4,1.4,0.4,2.2c0,0.8-0.1,1.5-0.4,2.2s-0.6,1.3-1.1,1.8
			c-0.5,0.5-1,0.9-1.7,1.2c-0.7,0.3-1.4,0.4-2.2,0.4c-0.8,0-1.5-0.2-2.1-0.5c-0.7-0.3-1.2-0.8-1.6-1.4h-0.1V211.4z M148.8,200.8
			c0-0.5-0.1-1-0.2-1.4s-0.4-0.9-0.7-1.2c-0.3-0.4-0.7-0.6-1.1-0.8s-0.9-0.3-1.5-0.3c-0.5,0-1,0.1-1.5,0.3c-0.4,0.2-0.8,0.5-1.1,0.8
			s-0.6,0.8-0.7,1.2c-0.2,0.5-0.3,0.9-0.3,1.4c0,0.5,0.1,1,0.3,1.4c0.2,0.5,0.4,0.9,0.7,1.2c0.3,0.3,0.7,0.6,1.1,0.8
			c0.4,0.2,0.9,0.3,1.5,0.3c0.6,0,1.1-0.1,1.5-0.3c0.4-0.2,0.8-0.5,1.1-0.9c0.3-0.4,0.5-0.8,0.7-1.2S148.8,201.3,148.8,200.8z"/>
		<path d="M164.6,200.8c0,0.8-0.1,1.6-0.4,2.2s-0.7,1.3-1.2,1.8c-0.5,0.5-1.1,0.9-1.8,1.2c-0.7,0.3-1.4,0.4-2.2,0.4
			c-0.8,0-1.6-0.1-2.2-0.4c-0.7-0.3-1.3-0.7-1.8-1.2c-0.5-0.5-0.9-1.1-1.2-1.8s-0.4-1.4-0.4-2.2s0.1-1.6,0.4-2.2
			c0.3-0.7,0.7-1.3,1.2-1.7c0.5-0.5,1.1-0.9,1.8-1.1c0.7-0.3,1.4-0.4,2.2-0.4c0.8,0,1.6,0.1,2.2,0.4c0.7,0.3,1.3,0.7,1.8,1.1
			c0.5,0.5,0.9,1.1,1.2,1.7C164.5,199.2,164.6,200,164.6,200.8z M162.4,200.8c0-0.5-0.1-1-0.2-1.4c-0.2-0.5-0.4-0.9-0.7-1.2
			c-0.3-0.3-0.7-0.6-1.1-0.8s-0.9-0.3-1.5-0.3s-1.1,0.1-1.5,0.3c-0.4,0.2-0.8,0.5-1.1,0.8c-0.3,0.3-0.5,0.8-0.7,1.2
			c-0.2,0.5-0.2,0.9-0.2,1.4c0,0.5,0.1,1,0.2,1.4c0.2,0.5,0.4,0.9,0.7,1.2c0.3,0.4,0.7,0.6,1.1,0.8c0.4,0.2,0.9,0.3,1.5,0.3
			s1.1-0.1,1.5-0.3s0.8-0.5,1.1-0.8c0.3-0.4,0.5-0.8,0.7-1.2C162.3,201.8,162.4,201.3,162.4,200.8z"/>
		<path d="M173.2,198.2c-0.2-0.4-0.6-0.7-1-0.9s-0.9-0.4-1.4-0.4c-0.2,0-0.5,0-0.7,0.1c-0.2,0.1-0.4,0.1-0.6,0.2s-0.3,0.3-0.4,0.4
			c-0.1,0.2-0.2,0.4-0.2,0.6c0,0.4,0.2,0.8,0.6,1c0.4,0.2,1,0.4,1.8,0.6c0.5,0.1,1,0.3,1.4,0.4c0.4,0.2,0.8,0.4,1.1,0.6
			s0.6,0.5,0.7,0.9c0.2,0.3,0.3,0.7,0.3,1.2c0,0.6-0.1,1.2-0.4,1.6c-0.2,0.4-0.6,0.8-0.9,1.1c-0.4,0.3-0.8,0.5-1.3,0.6
			s-1,0.2-1.6,0.2c-0.8,0-1.6-0.2-2.4-0.5c-0.8-0.3-1.4-0.8-1.9-1.4l1.5-1.3c0.3,0.4,0.7,0.8,1.2,1s1,0.4,1.6,0.4
			c0.3,0,0.5,0,0.8-0.1c0.2-0.1,0.5-0.1,0.7-0.3c0.2-0.1,0.4-0.3,0.5-0.5c0.1-0.2,0.2-0.4,0.2-0.7c0-0.5-0.2-0.9-0.7-1.1
			c-0.5-0.2-1.2-0.5-2.1-0.7c-0.4-0.1-0.7-0.2-1.1-0.3c-0.4-0.1-0.7-0.3-1-0.5c-0.3-0.2-0.5-0.5-0.7-0.8c-0.2-0.3-0.3-0.7-0.3-1.2
			c0-0.6,0.1-1.1,0.3-1.5c0.2-0.4,0.5-0.7,0.9-1c0.4-0.3,0.8-0.5,1.3-0.6c0.5-0.1,1-0.2,1.5-0.2c0.8,0,1.5,0.1,2.2,0.4
			c0.7,0.3,1.3,0.7,1.6,1.3L173.2,198.2z"/>
		<path d="M183.1,198.2c-0.2-0.4-0.6-0.7-1-0.9s-0.9-0.4-1.4-0.4c-0.2,0-0.5,0-0.7,0.1c-0.2,0.1-0.4,0.1-0.6,0.2s-0.3,0.3-0.4,0.4
			c-0.1,0.2-0.2,0.4-0.2,0.6c0,0.4,0.2,0.8,0.6,1c0.4,0.2,1,0.4,1.8,0.6c0.5,0.1,1,0.3,1.4,0.4c0.4,0.2,0.8,0.4,1.1,0.6
			s0.6,0.5,0.7,0.9c0.2,0.3,0.3,0.7,0.3,1.2c0,0.6-0.1,1.2-0.4,1.6c-0.2,0.4-0.6,0.8-0.9,1.1c-0.4,0.3-0.8,0.5-1.3,0.6
			s-1,0.2-1.6,0.2c-0.8,0-1.6-0.2-2.4-0.5c-0.8-0.3-1.4-0.8-1.9-1.4l1.5-1.3c0.3,0.4,0.7,0.8,1.2,1s1,0.4,1.6,0.4
			c0.3,0,0.5,0,0.8-0.1c0.2-0.1,0.5-0.1,0.7-0.3c0.2-0.1,0.4-0.3,0.5-0.5c0.1-0.2,0.2-0.4,0.2-0.7c0-0.5-0.2-0.9-0.7-1.1
			c-0.5-0.2-1.2-0.5-2.1-0.7c-0.4-0.1-0.7-0.2-1.1-0.3c-0.4-0.1-0.7-0.3-1-0.5c-0.3-0.2-0.5-0.5-0.7-0.8c-0.2-0.3-0.3-0.7-0.3-1.2
			c0-0.6,0.1-1.1,0.3-1.5c0.2-0.4,0.5-0.7,0.9-1c0.4-0.3,0.8-0.5,1.3-0.6c0.5-0.1,1-0.2,1.5-0.2c0.8,0,1.5,0.1,2.2,0.4
			c0.7,0.3,1.3,0.7,1.6,1.3L183.1,198.2z"/>
		<path d="M189.7,191.7c0,0.4-0.1,0.7-0.4,1c-0.3,0.3-0.6,0.4-1,0.4c-0.4,0-0.7-0.1-1-0.4c-0.3-0.3-0.4-0.6-0.4-0.9
			c0-0.4,0.1-0.7,0.4-1c0.3-0.3,0.6-0.4,1-0.4c0.4,0,0.7,0.1,1,0.4C189.6,191,189.7,191.3,189.7,191.7z M189.4,206.1h-2.1v-10.6h2.1
			V206.1z"/>
		<path d="M195.1,204.4v1.7h-2v-16.8h2.1v7.9h0.1c0.4-0.5,0.9-1,1.5-1.3c0.6-0.4,1.4-0.5,2.3-0.5c0.8,0,1.5,0.1,2.1,0.4
			c0.6,0.3,1.2,0.7,1.7,1.2c0.5,0.5,0.8,1.1,1.1,1.8c0.3,0.7,0.4,1.4,0.4,2.2c0,0.8-0.1,1.5-0.4,2.2c-0.3,0.7-0.6,1.3-1.1,1.8
			s-1,0.9-1.7,1.2c-0.7,0.3-1.4,0.4-2.2,0.4c-0.8,0-1.5-0.2-2.2-0.5C196.1,205.5,195.6,205.1,195.1,204.4L195.1,204.4z M202.1,200.8
			c0-0.5-0.1-1-0.2-1.4c-0.1-0.5-0.4-0.9-0.7-1.2c-0.3-0.4-0.7-0.6-1.1-0.8c-0.4-0.2-0.9-0.3-1.5-0.3c-0.5,0-1,0.1-1.5,0.3
			s-0.8,0.5-1.1,0.8c-0.3,0.4-0.6,0.8-0.7,1.2c-0.2,0.5-0.3,0.9-0.3,1.4c0,0.5,0.1,1,0.3,1.4s0.4,0.9,0.7,1.2
			c0.3,0.3,0.7,0.6,1.1,0.8s0.9,0.3,1.5,0.3c0.6,0,1.1-0.1,1.5-0.3c0.4-0.2,0.8-0.5,1.1-0.9c0.3-0.4,0.5-0.8,0.7-1.2
			C202.1,201.8,202.1,201.3,202.1,200.8z"/>
		<path d="M209.4,206.1h-2.1v-16.8h2.1V206.1z"/>
		<path d="M222.9,200.7c0,0.1,0,0.2,0,0.4c0,0.1,0,0.2,0,0.4h-8.4c0,0.4,0.1,0.9,0.3,1.2c0.2,0.4,0.4,0.7,0.7,1
			c0.3,0.3,0.7,0.5,1.1,0.7c0.4,0.2,0.8,0.2,1.3,0.2c0.7,0,1.3-0.2,1.8-0.5c0.5-0.3,0.9-0.7,1.2-1.1l1.5,1.2c-0.6,0.7-1.2,1.3-2,1.7
			c-0.8,0.4-1.6,0.5-2.6,0.5c-0.8,0-1.5-0.1-2.2-0.4c-0.7-0.3-1.3-0.6-1.8-1.1c-0.5-0.5-0.9-1.1-1.2-1.7c-0.3-0.7-0.4-1.4-0.4-2.3
			c0-0.8,0.1-1.6,0.4-2.3s0.7-1.3,1.1-1.8s1.1-0.9,1.7-1.1c0.7-0.3,1.4-0.4,2.2-0.4s1.5,0.1,2.1,0.4c0.6,0.3,1.2,0.6,1.6,1.1
			c0.4,0.5,0.8,1.1,1,1.7C222.8,199.1,222.9,199.9,222.9,200.7z M220.7,199.9c0-0.4-0.1-0.8-0.2-1.2s-0.3-0.7-0.6-0.9
			c-0.2-0.3-0.5-0.5-0.9-0.6c-0.4-0.2-0.8-0.2-1.3-0.2c-0.4,0-0.9,0.1-1.3,0.2c-0.4,0.2-0.7,0.4-1,0.6c-0.3,0.3-0.5,0.6-0.7,0.9
			c-0.2,0.4-0.3,0.8-0.3,1.2H220.7z"/>
		<path d="M233.7,206.1h-2.2v-15.8h5.1c0.8,0,1.5,0.1,2.2,0.2c0.7,0.2,1.3,0.4,1.8,0.7c0.5,0.3,0.9,0.8,1.2,1.3
			c0.3,0.6,0.4,1.2,0.4,2c0,1.2-0.4,2.1-1.1,2.8s-1.6,1.2-2.8,1.4l4.4,7.2H240l-4-7h-2.4V206.1z M233.7,197.2h2.5c0.5,0,1,0,1.4-0.1
			c0.4-0.1,0.8-0.2,1.2-0.4c0.3-0.2,0.6-0.5,0.8-0.8c0.2-0.3,0.3-0.7,0.3-1.2c0-0.5-0.1-0.9-0.3-1.2c-0.2-0.3-0.4-0.6-0.8-0.8
			c-0.3-0.2-0.7-0.3-1.1-0.4c-0.4-0.1-0.9-0.1-1.4-0.1h-2.7V197.2z"/>
		<path d="M254.6,200.7c0,0.1,0,0.2,0,0.4c0,0.1,0,0.2,0,0.4h-8.4c0,0.4,0.1,0.9,0.3,1.2c0.2,0.4,0.4,0.7,0.7,1
			c0.3,0.3,0.7,0.5,1.1,0.7c0.4,0.2,0.8,0.2,1.3,0.2c0.7,0,1.3-0.2,1.8-0.5c0.5-0.3,0.9-0.7,1.2-1.1l1.5,1.2c-0.6,0.7-1.2,1.3-2,1.7
			c-0.8,0.4-1.6,0.5-2.6,0.5c-0.8,0-1.5-0.1-2.2-0.4c-0.7-0.3-1.3-0.6-1.8-1.1c-0.5-0.5-0.9-1.1-1.2-1.7c-0.3-0.7-0.4-1.4-0.4-2.3
			c0-0.8,0.1-1.6,0.4-2.3s0.7-1.3,1.1-1.8s1.1-0.9,1.7-1.1c0.7-0.3,1.4-0.4,2.2-0.4s1.5,0.1,2.1,0.4c0.6,0.3,1.2,0.6,1.6,1.1
			c0.4,0.5,0.8,1.1,1,1.7C254.5,199.1,254.6,199.9,254.6,200.7z M252.5,199.9c0-0.4-0.1-0.8-0.2-1.2s-0.3-0.7-0.6-0.9
			c-0.2-0.3-0.5-0.5-0.9-0.6c-0.4-0.2-0.8-0.2-1.3-0.2c-0.4,0-0.9,0.1-1.3,0.2c-0.4,0.2-0.7,0.4-1,0.6c-0.3,0.3-0.5,0.6-0.7,0.9
			c-0.2,0.4-0.3,0.8-0.3,1.2H252.5z"/>
		<path d="M265.9,204.5c-0.4,0.6-0.9,1.1-1.6,1.4c-0.7,0.3-1.4,0.5-2.1,0.5c-0.8,0-1.6-0.1-2.2-0.4c-0.7-0.3-1.2-0.7-1.7-1.2
			c-0.5-0.5-0.8-1.1-1.1-1.8s-0.4-1.4-0.4-2.2c0-0.8,0.1-1.5,0.4-2.2c0.3-0.7,0.6-1.3,1.1-1.8c0.5-0.5,1-0.9,1.7-1.2
			c0.7-0.3,1.4-0.4,2.2-0.4c0.9,0,1.6,0.2,2.3,0.5c0.7,0.4,1.2,0.8,1.5,1.4h0.1v-1.6h2v15.9h-2.1L265.9,204.5L265.9,204.5z
			 M259,200.8c0,0.5,0.1,1,0.2,1.4c0.1,0.5,0.4,0.9,0.7,1.2c0.3,0.4,0.7,0.6,1.1,0.9c0.4,0.2,0.9,0.3,1.5,0.3c0.5,0,1-0.1,1.5-0.3
			c0.4-0.2,0.8-0.5,1.1-0.8c0.3-0.3,0.6-0.8,0.7-1.2c0.2-0.5,0.3-0.9,0.3-1.4c0-0.5-0.1-1-0.3-1.4c-0.2-0.5-0.4-0.9-0.7-1.2
			s-0.7-0.6-1.1-0.8c-0.4-0.2-0.9-0.3-1.5-0.3c-0.6,0-1.1,0.1-1.5,0.3s-0.8,0.5-1.1,0.8c-0.3,0.4-0.5,0.8-0.7,1.2
			C259.1,199.8,259,200.3,259,200.8z"/>
		<path d="M279.1,206.1c0-0.3-0.1-0.6-0.1-0.9c0-0.3,0-0.6,0-0.8h0c-0.3,0.6-0.7,1-1.3,1.4c-0.6,0.4-1.3,0.6-2.1,0.6
			c-0.7,0-1.3-0.1-1.8-0.3s-0.9-0.5-1.2-0.9c-0.3-0.4-0.6-0.8-0.7-1.4s-0.2-1.1-0.2-1.7v-6.5h2.1v5.8c0,0.4,0,0.8,0.1,1.2
			s0.2,0.7,0.4,1c0.2,0.3,0.4,0.5,0.7,0.7c0.3,0.2,0.7,0.3,1.2,0.3c0.8,0,1.5-0.3,2-0.9s0.8-1.5,0.8-2.5v-5.6h2.1v8.3
			c0,0.3,0,0.6,0,1.1c0,0.4,0,0.8,0.1,1.2H279.1z"/>
		<path d="M294.5,200.7c0,0.1,0,0.2,0,0.4c0,0.1,0,0.2,0,0.4H286c0,0.4,0.1,0.9,0.3,1.2c0.2,0.4,0.4,0.7,0.7,1
			c0.3,0.3,0.7,0.5,1.1,0.7c0.4,0.2,0.8,0.2,1.3,0.2c0.7,0,1.3-0.2,1.8-0.5c0.5-0.3,0.9-0.7,1.2-1.1l1.5,1.2c-0.6,0.7-1.2,1.3-2,1.7
			c-0.8,0.4-1.6,0.5-2.6,0.5c-0.8,0-1.5-0.1-2.2-0.4c-0.7-0.3-1.3-0.6-1.8-1.1c-0.5-0.5-0.9-1.1-1.2-1.7c-0.3-0.7-0.4-1.4-0.4-2.3
			c0-0.8,0.1-1.6,0.4-2.3s0.7-1.3,1.1-1.8s1.1-0.9,1.7-1.1c0.7-0.3,1.4-0.4,2.2-0.4s1.5,0.1,2.1,0.4c0.6,0.3,1.2,0.6,1.6,1.1
			c0.4,0.5,0.8,1.1,1,1.7C294.3,199.1,294.5,199.9,294.5,200.7z M292.3,199.9c0-0.4-0.1-0.8-0.2-1.2s-0.3-0.7-0.6-0.9
			c-0.2-0.3-0.5-0.5-0.9-0.6c-0.4-0.2-0.8-0.2-1.3-0.2c-0.4,0-0.9,0.1-1.3,0.2c-0.4,0.2-0.7,0.4-1,0.6c-0.3,0.3-0.5,0.6-0.7,0.9
			c-0.2,0.4-0.3,0.8-0.3,1.2H292.3z"/>
		<path d="M303.1,198.2c-0.2-0.4-0.6-0.7-1-0.9s-0.9-0.4-1.4-0.4c-0.2,0-0.5,0-0.7,0.1c-0.2,0.1-0.4,0.1-0.6,0.2s-0.3,0.3-0.4,0.4
			c-0.1,0.2-0.2,0.4-0.2,0.6c0,0.4,0.2,0.8,0.6,1c0.4,0.2,1,0.4,1.8,0.6c0.5,0.1,1,0.3,1.4,0.4c0.4,0.2,0.8,0.4,1.1,0.6
			s0.6,0.5,0.7,0.9c0.2,0.3,0.3,0.7,0.3,1.2c0,0.6-0.1,1.2-0.4,1.6c-0.2,0.4-0.6,0.8-0.9,1.1c-0.4,0.3-0.8,0.5-1.3,0.6
			s-1,0.2-1.6,0.2c-0.8,0-1.6-0.2-2.4-0.5c-0.8-0.3-1.4-0.8-1.9-1.4l1.5-1.3c0.3,0.4,0.7,0.8,1.2,1s1,0.4,1.6,0.4
			c0.3,0,0.5,0,0.8-0.1c0.2-0.1,0.5-0.1,0.7-0.3c0.2-0.1,0.4-0.3,0.5-0.5c0.1-0.2,0.2-0.4,0.2-0.7c0-0.5-0.2-0.9-0.7-1.1
			c-0.5-0.2-1.2-0.5-2.1-0.7c-0.4-0.1-0.7-0.2-1.1-0.3c-0.4-0.1-0.7-0.3-1-0.5c-0.3-0.2-0.5-0.5-0.7-0.8c-0.2-0.3-0.3-0.7-0.3-1.2
			c0-0.6,0.1-1.1,0.3-1.5c0.2-0.4,0.5-0.7,0.9-1c0.4-0.3,0.8-0.5,1.3-0.6c0.5-0.1,1-0.2,1.5-0.2c0.8,0,1.5,0.1,2.2,0.4
			c0.7,0.3,1.3,0.7,1.6,1.3L303.1,198.2z"/>
		<path d="M312.4,197.2h-2.8v5.5c0,0.6,0.1,1.1,0.4,1.4c0.2,0.3,0.6,0.4,1.1,0.4c0.2,0,0.4,0,0.6-0.1c0.2,0,0.4-0.1,0.6-0.2l0.1,1.7
			c-0.3,0.1-0.5,0.2-0.8,0.2c-0.3,0.1-0.6,0.1-0.9,0.1c-1,0-1.8-0.3-2.3-0.8c-0.5-0.5-0.8-1.4-0.8-2.5v-5.7h-2v-1.7h2v-3h2.1v3h2.8
			V197.2z"/>
		<path d="M320.3,198.2c-0.2-0.4-0.6-0.7-1-0.9s-0.9-0.4-1.4-0.4c-0.2,0-0.5,0-0.7,0.1c-0.2,0.1-0.4,0.1-0.6,0.2s-0.3,0.3-0.4,0.4
			c-0.1,0.2-0.2,0.4-0.2,0.6c0,0.4,0.2,0.8,0.6,1c0.4,0.2,1,0.4,1.8,0.6c0.5,0.1,1,0.3,1.4,0.4c0.4,0.2,0.8,0.4,1.1,0.6
			s0.6,0.5,0.7,0.9c0.2,0.3,0.3,0.7,0.3,1.2c0,0.6-0.1,1.2-0.4,1.6c-0.2,0.4-0.6,0.8-0.9,1.1c-0.4,0.3-0.8,0.5-1.3,0.6
			s-1,0.2-1.6,0.2c-0.8,0-1.6-0.2-2.4-0.5c-0.8-0.3-1.4-0.8-1.9-1.4l1.5-1.3c0.3,0.4,0.7,0.8,1.2,1s1,0.4,1.6,0.4
			c0.3,0,0.5,0,0.8-0.1c0.2-0.1,0.5-0.1,0.7-0.3c0.2-0.1,0.4-0.3,0.5-0.5c0.1-0.2,0.2-0.4,0.2-0.7c0-0.5-0.2-0.9-0.7-1.1
			c-0.5-0.2-1.2-0.5-2.1-0.7c-0.4-0.1-0.7-0.2-1.1-0.3c-0.4-0.1-0.7-0.3-1-0.5c-0.3-0.2-0.5-0.5-0.7-0.8c-0.2-0.3-0.3-0.7-0.3-1.2
			c0-0.6,0.1-1.1,0.3-1.5c0.2-0.4,0.5-0.7,0.9-1c0.4-0.3,0.8-0.5,1.3-0.6c0.5-0.1,1-0.2,1.5-0.2c0.8,0,1.5,0.1,2.2,0.4
			c0.7,0.3,1.3,0.7,1.6,1.3L320.3,198.2z"/>
	</g>
</g>
<g>
	<g>
		<path fill="#5459A7" d="M434.8,272.8H0V0h434.8V272.8z M2.8,270H432V2.8H2.8V270z"/>
	</g>
</g>
<g>
</g>
<g>
	<g>
		<path d="M411.2,249H23.7V23.9h387.5V249z M26.5,246.1h381.8V26.7H26.5V246.1z"/>
	</g>
</g>
</svg>
