<?xml version="1.0" encoding="utf-8"?>
<!-- Generator: Adobe Illustrator 20.0.0, SVG Export Plug-In . SVG Version: 6.00 Build 0)  -->
<svg version="1.1" baseProfile="basic" id="Layer_1"
	 xmlns="http://www.w3.org/2000/svg" xmlns:xlink="http://www.w3.org/1999/xlink" x="0px" y="0px" viewBox="0 0 648 144"
	 xml:space="preserve">
<g>
	<rect x="20" y="16.9" fill="#FFFFFF" width="608.1" height="113"/>
	<path d="M628.5,130.4H19.5v-114h609.1V130.4z M20.5,129.4h607.1v-112H20.5V129.4z"/>
</g>
<g>
	<path d="M158.2,69.7c0,7-2.3,12.6-7,16.9c-4.7,4.3-11,6.4-18.9,6.4c-1,0-3,0-6.1-0.1c-3.1-0.1-5.2-0.1-6.3-0.1
		c-4.2,0-8.3,0.1-12.3,0.3c-0.4,0-0.5-0.3-0.5-1c0-0.6,0.2-0.9,0.5-0.9c1.9-0.2,3.3-0.5,4.3-0.9c1-0.4,1.7-0.9,2.1-1.5
		c0.4-0.6,0.6-1.7,0.6-3.3V53.5c0-1.6-0.2-2.7-0.6-3.3c-0.4-0.6-1.1-1.2-2.1-1.5c-1-0.4-2.5-0.7-4.4-0.9c-0.4,0-0.5-0.3-0.5-0.9
		c0-0.6,0.2-0.9,0.5-0.9c2.7,0.2,6.8,0.3,12.3,0.3c1,0,3.1,0,6.3-0.1c3-0.1,5.1-0.1,6.1-0.1c7.8,0,14,2.2,18.8,6.6
		C155.8,57,158.2,62.7,158.2,69.7z M150.7,69.7c0-6.2-1.8-11.3-5.3-15.4c-3.5-4.1-7.9-6.1-13.2-6.1H132l-6.4,0.1c-2.7,0.1-4,1.4-4,4
		v34.5c0,2.6,1.3,3.9,4,3.9l6.4,0.2c5.3,0,9.7-2,13.3-6C148.9,80.7,150.7,75.7,150.7,69.7z"/>
	<path d="M186.6,93.8c-1.3,0-2.4-0.3-3.3-0.9c-0.9-0.6-1.6-1.5-1.9-2.5c-2.4,2.5-5.6,3.7-9.5,3.7c-2,0-3.7-0.6-5-1.9
		c-1.3-1.3-1.9-2.8-1.9-4.7c0-4.6,5.5-8.4,16.5-11.3l0.2-5.3v-0.2c0-1.6-0.4-2.9-1.2-3.9c-0.8-1-1.9-1.4-3.2-1.4
		c-1.3,0-2.5,0.3-3.4,1c-0.9,0.6-1.4,1.5-1.4,2.4c0,1.5-0.4,2.6-1.1,3.4c-0.7,0.8-1.7,1.2-2.9,1.2c-0.7,0-1.3-0.2-1.8-0.6
		c-0.5-0.4-0.7-1-0.7-1.7c0-1.7,1.6-3.6,4.8-5.5c3.2-1.9,6.1-2.9,8.8-2.9c2.4,0,4.4,0.7,6,2.2c1.5,1.5,2.3,3.4,2.3,5.9V71l-0.5,15.4
		v0.2c0,2.4,0.8,3.6,2.3,3.6c0.7,0,1.6-0.5,2.6-1.4l0.2-0.1c0.2,0,0.4,0.1,0.5,0.4s0.2,0.5,0.2,0.8c0,0.7-0.7,1.5-2.1,2.4
		C189.6,93.3,188.2,93.8,186.6,93.8z M181.3,78.4c-6.6,1.5-9.9,4-9.9,7.4c0,3.2,1.2,4.8,3.7,4.8c1.2,0,2.4-0.3,3.5-0.9
		c1.2-0.6,1.9-1.3,2.4-2.2L181.3,78.4z"/>
	<path d="M230.5,92.1c0,0.6-0.2,1-0.5,1c-0.9,0-2-0.1-3.3-0.2c-1.4-0.1-2.7-0.2-3.8-0.2c-1.1,0-2.4,0.1-3.9,0.2
		c-1.3,0.1-2.5,0.2-3.4,0.2c-0.4,0-0.5-0.3-0.5-1c0-0.6,0.2-0.9,0.5-0.9c1.6-0.2,2.6-0.6,3.1-1.3c0.5-0.7,0.7-2.2,0.7-4.4V74
		c0-2.5-0.5-4.4-1.5-5.6c-1-1.2-2.5-1.8-4.6-1.8c-1.3,0-2.5,0.2-3.5,0.7c-1,0.5-2.1,1.4-3.2,2.7v15.3c0,2.2,0.2,3.7,0.7,4.4
		c0.5,0.7,1.5,1.1,3.1,1.3c0.4,0,0.5,0.4,0.5,0.9c0,0.6-0.2,1-0.5,1c-0.9,0-2.1-0.1-3.4-0.2c-1.5-0.1-2.8-0.2-3.9-0.2
		c-1.1,0-2.4,0.1-3.8,0.2c-1.3,0.1-2.5,0.2-3.4,0.2c-0.4,0-0.5-0.3-0.5-1c0-0.6,0.2-0.9,0.5-0.9c1.9-0.2,3.2-0.7,3.8-1.4
		c0.6-0.7,0.9-2.1,0.9-4.3V72.8c0-1.8-0.2-3-0.7-3.6c-0.5-0.6-1.5-0.9-3.1-1.1c-0.4,0-0.5-0.3-0.5-0.9c0-0.6,0.2-0.8,0.5-0.8
		c2.2-0.6,4.1-1.2,5.6-1.9c1.5-0.7,2.4-1.3,2.8-1.8c0.2-0.3,0.5-0.4,0.7-0.4c0.6,0,1,0.2,1,0.5l-0.3,4.3c3.3-3,6.3-4.6,9.1-4.6
		c3.1,0,5.5,0.9,7.2,2.7c1.7,1.8,2.6,4.1,2.6,7.1v13c0,2.2,0.3,3.7,0.8,4.4s1.8,1.1,3.7,1.4C230.3,91.2,230.5,91.5,230.5,92.1z"/>
	<path d="M250.1,92.1c0,0.6-0.2,1-0.5,1c-0.9,0-2.1-0.1-3.6-0.2c-1.6-0.1-3-0.2-4.1-0.2c-1.1,0-2.5,0.1-4.1,0.2
		c-1.4,0.1-2.6,0.2-3.5,0.2c-0.4,0-0.5-0.3-0.5-1c0-0.6,0.2-0.9,0.5-0.9c1.9-0.2,3.2-0.7,3.7-1.4c0.6-0.7,0.8-2.1,0.8-4.3V72.8
		c0-1.8-0.2-3-0.7-3.6c-0.5-0.6-1.5-0.9-3-1.1c-0.4,0-0.5-0.3-0.5-0.9c0-0.6,0.2-0.8,0.5-0.8c2.4-0.6,4.3-1.3,5.8-2
		c1.5-0.7,2.5-1.3,2.8-1.7c0.2-0.3,0.5-0.4,0.7-0.4c0.6,0,0.9,0.2,0.9,0.5c-0.4,5.1-0.5,9-0.5,11.8v10.7c0,2.2,0.3,3.7,0.8,4.4
		s1.8,1.1,3.8,1.4C249.9,91.2,250.1,91.5,250.1,92.1z M245.3,50.9c0,1-0.3,1.8-1,2.5c-0.7,0.7-1.5,1.1-2.5,1.1s-1.8-0.4-2.5-1.1
		c-0.7-0.7-1-1.5-1-2.5c0-1,0.3-1.8,1-2.5s1.5-1,2.5-1c1,0,1.8,0.3,2.5,1C244.9,49.1,245.3,49.9,245.3,50.9z"/>
	<path d="M281.3,73.7c0,0.6-0.4,1-1.2,1h-18.6c-0.1,1.2-0.2,2.5-0.2,3.8c0,3.7,0.9,6.5,2.6,8.4s4.2,2.9,7.4,2.9
		c1.6,0,3.2-0.4,4.9-1.3c1.6-0.9,2.9-2,3.9-3.3l0.2-0.1c0.2,0,0.4,0.1,0.6,0.4c0.2,0.2,0.3,0.5,0.3,0.9c0,0.5-0.7,1.5-2.2,3
		c-1.5,1.5-3,2.7-4.7,3.5s-3.5,1.2-5.3,1.2c-4.1,0-7.5-1.5-10.3-4.5c-2.8-3-4.2-6.7-4.2-11c0-4.4,1.4-8.2,4.1-11.3
		c2.7-3.1,6.2-4.6,10.4-4.6c3.5,0,6.5,1.2,8.9,3.5C280.2,68.4,281.3,70.9,281.3,73.7z M275.2,70.7c0-1.7-0.6-3.1-1.8-4.2
		c-1.2-1.1-2.7-1.7-4.5-1.7c-1.7,0-3.3,0.7-4.5,2.2s-2.1,3.4-2.6,5.8l9.5-0.3c1.4,0,2.4-0.2,3-0.4C274.9,71.8,275.2,71.4,275.2,70.7
		z"/>
	<path d="M302.2,92c0,0.6-0.2,1-0.5,1c-0.9,0-2.1-0.1-3.6-0.2c-1.6-0.1-3-0.2-4.1-0.2c-1.1,0-2.4,0.1-4,0.2
		c-1.5,0.1-2.6,0.2-3.6,0.2c-0.4,0-0.5-0.3-0.5-1c0-0.6,0.2-0.9,0.5-0.9c1.9-0.2,3.2-0.7,3.8-1.4s0.9-2.1,0.9-4.4V53.7
		c0-1.8-0.2-3-0.7-3.6s-1.5-0.9-3.1-1.1c-0.4,0-0.5-0.3-0.5-0.9c0-0.6,0.2-0.8,0.5-0.8c2.4-0.6,4.3-1.3,5.9-2
		c1.5-0.7,2.5-1.3,2.9-1.8c0.2-0.2,0.5-0.4,0.7-0.4c0.6,0,1,0.2,1,0.5c-0.4,5.1-0.5,9-0.5,11.8v29.7c0,2.2,0.3,3.7,0.8,4.4
		c0.6,0.7,1.8,1.2,3.8,1.4C302.1,91.1,302.2,91.4,302.2,92z"/>
	<path d="M321.6,92c0,0.6-0.2,1-0.5,1c-0.9,0-2.1-0.1-3.6-0.2c-1.6-0.1-3-0.2-4.1-0.2c-1.1,0-2.4,0.1-4,0.2
		c-1.5,0.1-2.6,0.2-3.6,0.2c-0.4,0-0.5-0.3-0.5-1c0-0.6,0.2-0.9,0.5-0.9c1.9-0.2,3.2-0.7,3.8-1.4s0.9-2.1,0.9-4.4V53.7
		c0-1.8-0.2-3-0.7-3.6c-0.5-0.6-1.5-0.9-3.1-1.1c-0.4,0-0.5-0.3-0.5-0.9c0-0.6,0.2-0.8,0.5-0.8c2.4-0.6,4.3-1.3,5.9-2
		c1.5-0.7,2.5-1.3,2.9-1.8c0.2-0.2,0.5-0.4,0.7-0.4c0.6,0,1,0.2,1,0.5c-0.4,5.1-0.5,9-0.5,11.8v29.7c0,2.2,0.3,3.7,0.9,4.4
		c0.6,0.7,1.8,1.2,3.8,1.4C321.4,91.1,321.6,91.4,321.6,92z"/>
	<path d="M352.2,73.7c0,0.6-0.4,1-1.2,1h-18.6c-0.1,1.2-0.2,2.5-0.2,3.8c0,3.7,0.9,6.5,2.6,8.4s4.2,2.9,7.4,2.9
		c1.6,0,3.2-0.4,4.9-1.3c1.6-0.9,2.9-2,3.9-3.3l0.2-0.1c0.2,0,0.4,0.1,0.6,0.4c0.2,0.2,0.3,0.5,0.3,0.9c0,0.5-0.7,1.5-2.2,3
		c-1.5,1.5-3,2.7-4.7,3.5c-1.7,0.8-3.5,1.2-5.3,1.2c-4.1,0-7.5-1.5-10.3-4.5c-2.8-3-4.2-6.7-4.2-11c0-4.4,1.4-8.2,4.1-11.3
		c2.7-3.1,6.2-4.6,10.4-4.6c3.5,0,6.5,1.2,8.9,3.5C351,68.4,352.2,70.9,352.2,73.7z M346,70.7c0-1.7-0.6-3.1-1.8-4.2
		s-2.7-1.7-4.5-1.7c-1.7,0-3.3,0.7-4.5,2.2s-2.1,3.4-2.6,5.8l9.5-0.3c1.4,0,2.4-0.2,3-0.4S346,71.4,346,70.7z"/>
	<path d="M417.2,81.8c-1.8,3.9-3.3,7.7-4.5,11.2c-8.5-0.3-14.6-0.4-18.3-0.4c-3.6,0-9.7,0.1-18.2,0.4c-0.4,0-0.5-0.3-0.5-1
		c0-0.6,0.2-0.9,0.5-0.9c1.9-0.2,3.3-0.5,4.3-0.9c1-0.4,1.7-0.9,2.1-1.5s0.6-1.7,0.6-3.3v-32c0-1.6-0.2-2.7-0.6-3.3
		c-0.4-0.6-1.1-1.2-2.1-1.5c-1-0.4-2.5-0.7-4.4-0.9c-0.4,0-0.5-0.3-0.5-0.9c0-0.6,0.2-0.9,0.5-0.9c5.7,0.3,11.6,0.4,17.6,0.4
		c6,0,11.9-0.1,17.6-0.4c0.5,3.5,1.3,7,2.3,10.4c0,0.5-0.4,0.7-1.2,0.7c-0.4,0-0.6-0.2-0.7-0.5c-1.7-5.4-5.3-8-10.7-8h-6.9
		c-2.6,0-3.9,1.4-3.9,4.1v15.1h8.6c2.3,0,3.8-0.5,4.6-1.6c0.8-1,1.4-2.9,1.7-5.5c0-0.4,0.3-0.5,0.9-0.5s0.9,0.2,0.9,0.5
		c0,1.1-0.1,2.6-0.2,4.3c-0.1,1.7-0.2,3-0.2,4c0,1.1,0.1,2.4,0.2,4.1c0.1,1.8,0.2,3.2,0.2,4.4c0,0.4-0.3,0.5-0.9,0.5
		s-0.9-0.2-0.9-0.5c-0.3-2.8-0.9-4.7-1.8-5.8c-0.9-1.1-2.4-1.7-4.5-1.7h-8.6v16.7c0,2.7,1.3,4,3.9,4h7.4c2.7,0,5.4-0.9,8-2.6
		s4.6-4,5.9-6.6c0.1-0.2,0.3-0.3,0.6-0.3c0.3,0,0.6,0.1,0.9,0.3C417.1,81.3,417.2,81.5,417.2,81.8z"/>
	<path d="M436.4,92c0,0.6-0.2,1-0.5,1c-0.9,0-2.1-0.1-3.6-0.2c-1.6-0.1-3-0.2-4.1-0.2c-1.1,0-2.4,0.1-4,0.2
		c-1.5,0.1-2.6,0.2-3.6,0.2c-0.4,0-0.5-0.3-0.5-1c0-0.6,0.2-0.9,0.5-0.9c1.9-0.2,3.2-0.7,3.8-1.4c0.6-0.7,0.9-2.1,0.9-4.4V53.7
		c0-1.8-0.2-3-0.7-3.6c-0.5-0.6-1.5-0.9-3.1-1.1c-0.4,0-0.5-0.3-0.5-0.9c0-0.6,0.2-0.8,0.5-0.8c2.4-0.6,4.3-1.3,5.9-2
		c1.5-0.7,2.5-1.3,2.9-1.8c0.2-0.2,0.5-0.4,0.7-0.4c0.6,0,1,0.2,1,0.5c-0.4,5.1-0.5,9-0.5,11.8v29.7c0,2.2,0.3,3.7,0.9,4.4
		c0.6,0.7,1.8,1.2,3.8,1.4C436.2,91.1,436.4,91.4,436.4,92z"/>
	<path d="M455.8,92.1c0,0.6-0.2,1-0.5,1c-0.9,0-2.1-0.1-3.6-0.2c-1.6-0.1-3-0.2-4.1-0.2c-1.1,0-2.5,0.1-4.1,0.2
		c-1.4,0.1-2.6,0.2-3.5,0.2c-0.4,0-0.5-0.3-0.5-1c0-0.6,0.2-0.9,0.5-0.9c1.9-0.2,3.2-0.7,3.7-1.4c0.6-0.7,0.8-2.1,0.8-4.3V72.8
		c0-1.8-0.2-3-0.7-3.6c-0.5-0.6-1.5-0.9-3-1.1c-0.4,0-0.5-0.3-0.5-0.9c0-0.6,0.2-0.8,0.5-0.8c2.4-0.6,4.3-1.3,5.8-2
		c1.5-0.7,2.5-1.3,2.8-1.7c0.2-0.3,0.5-0.4,0.7-0.4c0.6,0,1,0.2,1,0.5c-0.4,5.1-0.5,9-0.5,11.8v10.7c0,2.2,0.3,3.7,0.8,4.4
		c0.6,0.7,1.8,1.1,3.8,1.4C455.6,91.2,455.8,91.5,455.8,92.1z M451,50.9c0,1-0.3,1.8-1,2.5c-0.7,0.7-1.5,1.1-2.5,1.1
		c-1,0-1.8-0.4-2.5-1.1c-0.7-0.7-1-1.5-1-2.5c0-1,0.3-1.8,1-2.5s1.5-1,2.5-1c1,0,1.8,0.3,2.5,1C450.7,49.1,451,49.9,451,50.9z"/>
	<path d="M481.6,84.2c0,2.8-1.1,5.1-3.3,7c-2.2,1.9-4.8,2.8-7.9,2.8c-1.1,0-2.8-0.2-5-0.7c-1.7-0.3-2.9-0.5-3.5-0.5
		c-0.2-1.6-0.6-4-1.3-7.2c0-0.3,0.3-0.5,1-0.5c0.5,0,0.9,0.2,1,0.5c0.5,1.7,1.6,3.1,3.1,4.4c1.5,1.2,3.1,1.9,4.8,1.9
		c1.7,0,3-0.5,4-1.4c0.9-0.9,1.4-2.2,1.4-3.9c0-1.1-0.4-2-1.2-2.8s-2.5-1.8-5.1-3c-3.4-1.6-5.7-3-6.8-4.4c-1.1-1.4-1.6-3-1.6-5
		c0-2.4,1-4.4,3.1-6.1c2.1-1.7,4.5-2.6,7.3-2.6c1.2,0,2.8,0.2,5,0.6c1.2,0.2,2,0.3,2.3,0.3c0.1,2.7,0.2,5,0.4,6.8
		c0,0.3-0.3,0.5-1,0.5c-0.6,0-0.9-0.2-1-0.5c-0.2-1.7-0.9-3-1.9-4c-1-1-2.2-1.5-3.6-1.5c-3.5,0-5.3,1.5-5.3,4.6c0,1,0.4,2,1.3,2.9
		c0.8,0.9,2.7,2,5.5,3.4c3.3,1.7,5.5,3.1,6.6,4.4C481,81.3,481.6,82.7,481.6,84.2z"/>
	<path d="M514.1,73.7c0,0.6-0.4,1-1.2,1h-18.6c-0.1,1.2-0.2,2.5-0.2,3.8c0,3.7,0.9,6.5,2.6,8.4s4.2,2.9,7.4,2.9
		c1.6,0,3.2-0.4,4.9-1.3c1.6-0.9,2.9-2,3.9-3.3l0.2-0.1c0.2,0,0.4,0.1,0.6,0.4s0.3,0.5,0.3,0.9c0,0.5-0.7,1.5-2.2,3
		c-1.5,1.5-3,2.7-4.7,3.5c-1.7,0.8-3.5,1.2-5.3,1.2c-4.1,0-7.5-1.5-10.3-4.5c-2.8-3-4.2-6.7-4.2-11c0-4.4,1.4-8.2,4.1-11.3
		c2.7-3.1,6.2-4.6,10.4-4.6c3.5,0,6.5,1.2,8.9,3.5C512.9,68.4,514.1,70.9,514.1,73.7z M507.9,70.7c0-1.7-0.6-3.1-1.8-4.2
		s-2.7-1.7-4.5-1.7c-1.7,0-3.3,0.7-4.5,2.2c-1.3,1.5-2.1,3.4-2.6,5.8l9.5-0.3c1.4,0,2.4-0.2,3-0.4C507.6,71.8,507.9,71.4,507.9,70.7
		z"/>
	<path d="M542.9,66c0,0.9-0.3,1.7-0.8,2.3c-0.6,0.6-1.2,1-2,1c-1,0-2-0.3-3-1c-0.8-0.5-1.4-0.8-2-0.8c-1.5,0-3,0.9-4.6,2.6v15.3
		c0,2,0.3,3.4,1,4.1c0.7,0.8,2.1,1.3,4.4,1.6c0.4,0,0.5,0.4,0.5,0.9c0,0.6-0.2,1-0.5,1c-0.9,0-2.2-0.1-3.9-0.2
		c-1.9-0.1-3.4-0.2-4.5-0.2c-1.1,0-2.5,0.1-4.1,0.2c-1.5,0.1-2.6,0.2-3.6,0.2c-0.4,0-0.5-0.3-0.5-1c0-0.6,0.2-0.9,0.5-0.9
		c2-0.2,3.2-0.7,3.8-1.4c0.6-0.7,0.8-2.1,0.8-4.3V72.8c0-1.8-0.2-3-0.7-3.6c-0.5-0.6-1.5-0.9-3.1-1.1c-0.4,0-0.5-0.3-0.5-0.9
		c0-0.6,0.2-0.8,0.5-0.8c2.2-0.6,4.1-1.2,5.6-1.9c1.5-0.7,2.4-1.3,2.9-1.8c0.3-0.3,0.5-0.4,0.8-0.4c0.6,0,0.9,0.2,0.9,0.5l-0.3,4.3
		c1.8-1.7,3.4-2.9,4.7-3.5c1.3-0.7,2.6-1,3.9-1c1,0,1.9,0.3,2.7,1C542.5,64.3,542.9,65.1,542.9,66z"/>
</g>
</svg>
