<?xml version="1.0" encoding="utf-8"?>
<!-- Generator: Adobe Illustrator 18.1.1, SVG Export Plug-In . SVG Version: 6.00 Build 0)  -->
<svg version="1.1" baseProfile="basic" id="items" xmlns="http://www.w3.org/2000/svg" xmlns:xlink="http://www.w3.org/1999/xlink"
	 x="0px" y="0px" viewBox="0 0 864 864" xml:space="preserve">
<g id="template">
	<g id="engrave_1_">
		<g id="lines">
			<g id="inner">
				<line fill="none" stroke="#BFBFBF" stroke-width="0.2835" stroke-miterlimit="10" x1="423" y1="423" x2="432" y2="288"/>
				<line fill="none" stroke="#BFBFBF" stroke-width="0.2835" stroke-miterlimit="10" x1="414" y1="414" x2="432" y2="306"/>
				<line fill="none" stroke="#BFBFBF" stroke-width="0.2835" stroke-miterlimit="10" x1="405" y1="405" x2="432" y2="324"/>
				<line fill="none" stroke="#BFBFBF" stroke-width="0.2835" stroke-miterlimit="10" x1="396" y1="396" x2="432" y2="342"/>
				<line fill="none" stroke="#BFBFBF" stroke-width="0.2835" stroke-miterlimit="10" x1="387" y1="387" x2="432" y2="360"/>
				<line fill="none" stroke="#BFBFBF" stroke-width="0.2835" stroke-miterlimit="10" x1="369" y1="369" x2="432" y2="396"/>
				<line fill="none" stroke="#BFBFBF" stroke-width="0.2835" stroke-miterlimit="10" x1="360" y1="360" x2="432" y2="414"/>
				<line fill="none" stroke="#BFBFBF" stroke-width="0.2835" stroke-miterlimit="10" x1="441" y1="423" x2="432" y2="288"/>
				<line fill="none" stroke="#BFBFBF" stroke-width="0.2835" stroke-miterlimit="10" x1="450" y1="414" x2="432" y2="306"/>
				<line fill="none" stroke="#BFBFBF" stroke-width="0.2835" stroke-miterlimit="10" x1="468" y1="396" x2="432" y2="342"/>
				<line fill="none" stroke="#BFBFBF" stroke-width="0.2835" stroke-miterlimit="10" x1="477" y1="387" x2="432" y2="360"/>
				<line fill="none" stroke="#BFBFBF" stroke-width="0.2835" stroke-miterlimit="10" x1="495" y1="369" x2="432" y2="396"/>
				<line fill="none" stroke="#BFBFBF" stroke-width="0.2835" stroke-miterlimit="10" x1="504" y1="360" x2="432" y2="414"/>
				<line fill="none" stroke="#BFBFBF" stroke-width="0.2835" stroke-miterlimit="10" x1="414" y1="432" x2="360" y2="360"/>
				<line fill="none" stroke="#BFBFBF" stroke-width="0.2835" stroke-miterlimit="10" x1="396" y1="432" x2="369" y2="369"/>
				<line fill="none" stroke="#BFBFBF" stroke-width="0.2835" stroke-miterlimit="10" x1="360" y1="432" x2="387" y2="387"/>
				<line fill="none" stroke="#BFBFBF" stroke-width="0.2835" stroke-miterlimit="10" x1="342" y1="432" x2="396" y2="396"/>
				<line fill="none" stroke="#BFBFBF" stroke-width="0.2835" stroke-miterlimit="10" x1="324" y1="432" x2="405" y2="405"/>
				<line fill="none" stroke="#BFBFBF" stroke-width="0.2835" stroke-miterlimit="10" x1="306" y1="432" x2="414" y2="414"/>
				<line fill="none" stroke="#BFBFBF" stroke-width="0.2835" stroke-miterlimit="10" x1="288" y1="432" x2="423" y2="423"/>
				<line fill="none" stroke="#BFBFBF" stroke-width="0.2835" stroke-miterlimit="10" x1="423" y1="441" x2="288" y2="432"/>
				<line fill="none" stroke="#BFBFBF" stroke-width="0.2835" stroke-miterlimit="10" x1="414" y1="450" x2="306" y2="432"/>
				<line fill="none" stroke="#BFBFBF" stroke-width="0.2835" stroke-miterlimit="10" x1="405" y1="459" x2="324" y2="432"/>
				<line fill="none" stroke="#BFBFBF" stroke-width="0.2835" stroke-miterlimit="10" x1="396" y1="468" x2="340.2" y2="432"/>
				<line fill="none" stroke="#BFBFBF" stroke-width="0.2835" stroke-miterlimit="10" x1="387" y1="477" x2="360" y2="432"/>
				<line fill="none" stroke="#BFBFBF" stroke-width="0.2835" stroke-miterlimit="10" x1="369" y1="495" x2="396" y2="432"/>
				<line fill="none" stroke="#BFBFBF" stroke-width="0.2835" stroke-miterlimit="10" x1="432" y1="450" x2="360" y2="504"/>
				<line fill="none" stroke="#BFBFBF" stroke-width="0.2835" stroke-miterlimit="10" x1="432" y1="468" x2="369" y2="495"/>
				<line fill="none" stroke="#BFBFBF" stroke-width="0.2835" stroke-miterlimit="10" x1="432" y1="504" x2="387" y2="477"/>
				<line fill="none" stroke="#BFBFBF" stroke-width="0.2835" stroke-miterlimit="10" x1="432" y1="522" x2="396" y2="468"/>
				<line fill="none" stroke="#BFBFBF" stroke-width="0.2835" stroke-miterlimit="10" x1="432" y1="540" x2="405" y2="459"/>
				<line fill="none" stroke="#BFBFBF" stroke-width="0.2835" stroke-miterlimit="10" x1="432" y1="558" x2="414" y2="450"/>
				<line fill="none" stroke="#BFBFBF" stroke-width="0.2835" stroke-miterlimit="10" x1="432" y1="576" x2="423" y2="441"/>
				<line fill="none" stroke="#BFBFBF" stroke-width="0.2835" stroke-miterlimit="10" x1="432" y1="576" x2="441" y2="441"/>
				<line fill="none" stroke="#BFBFBF" stroke-width="0.2835" stroke-miterlimit="10" x1="432" y1="558" x2="450" y2="450"/>
				<line fill="none" stroke="#BFBFBF" stroke-width="0.2835" stroke-miterlimit="10" x1="432" y1="540" x2="459" y2="459"/>
				<line fill="none" stroke="#BFBFBF" stroke-width="0.2835" stroke-miterlimit="10" x1="432" y1="522" x2="468" y2="468"/>
				<line fill="none" stroke="#BFBFBF" stroke-width="0.2835" stroke-miterlimit="10" x1="432" y1="504" x2="477" y2="477"/>
				<line fill="none" stroke="#BFBFBF" stroke-width="0.2835" stroke-miterlimit="10" x1="495" y1="495" x2="432" y2="468"/>
				<line fill="none" stroke="#BFBFBF" stroke-width="0.2835" stroke-miterlimit="10" x1="432" y1="450" x2="504" y2="504"/>
				<line fill="none" stroke="#BFBFBF" stroke-width="0.2835" stroke-miterlimit="10" x1="441" y1="441" x2="576" y2="432"/>
				<line fill="none" stroke="#BFBFBF" stroke-width="0.2835" stroke-miterlimit="10" x1="450" y1="450" x2="558" y2="432"/>
				<line fill="none" stroke="#BFBFBF" stroke-width="0.2835" stroke-miterlimit="10" x1="540" y1="432" x2="459" y2="459"/>
				<line fill="none" stroke="#BFBFBF" stroke-width="0.2835" stroke-miterlimit="10" x1="468" y1="468" x2="522" y2="432"/>
				<line fill="none" stroke="#BFBFBF" stroke-width="0.2835" stroke-miterlimit="10" x1="477" y1="477" x2="504" y2="432"/>
				<line fill="none" stroke="#BFBFBF" stroke-width="0.2835" stroke-miterlimit="10" x1="495" y1="495" x2="468" y2="432"/>
				<line fill="none" stroke="#BFBFBF" stroke-width="0.2835" stroke-miterlimit="10" x1="450" y1="432" x2="504" y2="504"/>
				<line fill="none" stroke="#BFBFBF" stroke-width="0.2835" stroke-miterlimit="10" x1="450" y1="432" x2="504" y2="360"/>
				<line fill="none" stroke="#BFBFBF" stroke-width="0.2835" stroke-miterlimit="10" x1="495" y1="369" x2="468" y2="432"/>
				<line fill="none" stroke="#BFBFBF" stroke-width="0.2835" stroke-miterlimit="10" x1="504" y1="432" x2="477" y2="387"/>
				<line fill="none" stroke="#BFBFBF" stroke-width="0.2835" stroke-miterlimit="10" x1="522" y1="432" x2="468" y2="396"/>
				<line fill="none" stroke="#BFBFBF" stroke-width="0.2835" stroke-miterlimit="10" x1="540" y1="432" x2="459" y2="405"/>
				<line fill="none" stroke="#BFBFBF" stroke-width="0.2835" stroke-miterlimit="10" x1="558" y1="432" x2="450" y2="414"/>
				<line fill="none" stroke="#BFBFBF" stroke-width="0.2835" stroke-miterlimit="10" x1="576" y1="432" x2="441" y2="423"/>
				<line fill="none" stroke="#BFBFBF" stroke-width="0.2835" stroke-miterlimit="10" x1="378" y1="378.5" x2="486" y2="378.5"/>
				<line fill="none" stroke="#BFBFBF" stroke-width="0.2835" stroke-miterlimit="10" x1="485.5" y1="379" x2="485.5" y2="486"/>
				<line fill="none" stroke="#BFBFBF" stroke-width="0.2835" stroke-miterlimit="10" x1="378" y1="486.5" x2="485" y2="486.5"/>
				<line fill="none" stroke="#BFBFBF" stroke-width="0.2835" stroke-miterlimit="10" x1="377.5" y1="379" x2="377.5" y2="487"/>
				<line fill="none" stroke="#BFBFBF" stroke-width="0.2835" stroke-miterlimit="10" x1="360" y1="504" x2="414" y2="432"/>
				<line fill="none" stroke="#BFBFBF" stroke-width="0.2835" stroke-miterlimit="10" x1="459" y1="405" x2="432" y2="324"/>
			</g>
			<g id="outer_1_">
				
					<line fill="none" stroke="#BFBFBF" stroke-width="0.2835" stroke-miterlimit="10" x1="145.6" y1="401.9" x2="462.1" y2="145.6"/>
				
					<line fill="none" stroke="#BFBFBF" stroke-width="0.2835" stroke-miterlimit="10" x1="150.3" y1="372.1" x2="491.9" y2="150.3"/>
				<line fill="none" stroke="#BFBFBF" stroke-width="0.2835" stroke-miterlimit="10" x1="158.1" y1="343" x2="521" y2="158.1"/>
				
					<line fill="none" stroke="#BFBFBF" stroke-width="0.2835" stroke-miterlimit="10" x1="168.9" y1="314.9" x2="549.1" y2="168.9"/>
				<line fill="none" stroke="#BFBFBF" stroke-width="0.2835" stroke-miterlimit="10" x1="144" y1="432" x2="432" y2="144"/>
				<line fill="none" stroke="#BFBFBF" stroke-width="0.2835" stroke-miterlimit="10" x1="182.6" y1="288" x2="576" y2="182.6"/>
				<line fill="none" stroke="#BFBFBF" stroke-width="0.2835" stroke-miterlimit="10" x1="199" y1="262.7" x2="601.3" y2="199"/>
				<line fill="none" stroke="#BFBFBF" stroke-width="0.2835" stroke-miterlimit="10" x1="218" y1="239.3" x2="624.7" y2="218"/>
				<line fill="none" stroke="#BFBFBF" stroke-width="0.2835" stroke-miterlimit="10" x1="262.7" y1="199" x2="665" y2="262.7"/>
				<line fill="none" stroke="#BFBFBF" stroke-width="0.2835" stroke-miterlimit="10" x1="288" y1="182.6" x2="681.4" y2="288"/>
				
					<line fill="none" stroke="#BFBFBF" stroke-width="0.2835" stroke-miterlimit="10" x1="314.9" y1="168.9" x2="695.1" y2="314.9"/>
				<line fill="none" stroke="#BFBFBF" stroke-width="0.2835" stroke-miterlimit="10" x1="343" y1="158.1" x2="705.9" y2="343"/>
				
					<line fill="none" stroke="#BFBFBF" stroke-width="0.2835" stroke-miterlimit="10" x1="372.1" y1="150.3" x2="713.7" y2="372.1"/>
				
					<line fill="none" stroke="#BFBFBF" stroke-width="0.2835" stroke-miterlimit="10" x1="401.9" y1="145.6" x2="718.4" y2="401.9"/>
				<line fill="none" stroke="#BFBFBF" stroke-width="0.2835" stroke-miterlimit="10" x1="432" y1="144" x2="720" y2="432"/>
				
					<line fill="none" stroke="#BFBFBF" stroke-width="0.2835" stroke-miterlimit="10" x1="462.1" y1="145.6" x2="718.4" y2="462.1"/>
				
					<line fill="none" stroke="#BFBFBF" stroke-width="0.2835" stroke-miterlimit="10" x1="491.9" y1="150.3" x2="713.7" y2="491.9"/>
				<line fill="none" stroke="#BFBFBF" stroke-width="0.2835" stroke-miterlimit="10" x1="521" y1="158.1" x2="705.9" y2="521"/>
				
					<line fill="none" stroke="#BFBFBF" stroke-width="0.2835" stroke-miterlimit="10" x1="549.1" y1="168.9" x2="695.1" y2="549.1"/>
				<line fill="none" stroke="#BFBFBF" stroke-width="0.2835" stroke-miterlimit="10" x1="576" y1="182.6" x2="681.4" y2="576"/>
				<line fill="none" stroke="#BFBFBF" stroke-width="0.2835" stroke-miterlimit="10" x1="601.3" y1="199" x2="665" y2="601.3"/>
				<line fill="none" stroke="#BFBFBF" stroke-width="0.2835" stroke-miterlimit="10" x1="624.7" y1="218" x2="646" y2="624.7"/>
				<line fill="none" stroke="#BFBFBF" stroke-width="0.2835" stroke-miterlimit="10" x1="646" y1="239.3" x2="624.7" y2="646"/>
				<line fill="none" stroke="#BFBFBF" stroke-width="0.2835" stroke-miterlimit="10" x1="665" y1="262.7" x2="601.3" y2="665"/>
				<line fill="none" stroke="#BFBFBF" stroke-width="0.2835" stroke-miterlimit="10" x1="681.4" y1="288" x2="576" y2="681.4"/>
				
					<line fill="none" stroke="#BFBFBF" stroke-width="0.2835" stroke-miterlimit="10" x1="695.1" y1="314.9" x2="549.1" y2="695.1"/>
				<line fill="none" stroke="#BFBFBF" stroke-width="0.2835" stroke-miterlimit="10" x1="705.9" y1="343" x2="521" y2="705.9"/>
				
					<line fill="none" stroke="#BFBFBF" stroke-width="0.2835" stroke-miterlimit="10" x1="713.7" y1="372.1" x2="491.9" y2="713.7"/>
				
					<line fill="none" stroke="#BFBFBF" stroke-width="0.2835" stroke-miterlimit="10" x1="718.4" y1="401.9" x2="462.1" y2="718.4"/>
				<line fill="none" stroke="#BFBFBF" stroke-width="0.2835" stroke-miterlimit="10" x1="720" y1="432" x2="432" y2="720"/>
				
					<line fill="none" stroke="#BFBFBF" stroke-width="0.2835" stroke-miterlimit="10" x1="718.4" y1="462.1" x2="401.9" y2="718.4"/>
				<line fill="none" stroke="#BFBFBF" stroke-width="0.2835" stroke-miterlimit="10" x1="713.7" y1="491" x2="372.1" y2="713.7"/>
				<line fill="none" stroke="#BFBFBF" stroke-width="0.2835" stroke-miterlimit="10" x1="705.9" y1="521" x2="343" y2="705.9"/>
				
					<line fill="none" stroke="#BFBFBF" stroke-width="0.2835" stroke-miterlimit="10" x1="695.1" y1="549.1" x2="314.9" y2="695.1"/>
				<line fill="none" stroke="#BFBFBF" stroke-width="0.2835" stroke-miterlimit="10" x1="681.4" y1="576" x2="288" y2="681.4"/>
				<line fill="none" stroke="#BFBFBF" stroke-width="0.2835" stroke-miterlimit="10" x1="665" y1="601.3" x2="262.7" y2="665"/>
				<line fill="none" stroke="#BFBFBF" stroke-width="0.2835" stroke-miterlimit="10" x1="646" y1="624.7" x2="239.3" y2="646"/>
				<line fill="none" stroke="#BFBFBF" stroke-width="0.2835" stroke-miterlimit="10" x1="624.7" y1="646" x2="218" y2="624.7"/>
				<line fill="none" stroke="#BFBFBF" stroke-width="0.2835" stroke-miterlimit="10" x1="601.3" y1="665" x2="199" y2="601.3"/>
				<line fill="none" stroke="#BFBFBF" stroke-width="0.2835" stroke-miterlimit="10" x1="576" y1="681.4" x2="182.6" y2="576"/>
				
					<line fill="none" stroke="#BFBFBF" stroke-width="0.2835" stroke-miterlimit="10" x1="549.1" y1="695.1" x2="168.9" y2="549.1"/>
				<line fill="none" stroke="#BFBFBF" stroke-width="0.2835" stroke-miterlimit="10" x1="521" y1="705.9" x2="158.1" y2="521"/>
				
					<line fill="none" stroke="#BFBFBF" stroke-width="0.2835" stroke-miterlimit="10" x1="491.9" y1="713.7" x2="150.3" y2="491.9"/>
				
					<line fill="none" stroke="#BFBFBF" stroke-width="0.2835" stroke-miterlimit="10" x1="462.1" y1="718.4" x2="145.6" y2="462.1"/>
				<line fill="none" stroke="#BFBFBF" stroke-width="0.2835" stroke-miterlimit="10" x1="432" y1="720" x2="145.8" y2="432"/>
				
					<line fill="none" stroke="#BFBFBF" stroke-width="0.2835" stroke-miterlimit="10" x1="401.9" y1="718.4" x2="145.6" y2="401.9"/>
				
					<line fill="none" stroke="#BFBFBF" stroke-width="0.2835" stroke-miterlimit="10" x1="372.1" y1="713.7" x2="150.3" y2="372.1"/>
				<line fill="none" stroke="#BFBFBF" stroke-width="0.2835" stroke-miterlimit="10" x1="343" y1="705.9" x2="158.1" y2="343"/>
				
					<line fill="none" stroke="#BFBFBF" stroke-width="0.2835" stroke-miterlimit="10" x1="314.9" y1="695.1" x2="168.9" y2="314.9"/>
				<line fill="none" stroke="#BFBFBF" stroke-width="0.2835" stroke-miterlimit="10" x1="288" y1="681.4" x2="182.6" y2="288"/>
				<line fill="none" stroke="#BFBFBF" stroke-width="0.2835" stroke-miterlimit="10" x1="262.7" y1="665" x2="199" y2="262.7"/>
				<line fill="none" stroke="#BFBFBF" stroke-width="0.2835" stroke-miterlimit="10" x1="239.3" y1="646" x2="218" y2="239.3"/>
				<line fill="none" stroke="#BFBFBF" stroke-width="0.2835" stroke-miterlimit="10" x1="218" y1="624.7" x2="239.3" y2="218"/>
				<line fill="none" stroke="#BFBFBF" stroke-width="0.2835" stroke-miterlimit="10" x1="199" y1="601.3" x2="262.7" y2="199"/>
				<line fill="none" stroke="#BFBFBF" stroke-width="0.2835" stroke-miterlimit="10" x1="183.3" y1="576.2" x2="288" y2="182.6"/>
				
					<line fill="none" stroke="#BFBFBF" stroke-width="0.2835" stroke-miterlimit="10" x1="168.9" y1="549.1" x2="314.9" y2="168.9"/>
				<line fill="none" stroke="#BFBFBF" stroke-width="0.2835" stroke-miterlimit="10" x1="158.1" y1="521" x2="343" y2="158.1"/>
				
					<line fill="none" stroke="#BFBFBF" stroke-width="0.2835" stroke-miterlimit="10" x1="150.3" y1="491.9" x2="372.1" y2="150.3"/>
				
					<line fill="none" stroke="#BFBFBF" stroke-width="0.2835" stroke-miterlimit="10" x1="145.6" y1="462.1" x2="401.9" y2="145.6"/>
				<line fill="none" stroke="#BFBFBF" stroke-width="0.2835" stroke-miterlimit="10" x1="239.3" y1="218" x2="646" y2="239.3"/>
			</g>
		</g>
	</g>
	<g id="cut_2_">
		<circle id="outline" fill="none" stroke="#000000" stroke-width="0.2835" stroke-miterlimit="10" cx="432" cy="432" r="360"/>
		<g id="holes">
			<g id="inner_1_">
				<circle fill="none" stroke="#000000" stroke-width="0.2835" stroke-miterlimit="10" cx="360" cy="432" r="1.8"/>
				<circle fill="none" stroke="#000000" stroke-width="0.2835" stroke-miterlimit="10" cx="342" cy="432" r="1.8"/>
				<circle fill="none" stroke="#000000" stroke-width="0.2835" stroke-miterlimit="10" cx="306" cy="432" r="1.8"/>
				<circle fill="none" stroke="#000000" stroke-width="0.2835" stroke-miterlimit="10" cx="324" cy="432" r="1.8"/>
				<circle fill="none" stroke="#000000" stroke-width="0.2835" stroke-miterlimit="10" cx="288" cy="432" r="1.8"/>
				<circle fill="none" stroke="#000000" stroke-width="0.2835" stroke-miterlimit="10" cx="576" cy="432" r="1.8"/>
				<circle fill="none" stroke="#000000" stroke-width="0.2835" stroke-miterlimit="10" cx="558" cy="432" r="1.8"/>
				<circle fill="none" stroke="#000000" stroke-width="0.2835" stroke-miterlimit="10" cx="540" cy="432" r="1.8"/>
				<g>
					<circle fill="none" stroke="#000000" stroke-width="0.2835" stroke-miterlimit="10" cx="432" cy="576" r="1.8"/>
					<circle fill="none" stroke="#000000" stroke-width="0.2835" stroke-miterlimit="10" cx="432" cy="558" r="1.8"/>
					<circle fill="none" stroke="#000000" stroke-width="0.2835" stroke-miterlimit="10" cx="432" cy="540" r="1.8"/>
					<circle fill="none" stroke="#000000" stroke-width="0.2835" stroke-miterlimit="10" cx="432" cy="522" r="1.8"/>
					<circle fill="none" stroke="#000000" stroke-width="0.2835" stroke-miterlimit="10" cx="432" cy="504" r="1.8"/>
					<circle fill="none" stroke="#000000" stroke-width="0.2835" stroke-miterlimit="10" cx="504" cy="504" r="1.8"/>
					<circle fill="none" stroke="#000000" stroke-width="0.2835" stroke-miterlimit="10" cx="495" cy="495" r="1.8"/>
					<circle fill="none" stroke="#000000" stroke-width="0.2835" stroke-miterlimit="10" cx="486" cy="486" r="1.8"/>
					<circle fill="none" stroke="#000000" stroke-width="0.2835" stroke-miterlimit="10" cx="477" cy="477" r="1.8"/>
					<circle fill="none" stroke="#000000" stroke-width="0.2835" stroke-miterlimit="10" cx="468" cy="468" r="1.8"/>
					<g>
						<circle fill="none" stroke="#000000" stroke-width="0.2835" stroke-miterlimit="10" cx="432" cy="468" r="1.8"/>
						<circle fill="none" stroke="#000000" stroke-width="0.2835" stroke-miterlimit="10" cx="432" cy="486" r="1.8"/>
						<circle fill="none" stroke="#000000" stroke-width="0.2835" stroke-miterlimit="10" cx="432" cy="450" r="1.8"/>
						<circle fill="none" stroke="#000000" stroke-width="0.2835" stroke-miterlimit="10" cx="414" cy="432" r="1.8"/>
						<circle fill="none" stroke="#000000" stroke-width="0.2835" stroke-miterlimit="10" cx="396" cy="432" r="1.8"/>
						<circle fill="none" stroke="#000000" stroke-width="0.2835" stroke-miterlimit="10" cx="378" cy="432" r="1.8"/>
						<circle fill="none" stroke="#000000" stroke-width="0.2835" stroke-miterlimit="10" cx="522" cy="432" r="1.8"/>
						<circle fill="none" stroke="#000000" stroke-width="0.2835" stroke-miterlimit="10" cx="504" cy="432" r="1.8"/>
						<circle fill="none" stroke="#000000" stroke-width="0.2835" stroke-miterlimit="10" cx="468" cy="432" r="1.8"/>
						<circle fill="none" stroke="#000000" stroke-width="0.2835" stroke-miterlimit="10" cx="486" cy="432" r="1.8"/>
						<circle fill="none" stroke="#000000" stroke-width="0.2835" stroke-miterlimit="10" cx="450" cy="432" r="1.8"/>
						<circle fill="none" stroke="#000000" stroke-width="0.2835" stroke-miterlimit="10" cx="459" cy="459" r="1.8"/>
						<circle fill="none" stroke="#000000" stroke-width="0.2835" stroke-miterlimit="10" cx="450" cy="450" r="1.8"/>
						<circle fill="none" stroke="#000000" stroke-width="0.2835" stroke-miterlimit="10" cx="441" cy="441" r="1.8"/>
						<g>
							<circle fill="none" stroke="#000000" stroke-width="0.2835" stroke-miterlimit="10" cx="432" cy="414" r="1.8"/>
							<circle fill="none" stroke="#000000" stroke-width="0.2835" stroke-miterlimit="10" cx="432" cy="396" r="1.8"/>
							<circle fill="none" stroke="#000000" stroke-width="0.2835" stroke-miterlimit="10" cx="423" cy="423" r="1.8"/>
							<circle fill="none" stroke="#000000" stroke-width="0.2835" stroke-miterlimit="10" cx="414" cy="414" r="1.8"/>
							<circle fill="none" stroke="#000000" stroke-width="0.2835" stroke-miterlimit="10" cx="405" cy="405" r="1.8"/>
							<circle fill="none" stroke="#000000" stroke-width="0.2835" stroke-miterlimit="10" cx="396" cy="396" r="1.8"/>
							<circle fill="none" stroke="#000000" stroke-width="0.2835" stroke-miterlimit="10" cx="387" cy="387" r="1.8"/>
							<circle fill="none" stroke="#000000" stroke-width="0.2835" stroke-miterlimit="10" cx="378" cy="378" r="1.8"/>
							<circle fill="none" stroke="#000000" stroke-width="0.2835" stroke-miterlimit="10" cx="441" cy="423" r="1.8"/>
							<circle fill="none" stroke="#000000" stroke-width="0.2835" stroke-miterlimit="10" cx="450" cy="414" r="1.8"/>
							<circle fill="none" stroke="#000000" stroke-width="0.2835" stroke-miterlimit="10" cx="459" cy="405" r="1.8"/>
							<circle fill="none" stroke="#000000" stroke-width="0.2835" stroke-miterlimit="10" cx="468" cy="396" r="1.8"/>
							<g>
								<circle fill="none" stroke="#000000" stroke-width="0.2835" stroke-miterlimit="10" cx="369" cy="369" r="1.8"/>
								<circle fill="none" stroke="#000000" stroke-width="0.2835" stroke-miterlimit="10" cx="360" cy="360" r="1.8"/>
								<g>
									<circle fill="none" stroke="#000000" stroke-width="0.2835" stroke-miterlimit="10" cx="432" cy="378" r="1.8"/>
									<circle fill="none" stroke="#000000" stroke-width="0.2835" stroke-miterlimit="10" cx="432" cy="360" r="1.8"/>
									<circle fill="none" stroke="#000000" stroke-width="0.2835" stroke-miterlimit="10" cx="432" cy="342" r="1.8"/>
									<circle fill="none" stroke="#000000" stroke-width="0.2835" stroke-miterlimit="10" cx="432" cy="306" r="1.8"/>
									<circle fill="none" stroke="#000000" stroke-width="0.2835" stroke-miterlimit="10" cx="432" cy="324" r="1.8"/>
									<circle fill="none" stroke="#000000" stroke-width="0.2835" stroke-miterlimit="10" cx="432" cy="288" r="1.8"/>
									<circle fill="none" stroke="#000000" stroke-width="0.2835" stroke-miterlimit="10" cx="477" cy="387" r="1.8"/>
									<circle fill="none" stroke="#000000" stroke-width="0.2835" stroke-miterlimit="10" cx="486" cy="378" r="1.8"/>
									<circle fill="none" stroke="#000000" stroke-width="0.2835" stroke-miterlimit="10" cx="495" cy="369" r="1.8"/>
									<circle fill="none" stroke="#000000" stroke-width="0.2835" stroke-miterlimit="10" cx="504" cy="360" r="1.8"/>
								</g>
							</g>
						</g>
						<circle fill="none" stroke="#000000" stroke-width="0.2835" stroke-miterlimit="10" cx="423" cy="441" r="1.8"/>
						<circle fill="none" stroke="#000000" stroke-width="0.2835" stroke-miterlimit="10" cx="414" cy="450" r="1.8"/>
						<circle fill="none" stroke="#000000" stroke-width="0.2835" stroke-miterlimit="10" cx="405" cy="459" r="1.8"/>
						<circle fill="none" stroke="#000000" stroke-width="0.2835" stroke-miterlimit="10" cx="396" cy="468" r="1.8"/>
						<circle fill="none" stroke="#000000" stroke-width="0.2835" stroke-miterlimit="10" cx="387" cy="477" r="1.8"/>
					</g>
					<circle fill="none" stroke="#000000" stroke-width="0.2835" stroke-miterlimit="10" cx="378" cy="486" r="1.8"/>
					<circle fill="none" stroke="#000000" stroke-width="0.2835" stroke-miterlimit="10" cx="369" cy="495" r="1.8"/>
					<circle fill="none" stroke="#000000" stroke-width="0.2835" stroke-miterlimit="10" cx="360" cy="504" r="1.8"/>
				</g>
				<circle fill="none" stroke="#000000" stroke-width="0.2835" stroke-miterlimit="10" cx="432" cy="432" r="3.6"/>
			</g>
			<g id="outer">
				<circle fill="none" stroke="#000000" stroke-width="0.2835" stroke-miterlimit="10" cx="432" cy="144" r="1.8"/>
				<circle fill="none" stroke="#000000" stroke-width="0.2835" stroke-miterlimit="10" cx="401.9" cy="145.6" r="1.8"/>
				<circle fill="none" stroke="#000000" stroke-width="0.2835" stroke-miterlimit="10" cx="372.1" cy="150.3" r="1.8"/>
				<circle fill="none" stroke="#000000" stroke-width="0.2835" stroke-miterlimit="10" cx="343" cy="158.1" r="1.8"/>
				<circle fill="none" stroke="#000000" stroke-width="0.2835" stroke-miterlimit="10" cx="314.9" cy="168.9" r="1.8"/>
				<circle fill="none" stroke="#000000" stroke-width="0.2835" stroke-miterlimit="10" cx="288" cy="182.6" r="1.8"/>
				<circle fill="none" stroke="#000000" stroke-width="0.2835" stroke-miterlimit="10" cx="262.7" cy="199" r="1.8"/>
				<circle fill="none" stroke="#000000" stroke-width="0.2835" stroke-miterlimit="10" cx="239.3" cy="218" r="1.8"/>
				<circle fill="none" stroke="#000000" stroke-width="0.2835" stroke-miterlimit="10" cx="218" cy="239.3" r="1.8"/>
				<circle fill="none" stroke="#000000" stroke-width="0.2835" stroke-miterlimit="10" cx="199" cy="262.7" r="1.8"/>
				<circle fill="none" stroke="#000000" stroke-width="0.2835" stroke-miterlimit="10" cx="182.6" cy="288" r="1.8"/>
				<circle fill="none" stroke="#000000" stroke-width="0.2835" stroke-miterlimit="10" cx="168.9" cy="314.9" r="1.8"/>
				<circle fill="none" stroke="#000000" stroke-width="0.2835" stroke-miterlimit="10" cx="158.1" cy="343" r="1.8"/>
				<circle fill="none" stroke="#000000" stroke-width="0.2835" stroke-miterlimit="10" cx="150.3" cy="372.1" r="1.8"/>
				<circle fill="none" stroke="#000000" stroke-width="0.2835" stroke-miterlimit="10" cx="145.6" cy="401.9" r="1.8"/>
				<circle fill="none" stroke="#000000" stroke-width="0.2835" stroke-miterlimit="10" cx="144" cy="432" r="1.8"/>
				<circle fill="none" stroke="#000000" stroke-width="0.2835" stroke-miterlimit="10" cx="145.6" cy="462.1" r="1.8"/>
				<circle fill="none" stroke="#000000" stroke-width="0.2835" stroke-miterlimit="10" cx="150.3" cy="491.9" r="1.8"/>
				<circle fill="none" stroke="#000000" stroke-width="0.2835" stroke-miterlimit="10" cx="158.1" cy="521" r="1.8"/>
				<circle fill="none" stroke="#000000" stroke-width="0.2835" stroke-miterlimit="10" cx="168.9" cy="549.1" r="1.8"/>
				<circle fill="none" stroke="#000000" stroke-width="0.2835" stroke-miterlimit="10" cx="491.9" cy="150.3" r="1.8"/>
				<circle fill="none" stroke="#000000" stroke-width="0.2835" stroke-miterlimit="10" cx="462.1" cy="145.6" r="1.8"/>
				<circle fill="none" stroke="#000000" stroke-width="0.2835" stroke-miterlimit="10" cx="521" cy="158.1" r="1.8"/>
				<circle fill="none" stroke="#000000" stroke-width="0.2835" stroke-miterlimit="10" cx="549.1" cy="168.9" r="1.8"/>
				<circle fill="none" stroke="#000000" stroke-width="0.2835" stroke-miterlimit="10" cx="576" cy="182.6" r="1.8"/>
				<circle fill="none" stroke="#000000" stroke-width="0.2835" stroke-miterlimit="10" cx="601.3" cy="199" r="1.8"/>
				<circle fill="none" stroke="#000000" stroke-width="0.2835" stroke-miterlimit="10" cx="624.7" cy="218" r="1.8"/>
				<circle fill="none" stroke="#000000" stroke-width="0.2835" stroke-miterlimit="10" cx="646" cy="239.3" r="1.8"/>
				<circle fill="none" stroke="#000000" stroke-width="0.2835" stroke-miterlimit="10" cx="665" cy="262.7" r="1.8"/>
				<circle fill="none" stroke="#000000" stroke-width="0.2835" stroke-miterlimit="10" cx="713.7" cy="491.9" r="1.8"/>
				<circle fill="none" stroke="#000000" stroke-width="0.2835" stroke-miterlimit="10" cx="718.4" cy="462.1" r="1.8"/>
				<circle fill="none" stroke="#000000" stroke-width="0.2835" stroke-miterlimit="10" cx="720" cy="432" r="1.8"/>
				<circle fill="none" stroke="#000000" stroke-width="0.2835" stroke-miterlimit="10" cx="718.4" cy="401.9" r="1.8"/>
				<circle fill="none" stroke="#000000" stroke-width="0.2835" stroke-miterlimit="10" cx="713.7" cy="372.1" r="1.8"/>
				<circle fill="none" stroke="#000000" stroke-width="0.2835" stroke-miterlimit="10" cx="705.9" cy="343" r="1.8"/>
				<circle fill="none" stroke="#000000" stroke-width="0.2835" stroke-miterlimit="10" cx="695.1" cy="314.9" r="1.8"/>
				<circle fill="none" stroke="#000000" stroke-width="0.2835" stroke-miterlimit="10" cx="681.4" cy="288" r="1.8"/>
				<circle fill="none" stroke="#000000" stroke-width="0.2835" stroke-miterlimit="10" cx="521" cy="705.9" r="1.8"/>
				<circle fill="none" stroke="#000000" stroke-width="0.2835" stroke-miterlimit="10" cx="549.1" cy="695.1" r="1.8"/>
				<circle fill="none" stroke="#000000" stroke-width="0.2835" stroke-miterlimit="10" cx="576" cy="681.4" r="1.8"/>
				<circle fill="none" stroke="#000000" stroke-width="0.2835" stroke-miterlimit="10" cx="601.3" cy="665" r="1.8"/>
				<circle fill="none" stroke="#000000" stroke-width="0.2835" stroke-miterlimit="10" cx="624.7" cy="646" r="1.8"/>
				<circle fill="none" stroke="#000000" stroke-width="0.2835" stroke-miterlimit="10" cx="646" cy="624.7" r="1.8"/>
				<circle fill="none" stroke="#000000" stroke-width="0.2835" stroke-miterlimit="10" cx="665" cy="601.3" r="1.8"/>
				<circle fill="none" stroke="#000000" stroke-width="0.2835" stroke-miterlimit="10" cx="681.4" cy="576" r="1.8"/>
				<circle fill="none" stroke="#000000" stroke-width="0.2835" stroke-miterlimit="10" cx="695.1" cy="549.1" r="1.8"/>
				<circle fill="none" stroke="#000000" stroke-width="0.2835" stroke-miterlimit="10" cx="705.9" cy="521" r="1.8"/>
				<circle fill="none" stroke="#000000" stroke-width="0.2835" stroke-miterlimit="10" cx="182.6" cy="576" r="1.8"/>
				<circle fill="none" stroke="#000000" stroke-width="0.2835" stroke-miterlimit="10" cx="199" cy="601.3" r="1.8"/>
				<circle fill="none" stroke="#000000" stroke-width="0.2835" stroke-miterlimit="10" cx="218" cy="624.7" r="1.8"/>
				<circle fill="none" stroke="#000000" stroke-width="0.2835" stroke-miterlimit="10" cx="239.3" cy="646" r="1.8"/>
				<circle fill="none" stroke="#000000" stroke-width="0.2835" stroke-miterlimit="10" cx="262.7" cy="665" r="1.8"/>
				<circle fill="none" stroke="#000000" stroke-width="0.2835" stroke-miterlimit="10" cx="288" cy="681.4" r="1.8"/>
				<circle fill="none" stroke="#000000" stroke-width="0.2835" stroke-miterlimit="10" cx="314.9" cy="695.1" r="1.8"/>
				<circle fill="none" stroke="#000000" stroke-width="0.2835" stroke-miterlimit="10" cx="343" cy="705.9" r="1.8"/>
				<circle fill="none" stroke="#000000" stroke-width="0.2835" stroke-miterlimit="10" cx="372.1" cy="713.7" r="1.8"/>
				<circle fill="none" stroke="#000000" stroke-width="0.2835" stroke-miterlimit="10" cx="401.9" cy="718.4" r="1.8"/>
				<circle fill="none" stroke="#000000" stroke-width="0.2835" stroke-miterlimit="10" cx="432" cy="720" r="1.8"/>
				<circle fill="none" stroke="#000000" stroke-width="0.2835" stroke-miterlimit="10" cx="462.1" cy="718.4" r="1.8"/>
				<circle fill="none" stroke="#000000" stroke-width="0.2835" stroke-miterlimit="10" cx="491.9" cy="713.7" r="1.8"/>
			</g>
		</g>
	</g>
</g>
<g id="harry_x5F_potter">
	<path id="engrave" fill="none" stroke="#BFBFBF" stroke-width="0.2835" stroke-miterlimit="10" d="M27.8,842.9l209.7-68.8
		l-77.5-68.3c-2.7-2.9-5.7-5.5-8.9-7.8l-77-67.8l-22.4,103c-0.5,2-1,4-1.3,6L27.8,842.9z M53.7,771.4c7.3,19.3,23.6,33.4,43.3,38.3
		L41.3,828L53.7,771.4z M60.8,738.7l0.7-3c1-3.6,2.3-7.1,4.1-10.4c5.8-11.1,15-19.7,26.4-24.6l32.7,99.7c-4,0.9-8,1.4-12.1,1.4
		c-23.1,0-43.4-14.5-50.5-36.2c-2.6-8-3.2-16.3-1.9-24.4L60.8,738.7z M88.9,691.1c-7.8,3.3-14.8,8-20.7,13.8l10.1-46.3L88.9,691.1z
		 M153,713c5,5.4,8.9,11.9,11.3,19.2c4.4,13.4,3.1,27.7-3.4,40.3c-5.8,11.2-15.2,19.8-26.7,24.7l-32.7-99.8c4-0.9,8.2-1.4,12.3-1.4
		c11.5,0,22.3,3.6,31.1,9.9L153,713z M162.4,788.3c2.8-3.4,5.3-7.2,7.4-11.2c7.3-14.1,9-29.9,4.9-45l43.1,38L162.4,788.3z
		 M113.8,686c-5.2,0-10.4,0.6-15.4,1.9l-10.6-32.4l35.4,31.2C120.1,686.3,117,686,113.8,686z"/>
	<polygon id="cut" fill="none" stroke="#000000" stroke-width="0.2835" stroke-miterlimit="10" points="133.1,810.4 25.3,845.7 
		48.9,735.5 72.4,625.1 156.7,700.1 241,775 	"/>
</g>
<g id="spacing_x5F_tool">
	<g id="cut_1_">
		<path fill="none" stroke="#000000" stroke-width="0.2835" stroke-miterlimit="10" d="M30,43.6c-1.5,1.3-1.1,2.4,0.9,2.4h152.5
			c2,0,3.6-1.6,3.6-3.6V32.1c0-2-1.6-3.6-3.6-3.6L30.9,28.3c-2,0-2.4,1.1-0.9,2.3l2.4,2.1c1.5,1.3,4.3,2.3,6.3,2.3h136.6
			c2,0,3.6,0.9,3.6,2s-1.6,2-3.6,2H38.8c-2,0-4.8,1.1-6.3,2.4L30,43.6z"/>
		<path fill="none" stroke="#000000" stroke-width="0.2835" stroke-miterlimit="10" d="M29.7,76.3c-1.3,1.5-0.8,2.7,1.2,2.7h152.5
			c2,0,3.6-1.6,3.6-3.6V60.4c0-2-1.6-3.6-3.6-3.6L30.9,56.5c-2,0-2.5,1.2-1.2,2.6l3,3.2c1.3,1.5,4.1,2.7,6,2.7h136.6
			c2,0,3.6,1.1,3.6,2.5s-1.6,2.5-3.6,2.5H38.8c-2,0-4.7,1.2-6,2.7L29.7,76.3z"/>
		<path fill="none" stroke="#000000" stroke-width="0.2835" stroke-miterlimit="10" d="M29.3,117.3c-1.1,1.7-0.4,3,1.6,3h152.5
			c2,0,3.6-1.6,3.6-3.6V94c0-2-1.6-3.6-3.6-3.6L30.9,90c-2,0-2.7,1.3-1.6,3l3.8,5.6c1.1,1.6,3.6,3,5.6,3h136.6c2,0,3.6,1.5,3.6,3.4
			c0,1.9-1.6,3.4-3.6,3.4H38.8c-2,0-4.5,1.4-5.6,3L29.3,117.3z"/>
	</g>
</g>
</svg>
