<?xml version="1.0" encoding="utf-8"?>
<!-- Generator: Adobe Illustrator 20.0.0, SVG Export Plug-In . SVG Version: 6.00 Build 0)  -->
<svg version="1.1" baseProfile="basic" id="Layer_1"
	 xmlns="http://www.w3.org/2000/svg" xmlns:xlink="http://www.w3.org/1999/xlink" x="0px" y="0px" viewBox="0 0 1224 792"
	 xml:space="preserve">
<g>
	<path fill="#FFFFFF" d="M396.3,524c0-85.1,0-170.3,0-255.4c144,0,288,0,432,0c0,85.1,0,170.3,0,255.4
		C684.3,524,540.3,524,396.3,524z M610.8,517.3c9.5-0.4,17.6-0.7,25.8-1.1c10.7-0.6,21.4-1.9,32-3.5c12.3-1.9,24.4-4.5,36.3-7.9
		c11.1-3.1,22-6.9,32.6-11.5c14.1-6.1,27.6-13.3,39.9-22.5c11.8-8.7,22.2-18.8,30.4-31.1c6.7-10.1,11.3-21.2,13.1-33.2
		c1.3-8.7,1-17.5-0.9-26.2c-2.4-10.8-6.9-20.7-13.1-29.8c-11-16-25.7-28.1-42.1-38.2c-10.1-6.2-20.7-11.3-31.7-15.8
		c-11.4-4.6-23.1-8.4-35-11.5c-11.1-2.8-22.2-5-33.5-6.7c-12.6-1.8-25.2-3-37.8-3.5c-19.2-0.7-38.4-0.1-57.5,2.3
		c-7.4,1-14.8,1.9-22.1,3.4c-9.9,2.1-19.8,4.5-29.6,7.1c-10.8,2.9-21.3,6.8-31.6,11.2c-11.1,4.8-21.7,10.4-31.7,17.1
		c-12.5,8.3-23.8,18-33,30c-9.8,12.8-16.3,26.9-17.8,43.1c-1.1,11.8,0.6,23.2,4.9,34.2c4.8,12.2,12.2,22.7,21.2,32
		c13,13.4,28.4,23.7,45,32c10.4,5.2,21.2,9.6,32.2,13.3c12.1,4.1,24.4,7.2,36.9,9.7c11.8,2.4,23.6,4.2,35.6,5.1
		C590.2,516.4,601.2,516.8,610.8,517.3z"/>
	<path d="M610.8,517.3c-9.6-0.5-20.6-0.9-31.5-1.8c-12-0.9-23.8-2.7-35.6-5.1c-12.5-2.5-24.8-5.7-36.9-9.7
		c-11-3.7-21.8-8.1-32.2-13.3c-16.6-8.4-32-18.6-45-32c-9.1-9.3-16.4-19.8-21.2-32c-4.3-11-6-22.4-4.9-34.2
		c1.5-16.2,8-30.4,17.8-43.1c9.2-12,20.5-21.6,33-30c10-6.7,20.7-12.3,31.7-17.1c10.3-4.5,20.7-8.4,31.6-11.2
		c9.8-2.6,19.7-5,29.6-7.1c7.3-1.5,14.7-2.4,22.1-3.4c19.1-2.5,38.3-3,57.5-2.3c12.7,0.4,25.3,1.7,37.8,3.5
		c11.3,1.6,22.5,3.9,33.5,6.7c11.9,3.1,23.6,6.9,35,11.5c11,4.5,21.6,9.6,31.7,15.8c16.4,10.1,31.1,22.2,42.1,38.2
		c6.3,9.1,10.8,19,13.1,29.8c1.9,8.7,2.2,17.4,0.9,26.2c-1.8,12.1-6.4,23.1-13.1,33.2c-8.1,12.3-18.6,22.4-30.4,31.1
		c-12.4,9.2-25.8,16.4-39.9,22.5c-10.6,4.6-21.5,8.3-32.6,11.5c-11.9,3.4-24,6-36.3,7.9c-10.6,1.7-21.3,3-32,3.5
		C628.5,516.6,620.3,516.9,610.8,517.3z M611.6,286.5c-11.8,0.2-24.4,0.7-36.9,2.1c-10.9,1.2-21.7,2.8-32.3,5.1
		c-18.3,3.9-36.2,9.3-53.3,17c-16,7.2-31,15.9-44.2,27.6c-9.5,8.4-17.5,18-23,29.5c-5.3,11.1-7.6,22.7-6.3,35
		c1.2,11.2,5.4,21.4,11.6,30.7c6.5,9.8,14.6,18.1,23.9,25.3c18.3,14.3,39,24,60.8,31.2c10.8,3.6,21.9,6.4,33.1,8.7
		c14,2.8,28.1,4.7,42.3,5.7c14.5,1,29,1.1,43.6,0.4c13.8-0.7,27.6-2.1,41.2-4.7c9.4-1.8,18.7-4,28-6.3c12-3,23.5-7.2,34.8-12.2
		c11.3-5,22.1-10.8,32.2-17.9c12.2-8.6,23.1-18.6,31.2-31.3c8.4-13.2,12.6-27.5,10.8-43.3c-1.1-9.5-4.2-18.3-8.9-26.5
		c-6.9-11.9-16.2-21.5-26.9-29.9c-10.3-8.1-21.6-14.6-33.4-20.2c-15.8-7.5-32.4-12.9-49.3-17c-13.7-3.3-27.7-5.6-41.7-7.1
		C636.7,287.1,624.5,286.6,611.6,286.5z"/>
	<path fill="#FFFFFF" d="M611.6,286.5c13,0.1,25.1,0.6,37.3,1.9c14,1.5,28,3.7,41.7,7.1c17,4.1,33.5,9.6,49.3,17
		c11.8,5.6,23.1,12.1,33.4,20.2c10.7,8.4,20.1,18,26.9,29.9c4.7,8.2,7.9,17,8.9,26.5c1.8,15.8-2.4,30.1-10.8,43.3
		c-8.1,12.7-19,22.7-31.2,31.3c-10.1,7.1-20.9,13-32.2,17.9c-11.3,5-22.9,9.2-34.8,12.2c-9.3,2.3-18.6,4.5-28,6.3
		c-13.6,2.6-27.4,4-41.2,4.7c-14.5,0.7-29,0.6-43.6-0.4c-14.2-1-28.3-2.9-42.3-5.7c-11.2-2.3-22.2-5.1-33.1-8.7
		c-21.9-7.3-42.6-16.9-60.8-31.2c-9.2-7.2-17.4-15.5-23.9-25.3c-6.2-9.4-10.3-19.5-11.6-30.7c-1.3-12.3,0.9-23.9,6.3-35
		c5.5-11.5,13.5-21,23-29.5c13.1-11.7,28.1-20.5,44.2-27.6c17.1-7.7,35-13.1,53.3-17c10.7-2.3,21.5-3.9,32.3-5.1
		C587.2,287.1,599.7,286.6,611.6,286.5z M538.2,307.3c-2.1,0.6-4.3,1.1-6.5,1.7c-11.5,3.2-22.8,6.9-33.8,11.5
		c-11.5,4.8-22.6,10.4-32.9,17.5c-10.2,7-19.3,15.1-26.3,25.3c-5.7,8.3-9.4,17.5-10.3,27.6c-0.9,10.1,1.3,19.7,5.6,28.8
		c4.7,9.6,11.3,17.8,19.1,25c11.6,10.7,25,18.7,39.2,25.3c1.6,0.7,3.2,1.4,4.9,2.1c-1.8-3.6-3.7-7.1-5.3-10.6
		c-2.7-6-4.5-12.1-4.2-18.8c0.4-9.3,6.4-15.7,15.7-16.5c6.6-0.6,12.6,1.2,18.5,4c8,3.8,14.8,9.3,21,15.6c0.3,0.3,0.5,0.8,0.8,1.4
		c0.6-0.8,0.8-1.1,1-1.4c3.5-5.2,7.5-10,12.5-13.9c8-6.1,16.6-6.3,24.9-0.6c4.7,3.3,8.4,7.5,11.7,12.2c7.1,10,12,21.1,16.4,32.5
		c0.7,1.7,1.3,3.4,2,5.3c1-2.6,1.9-5,2.8-7.4c3.8-9.6,8.1-18.9,13.7-27.6c3.9-5.9,8.2-11.4,14.2-15.3c7.2-4.8,14.6-5.1,22-0.5
		c4.9,3,8.7,7.1,12.1,11.6c1.2,1.5,2.3,3.1,3.6,5c0.4-0.5,0.6-1,1-1.3c6.7-6.8,14.1-12.7,23-16.4c5.4-2.3,11.1-3.8,17.1-3
		c6,0.7,10.7,3.5,13.3,9.2c2,4.4,2,8.9,1.3,13.5c-0.9,6-3.1,11.6-5.9,17c-1,2-2.2,4-3.4,6.2c0.5-0.2,0.8-0.3,1.1-0.4
		c7.9-3.4,15.5-7.3,22.9-11.8c12.7-7.8,24.1-17.1,32.9-29.3c5.7-7.8,9.8-16.4,11.6-26c2.2-11.9,0.2-23.2-5.2-34
		c-5.1-10.1-12.4-18.3-21-25.4c-11.9-10-25.5-17.4-39.7-23.6c-12.1-5.2-24.5-9.3-37.1-12.8c-2-0.6-4-1-6.4-1.6
		c0.6,0.8,1,1.3,1.3,1.8c4.5,6,8.2,12.5,10.1,19.8c2.5,9.8,1.3,19-5.2,27c-5.7,7-13.3,10.7-22.3,11.5c-12.3,1.1-22.3-3.2-29.5-13.3
		c-4.9-6.9-6.9-14.9-7.5-23.2c-0.6-9.4-1-18.9-1.5-28.3c0-0.8-0.1-1.6-0.1-2.4c-0.5,0.4-0.8,0.8-1,1.3c-3.1,5.6-6.1,11.2-9.2,16.8
		c-0.5,0.9-1,1-2,1c-4.5-0.1-9.1-0.2-13.6,0c-1.2,0-1.9-0.2-2.4-1.2c-2.7-5.1-5.5-10.1-8.2-15.2c-0.5-0.9-1.1-1.8-1.6-2.7
		c-0.3,0.4-0.3,0.7-0.3,1c-0.5,9.6-0.9,19.1-1.4,28.7c-0.5,7.7-2.1,15.1-6,21.9c-4.3,7.4-10.5,12.5-18.8,14.8
		c-9.4,2.5-18.3,1.3-26.6-3.7c-9.1-5.6-14.1-13.8-14.3-24.6c-0.1-7.3,2.1-13.9,5.6-20.2C533.5,314.3,535.9,310.9,538.2,307.3z"/>
	<path d="M538.2,307.3c-2.3,3.6-4.6,7-6.7,10.6c-3.5,6.2-5.7,12.9-5.6,20.2c0.2,10.8,5.2,19,14.3,24.6c8.3,5,17.2,6.3,26.6,3.7
		c8.3-2.3,14.5-7.4,18.8-14.8c3.9-6.8,5.6-14.2,6-21.9c0.6-9.6,1-19.1,1.4-28.7c0-0.3,0.1-0.6,0.3-1c0.5,0.9,1.1,1.8,1.6,2.7
		c2.8,5,5.5,10.1,8.2,15.2c0.6,1,1.2,1.3,2.4,1.2c4.5-0.2,9.1-0.1,13.6,0c1,0,1.6-0.1,2-1c3-5.6,6.1-11.2,9.2-16.8
		c0.2-0.4,0.5-0.8,1-1.3c0,0.8,0.1,1.6,0.1,2.4c0.5,9.4,0.9,18.9,1.5,28.3c0.6,8.3,2.6,16.3,7.5,23.2c7.2,10.1,17.2,14.5,29.5,13.3
		c9-0.8,16.5-4.6,22.3-11.5c6.5-8,7.7-17.2,5.2-27c-1.9-7.4-5.6-13.8-10.1-19.8c-0.4-0.5-0.7-1-1.3-1.8c2.4,0.6,4.4,1,6.4,1.6
		c12.6,3.6,25.1,7.6,37.1,12.8c14.2,6.2,27.8,13.6,39.7,23.6c8.5,7.2,15.9,15.4,21,25.4c5.4,10.8,7.4,22.1,5.2,34
		c-1.8,9.6-5.9,18.1-11.6,26c-8.8,12.2-20.2,21.4-32.9,29.3c-7.3,4.5-15,8.4-22.9,11.8c-0.3,0.1-0.6,0.2-1.1,0.4
		c1.2-2.2,2.4-4.2,3.4-6.2c2.8-5.4,5.1-11,5.9-17c0.7-4.6,0.7-9.1-1.3-13.5c-2.6-5.7-7.3-8.5-13.3-9.2c-6-0.7-11.6,0.7-17.1,3
		c-8.9,3.8-16.3,9.6-23,16.4c-0.3,0.3-0.6,0.8-1,1.3c-1.3-1.8-2.4-3.4-3.6-5c-3.4-4.5-7.2-8.6-12.1-11.6c-7.5-4.6-14.8-4.2-22,0.5
		c-6,4-10.3,9.4-14.2,15.3c-5.7,8.7-9.9,18-13.7,27.6c-0.9,2.4-1.8,4.8-2.8,7.4c-0.7-1.9-1.4-3.6-2-5.3
		c-4.4-11.4-9.4-22.5-16.4-32.5c-3.3-4.7-7-8.9-11.7-12.2c-8.2-5.7-16.9-5.5-24.9,0.6c-5,3.8-9,8.7-12.5,13.9
		c-0.2,0.3-0.4,0.6-1,1.4c-0.3-0.6-0.5-1.1-0.8-1.4c-6.2-6.3-13-11.8-21-15.6c-5.8-2.8-11.9-4.6-18.5-4c-9.2,0.8-15.2,7.1-15.7,16.5
		c-0.3,6.6,1.5,12.8,4.2,18.8c1.6,3.6,3.5,7,5.3,10.6c-1.7-0.7-3.3-1.4-4.9-2.1c-14.3-6.6-27.6-14.6-39.2-25.3
		c-7.8-7.2-14.5-15.4-19.1-25c-4.4-9.1-6.5-18.7-5.6-28.8c0.9-10.1,4.6-19.3,10.3-27.6c7-10.2,16.1-18.3,26.3-25.3
		c10.3-7.1,21.4-12.7,32.9-17.5c11-4.6,22.3-8.3,33.8-11.5C533.8,308.4,536,307.9,538.2,307.3z"/>
</g>
</svg>
