<?xml version="1.0" encoding="utf-8"?>
<!-- Generator: Adobe Illustrator 18.1.1, SVG Export Plug-In . SVG Version: 6.00 Build 0)  -->
<svg version="1.1" baseProfile="basic" id="Layer_1"
	 xmlns="http://www.w3.org/2000/svg" xmlns:xlink="http://www.w3.org/1999/xlink" x="0px" y="0px" viewBox="0 0 792 612"
	 xml:space="preserve">
<g>
	
		<polygon fill-rule="evenodd" clip-rule="evenodd" fill="none" stroke="#000000" stroke-width="0.216" stroke-miterlimit="2.6131" points="
		87.1,498.2 249.2,498.2 249.2,507.2 285.2,507.2 285.2,498.2 447.3,498.2 447.3,300.9 285.2,300.9 285.2,291.9 249.2,291.9 
		249.2,300.9 87.1,300.9 	"/>
</g>
<g>
	
		<polygon fill-rule="evenodd" clip-rule="evenodd" fill="none" stroke="#000000" stroke-width="0.216" stroke-miterlimit="2.6131" points="
		41.1,248.1 122.1,248.1 122.1,257.1 158.1,257.1 158.1,248.1 239.1,248.1 239.1,50.8 158.1,50.8 158.1,41.8 122.1,41.8 122.1,50.8 
		41.1,50.8 	"/>
</g>
<g>
	
		<polygon fill-rule="evenodd" clip-rule="evenodd" fill="none" stroke="#000000" stroke-width="0.216" stroke-miterlimit="2.6131" points="
		290.5,248.1 371.5,248.1 371.5,257.1 407.5,257.1 407.5,248.1 488.5,248.1 488.5,50.8 407.5,50.8 407.5,41.8 371.5,41.8 
		371.5,50.8 290.5,50.8 	"/>
</g>
</svg>
