<?xml version="1.0" encoding="utf-8"?>
<!-- Generator: Adobe Illustrator 18.1.1, SVG Export Plug-In . SVG Version: 6.00 Build 0)  -->
<svg version="1.1" baseProfile="basic" id="Drawing_Layer"
	 xmlns="http://www.w3.org/2000/svg" xmlns:xlink="http://www.w3.org/1999/xlink" x="0px" y="0px" viewBox="0 0 792 612"
	 xml:space="preserve">
<g>
	<path fill-rule="evenodd" clip-rule="evenodd" fill="none" stroke="#0000FF" stroke-width="0.216" stroke-miterlimit="2.6131" d="
		M223.5,582.1c97.6,0,177.2-79.6,177.2-177.2c0-97.6-79.6-177.2-177.2-177.2c-97.6,0-177.2,79.6-177.2,177.2
		C46.3,502.5,125.9,582.1,223.5,582.1z"/>
	<path fill-rule="evenodd" clip-rule="evenodd" fill="none" stroke="#0000FF" stroke-width="0.216" stroke-miterlimit="2.6131" d="
		M223.5,417.7c7,0,12.8-5.7,12.8-12.8c0-7-5.7-12.8-12.8-12.8c-7,0-12.8,5.7-12.8,12.8C210.7,412,216.4,417.7,223.5,417.7z"/>
	<path fill-rule="evenodd" clip-rule="evenodd" fill="none" stroke="#0000FF" stroke-width="0.216" stroke-miterlimit="2.6131" d="
		M63,156.6c4.5,0,8.2-3.7,8.2-8.2c0-4.5-3.7-8.2-8.2-8.2c-4.5,0-8.2,3.7-8.2,8.2C54.8,152.9,58.5,156.6,63,156.6z"/>
</g>
<g>
	<path fill-rule="evenodd" clip-rule="evenodd" fill="none" stroke="#0000FF" stroke-width="0.216" stroke-miterlimit="2.6131" d="
		M520,493.5c58.5,0,106.3-47.8,106.3-106.3c0-58.5-47.8-106.3-106.3-106.3s-106.3,47.8-106.3,106.3
		C413.7,445.7,461.5,493.5,520,493.5z"/>
	<path fill-rule="evenodd" clip-rule="evenodd" fill="none" stroke="#0000FF" stroke-width="0.216" stroke-miterlimit="2.6131" d="
		M520,399.9c7,0,12.8-5.7,12.8-12.8c0-7-5.7-12.8-12.8-12.8s-12.8,5.7-12.8,12.8C507.3,394.2,513,399.9,520,399.9z"/>
</g>
<g>
	<path fill-rule="evenodd" clip-rule="evenodd" fill="none" stroke="#0000FF" stroke-width="0.216" stroke-miterlimit="2.6131" d="
		M778.6,270.3v72.2l-13.4,13.4L712.2,409c-21.9-23.2-36-60.5-36-102.4c0-42,14.2-79.3,36.1-102.6l52.9,52.9L778.6,270.3L778.6,270.3
		z M712.2,409l-1.3,1.3H673V203.1h38.4l0.9,0.9c-21.9,23.2-36.1,60.5-36.1,102.6C676.1,348.5,690.3,385.7,712.2,409z"/>
</g>
<path fill="none" stroke="#0000FF" stroke-width="0.216" stroke-miterlimit="2.6131" d="M53.7,135c-4.5,2-7.5,7.4-7.5,13.3
	c0,6,3,11.3,7.5,13.3l492.5,73.8c48.5,0,87.9-39,87.9-87.2c0-48.1-39.3-87.2-87.9-87.2L53.7,135z"/>
</svg>
