<?xml version="1.0" encoding="utf-8"?>
<!-- Generator: Adobe Illustrator 18.1.1, SVG Export Plug-In . SVG Version: 6.00 Build 0)  -->
<svg version="1.1" baseProfile="basic" id="Layer_1"
	 xmlns="http://www.w3.org/2000/svg" xmlns:xlink="http://www.w3.org/1999/xlink" x="0px" y="0px" viewBox="0 0 1224 792"
	 xml:space="preserve">
<g>
	<path d="M588.2,119.4c-1.7-1.7-2.8-1.6-4.1,0.4c-15.6,24.2-36.3,45.4-51.7,70.6c5.4-19.8,10.5-36.4,15-50c3.7-11.2,2.1-16.2-3.4-21
		c-1.8-1.6-3.3-1-4.5,0.9c-15.3,20.8-38.3,58.7-43.5,72.1c-3.3,8.5-1.7,13.3,0.3,15.4c1,1.1,1.8,1.1,2.4-0.3
		c8.4-19,24.2-44.4,36.9-63.4c-6.2,18.9-10.9,38.4-12.2,46.5c-1.4,8.8,0.7,13.7,5.4,17.2c1.1,0.9,1.8,0.4,2.6-1
		c10.2-19,26.6-40.7,42.8-60.2c-9.2,17.7-18.3,37.6-20.4,45.9c-2.4,9.4-0.7,13.6,1.6,15.4c1.1,1,1.7,1,2.3-0.4
		c7.1-20.4,21.3-49,31.2-67.5C592.5,133,593.9,125.2,588.2,119.4z"/>
	<path d="M901.1,184.4c-0.6-1.3-1.6-1.1-2.3,0.1c-5,9.8-12.8,19.4-18.6,19.7c-4.8,0.3-4.7-5.8-1.1-13.7c3.4-7.5,10.5-18.1,13.6-24.5
		c3.4-7.1,2.3-13.2,0.1-15.7c-1-1.3-2.1-1-3.4,0.9c-1.6,2.3-3.3,5.2-5.1,8.6c0.3-5.5-2.6-10.2-8.6-10.2c-7.1,0-18.3,6.4-29.8,23.1
		c-3.4,4.9-5.5,9.9-6.6,14.5c-5.1,8.8-11.3,16.6-16.6,16.8c-5.1,0.3-6-6.4-2.3-14.6c3.3-7.4,10.2-17.9,13.2-24.1
		c3.5-7.4-0.9-14.3-5.5-15c-4.7-0.7-14.3,7.1-20.7,13.9c1.6-5.1,1.7-9.9-0.4-13.5c-0.9-1.4-2-1.6-3,0c-8.9,13.2-19.8,32.9-22.7,41.8
		c-0.1,0.2-0.1,0.4-0.2,0.6c-4.2,6.1-8.8,10.7-12.9,10.9c-5.1,0.3-6-6.4-2.3-14.6c3.3-7.4,10.2-17.9,13.2-24.1
		c3.5-7.4-0.9-14.3-5.5-15c-4.7-0.7-14.3,7.1-20.7,13.9c1.6-5.1,1.7-9.9-0.4-13.5c-0.9-1.4-2-1.6-3,0c-8.4,12.4-18.5,30.4-22,40
		c-6.1,7.2-14.2,13.7-23.2,13.3c-7.5-0.4-10.9-9.4-6.4-22.4c9.9,8.1,19.4,4.4,26.4-4.1c6-7.2,7.1-15.9,4.5-19.3
		c-2.3-3.1-4.8-5.2-8.4-7.4c-7.1-4.1-21.5,3.3-30.8,21.5c-3.2,6.4-4.6,12.8-4.1,18.3c-4.3,6.8-9.8,12.9-14.1,12.4
		c-5.4-0.6-9.4-8.6-9.9-20.3c8.9-2.7,14.9-6.8,19.7-11.5c5.2-5.1,5.7-11.1,3-16.6c-2.8-6-6.2-8.1-11.6-6.2
		c-3.7,1.3-8.1,3.7-12.6,8.1c3.8-6.9,9.4-16.9,12.8-22.7c6-10.3,6.2-16,4.1-20.3c-0.9-1.7-2.3-1.6-3.5,0.1
		c-12.6,17.2-36.1,63.8-40.1,76.7c-0.1,0.3-0.2,0.6-0.2,0.8c-4.6,7-10.2,12.7-14.6,12.9c-4.8,0.3-4.7-5.8-1.1-13.7
		c3.4-7.5,10.5-18.1,13.6-24.5c3.4-7.1,2.3-13.2,0.1-15.7c-1-1.3-2.1-1-3.4,0.9c-1.6,2.3-3.3,5.2-5.1,8.6c0.3-5.5-2.6-10.2-8.6-10.2
		c-7.1,0-18.3,6.4-29.8,23.1c-11.8,17.2-9.1,35.2,4.1,35.2c6.8,0,13.2-5.2,17.7-11.1c0,6.7,4,11.2,11.6,11.6
		c4.8,0.3,9.9-2.6,14.1-6.6c0.2,1.9,0.9,3.3,1.8,4.3c1,1.1,2.1,0.9,2.6-0.3c10.9-26.1,17.3-38.6,27.9-46.6
		c7.5-5.8,13.7-7.4,15.3-4.8c2.1,3.7-7.2,16-24.8,21.8c-2.7,0.9-3,1.3-3,3.8c-0.3,19.1,8.1,27.2,18,27.4c8.3,0.1,14.1-4.9,17.8-9.9
		c2.7,6.5,8.7,10.7,17.6,10.6c7.5-0.1,14.9-3.2,20.8-7.9c0.1,3,1.1,5.3,2.7,6.9c1.3,1.3,2.1,0.7,2.7-0.6c6.1-13.3,12.3-26.9,20.7-36
		c9.1-9.9,17.3-13.9,18.7-13.3c2.6,1.1-9.9,16.2-14.6,30c-4.1,12.3-1.3,21.1,10.8,21.1c4.7,0,9.6-2.4,13.7-5.9
		c0.4,1.9,1.2,3.4,2.4,4.6c1.3,1.3,2.1,0.7,2.7-0.6c6.1-13.3,12.3-26.9,20.7-36c9.1-9.9,17.3-13.9,18.7-13.3
		c2.6,1.1-9.9,16.2-14.6,30c-4.1,12.3-1.3,21.1,10.8,21.1c6.5,0,13.4-4.5,17.9-10.3c1.2,5.8,5.1,9.7,11.2,9.7
		c6.8,0,13.2-5.2,17.7-11.1c0,6.7,4,11.2,11.6,11.6c7.8,0.4,16.7-7.4,20.4-15.2C901.7,189.3,901.7,185.7,901.1,184.4z M700.5,176.1
		c6.7-13.5,18.4-22,21.4-19.6c2,1.6-1.1,8.9-5.7,14.9c-4.1,5.4-9.9,11.5-16.9,7.1C699.6,177.8,700,176.9,700.5,176.1z M589.8,203.2
		c-5.5-0.1-3.7-12.6,3.8-24.8c7.8-12.6,18.1-21.8,22.7-21.4c4.1,0.4,2.8,9.2-6.1,24.8C602.9,194.2,595.6,203.3,589.8,203.2z
		 M851.7,203.2c-5.5-0.1-3.7-12.6,3.8-24.8c7.8-12.6,18.1-21.8,22.7-21.4c4.1,0.4,2.8,9.2-6.1,24.8
		C864.9,194.2,857.5,203.3,851.7,203.2z"/>
</g>
<g>
	<path d="M130.2,116.4c0-2.9-0.2-5.4-0.5-7.5c-0.3-2.1-1-3.8-1.9-5.1c-0.9-1.3-2.3-2.3-4-3c-1.7-0.7-4.1-1.2-7-1.3
		c-0.6,0-1-0.3-1.3-0.8c-0.3-0.5-0.4-1.1-0.4-1.6c0-0.6,0.1-1.1,0.4-1.6c0.3-0.5,0.7-0.7,1.3-0.7c3,0,6.5,0.1,10.3,0.4
		c3.9,0.3,7.5,0.4,10.9,0.4c2,0,3.8,0,5.6-0.1c1.7-0.1,3.4-0.2,5.1-0.3c1.7-0.1,3.3-0.2,5-0.3c1.7-0.1,3.5-0.1,5.5-0.1
		c0.6,0,1,0.2,1.2,0.7c0.2,0.5,0.3,1,0.3,1.6c0,0.6-0.2,1.1-0.5,1.6c-0.3,0.5-0.7,0.8-1.1,0.8c-2.9,0.2-5.3,0.6-7.1,1.2
		c-1.8,0.6-3.2,1.6-4.1,2.8c-0.9,1.3-1.6,3-1.8,5c-0.3,2.1-0.4,4.7-0.4,7.9v49.3c0,3,0.1,5.6,0.4,7.6c0.3,2,0.8,3.7,1.6,5.1
		c0.8,1.4,1.8,2.4,3.1,3.2c1.3,0.8,3,1.4,5,2c1.3,0.3,2.8,0.5,4.5,0.6c1.7,0.1,3.4,0.2,5.2,0.2c2.3,0,4.4-0.1,6.4-0.3
		c2-0.2,3.5-0.5,4.5-0.9c1.9-0.7,3.5-1.4,4.9-2.1c1.4-0.8,2.5-1.7,3.5-3c0.9-1.2,1.7-2.8,2.3-4.6c0.6-1.8,1.1-4.2,1.5-7
		c0.1-0.6,0.4-0.9,1-1.1c0.6-0.2,1.2-0.3,1.8-0.3c0.7,0,1.3,0.1,1.8,0.4c0.5,0.3,0.7,0.7,0.6,1.1c-0.5,4-0.9,7.7-1.3,11.1
		c-0.4,3.5-0.5,7-0.4,10.6c0,0.3-0.2,0.7-0.6,1.2c-0.4,0.5-1.3,0.8-2.7,0.8h-51.4c-3.7,0-7.2,0.1-10.6,0.4
		c-3.4,0.2-6.8,0.4-10.1,0.6c-0.7,0-1.2-0.2-1.5-0.7c-0.3-0.5-0.5-1-0.5-1.6s0.2-1.1,0.5-1.6c0.3-0.5,0.8-0.8,1.5-0.9
		c2.9-0.4,5.3-0.8,7.1-1.2c1.8-0.4,3.2-1.1,4.1-2c0.9-0.9,1.6-2.2,1.9-4c0.3-1.7,0.5-4.2,0.5-7.3v-55.6V116.4z"/>
</g>
<g>
	<path d="M215.1,408.2c-8.5,0-12.8,2.2-12.8,6.5v55.7c0,12.2-3.3,21.4-10,27.6s-16.1,9.4-28.4,9.4c-5.5,0-10.3-0.7-14.5-2.1
		c-4.2-1.4-7.7-3.3-10.6-5.7s-5-5.2-6.4-8.4c-1.5-3.2-2.2-6.6-2.2-10.3c0-4,1.1-7.1,3.3-9.5c2.2-2.4,5.1-3.5,8.9-3.5
		c3.6,0,6.4,1,8.4,3c2,2,3,4.5,3,7.5c0,2.7-0.9,5-2.6,6.9c-1.7,1.8-4,2.9-6.8,3.2c0.4,1.3,1.1,2.5,2.2,3.5c1.1,1,2.4,2,3.9,2.8
		c1.5,0.8,3.2,1.4,5,1.8c1.8,0.4,3.7,0.6,5.6,0.6c3.1,0,5.9-0.5,8.4-1.5c2.5-1,4.5-2.6,6.2-4.7c1.7-2.2,2.9-5.1,3.8-8.6
		c0.9-3.6,1.3-7.9,1.3-13v-54.7c0-4.3-4.2-6.5-12.6-6.5v-8.4h47.1V408.2z"/>
</g>
<g>
</g>
</svg>
