<?xml version="1.0" encoding="utf-8"?>
<!-- Generator: Adobe Illustrator 18.1.1, SVG Export Plug-In . SVG Version: 6.00 Build 0)  -->
<svg version="1.1" baseProfile="basic" id="Layer_1"
	 xmlns="http://www.w3.org/2000/svg" xmlns:xlink="http://www.w3.org/1999/xlink" x="0px" y="0px" viewBox="0 0 612 792"
	 xml:space="preserve">
<g>
	<path fill="#FFFFFF" d="M56.5,570c0-115.8,0-231.7,0-347.5c166.6,0,333.1,0,499.7,0c0,115.8,0,231.7,0,347.5
		C389.6,570,223,570,56.5,570z M231.9,500.2c0.1-0.3,0.2-0.6,0.3-0.9c2.3,0.2,4.6,0.4,6.9,0.6c11.6,0.8,23.1,1.3,34.7,2.4
		c13.1,1.2,26,2.1,38.6-3c2.4-1,5.3-1.7,7.7,0.5c0.3,0.3,0.9,0.3,1.4,0.2c2.8-0.6,5.1,0.5,7.5,1.8c4.1,2.3,12,0.9,15-2.4
		c2.4-2.6,11.4-6.9,14.9-6.7c5.5,0.2,9.9-2.6,14.5-5c1.6-0.8,1.4-2.1,0-2.9c-1.5-0.9-3.1-1.6-4.8-2c-3.9-0.8-7.9-1.3-11.8-2
		c-1.6-0.3-3-0.9-4.6-1.3c-2.3-0.6-4.6-1.5-6.9-1.6c-7-0.2-14.1-0.1-21.1-0.1c-3.4,0-6.8,0-9.7-2.1c-3.7-2.8-7.5-2.9-11.8-1.2
		c-1.9,0.8-4.2,1.4-6.2,1.2c-4.5-0.6-9.1-1.4-13.3-2.9c-5.5-2-10.9-2.4-16.5-1.5c-8.3,1.4-16,0.1-23.3-4.3
		c-4.4-2.7-9.3-4.1-14.5-4.5c-2.1-0.2-4.2-1.1-6.1-1.9c-5.4-2.4-10.6-5.3-16.1-7.4c-3-1.1-6.4-1.7-9.6-1.5
		c-6.5,0.5-12.4-0.9-18.2-3.5c-1.4-0.7-2.9-1.5-4.2-2.4c-1.4-0.9-1.3-1.9,0.3-2.7c1.3-0.6,2.6-1.2,3.8-2c6.3-4.1,12.9-6.8,20.6-7
		c2.9-0.1,5.9-1.2,8.6-2.4c2.5-1.1,2.5-2.7,0.4-4.4c-0.8-0.6-2-0.7-3.1-0.8c-1.6-0.3-3.4-0.1-4.9-0.7c-2.8-1.1-5.6-2.4-8.2-3.9
		c-3-1.7-6.2-2.1-9.5-1.3c-6.3,1.6-12.8,2-19.3,1.6c-2.5-0.1-5.1,0.2-7.7,0.3c-11.6,0.5-22.7-0.9-32.5-7.8c-0.8-0.6-1.9-1-2.9-1.1
		c-6.6-1.2-11.7-4.9-15.5-10.2c-4.9-6.9-9.4-14.1-13.7-21.4c-1.3-2.1-1.8-4.8-2-7.3c-0.3-4.8-0.1-9.6-0.2-14.4c0-1.5,0.5-2,2.1-1.7
		c3.2,0.6,6.4,1.1,9.6,1.8c1,0.2,2.1,0.6,2.8,1.3c4.2,3.6,9.2,5,14.3,6.5c4.7,1.3,9.4,1,13.6-1.7c1.3-0.9,2.5-0.8,3.7,0.2
		c1.7,1.5,3.3,1.4,4.9-0.2c8.7-8.6,19.2-12.3,31.4-11.6c1.7,0.1,2.4,0.7,3.1,2.3c0.7,1.6,2.1,2.8,3.3,4.1c0.6,0.7,1.7,0.9,2.5,1.4
		c2.2,1.4,2.2,2.3,0.5,4.1c-2.3,2.3-5.3,2.9-8.4,2.9c-4.6,0.1-9.3,0-13.9,0.1c-1.4,0-2.7,0.5-4.3,0.7c0.4,0.7,0.5,1,0.7,1.3
		c7.3,7.6,13.9,15.9,24.2,20c2.7,1.1,5.4,3,7.2,5.3c2.8,3.5,6.1,6.2,10.1,8.3c2.9,1.5,5.9,3.4,8.1,5.8c2.7,2.9,5.7,4.5,9.6,4.5
		c1.4,0,2.9,0.3,4.3,0.2c3.8-0.3,6.5,1.2,8.2,4.5c1.6,3.1,4.1,4.5,7.4,4.9c1.6,0.2,3.2,0.6,4.7,0.7c6.6,0.4,12.3,3,17.9,6.3
		c5.9,3.5,11.9,6.8,18,10c1.7,0.9,3.7,1.4,5.7,1.9c4.5,1.2,8.7,0.7,12.5-2.1c2-1.5,2-2.4,0.1-4.1c-2.6-2.2-5.7-2.6-9-2.7
		c-3.9-0.1-6.9-1.6-8.8-5.2c-0.2-0.4-0.6-0.7-1-0.9c-2.7-1.6-5.5-3.1-8.1-4.8c-2.6-1.6-5-3.7-7.8-5c-3.9-1.8-8.1-3-12.2-4.3
		c-5.1-1.6-10.2-3.4-14.4-7c-7.2-6.2-14.3-12.3-21.3-18.7c-2.5-2.3-4.6-5.1-6.6-7.9c-1.4-1.8-1.9-4.1-0.9-6.4
		c2.9-6.6,7.2-12.1,13.1-16.1c1.9-1.3,4-1.7,6.2-1c3.4,1.1,7.1,1.9,10.1,3.7c7.1,4.5,14,9.5,20.8,14.5c6.2,4.6,12.4,9.3,20,10.9
		c6,1.3,11.2,4,16.6,6.8c6.7,3.5,13.5,7.1,20.6,9.6c16.4,5.8,33.5,6.3,50.7,6.2c14.4,0,28.8,0.1,43.2,0.3c3.3,0,6.3,1,8.5,3.7
		c2.8,3.4,1.9,6.2-2.2,7.4c-4.5,1.3-8.9,0.6-13.1-1.3c-5.3-2.4-10.6-2.8-16-0.6c-3.4,1.4-7,1.4-10.6,0.6c-2.6-0.6-5.4-1-8-1
		c-1.4,0-2.8,0.8-4.2,1.2c0,0.4,0,0.7,0.1,1.1c1.7,0.7,3.5,1.4,5.2,2.1c2.1,0.7,4.4,1,6.3,2.1c5.4,3,11.2,4.2,17.2,4.8
		c5.3,0.5,10.7,1,16,1.5c2.4,0.2,4.8,0.7,6,3.2c1.2,2.6,0.1,4.8-1.4,6.9c-0.3,0.5-0.7,0.9-1,1.3c-3.6,3.9-7.7,7.2-12.7,9.3
		c-9.4,3.9-18.1,3.3-25.7-4.1c-2.4-2.3-5.1-4.4-7.7-6.5c-3.1-2.5-6.6-3.6-10.7-3.5c-8.7,0.2-17.4,0.1-26.1,0.3
		c-3.4,0.1-6.3-1.1-8.7-3.4c-2.1-2-3.9-4.2-5.9-6.3c-4.9-5.1-8.9-6.1-17.1-1.7c2.9,2.9,5.7,6,8.7,8.8c4.2,3.9,9,6.3,14.9,6.1
		c1.3,0,2.8,0.2,3.9,0.8c3.4,1.5,6.5,3.4,9.9,4.8c2.9,1.2,6,2.4,9.1,2.8c3.6,0.5,6.7,1.6,9.7,3.6c4.9,3.4,10,6.3,16.3,6.4
		c2.8,0,5.2,1.2,7.2,3.3c0.8,0.8,1.8,1.4,2.8,1.8c3.2,1.2,6.5,2.3,9.7,3.5c2.5,0.9,5,1.7,7.2,3.1c3.7,2.3,7.5,3.4,11.8,2.8
		c3.1-0.4,6.2-0.4,9.3-0.4c2.4-0.1,4.7-0.1,7.1-0.1c1.6,0,3.3-0.3,4.6,0.3c4.3,1.8,8.4,3.9,12.5,5.9c2.5,1.2,3.6,0.6,4-2.1
		c0.1-0.9-0.1-1.9-0.1-2.9c0.1-2.1-0.3-4.4,0.4-6.4c1-2.9,1.5-5.7,0.6-8.6c-0.5-1.8,0.4-2.8,2.1-3c1.5-0.2,3-0.4,4.5-0.4
		c2.5,0,4.6-0.9,6.6-2.5c1.3-1.1,1.4-1.9,1-3.4c-0.8-3.3-1.5-6.7-1.9-10.1c-0.1-1,0.5-2.3,1.2-3.2c1-1.3,2.5-2.1,3.6-3.3
		c2.1-2.4,3.4-2.6,6.2-1c3.8,2.3,7.8,4.4,11.7,6.6c1.7,1,3.5,2,5.3,2.8c2.7,1.1,5.5,2.3,8.3,2.7c2.9,0.4,4.8,1.6,5.9,4.2
		c2.3,5.7,5.7,10.7,9.7,15.3c2.2,2.5,3,5.4,2.8,8.7c-0.1,0.7,0,1.4,0,2.4c1.7-1.1,3.1-2,4.5-2.9c1.7-1.1,3.2-2.5,5.1-3.2
		c3.2-1.2,4.8-3.6,5.4-6.8c0.6-3.6,1.2-7.3,1.6-10.9c0.7-5.3-0.5-10.1-4-14.3c-1.6-2-3.5-3.3-6.1-3.8c-1.7-0.4-3.5-1.3-4.6-2.6
		c-1.8-2.2-3.9-3.1-6.5-3.5c-1.7-0.3-3.6-1-4.9-2.2c-2.3-2.2-4.9-3.5-7.9-4.2c-6.2-1.4-11.5-4.8-16.4-8.7c-2.5-2-5-4-7.5-5.9
		c-6-4.6-12-9.1-17.9-13.6c-2.9-2.2-5.4-4.9-8.6-6.5c-15.3-8-30.6-16.1-46.2-23.5c-11.7-5.5-24-10-36.9-11.6
		c-18.9-2.4-37.8-4.4-56.7-6.7c-10.9-1.4-21.8-2.1-32.5,1.6c-7.9,2.8-15.6,1.7-23.1-1.7c-7-3.1-14.3-5-21.9-5.8
		c-3.9-0.5-7.8-1.2-11.5-2.3c-6.9-2.2-13.1-5.7-16.9-12.2c-2.1-3.6-2.9-7.4-1.9-11.5c0.8-3.4,2.7-5.9,6.6-7.4c-3.5-0.3-6-1.4-7.3-4
		c-1.6-3-3-6-4.2-9.1c-1-2.8-0.5-5.5,1.9-7.6c1.7-1.5,3.3-3.1,4.7-4.8c4-4.5,4.2-6.6,1.4-11.9c-1,0-2.1,0-3.1,0
		c-6.8,0.2-13.4,0.2-19.8-3.2c-3-1.6-6.8-1.5-9.7-2.1c-0.9,2.5-1.4,4.5-2.4,6.4c-1.8,3.3-4,6.3-5.8,9.6c-1.2,2.2-2.8,3.6-5.3,4
		c-1,0.1-2,0.4-3.1,0.6c-1.9,0.3-2.9,1.4-2.9,3.2c0,1.3,0,2.6,0.4,3.8c1.2,3.4,0.8,6.6-0.6,9.8c-0.9,2.1-2,4-2.7,6.1
		c-0.6,1.9-1.3,3.9-1.1,5.8c0.5,4.9,1.3,9.9,5.7,13.3c0.6,0.5,1,1.2,1.5,1.9c1.8,2.9,1.3,4-2,4.4c-2.7,0.3-4.9,1.3-6.5,3.6
		c-1.3,1.9-3.3,2.7-5.5,2.9c-3.4,0.3-6.6-0.5-9.3-2.5c-7.8-5.6-14.9-11.7-19.3-20.6c-2.3-4.7-3.2-9.3-2.4-14.4
		c0.1-0.7,0.1-1.4,0.1-2.2c-0.2-0.1-0.4-0.1-0.7-0.2c-1,1.4-2.2,2.7-3,4.2c-3.4,6.6-5,13.6-4.5,21.1c0.3,4.9,0.6,9.7,1.2,14.6
		c0.7,5.9-1.1,10.2-6.8,12.8c-2.3,1.1-4,3-4.3,5.7c-0.6,5.6-1.4,11.3-1.4,17c0,10.9,2.1,21.6,4.7,32.2c1.2,5.1,3.7,9.4,7.5,12.8
		c6,5.4,11.9,11,18.3,15.9c4.4,3.4,9.4,6.4,14.6,8.7c11.1,5,22.4,9.5,33.5,14.3c8.8,3.8,17.8,7.1,27.3,8.8
		c6.8,1.2,13.5,2.4,20.3,3.5c5,0.8,9.8,2,14.4,4.4c2.8,1.5,5.8,2.6,8.8,3.7c2.9,1,5.9,1.6,8.7,2.6c0.8,0.3,1.9,1.1,1.9,1.8
		c0.1,0.6-0.9,1.7-1.6,2.1c-2.9,1.3-5.9,2.7-8.9,3.3c-4,0.8-8.1,0.7-12.1,1.2c-2.5,0.3-5.1,0.8-7.4,1.8c-2.3,1-2.4,3.4-0.4,5.1
		c0.7,0.6,1.4,1.1,2.1,1.5c7.5,4.2,15,8.5,22.6,12.7c5.3,2.9,11,4,17,4.7c4.9,0.6,9.8,1.7,14.5,2.9c4.5,1.2,8.8,2.9,13.2,4.3
		c16,5.3,31.9,10.9,49.2,10.8c12.9-0.1,25.7,0.8,38.6,0.9c8.5,0.1,16.9-0.5,25.4-0.8c0.2,0,0.4-0.2,0.6-0.3c-0.2,0-0.4-0.1-0.6-0.1
		c0-1.5-0.2-3.1,0-4.6c0.6-3.5,3.5-4.9,6.4-5.8c4.6-1.4,7.6-4.5,9.9-8.5c1.8-3.3,4-6.4,6.1-9.5c2-3,4-5.9,6.3-9.3
		c-4.8-0.5-9-1-13.2-1.4c-2.9-0.3-5.5,0.4-7.8,2.4c-1.1,0.9-2.4,1.7-3.8,1.9c-4.6,0.7-8.4,2.9-12.3,5.2c-4.5,2.7-9.3,4.6-14.8,4.1
		c-1.6-0.1-3.4,0.6-4.9,1.4c-4,2.1-7.9,3.9-12.7,3.5c-2-0.2-4.5,0.9-6.1,2.2c-3.6,3-7.7,4.5-12.2,5.1c-9.3,1.3-18.3-0.4-27.4-2.1
		c-7.4-1.4-14.6-3.7-22.2-2.7c-1.1,0.1-2.2-0.2-3.3-0.5c-6.4-1.4-12.8-2.8-19.2-4.4c-9.2-2.3-18.4-4.8-27.6-7.3
		C235.3,502.1,233.7,501,231.9,500.2z M501.5,389.5c-0.6-5.5-1.2-10.9-1.9-16.3c-0.8-5.8-3.2-11-6.5-15.8c-2.6-3.8-3.7-7.9-3.5-12.6
		c0.4-7.3-1.2-14.3-5.6-20.4c-5.9-8.1-11.6-16.3-19.8-22.2c-1.6-1.1-3.4-2.3-5.3-2.5c-4.4-0.5-8-2.3-11.6-4.8
		c-2.1-1.5-4.5-2.6-7.2-4.1c0.4,4.1,0.4,7.5,2,10.9c1.6,3.4,2.7,7.2,3.6,10.9c0.7,2.9,0.9,5.8-0.4,8.7c-4.6,10.3-2.5,20,2.9,29.2
		c3.2,5.4,3.1,11.2-0.7,16.3c-0.4,0.5-0.7,1.1-1.3,2c2.8,0.4,5.1,0.8,7.5,1c7.1,0.5,12.9,3.2,17.6,8.5c1.7,2,3.6,3.8,5.5,5.7
		c3.8,3.7,8.4,5.7,13.8,5.6C494,389.5,497.5,389.5,501.5,389.5z M310,317.1c-1.2-0.2-2.1-0.5-2.9-0.6c-7.2-1-13-4.2-16.6-10.8
		c-1.8-3.3-4-6.5-6.1-9.7c-3.4-5.3-9-7.2-14.5-9.1c-2.8-0.9-5.2,0.7-6.7,3.7c-2,3.9-3.5,4.7-7.8,4c-6.4-1-11.7-3.9-16.1-8.7
		c-1.7-1.8-3.8-3.4-5.9-4.7c-1.8-1.1-4-1.4-6-2.2c-1.6-0.6-3-0.4-4.2,0.7c-0.8,0.7-1.5,1.5-2.2,2.2c-5.3,6-9.8,12.6-11.8,19.6
		c1.8,2.1,3.4,3.7,4.7,5.5c0.9,1.2,1.3,2.7,2,4.1c4.1,7.7,9.7,13.9,17.5,17.8c7.4,3.8,12,1.6,14.7-6.1c0.7-2,2.2-4.3,3.9-5.4
		c4.5-2.7,9.3-2.5,14-0.2c4.7,2.3,9.1,4.7,8.6,11.3c-0.2,2.9,1.8,4.5,4.8,4.5c1.3,0,2.7-0.4,4-0.3c2.5,0.1,5.1,0.2,7.5,0.6
		c5.7,1,11.2,2.4,16.9,3.3c3.8,0.6,5.2-1.3,4.2-5c-0.3-1.1-0.9-2.2-1.3-3.3c-0.8-1.9-1.7-3.8-2.3-5.8
		C307.8,320.8,307.6,318.7,310,317.1z M391.6,279c-4.3-2.1-8.9-3.9-13-6.4c-5.3-3.2-11-4.4-16.9-4.6c-5.7-0.2-5.7-0.1-7.3,5.3
		c0,0.2-0.1,0.3-0.2,0.5c-0.9,2.8,0.1,5.4,2.1,6.9c3.2,2.3,4.3,4.9,3.5,8.6c-0.2,1.2-0.1,2.4-0.1,3.6c0,2.5-0.1,5.1-0.1,7.6
		c-0.1,4.9-0.3,10.2,3.4,13.8c4.7,4.5,8.6,9.4,11.2,15.3c0.3,0.6,1.2,1.4,1.9,1.4c8.8,0.3,17.2-1.1,24.7-6.2c3-2.1,4.9-4.9,5.8-8.5
		c1.2-4.5,2.9-8.9,4.4-13.4c0.8-2.6,2.2-5.2,2.2-7.8c0.1-5.2,2.7-8,7.3-9.4c2.3-0.7,4.6-1.3,7.4-2.1c-7.9-3.5-16-2.9-24.1-3.8
		c2.5,3.3,1.7,6.6,0.6,10c-1.1,3.6-3.3,6.5-5.9,9.2c-1.2,1.2-2.3,2.7-0.9,4.4c3.7,4.9,2.1,10.3,1.5,15.5c-0.3,2.2-3.8,5.3-5.2,4.6
		c-2.3-1.2-4,0.1-5.8,0.9c-3.2,1.3-4.6,0.6-5.3-2.7c-0.3-1.5-0.5-3.2-1.4-4.2c-2.5-2.9-5.2-5.6-9-7c-3.8-1.3-4.4-2.9-2.9-6.6
		c0.5-1.1,1-2.2,1.8-3.1c3-3.3,3.4-7.1,2.4-11.2c-0.5-1.9-1.4-3.8-1.8-5.7c-0.2-1-0.3-2.4,0.3-3.1c2-3,7.9-3.6,10.6-1.4
		C385.1,281.2,389.7,281,391.6,279z M302.8,292.5c0,0.2-0.1,0.5-0.1,0.7c0.9,0.5,1.7,1.2,2.6,1.4c5.3,1.1,9.1,4.8,13.3,7.8
		c1.4,1,2.3,2.6,3.2,4.1c1.8,3,3.6,6,7.1,7.1c2.4,0.7,4.3,2,5.3,4.2c1.6,3.7,4.6,5.6,8,7.2c1.6,0.8,3.2,1.4,4.9,1.8
		c1.3,0.3,2.2-0.3,2.2-1.8c0-4.9-0.3-9.8-3.9-13.7c-3.1-3.3-6.1-6.5-9.4-9.5c-3.3-3-5.5-6.3-5.7-10.9c-0.3-5.3-2.1-9.6-7.6-11.5
		c-1.2-0.4-2.1-0.8-2.9,0c-3.3,3.1-6.8,6.1-9.6,9.6C308,291.2,306.3,293.2,302.8,292.5z"/>
	<path d="M231.9,500.2c1.7,0.8,3.4,2,5.2,2.5c9.2,2.5,18.4,5,27.6,7.3c6.4,1.6,12.8,2.9,19.2,4.4c1.1,0.2,2.2,0.6,3.3,0.5
		c7.7-1,14.9,1.3,22.2,2.7c9,1.7,18.1,3.5,27.4,2.1c4.5-0.6,8.6-2.1,12.2-5.1c1.6-1.3,4.1-2.3,6.1-2.2c4.8,0.5,8.7-1.4,12.7-3.5
		c1.5-0.8,3.3-1.5,4.9-1.4c5.5,0.5,10.2-1.4,14.8-4.1c3.9-2.3,7.7-4.5,12.3-5.2c1.3-0.2,2.7-1,3.8-1.9c2.3-1.9,4.9-2.6,7.8-2.4
		c4.2,0.4,8.4,0.9,13.2,1.4c-2.3,3.4-4.4,6.3-6.3,9.3c-2.1,3.1-4.2,6.2-6.1,9.5c-2.3,4.1-5.3,7.1-9.9,8.5c-2.9,0.9-5.8,2.3-6.4,5.8
		c-0.3,1.5,0,3,0,4.6c0.2,0,0.4,0.1,0.6,0.1c-0.2,0.1-0.4,0.3-0.6,0.3c-8.5,0.3-16.9,0.9-25.4,0.8c-12.9-0.1-25.7-1-38.6-0.9
		c-17.3,0.1-33.2-5.5-49.2-10.8c-4.4-1.4-8.7-3.1-13.2-4.3c-4.8-1.2-9.6-2.3-14.5-2.9c-6-0.7-11.7-1.8-17-4.7
		c-7.6-4.1-15.1-8.4-22.6-12.7c-0.8-0.4-1.5-1-2.1-1.5c-1.9-1.7-1.9-4.1,0.4-5.1c2.3-1,4.9-1.5,7.4-1.8c4-0.5,8.2-0.4,12.1-1.2
		c3.1-0.6,6-2.1,8.9-3.3c0.7-0.3,1.7-1.4,1.6-2.1c-0.1-0.7-1.1-1.5-1.9-1.8c-2.9-1-5.9-1.6-8.7-2.6c-3-1.1-6-2.2-8.8-3.7
		c-4.5-2.4-9.4-3.6-14.4-4.4c-6.8-1.1-13.6-2.3-20.3-3.5c-9.5-1.7-18.5-5-27.3-8.8c-11.2-4.8-22.5-9.3-33.5-14.3
		c-5.1-2.3-10.1-5.3-14.6-8.7c-6.4-4.9-12.2-10.5-18.3-15.9c-3.9-3.5-6.3-7.8-7.5-12.8c-2.6-10.6-4.8-21.3-4.7-32.2
		c0-5.7,0.8-11.3,1.4-17c0.3-2.7,2-4.7,4.3-5.7c5.6-2.6,7.5-6.9,6.8-12.8c-0.6-4.8-0.9-9.7-1.2-14.6c-0.5-7.4,1.1-14.5,4.5-21.1
		c0.8-1.5,2-2.8,3-4.2c0.2,0.1,0.4,0.1,0.7,0.2c0,0.7,0,1.4-0.1,2.2c-0.7,5.1,0.1,9.7,2.4,14.4c4.3,8.9,11.5,15,19.3,20.6
		c2.8,2,5.9,2.7,9.3,2.5c2.3-0.2,4.2-0.9,5.5-2.9c1.6-2.3,3.8-3.3,6.5-3.6c3.4-0.4,3.8-1.6,2-4.4c-0.4-0.7-0.8-1.4-1.5-1.9
		c-4.4-3.4-5.2-8.3-5.7-13.3c-0.2-1.9,0.5-3.9,1.1-5.8c0.7-2.1,1.8-4.1,2.7-6.1c1.3-3.2,1.8-6.4,0.6-9.8c-0.4-1.2-0.4-2.5-0.4-3.8
		c0-1.9,1-2.9,2.9-3.2c1-0.2,2-0.5,3.1-0.6c2.5-0.4,4.1-1.8,5.3-4c1.8-3.3,4-6.3,5.8-9.6c1-1.8,1.5-3.9,2.4-6.4
		c2.8,0.6,6.7,0.5,9.7,2.1c6.4,3.5,13,3.4,19.8,3.2c1,0,2.1,0,3.1,0c2.8,5.3,2.6,7.4-1.4,11.9c-1.5,1.7-3.1,3.3-4.7,4.8
		c-2.4,2.1-2.9,4.8-1.9,7.6c1.2,3.1,2.7,6.2,4.2,9.1c1.4,2.6,3.8,3.7,7.3,4c-3.9,1.5-5.8,4-6.6,7.4c-1,4.1-0.2,7.9,1.9,11.5
		c3.9,6.5,10,10,16.9,12.2c3.7,1.2,7.6,1.9,11.5,2.3c7.6,0.9,14.9,2.7,21.9,5.8c7.5,3.3,15.1,4.4,23.1,1.7
		c10.7-3.7,21.5-2.9,32.5-1.6c18.9,2.3,37.8,4.3,56.7,6.7c13,1.7,25.2,6.1,36.9,11.6c15.6,7.4,30.9,15.5,46.2,23.5
		c3.1,1.6,5.7,4.3,8.6,6.5c6,4.6,12,9.1,17.9,13.6c2.5,1.9,5,3.9,7.5,5.9c4.9,3.9,10.1,7.3,16.4,8.7c3,0.7,5.6,2,7.9,4.2
		c1.2,1.2,3.1,1.9,4.9,2.2c2.6,0.5,4.7,1.4,6.5,3.5c1.1,1.3,2.9,2.2,4.6,2.6c2.6,0.6,4.4,1.8,6.1,3.8c3.4,4.2,4.7,9,4,14.3
		c-0.5,3.6-1,7.3-1.6,10.9c-0.6,3.2-2.2,5.5-5.4,6.8c-1.8,0.7-3.4,2.1-5.1,3.2c-1.4,0.9-2.8,1.8-4.5,2.9c0-1.1,0-1.8,0-2.4
		c0.3-3.3-0.6-6.2-2.8-8.7c-4-4.6-7.4-9.6-9.7-15.3c-1.1-2.6-3-3.8-5.9-4.2c-2.9-0.4-5.6-1.6-8.3-2.7c-1.8-0.7-3.6-1.8-5.3-2.8
		c-3.9-2.2-7.8-4.3-11.7-6.6c-2.7-1.6-4.1-1.4-6.2,1c-1.1,1.2-2.6,2.1-3.6,3.3c-0.7,0.8-1.3,2.2-1.2,3.2c0.4,3.4,1.1,6.8,1.9,10.1
		c0.4,1.5,0.3,2.4-1,3.4c-2,1.6-4,2.5-6.6,2.5c-1.5,0-3,0.2-4.5,0.4c-1.7,0.3-2.6,1.2-2.1,3c0.8,3,0.4,5.7-0.6,8.6
		c-0.7,1.9-0.3,4.2-0.4,6.4c0,1,0.2,1.9,0.1,2.9c-0.4,2.8-1.6,3.3-4,2.1c-4.2-2-8.3-4.1-12.5-5.9c-1.3-0.6-3.1-0.3-4.6-0.3
		c-2.4,0-4.7,0-7.1,0.1c-3.1,0.1-6.2,0-9.3,0.4c-4.4,0.6-8.1-0.5-11.8-2.8c-2.2-1.4-4.8-2.2-7.2-3.1c-3.2-1.2-6.5-2.2-9.7-3.5
		c-1-0.4-2.1-1-2.8-1.8c-2-2.1-4.4-3.3-7.2-3.3c-6.3-0.1-11.4-3-16.3-6.4c-3-2.1-6.1-3.1-9.7-3.6c-3.1-0.4-6.1-1.6-9.1-2.8
		c-3.4-1.4-6.6-3.3-9.9-4.8c-1.2-0.5-2.6-0.8-3.9-0.8c-5.9,0.1-10.7-2.2-14.9-6.1c-3-2.8-5.8-5.9-8.7-8.8c8.2-4.5,12.1-3.5,17.1,1.7
		c2,2.1,3.8,4.3,5.9,6.3c2.4,2.3,5.3,3.5,8.7,3.4c8.7-0.2,17.4-0.1,26.1-0.3c4-0.1,7.6,0.9,10.7,3.5c2.6,2.1,5.3,4.2,7.7,6.5
		c7.6,7.4,16.3,8,25.7,4.1c5-2.1,9.1-5.4,12.7-9.3c0.4-0.4,0.7-0.9,1-1.3c1.5-2.1,2.6-4.3,1.4-6.9c-1.2-2.6-3.6-3-6-3.2
		c-5.3-0.5-10.7-1-16-1.5c-6-0.6-11.8-1.8-17.2-4.8c-1.9-1.1-4.2-1.4-6.3-2.1c-1.8-0.6-3.5-1.4-5.2-2.1c0-0.4,0-0.7-0.1-1.1
		c1.4-0.4,2.8-1.3,4.2-1.2c2.7,0.1,5.4,0.4,8,1c3.6,0.8,7.2,0.7,10.6-0.6c5.5-2.2,10.7-1.8,16,0.6c4.2,1.9,8.5,2.6,13.1,1.3
		c4.1-1.2,5-4,2.2-7.4c-2.2-2.7-5.2-3.7-8.5-3.7c-14.4-0.1-28.8-0.3-43.2-0.3c-17.2,0-34.3-0.4-50.7-6.2c-7.1-2.5-13.9-6.1-20.6-9.6
		c-5.3-2.8-10.6-5.5-16.6-6.8c-7.7-1.7-13.8-6.3-20-10.9c-6.8-5-13.7-10-20.8-14.5c-3-1.9-6.7-2.6-10.1-3.7c-2.2-0.7-4.3-0.3-6.2,1
		c-6,4.1-10.3,9.5-13.1,16.1c-1,2.3-0.4,4.5,0.9,6.4c2,2.7,4.1,5.6,6.6,7.9c7,6.4,14.1,12.5,21.3,18.7c4.2,3.6,9.2,5.3,14.4,7
		c4.1,1.3,8.3,2.5,12.2,4.3c2.8,1.3,5.2,3.4,7.8,5c2.7,1.7,5.4,3.2,8.1,4.8c0.4,0.2,0.8,0.5,1,0.9c1.9,3.6,5,5.1,8.8,5.2
		c3.2,0.1,6.4,0.5,9,2.7c2,1.7,2,2.6-0.1,4.1c-3.8,2.9-8.1,3.3-12.5,2.1c-1.9-0.5-3.9-1-5.7-1.9c-6.1-3.2-12.1-6.4-18-10
		c-5.6-3.4-11.3-5.9-17.9-6.3c-1.6-0.1-3.2-0.5-4.7-0.7c-3.3-0.4-5.9-1.9-7.4-4.9c-1.7-3.3-4.4-4.9-8.2-4.5
		c-1.4,0.1-2.9-0.2-4.3-0.2c-3.9,0-6.9-1.6-9.6-4.5c-2.3-2.4-5.2-4.2-8.1-5.8c-4-2.1-7.2-4.8-10.1-8.3c-1.8-2.3-4.5-4.2-7.2-5.3
		c-10.3-4-16.9-12.4-24.2-20c-0.2-0.2-0.3-0.5-0.7-1.3c1.6-0.3,2.9-0.7,4.3-0.7c4.6-0.1,9.3-0.1,13.9-0.1c3.1,0,6-0.6,8.4-2.9
		c1.8-1.8,1.7-2.7-0.5-4.1c-0.8-0.5-1.8-0.8-2.5-1.4c-1.2-1.2-2.6-2.5-3.3-4.1c-0.7-1.6-1.4-2.2-3.1-2.3c-12.2-0.8-22.7,3-31.4,11.6
		c-1.6,1.6-3.2,1.6-4.9,0.2c-1.2-1-2.4-1.1-3.7-0.2c-4.3,2.7-8.9,3-13.6,1.7c-5.1-1.4-10.2-2.9-14.3-6.5c-0.8-0.6-1.8-1.1-2.8-1.3
		c-3.2-0.7-6.4-1.2-9.6-1.8c-1.5-0.3-2.1,0.2-2.1,1.7c0,4.8-0.2,9.6,0.2,14.4c0.2,2.5,0.8,5.2,2,7.3c4.4,7.3,8.8,14.5,13.7,21.4
		c3.7,5.3,8.9,8.9,15.5,10.2c1,0.2,2.1,0.6,2.9,1.1c9.8,6.9,20.9,8.2,32.5,7.8c2.6-0.1,5.1-0.4,7.7-0.3c6.5,0.3,12.9,0,19.3-1.6
		c3.3-0.8,6.4-0.4,9.5,1.3c2.6,1.5,5.4,2.8,8.2,3.9c1.5,0.6,3.3,0.4,4.9,0.7c1.1,0.2,2.3,0.2,3.1,0.8c2.1,1.6,2.1,3.3-0.4,4.4
		c-2.7,1.2-5.7,2.3-8.6,2.4c-7.7,0.2-14.3,2.8-20.6,7c-1.2,0.8-2.5,1.3-3.8,2c-1.5,0.8-1.6,1.8-0.3,2.7c1.3,0.9,2.7,1.7,4.2,2.4
		c5.8,2.6,11.7,4,18.2,3.5c3.2-0.2,6.6,0.3,9.6,1.5c5.5,2.1,10.7,5,16.1,7.4c1.9,0.9,4,1.8,6.1,1.9c5.2,0.4,10.1,1.8,14.5,4.5
		c7.2,4.5,14.9,5.7,23.3,4.3c5.6-0.9,11-0.5,16.5,1.5c4.2,1.6,8.8,2.3,13.3,2.9c2,0.3,4.3-0.4,6.2-1.2c4.2-1.7,8-1.6,11.8,1.2
		c2.9,2.1,6.3,2,9.7,2.1c7,0.1,14.1-0.1,21.1,0.1c2.3,0.1,4.6,1,6.9,1.6c1.5,0.4,3,1,4.6,1.3c3.9,0.7,7.9,1.2,11.8,2
		c1.7,0.3,3.3,1.1,4.8,2c1.4,0.8,1.6,2.1,0,2.9c-4.6,2.4-9,5.2-14.5,5c-3.5-0.1-12.5,4.1-14.9,6.7c-3,3.3-10.9,4.6-15,2.4
		c-2.4-1.3-4.7-2.4-7.5-1.8c-0.4,0.1-1.1,0-1.4-0.2c-2.5-2.1-5.3-1.5-7.7-0.5c-12.6,5.1-25.5,4.2-38.6,3
		c-11.5-1.1-23.1-1.6-34.7-2.4c-2.3-0.2-4.6-0.4-6.9-0.6C232.2,499.6,232.1,499.9,231.9,500.2z M332.4,355.2c-0.6-0.2-1-0.4-1.5-0.4
		c-11.7-1.2-23.4-1.3-34.7,2.3c-3.4,1.1-6.7,2.8-9.6,4.8c-5.2,3.7-6.2,9.3-3,14.9c1.2,2,2.6,4.1,4.4,5.6c3.5,2.9,7.1,5.8,11.1,7.9
		c21.3,11.1,44,15.1,67.9,12.5c6.4-0.7,12.6-2.4,18-6.1c4.1-2.9,6.7-6.7,5.4-11.9c-1.8-7.6-7.8-11.6-14-15.8
		c-0.9,12.3-6.8,20.3-18.1,23.5c-10,2.9-19.1,0.5-25.8-7.6C324.6,375.3,325.5,365.2,332.4,355.2z M189,337.1c-4.1,0-6.8,1.9-7.8,4.9
		c-1,3.2-0.1,7.1,2.9,8.7c4.5,2.4,9.3,4.4,14.1,6.3c2.5,1,5.1,0.4,6.8-2c1.7-2.5,0.7-4.8-0.8-6.9c-3.3-4.8-7.7-8.2-13.1-10.4
		C190.3,337.2,189.3,337.1,189,337.1z M360.2,380.6c4.8-1.6,8.2-4.6,10.1-9.1c2.2-4.9,1.9-5.3-3-7.1c-2.2-0.8-4.3-1.6-6.5-2.4
		c-0.1,0.2-0.3,0.3-0.4,0.5C366,368.6,365.6,374.6,360.2,380.6z"/>
	<path d="M501.5,389.5c-4,0-7.5-0.1-10.9,0c-5.4,0.1-10-1.9-13.8-5.6c-1.9-1.8-3.8-3.7-5.5-5.7c-4.7-5.3-10.6-8.1-17.6-8.5
		c-2.4-0.2-4.7-0.6-7.5-1c0.6-0.9,0.9-1.5,1.3-2c3.8-5.1,3.9-10.9,0.7-16.3c-5.5-9.2-7.5-18.9-2.9-29.2c1.3-2.9,1.1-5.8,0.4-8.7
		c-0.9-3.7-1.9-7.5-3.6-10.9c-1.6-3.3-1.6-6.7-2-10.9c2.7,1.5,5.1,2.7,7.2,4.1c3.5,2.4,7.2,4.3,11.6,4.8c1.8,0.2,3.7,1.4,5.3,2.5
		c8.3,5.9,13.9,14.2,19.8,22.2c4.5,6.1,6,13.1,5.6,20.4c-0.2,4.8,0.9,8.8,3.5,12.6c3.3,4.8,5.7,10,6.5,15.8
		C500.3,378.6,500.9,384.1,501.5,389.5z"/>
	<path d="M310,317.1c-2.4,1.6-2.2,3.6-1.6,5.7c0.6,2,1.5,3.9,2.3,5.8c0.5,1.1,1,2.2,1.3,3.3c1,3.7-0.4,5.6-4.2,5
		c-5.7-0.9-11.3-2.3-16.9-3.3c-2.5-0.4-5-0.5-7.5-0.6c-1.3-0.1-2.7,0.3-4,0.3c-3,0-5-1.6-4.8-4.5c0.5-6.5-4-8.9-8.6-11.3
		c-4.7-2.3-9.5-2.5-14,0.2c-1.8,1.1-3.2,3.4-3.9,5.4c-2.7,7.7-7.4,9.8-14.7,6.1c-7.8-4-13.4-10.2-17.5-17.8c-0.7-1.3-1.2-2.9-2-4.1
		c-1.3-1.8-2.9-3.4-4.7-5.5c2-7.1,6.5-13.6,11.8-19.6c0.7-0.8,1.4-1.5,2.2-2.2c1.2-1.2,2.6-1.4,4.2-0.7c2,0.8,4.2,1.1,6,2.2
		c2.2,1.3,4.2,2.8,5.9,4.7c4.4,4.8,9.7,7.7,16.1,8.7c4.4,0.7,5.8-0.1,7.8-4c1.5-3,4-4.6,6.7-3.7c5.5,1.9,11.1,3.9,14.5,9.1
		c2.1,3.2,4.3,6.4,6.1,9.7c3.6,6.6,9.4,9.8,16.6,10.8C308,316.7,308.8,316.9,310,317.1z"/>
	<path d="M391.6,279c-1.9,2-6.5,2.2-8.8,0.4c-2.7-2.3-8.6-1.6-10.6,1.4c-0.5,0.8-0.5,2.2-0.3,3.1c0.4,1.9,1.4,3.8,1.8,5.7
		c1,4.1,0.6,7.9-2.4,11.2c-0.8,0.9-1.4,2-1.8,3.1c-1.5,3.7-0.9,5.3,2.9,6.6c3.8,1.3,6.5,4.1,9,7c0.9,1,1.1,2.8,1.4,4.2
		c0.8,3.4,2.1,4.1,5.3,2.7c1.8-0.8,3.5-2,5.8-0.9c1.3,0.7,4.9-2.4,5.2-4.6c0.6-5.2,2.3-10.6-1.5-15.5c-1.3-1.8-0.3-3.2,0.9-4.4
		c2.6-2.7,4.7-5.6,5.9-9.2c1.1-3.3,1.9-6.6-0.6-10c8.1,0.9,16.2,0.3,24.1,3.8c-2.8,0.8-5.1,1.4-7.4,2.1c-4.6,1.4-7.2,4.2-7.3,9.4
		c0,2.6-1.4,5.2-2.2,7.8c-1.4,4.5-3.1,8.9-4.4,13.4c-1,3.6-2.8,6.4-5.8,8.5c-7.5,5.1-15.9,6.5-24.7,6.2c-0.7,0-1.6-0.8-1.9-1.4
		c-2.6-6-6.6-10.8-11.2-15.3c-3.7-3.6-3.5-8.9-3.4-13.8c0.1-2.5,0.1-5.1,0.1-7.6c0-1.2-0.2-2.4,0.1-3.6c0.8-3.7-0.3-6.3-3.5-8.6
		c-2-1.4-3-4.1-2.1-6.9c0-0.2,0.1-0.3,0.2-0.5c1.6-5.4,1.6-5.5,7.3-5.3c6,0.2,11.6,1.3,16.9,4.6C382.7,275.1,387.3,276.9,391.6,279z
		"/>
	<path d="M302.8,292.5c3.5,0.7,5.2-1.3,7.1-3.7c2.8-3.5,6.3-6.4,9.6-9.6c0.9-0.8,1.7-0.5,2.9,0c5.6,2,7.3,6.3,7.6,11.5
		c0.3,4.6,2.5,7.9,5.7,10.9c3.3,3,6.4,6.3,9.4,9.5c3.6,3.9,3.9,8.8,3.9,13.7c0,1.5-0.9,2.1-2.2,1.8c-1.7-0.4-3.3-1-4.9-1.8
		c-3.3-1.6-6.3-3.5-8-7.2c-0.9-2.1-2.9-3.4-5.3-4.2c-3.5-1.1-5.3-4.1-7.1-7.1c-0.9-1.5-1.8-3.1-3.2-4.1c-4.2-3-8-6.6-13.3-7.8
		c-0.9-0.2-1.7-0.9-2.6-1.4C302.7,293,302.8,292.8,302.8,292.5z"/>
	<path fill="#FFFFFF" d="M332.4,355.2c-6.9,10-7.8,20.1,0.2,29.7c6.7,8.1,15.8,10.5,25.8,7.6c11.3-3.2,17.2-11.3,18.1-23.5
		c6.2,4.2,12.2,8.2,14,15.8c1.2,5.2-1.3,9-5.4,11.9c-5.4,3.8-11.6,5.4-18,6.1c-23.8,2.6-46.6-1.3-67.9-12.5c-4-2.1-7.6-5-11.1-7.9
		c-1.8-1.5-3.3-3.5-4.4-5.6c-3.2-5.5-2.2-11.1,3-14.9c2.9-2.1,6.2-3.8,9.6-4.8c11.3-3.6,23-3.5,34.7-2.3
		C331.4,354.8,331.8,355,332.4,355.2z"/>
	<path fill="#FFFFFF" d="M189,337.1c0.3,0.1,1.3,0.1,2.1,0.5c5.4,2.2,9.8,5.6,13.1,10.4c1.4,2.1,2.5,4.4,0.8,6.9
		c-1.7,2.5-4.3,3-6.8,2c-4.8-1.9-9.6-3.8-14.1-6.3c-3-1.6-3.9-5.5-2.9-8.7C182.2,339,184.9,337.1,189,337.1z"/>
	<path fill="#FFFFFF" d="M360.2,380.6c5.5-6,5.8-12,0.2-18.1c0.1-0.2,0.3-0.3,0.4-0.5c2.2,0.8,4.3,1.6,6.5,2.4c5,1.8,5.2,2.3,3,7.1
		C368.3,375.9,365,378.9,360.2,380.6z"/>
</g>
</svg>
