<?xml version="1.0" encoding="utf-8"?>
<!-- Generator: Adobe Illustrator 18.1.1, SVG Export Plug-In . SVG Version: 6.00 Build 0)  -->
<svg version="1.1" baseProfile="basic" id="Layer_1"
	 xmlns="http://www.w3.org/2000/svg" xmlns:xlink="http://www.w3.org/1999/xlink" x="0px" y="0px" viewBox="0 0 612 792"
	 xml:space="preserve">
<g>
	<path d="M375.6,317.9c0,0.4,0.1,0.8,0.1,1.3c0,9.7,0,19.4,0,29.1c0,0.5,0,0.9,0,1.5c-0.7,0-1.3,0-1.9,0c-30.8,0-61.6,0-92.4,0
		c-4.4,0-8.7,0.6-12.6,3c-4.5,2.7-7.1,6.6-6.9,12.1c0.2,4.6,0,9.2,0,13.7c0,0.5,0,0.9,0,1.5c37.9,0,75.7,0,113.7,0
		c0,0.7,0,1.3,0,1.9c0,18.7-0.1,37.5,0,56.2c0.1,9.7-3.9,17.4-11,23.6c-8.3,7.2-18.1,10.9-28.9,12.1c-3.3,0.4-6.6,0.4-9.9,0.4
		c-38.7,0-77.4,0-116.2,0c-0.6,0-1.2,0-1.8,0c0-10.7,0-21.2,0-31.9c0.6,0,1.1,0,1.6,0c31,0,62.1,0,93.1,0c4.7,0,9.2-1,13.1-3.7
		c3.7-2.6,5.9-6,5.8-10.8c-0.1-4.8,0-9.7,0-14.5c0-0.5,0-1,0-1.6c-37.9,0-75.7,0-113.7,0c0-0.6,0-1.2,0-1.7
		c0-18.4,0.2-36.7-0.1-55.1c-0.1-10.7,4.1-19,12.1-25.6c6.9-5.7,14.9-9,23.6-10.5c2.6-0.5,5.2-0.7,7.8-1.1
		C292.7,317.9,334.1,317.9,375.6,317.9z"/>
	<path d="M557.2,317.9c0,0.6,0.1,1.3,0.1,1.9c0,39.2-0.1,78.4,0.1,117.7c0,10.8-4.4,19.1-12.6,25.7c-7.9,6.4-17.2,9.7-27.2,10.8
		c-3.2,0.4-6.5,0.4-9.8,0.4c-38.7,0-77.4,0-116,0c-0.5,0-1.1,0-1.7,0c0-52,0-103.9,0-155.9c17.8,0,35.5,0,53.5,0
		c0,41.4,0,82.7,0,124.2c0.3,0,0.5,0.1,0.7,0.1c14.1,0,28.2,0,42.3-0.1c4.7,0,8.9-1.7,12.5-4.8c2.7-2.4,4.3-5.3,4.3-9
		c0-36.7,0-73.5,0-110.2c0-0.3,0-0.5,0-0.8C521.3,317.9,539.3,317.9,557.2,317.9z"/>
	<path d="M108.2,317.9c0,0.5-0.1,1-0.1,1.5c0,40.5,0,81.1,0,121.6c0,0.5,0,1.1,0,1.8c29,0,57.8,0,86.7,0c0,10.6,0,21,0,31.6
		c-0.6,0-1.2,0-1.8,0c-45.7,0-91.3,0-137,0c-0.6,0-1.2,0-1.8,0.1c0-52.2,0-104.3,0-156.5C72.2,317.9,90.2,317.9,108.2,317.9z"/>
</g>
</svg>
