<?xml version="1.0" encoding="utf-8"?>
<!-- Generator: Adobe Illustrator 20.0.0, SVG Export Plug-In . SVG Version: 6.00 Build 0)  -->
<svg version="1.1" baseProfile="basic" id="Layer_1"
	 xmlns="http://www.w3.org/2000/svg" xmlns:xlink="http://www.w3.org/1999/xlink" x="0px" y="0px" viewBox="0 0 1224 792"
	 xml:space="preserve">
<g>
	<path d="M586.5,419.5c0,9.7,0,18.6,0,27.6c0,2.8,0.1,5.7-0.1,8.5c-0.8,9.7-8.4,16.3-17.7,15.9c-9.2-0.4-15.9-7.4-16.1-17
		c-0.1-9.7,0-19.3,0-29c0-1.8-0.1-3.6-0.2-5.6c-1.3-0.1-2.2-0.3-3.2-0.3c-6.5,0-13,0-20.1,0c0,10.6,0,20.9,0,31.2
		c0,2.6-0.1,5.4-0.7,7.9c-2.1,8.5-9.7,13.7-18.3,12.8c-8.2-0.9-14.7-7.6-15-16.1c-0.3-9.8-0.1-19.7-0.1-29.5c0-1.8,0-3.6,0-6.3
		c-3.9,0-7.5,0.1-11.1,0c-11.3-0.3-15.9-5.1-15.9-16.4c0-36.5,0-73,0-109.4c0-1.7,0-3.3,0-5.4c48.4,0,96.6,0,145.4,0
		c0.1,1.6,0.3,3.4,0.3,5.1c0,36.8,0,73.6,0,110.4c0,10.4-4.8,15.3-15.2,15.6C594.7,419.6,591,419.5,586.5,419.5z"/>
	<path d="M575.9,227.3c21.2,11.1,34.6,27.2,37.4,51.5c-48.7,0-96.9,0-145.9,0c2.5-24.2,16.2-40.1,37.2-51.5
		c-3.2-4.7-6.4-9.3-9.5-13.9c-0.8-1.2-2.2-2.4-2.4-3.7c-0.3-1.7,0.2-3.5,0.4-5.2c1.6,0.5,3.7,0.6,4.6,1.7c3.6,4.7,7.1,9.7,10.3,14.7
		c1.8,2.9,3.4,3.8,7.1,2.7c17-5.3,34.1-5.4,51,0.2c2.8,0.9,4.4,0.7,6.1-2c3.2-5.2,6.8-10.3,10.6-15.1c1-1.2,3.4-1.3,5.2-1.9
		c0,1.8,0.6,4-0.2,5.3C584.1,215.7,580,221.3,575.9,227.3z M517,250c-0.1-3.7-3.5-7-7.1-7c-3.7,0-7,3.3-7,7c0,4,3.3,7.3,7.3,7.1
		C514.1,257,517.1,253.8,517,250z M578.8,250.2c0-3.6-3.3-7.1-6.9-7.1c-3.9-0.1-7.3,3.3-7.2,7.3c0.1,3.9,3.2,6.8,7.1,6.8
		C575.6,257.1,578.8,253.9,578.8,250.2z"/>
	<path d="M425.8,336.5c0-10.6-0.1-21.3,0-31.9c0.1-9.7,7-17,16.2-17.3c9.4-0.3,17.5,6.7,17.6,16.6c0.3,21.8,0.3,43.6,0,65.4
		c-0.1,9.8-7.9,17-17.4,16.8c-9.5-0.2-16.5-7.5-16.5-17.6C425.8,357.8,425.8,347.1,425.8,336.5z"/>
	<path d="M621,336.7c0-10.6,0-21.3,0-31.9c0-10.1,7.4-17.6,17.1-17.6c9.4,0,16.8,7.5,16.9,17.3c0.1,21.3,0.1,42.6,0,63.9
		c0,10.1-7.5,17.7-17.1,17.6c-9.7-0.1-16.8-7.5-16.8-17.8C621,357.7,621,347.2,621,336.7z"/>
	<path d="M400.2,513.2c0,16.6,0,33.1,0,49.8c-3.2,0-6.1,0-9.6,0c0-13.2,0-26.3,0-39.8c-8,0-15.5-0.7-22.8,0.2
		c-7.7,0.9-13.2,8.4-12.7,15.5c0.5,7.2,6.7,13.5,14.5,14.1c3.3,0.3,6.6,0,10.3,0c0,3.4,0,6.3,0,9.7c-11.2,1.6-21.7,0.2-29.6-9.3
		c-6.4-7.7-7.5-16.6-3.3-25.7c3.8-8.1,10.6-13.5,19.2-14.3C377.3,512.4,388.7,513.2,400.2,513.2z"/>
	<path d="M645,537.4c-0.1,14.5-11,25.8-24.9,25.8c-14.1,0-25.2-11.5-25.1-26.2c0.1-14.5,11.4-26,25.5-25.9
		C634.1,511.3,645.1,523,645,537.4z M619.9,520.8c-8.7,0-15.9,7.5-15.9,16.4c0,8.9,7.3,16.5,15.9,16.6c8.8,0.1,16.2-7.6,16.1-16.8
		C635.9,528,628.7,520.8,619.9,520.8z"/>
	<path d="M421.5,562.9c-3.4,0-6.2,0-8.9,0c0-11.2-1.2-22.4,0.3-33.3c1.7-12.7,13.6-19.7,28.2-18.8c12.5,0.8,22.2,9.6,23.1,22.1
		c0.6,9.9,0.1,19.9,0.1,30c-3.4,0-6.3,0-9.6,0c0-6.4,0-12.5,0-18.6c0-3.8,0.2-7.7-0.3-11.4c-1.1-8.2-8-14-16.2-14
		c-8.4,0-15.6,6.1-16.2,14.5c-0.6,7.8-0.3,15.6-0.4,23.4C421.5,558.8,421.5,560.8,421.5,562.9z"/>
	<path d="M577.5,545.7c1.7,5.9,3.3,11.1,5.1,17.1c-4.3,0-7.2,0-10.6,0c0-1.1,0-2.3,0-3.4c-0.3-6.8-4.2-10.7-11.1-10.9
		c-7.5-0.2-14.9,0-22.7,0c0-3.1,0-5.6,0-9c5.6,0,11.2,0.1,16.7,0c3.8-0.1,7.7-0.1,11.5-0.5c5.2-0.5,7.6-3.3,7.7-8.1
		c0-4.8-2.4-7.7-7.7-7.9c-9.3-0.3-18.6-0.1-28.4-0.1c0-3.4,0-6.4,0-9.5c11,0,22.1-0.4,33.1,0.2c5.9,0.3,10.4,4.1,11.6,10.1
		c1.4,7.1,2.2,14.3-3.5,20.2C578.4,544.9,577.5,545.6,577.5,545.7z"/>
	<path d="M681.2,563.1c0-3.4,0-6.4,0-9.9c7.7,0,15.4-0.4,22.9,0.1c14.8,0.9,18.4-14.1,14.5-22.9c-2.3-5.3-6.8-7.5-12.4-7.5
		c-8.1,0-16.2,0-24.7,0c0-3.4,0-6.3,0-9c10.5,0,21.3-1.4,31.5,0.4c11.9,2,17.8,13.8,16.1,27.6c-1.4,12.2-10.2,20.8-21.9,21.3
		C698.8,563.4,690.3,563.1,681.2,563.1z"/>
	<path d="M477.1,563.2c0-3.5,0-6.4,0-10c8,0,15.8-0.1,23.5,0c6.1,0.1,10.8-2.1,13.4-7.7c2.8-6,3.2-12.4-1.2-17.4
		c-2.4-2.8-6.9-4.8-10.6-5.1c-8.1-0.8-16.2-0.2-24.7-0.2c0-3.4,0-6.4,0-9.7c9.7,0,19.3-0.8,28.8,0.2c11.9,1.2,19.5,12.3,18.9,25.9
		c-0.5,13-9.1,22.7-21.1,23.8c-1.5,0.1-3,0.1-4.5,0.1C492.3,563.2,485,563.2,477.1,563.2z"/>
	<path d="M668.6,513.1c0,16.7,0,32.9,0,49.6c-3.2,0-6.2,0-9.5,0c0-16.5,0-32.9,0-49.6C662.2,513.1,665.1,513.1,668.6,513.1z"/>
	<path fill="#FFFFFF" d="M510.2,257.1c-4,0.2-7.3-3.1-7.3-7.1"/>
	<path fill="#FFFFFF" d="M578.8,250.2"/>
	<path fill="#FFFFFF" d="M564.7,250.4"/>
</g>
</svg>
