<?xml version="1.0" encoding="utf-8"?>
<!-- Generator: Adobe Illustrator 18.1.1, SVG Export Plug-In . SVG Version: 6.00 Build 0)  -->
<svg version="1.1" baseProfile="basic" id="Layer_1"
	 xmlns="http://www.w3.org/2000/svg" xmlns:xlink="http://www.w3.org/1999/xlink" x="0px" y="0px" viewBox="0 0 612 792"
	 xml:space="preserve">
<g>
	<path fill="#FFFFFF" d="M53.9,310c61.4,0,122.7,0,184.1,0c-1.4,0.4-2.8,0.9-4.2,1.3c-13.5,3.8-24,11.2-28.8,24.8
		c-5.8,16.6-10.9,33.5-16.3,50.2c-9.3,28.9-18.5,57.7-27.7,86.6c-0.7,2.1-1,4.3-1.6,7c11.4,0,22.2,0.1,32.9-0.1c1,0,2.6-1.8,3-3
		c13.1-41.1,26.2-82.3,39.2-123.5c1.4-4.6,3.5-8.2,8.9-8.2c5.4-0.1,7.7,3.5,9.1,8.1c3.5,11.2,6.9,22.4,10.5,33.6
		c9.2,28.9,18.7,57.7,27.6,86.7c1.7,5.5,3.9,6.8,9.3,6.7c33-0.3,65.9-0.2,98.9-0.1c9.4,0,18.1-1.6,26.6-6.3
		c20.1-11,30.2-33.2,25.1-56c-4.7-21.2-26.5-38.1-47.5-38.2c-13.7-0.1-27.4,0-41.1,0c-5.4,0-10-1.6-13.3-6
		c-3.7-4.9-4.2-10.2-1.6-15.7c2.8-5.8,7.8-8.6,14.3-8.6c25.3,0,50.6,0,75.9,0c1.9,0,3.8,0,6,0c0-11.7,0-22.9,0-34.3
		c-1.3-0.2-2.4-0.4-3.5-0.4c-26.4,0-52.9-0.3-79.3,0.1c-18.9,0.3-33.3,8.9-42.4,25.8c-8.5,15.9-8.5,32.2-0.3,47.8
		c8.7,16.6,23.2,25.3,42.1,25.7c13.9,0.3,27.7,0.1,41.6,0.1c7.2,0,12.8,2.8,15.6,9.6c4.5,10.7-3,21.6-14.9,21.7
		c-26.6,0.1-53.2-0.1-79.8,0.1c-4.2,0-5.9-1.4-7.1-5.3c-10-32.2-20.5-64.3-30.4-96.6c-5.3-17.4-15.8-28.9-34-32.7
		c-0.4-0.1-0.8-0.5-1.2-0.8c89.8,0,179.6,0,269.3,0c-1.5,0.5-3,1.1-4.6,1.5c-13.1,3.8-23.3,11.2-27.9,24.4
		c-5.9,16.9-11.2,34.1-16.6,51.1c-9.2,28.5-18.3,57.1-27.4,85.6c-0.7,2.2-1.2,4.5-2,7.3c9.2,0,17.5,0,25.8,0c9.2,0,9.2,0,12-8.8
		c9.8-30.9,19.6-61.8,29.4-92.7c2.9-9,5.8-18,8.7-27c1.3-3.9,3.9-6.4,8.2-6.5c4.6-0.1,7.2,2.4,8.7,6.5c0.5,1.4,0.9,2.8,1.4,4.2
		c11.8,37.1,23.6,74.2,35.4,111.3c1.3,4.2,1.6,10,4.5,12c3.2,2.2,8.8,0.9,13.3,0.9c6.9,0.1,13.9,0,21.5,0c-1.3-4.5-2.3-8.1-3.5-11.6
		c-13.4-42.1-26.9-84.1-40.2-126.2c-5.3-16.9-15.9-27.6-33.4-31.3c-0.6-0.1-1.1-0.6-1.7-0.9c29,0,58.1,0,87.1,0
		c0,58.1,0,116.1,0,174.3c-162.5,0-325.1,0-487.7,0c0.4-0.3,0.8-0.7,1.2-0.7c21.2-3.3,35.9-26.4,35.5-45.8
		c-1-39.1-0.3-78.3-0.3-117.4c0-1.8,0-3.5,0-5.6c-11.3,0-22.2,0-33.5,0c0,2.2,0,4.2,0,6.1c0,39,0.1,78-0.2,117
		c0,3.4-1.5,7.6-3.8,9.8c-4.9,4.6-11.5,1.1-13.6-6.6c-8.9-32.4-17.8-64.7-26.5-97.1c-4.7-17.7-15.4-29-33.5-33
		C54.9,310.7,54.4,310.3,53.9,310z"/>
	<path d="M249.7,310c0.4,0.3,0.7,0.7,1.2,0.8c18.2,3.7,28.6,15.2,34,32.7c9.9,32.3,20.4,64.3,30.4,96.6c1.2,3.9,2.9,5.3,7.1,5.3
		c26.6-0.2,53.2,0,79.8-0.1c11.9,0,19.3-11,14.9-21.7c-2.9-6.8-8.5-9.6-15.6-9.6c-13.9,0-27.8,0.2-41.6-0.1
		c-18.9-0.4-33.4-9.1-42.1-25.7c-8.2-15.7-8.2-31.9,0.3-47.8c9.1-17,23.5-25.6,42.4-25.8c26.4-0.4,52.9-0.1,79.3-0.1
		c1.1,0,2.2,0.3,3.5,0.4c0,11.4,0,22.6,0,34.3c-2.2,0-4.1,0-6,0c-25.3,0-50.6,0-75.9,0c-6.5,0-11.4,2.7-14.3,8.6
		c-2.6,5.4-2.1,10.8,1.6,15.7c3.3,4.4,7.9,6,13.3,6c13.7,0,27.4-0.1,41.1,0c21,0.2,42.8,17,47.5,38.2c5.1,22.8-5.1,45-25.1,56
		c-8.5,4.7-17.2,6.3-26.6,6.3c-33-0.1-65.9-0.2-98.9,0.1c-5.4,0-7.6-1.2-9.3-6.7c-8.8-29-18.3-57.8-27.6-86.7
		c-3.6-11.2-7-22.4-10.5-33.6c-1.4-4.5-3.7-8.1-9.1-8.1c-5.4,0.1-7.5,3.7-8.9,8.2c-13,41.2-26,82.4-39.2,123.5c-0.4,1.2-1.9,3-3,3
		c-10.7,0.2-21.5,0.1-32.9,0.1c0.6-2.7,0.9-4.9,1.6-7c9.2-28.9,18.5-57.8,27.7-86.6c5.4-16.8,10.5-33.6,16.3-50.2
		c4.7-13.6,15.3-21.1,28.8-24.8c1.4-0.4,2.8-0.8,4.2-1.3C241.9,310,245.8,310,249.7,310z"/>
	<path d="M53.9,310c0.6,0.3,1.1,0.8,1.7,0.9c18.1,3.9,28.8,15.3,33.5,33c8.7,32.4,17.6,64.8,26.5,97.1c2.1,7.7,8.8,11.1,13.6,6.6
		c2.3-2.2,3.8-6.5,3.8-9.8c0.3-39,0.2-78,0.2-117c0-1.9,0-3.9,0-6.1c11.3,0,22.2,0,33.5,0c0,2.1,0,3.9,0,5.6
		c0,39.2-0.7,78.3,0.3,117.4c0.5,19.4-14.3,42.5-35.5,45.8c-0.4,0.1-0.8,0.5-1.2,0.7c-3.9,0-7.8,0-11.8,0c-0.4-0.3-0.8-0.7-1.2-0.8
		c-18.6-4.1-29.4-16.3-34.4-34.1C77.4,429.6,72,409.8,66.6,390c-3.5-12.7-7-25.5-10.4-38.2c-1-3.7-3.2-6.6-6.9-6.5
		c-2.8,0-6.2,1.3-8,3.2c-1.6,1.7-2,5.1-2,7.7c-0.1,39.2-0.1,78.3-0.1,117.5c0,1.9,0,3.8,0,6.2c-10.8,0-21.1,0.1-31.3-0.2
		c-0.9,0-2.4-2.7-2.4-4.1c-0.1-40.5-0.3-80.9,0-121.4c0.1-22.6,12.8-38,35-43.3c0.6-0.1,1.1-0.6,1.7-0.8C46,310,49.9,310,53.9,310z"
		/>
	<path d="M530.8,310c0.6,0.3,1.1,0.7,1.7,0.9c17.5,3.7,28.1,14.4,33.4,31.3c13.2,42.1,26.8,84.1,40.2,126.2
		c1.1,3.5,2.1,7.1,3.5,11.6c-7.7,0-14.6,0.1-21.5,0c-4.5-0.1-10.1,1.3-13.3-0.9c-2.9-2-3.2-7.8-4.5-12
		c-11.8-37.1-23.6-74.2-35.4-111.3c-0.4-1.4-0.9-2.8-1.4-4.2c-1.5-4.1-4.2-6.6-8.7-6.5c-4.3,0.1-6.9,2.6-8.2,6.5
		c-2.9,9-5.9,18-8.7,27c-9.8,30.9-19.6,61.8-29.4,92.7c-2.8,8.8-2.8,8.8-12,8.8c-8.3,0-16.6,0-25.8,0c0.7-2.8,1.2-5,2-7.3
		c9.1-28.6,18.3-57.1,27.4-85.6c5.5-17.1,10.8-34.2,16.6-51.1c4.6-13.2,14.8-20.6,27.9-24.4c1.5-0.4,3-1,4.6-1.5
		C523,310,526.9,310,530.8,310z"/>
	<path fill="#FFFFFF" d="M42.1,310c-0.6,0.3-1.1,0.7-1.7,0.8c-22.1,5.4-34.9,20.7-35,43.3c-0.2,40.5-0.1,80.9,0,121.4
		c0,1.4,1.5,4.1,2.4,4.1c10.2,0.3,20.5,0.2,31.3,0.2c0-2.4,0-4.3,0-6.2c0-39.2,0-78.3,0.1-117.5c0-2.6,0.4-6,2-7.7
		c1.9-1.9,5.3-3.2,8-3.2c3.7-0.1,6,2.9,6.9,6.5c3.5,12.7,7,25.5,10.4,38.2c5.4,19.8,10.8,39.6,16.3,59.4c5,17.9,15.7,30,34.4,34.1
		c0.4,0.1,0.8,0.5,1.2,0.8c-39.1,0-78.2,0-117.4,0c0-58.1,0-116.2,0-174.3C14.7,310,28.4,310,42.1,310z"/>
</g>
</svg>
